<svg width="189" height="72" viewBox="0 0 189 72" fill="none" xmlns="http://www.w3.org/2000/svg">
<g filter="url(#filter0_d_393_3481)">
<rect x="2" width="185" height="69.56" rx="22.2" fill="#545351"/>
<g filter="url(#filter1_d_393_3481)">
<rect x="156.907" y="20.2267" width="25.16" height="24.9133" rx="4.93333" fill="#43BFC1"/>
<g filter="url(#filter2_d_393_3481)">
<path d="M175.406 25.2201C175.406 25.0625 175.261 24.9454 175.107 24.9792L167.005 26.7598C166.892 26.7846 166.812 26.8848 166.812 27.0007V36.104C166.812 36.4351 166.611 36.7323 166.3 36.8415C166.019 36.94 165.639 37.0659 165.2 37.1918C164.26 37.4617 163.32 37.7855 163.32 39.0809C163.32 40.7 164.663 40.7 165.2 40.7C165.737 40.7 167.752 40.4301 167.752 38.0014V29.9697C167.752 29.8536 167.833 29.7532 167.946 29.7286L174.302 28.3513C174.456 28.318 174.601 28.4351 174.601 28.5924V34.4849C174.601 34.8159 174.4 35.1132 174.089 35.2223C173.808 35.3208 173.428 35.4468 172.989 35.5727C172.049 35.8426 171.109 36.1664 171.109 37.4617C171.109 39.0809 172.452 39.0809 172.989 39.0809C173.526 39.0809 175.406 38.811 175.406 36.3823V25.2201Z" fill="white"/>
</g>
</g>
<g filter="url(#filter3_d_393_3481)">
<path d="M127.06 25.16C127.06 22.4354 129.269 20.2267 131.993 20.2267H147.04C149.765 20.2267 151.973 22.4354 151.973 25.16V40.2067C151.973 42.9313 149.765 45.14 147.04 45.14H131.993C129.269 45.14 127.06 42.9313 127.06 40.2067V25.16Z" fill="#43BFC1"/>
<g filter="url(#filter4_d_393_3481)">
<path fill-rule="evenodd" clip-rule="evenodd" d="M134.138 38.2189C132.657 38.0724 131.5 36.8269 131.5 35.3123C131.5 33.8948 132.513 32.7132 133.857 32.4472C133.849 32.3322 133.845 32.2161 133.845 32.0991C133.845 29.3566 136.075 27.1333 138.827 27.1333C140.848 27.1333 142.588 28.333 143.37 30.0569C145.568 30.1339 147.326 31.9342 147.326 34.1438C147.326 36.3041 145.645 38.0732 143.516 38.223V38.2333H134.439C134.436 38.2333 134.433 38.2333 134.431 38.2333C134.428 38.2333 134.425 38.2333 134.423 38.2333H134.138V38.2189Z" fill="white" fill-opacity="0.9" shape-rendering="crispEdges"/>
</g>
</g>
<g filter="url(#filter5_d_393_3481)">
<rect x="96.9668" y="20.2267" width="25.16" height="24.9133" rx="4.93333" fill="#43BFC1"/>
<g filter="url(#filter6_d_393_3481)">
<path d="M104.367 32.6733C104.367 33.6417 104.564 34.5014 104.96 35.2525C105.36 36.0035 105.916 36.6063 106.627 37.0609C107.339 37.5105 108.167 37.7749 109.11 37.854V39.5808H106.361C106.202 39.5808 106.069 39.6352 105.96 39.7439C105.852 39.8526 105.797 39.986 105.797 40.1441C105.797 40.2973 105.852 40.4282 105.96 40.5369C106.069 40.6456 106.202 40.7 106.361 40.7H112.98C113.138 40.7 113.271 40.6456 113.38 40.5369C113.488 40.4282 113.543 40.2973 113.543 40.1441C113.543 39.986 113.488 39.8526 113.38 39.7439C113.271 39.6352 113.138 39.5808 112.98 39.5808H110.23V37.854C111.173 37.7749 112.001 37.5105 112.713 37.0609C113.424 36.6063 113.978 36.0035 114.373 35.2525C114.773 34.5014 114.973 33.6417 114.973 32.6733V31.1687C114.973 31.0155 114.919 30.8846 114.81 30.7759C114.702 30.6672 114.571 30.6128 114.417 30.6128C114.259 30.6128 114.126 30.6672 114.017 30.7759C113.908 30.8846 113.854 31.0155 113.854 31.1687V32.6288C113.854 33.4688 113.681 34.205 113.335 34.8374C112.989 35.4699 112.503 35.9615 111.875 36.3123C111.253 36.6582 110.519 36.8312 109.674 36.8312C108.829 36.8312 108.092 36.6582 107.465 36.3123C106.837 35.9615 106.351 35.4699 106.005 34.8374C105.659 34.205 105.486 33.4688 105.486 32.6288V31.1687C105.486 31.0155 105.432 30.8846 105.323 30.7759C105.214 30.6672 105.081 30.6128 104.923 30.6128C104.769 30.6128 104.638 30.6672 104.53 30.7759C104.421 30.8846 104.367 31.0155 104.367 31.1687V32.6733ZM109.674 35.2377C110.163 35.2377 110.593 35.124 110.963 34.8967C111.339 34.6694 111.628 34.3557 111.831 33.9555C112.038 33.5503 112.142 33.0834 112.142 32.5547V27.5963C112.142 27.0676 112.038 26.6032 111.831 26.2029C111.628 25.7978 111.339 25.4816 110.963 25.2543C110.593 25.027 110.163 24.9133 109.674 24.9133C109.18 24.9133 108.747 25.027 108.377 25.2543C108.006 25.4816 107.717 25.7978 107.509 26.2029C107.302 26.6032 107.198 27.0676 107.198 27.5963V32.5547C107.198 33.0834 107.302 33.5503 107.509 33.9555C107.717 34.3557 108.006 34.6694 108.377 34.8967C108.747 35.124 109.18 35.2377 109.674 35.2377Z" fill="#F2EEEB"/>
</g>
</g>
<g filter="url(#filter7_d_393_3481)">
<rect x="66.8735" y="20.2267" width="25.16" height="24.9133" rx="4.93333" fill="#43BFC1"/>
<g filter="url(#filter8_d_393_3481)">
<path fill-rule="evenodd" clip-rule="evenodd" d="M80.1832 33.7292C80.1832 34.0687 79.9082 34.3436 79.5687 34.3436C79.2292 34.3436 78.9542 34.0687 78.9542 33.7292C78.9542 33.3897 79.2292 33.1147 79.5687 33.1147C79.9082 33.1147 80.1832 33.3897 80.1832 33.7292V33.7292ZM78.5416 32.1024V33.7163C78.5416 34.2834 79.0016 34.7429 79.5687 34.7429C80.1358 34.7429 80.5959 34.2834 80.5959 33.7163V32.1024C80.5959 31.5346 80.1358 31.0752 79.5687 31.0752C79.0016 31.0752 78.5416 31.5346 78.5416 32.1024V32.1024ZM79.7231 26.553H82.6448C82.6448 27.333 82.6442 27.9443 81.8753 29.014C81.267 29.8603 81.2092 30.2251 81.2092 31.1661V38.3933V39.6241V39.7773C81.2092 40.2872 80.7965 40.6999 80.2866 40.6999H78.8516C78.3417 40.6999 77.9289 40.2872 77.9289 39.7773V39.6241V38.3933V31.1661C77.9289 30.2251 77.8711 29.8603 77.2622 29.014C76.494 27.9443 76.4934 27.333 76.4934 26.553H79.4156H79.7231ZM76.4932 25.2209C76.4932 25.0511 76.6309 24.9133 76.8007 24.9133H82.3371C82.5068 24.9133 82.6446 25.0511 82.6446 25.2209V25.9381H76.4932V25.2209Z" fill="#F2EEEB"/>
</g>
</g>
<g filter="url(#filter9_d_393_3481)">
<rect x="37.0269" y="20.2267" width="24.9133" height="24.9133" rx="4.93333" fill="#43BFC1"/>
<g filter="url(#filter10_d_393_3481)">
<path fill-rule="evenodd" clip-rule="evenodd" d="M42.3564 29.3757C42.1073 29.0392 41.96 28.6227 41.96 28.1719C41.96 27.0534 42.8667 26.1466 43.9853 26.1466C44.3865 26.1466 44.7606 26.2633 45.0752 26.4646C43.9399 27.1864 43.001 28.1895 42.3564 29.3757ZM55.7616 33.1506C55.7616 36.7096 52.8765 39.5948 49.3174 39.5948C45.7584 39.5948 42.8733 36.7096 42.8733 33.1506C42.8733 29.5916 45.7584 26.7064 49.3174 26.7064C52.8765 26.7064 55.7616 29.5916 55.7616 33.1506ZM49.8847 34.0639H46.7473V32.9518H48.78V29.0927H49.8847V34.0639ZM54.6643 26.1467C54.2599 26.1467 53.8832 26.2652 53.567 26.4694C54.7026 27.1932 55.6413 28.1986 56.2846 29.3872C56.5389 29.0487 56.6896 28.6279 56.6896 28.172C56.6896 27.0534 55.7828 26.1467 54.6643 26.1467Z" fill="#F2EEEB"/>
</g>
</g>
<g filter="url(#filter11_d_393_3481)">
<rect x="6.93359" y="20.2267" width="25.16" height="24.9133" rx="4.93333" fill="#43BFC1"/>
<g clip-path="url(#clip0_393_3481)" filter="url(#filter12_d_393_3481)">
<g filter="url(#filter13_d_393_3481)">
<path d="M11.4043 27.935L17.5787 32.7373H21.6949L27.8693 27.935M19.0315 24.691L11.2025 27.0999C10.9147 27.1885 10.7183 27.4544 10.7183 27.7556V38.2256C10.7183 38.9834 11.3326 39.5977 12.0903 39.5977H27.1833C27.941 39.5977 28.5553 38.9834 28.5553 38.2256V27.7556C28.5553 27.4544 28.3589 27.1885 28.0711 27.0999L20.2421 24.691C19.8477 24.5696 19.4259 24.5696 19.0315 24.691Z" stroke="#F2EEEB" stroke-width="1.37208" stroke-linecap="round" stroke-linejoin="round" shape-rendering="crispEdges"/>
</g>
</g>
</g>
</g>
<defs>
<filter id="filter0_d_393_3481" x="0.956276" y="0" width="187.087" height="71.6475" filterUnits="userSpaceOnUse" color-interpolation-filters="sRGB">
<feFlood flood-opacity="0" result="BackgroundImageFix"/>
<feColorMatrix in="SourceAlpha" type="matrix" values="0 0 0 0 0 0 0 0 0 0 0 0 0 0 0 0 0 0 127 0" result="hardAlpha"/>
<feOffset dy="1.04372"/>
<feGaussianBlur stdDeviation="0.521862"/>
<feComposite in2="hardAlpha" operator="out"/>
<feColorMatrix type="matrix" values="0 0 0 0 0 0 0 0 0 0 0 0 0 0 0 0 0 0 0.25 0"/>
<feBlend mode="normal" in2="BackgroundImageFix" result="effect1_dropShadow_393_3481"/>
<feBlend mode="normal" in="SourceGraphic" in2="effect1_dropShadow_393_3481" result="shape"/>
</filter>
<filter id="filter1_d_393_3481" x="155.863" y="20.2267" width="27.2476" height="27.0008" filterUnits="userSpaceOnUse" color-interpolation-filters="sRGB">
<feFlood flood-opacity="0" result="BackgroundImageFix"/>
<feColorMatrix in="SourceAlpha" type="matrix" values="0 0 0 0 0 0 0 0 0 0 0 0 0 0 0 0 0 0 127 0" result="hardAlpha"/>
<feOffset dy="1.04372"/>
<feGaussianBlur stdDeviation="0.521862"/>
<feComposite in2="hardAlpha" operator="out"/>
<feColorMatrix type="matrix" values="0 0 0 0 0 0 0 0 0 0 0 0 0 0 0 0 0 0 0.25 0"/>
<feBlend mode="normal" in2="BackgroundImageFix" result="effect1_dropShadow_393_3481"/>
<feBlend mode="normal" in="SourceGraphic" in2="effect1_dropShadow_393_3481" result="shape"/>
</filter>
<filter id="filter2_d_393_3481" x="162.333" y="24.9734" width="14.0598" height="17.6999" filterUnits="userSpaceOnUse" color-interpolation-filters="sRGB">
<feFlood flood-opacity="0" result="BackgroundImageFix"/>
<feColorMatrix in="SourceAlpha" type="matrix" values="0 0 0 0 0 0 0 0 0 0 0 0 0 0 0 0 0 0 127 0" result="hardAlpha"/>
<feOffset dy="0.986667"/>
<feGaussianBlur stdDeviation="0.493333"/>
<feComposite in2="hardAlpha" operator="out"/>
<feColorMatrix type="matrix" values="0 0 0 0 0 0 0 0 0 0 0 0 0 0 0 0 0 0 0.25 0"/>
<feBlend mode="normal" in2="BackgroundImageFix" result="effect1_dropShadow_393_3481"/>
<feBlend mode="normal" in="SourceGraphic" in2="effect1_dropShadow_393_3481" result="shape"/>
</filter>
<filter id="filter3_d_393_3481" x="126.016" y="20.2267" width="27.001" height="27.0008" filterUnits="userSpaceOnUse" color-interpolation-filters="sRGB">
<feFlood flood-opacity="0" result="BackgroundImageFix"/>
<feColorMatrix in="SourceAlpha" type="matrix" values="0 0 0 0 0 0 0 0 0 0 0 0 0 0 0 0 0 0 127 0" result="hardAlpha"/>
<feOffset dy="1.04372"/>
<feGaussianBlur stdDeviation="0.521862"/>
<feComposite in2="hardAlpha" operator="out"/>
<feColorMatrix type="matrix" values="0 0 0 0 0 0 0 0 0 0 0 0 0 0 0 0 0 0 0.25 0"/>
<feBlend mode="normal" in2="BackgroundImageFix" result="effect1_dropShadow_393_3481"/>
<feBlend mode="normal" in="SourceGraphic" in2="effect1_dropShadow_393_3481" result="shape"/>
</filter>
<filter id="filter4_d_393_3481" x="130.513" y="27.1333" width="17.7995" height="13.0733" filterUnits="userSpaceOnUse" color-interpolation-filters="sRGB">
<feFlood flood-opacity="0" result="BackgroundImageFix"/>
<feColorMatrix in="SourceAlpha" type="matrix" values="0 0 0 0 0 0 0 0 0 0 0 0 0 0 0 0 0 0 127 0" result="hardAlpha"/>
<feOffset dy="0.986667"/>
<feGaussianBlur stdDeviation="0.493333"/>
<feComposite in2="hardAlpha" operator="out"/>
<feColorMatrix type="matrix" values="0 0 0 0 0 0 0 0 0 0 0 0 0 0 0 0 0 0 0.25 0"/>
<feBlend mode="normal" in2="BackgroundImageFix" result="effect1_dropShadow_393_3481"/>
<feBlend mode="normal" in="SourceGraphic" in2="effect1_dropShadow_393_3481" result="shape"/>
</filter>
<filter id="filter5_d_393_3481" x="95.9231" y="20.2267" width="27.2476" height="27.0008" filterUnits="userSpaceOnUse" color-interpolation-filters="sRGB">
<feFlood flood-opacity="0" result="BackgroundImageFix"/>
<feColorMatrix in="SourceAlpha" type="matrix" values="0 0 0 0 0 0 0 0 0 0 0 0 0 0 0 0 0 0 127 0" result="hardAlpha"/>
<feOffset dy="1.04372"/>
<feGaussianBlur stdDeviation="0.521862"/>
<feComposite in2="hardAlpha" operator="out"/>
<feColorMatrix type="matrix" values="0 0 0 0 0 0 0 0 0 0 0 0 0 0 0 0 0 0 0.25 0"/>
<feBlend mode="normal" in2="BackgroundImageFix" result="effect1_dropShadow_393_3481"/>
<feBlend mode="normal" in="SourceGraphic" in2="effect1_dropShadow_393_3481" result="shape"/>
</filter>
<filter id="filter6_d_393_3481" x="103.38" y="24.9133" width="12.5798" height="17.76" filterUnits="userSpaceOnUse" color-interpolation-filters="sRGB">
<feFlood flood-opacity="0" result="BackgroundImageFix"/>
<feColorMatrix in="SourceAlpha" type="matrix" values="0 0 0 0 0 0 0 0 0 0 0 0 0 0 0 0 0 0 127 0" result="hardAlpha"/>
<feOffset dy="0.986667"/>
<feGaussianBlur stdDeviation="0.493333"/>
<feComposite in2="hardAlpha" operator="out"/>
<feColorMatrix type="matrix" values="0 0 0 0 0 0 0 0 0 0 0 0 0 0 0 0 0 0 0.25 0"/>
<feBlend mode="normal" in2="BackgroundImageFix" result="effect1_dropShadow_393_3481"/>
<feBlend mode="normal" in="SourceGraphic" in2="effect1_dropShadow_393_3481" result="shape"/>
</filter>
<filter id="filter7_d_393_3481" x="65.8298" y="20.2267" width="27.2476" height="27.0008" filterUnits="userSpaceOnUse" color-interpolation-filters="sRGB">
<feFlood flood-opacity="0" result="BackgroundImageFix"/>
<feColorMatrix in="SourceAlpha" type="matrix" values="0 0 0 0 0 0 0 0 0 0 0 0 0 0 0 0 0 0 127 0" result="hardAlpha"/>
<feOffset dy="1.04372"/>
<feGaussianBlur stdDeviation="0.521862"/>
<feComposite in2="hardAlpha" operator="out"/>
<feColorMatrix type="matrix" values="0 0 0 0 0 0 0 0 0 0 0 0 0 0 0 0 0 0 0.25 0"/>
<feBlend mode="normal" in2="BackgroundImageFix" result="effect1_dropShadow_393_3481"/>
<feBlend mode="normal" in="SourceGraphic" in2="effect1_dropShadow_393_3481" result="shape"/>
</filter>
<filter id="filter8_d_393_3481" x="75.5065" y="24.9133" width="8.12519" height="17.76" filterUnits="userSpaceOnUse" color-interpolation-filters="sRGB">
<feFlood flood-opacity="0" result="BackgroundImageFix"/>
<feColorMatrix in="SourceAlpha" type="matrix" values="0 0 0 0 0 0 0 0 0 0 0 0 0 0 0 0 0 0 127 0" result="hardAlpha"/>
<feOffset dy="0.986667"/>
<feGaussianBlur stdDeviation="0.493333"/>
<feComposite in2="hardAlpha" operator="out"/>
<feColorMatrix type="matrix" values="0 0 0 0 0 0 0 0 0 0 0 0 0 0 0 0 0 0 0.25 0"/>
<feBlend mode="normal" in2="BackgroundImageFix" result="effect1_dropShadow_393_3481"/>
<feBlend mode="normal" in="SourceGraphic" in2="effect1_dropShadow_393_3481" result="shape"/>
</filter>
<filter id="filter9_d_393_3481" x="35.9831" y="20.2267" width="27.001" height="27.0008" filterUnits="userSpaceOnUse" color-interpolation-filters="sRGB">
<feFlood flood-opacity="0" result="BackgroundImageFix"/>
<feColorMatrix in="SourceAlpha" type="matrix" values="0 0 0 0 0 0 0 0 0 0 0 0 0 0 0 0 0 0 127 0" result="hardAlpha"/>
<feOffset dy="1.04372"/>
<feGaussianBlur stdDeviation="0.521862"/>
<feComposite in2="hardAlpha" operator="out"/>
<feColorMatrix type="matrix" values="0 0 0 0 0 0 0 0 0 0 0 0 0 0 0 0 0 0 0.25 0"/>
<feBlend mode="normal" in2="BackgroundImageFix" result="effect1_dropShadow_393_3481"/>
<feBlend mode="normal" in="SourceGraphic" in2="effect1_dropShadow_393_3481" result="shape"/>
</filter>
<filter id="filter10_d_393_3481" x="36.0402" y="20.4733" width="26.6398" height="26.64" filterUnits="userSpaceOnUse" color-interpolation-filters="sRGB">
<feFlood flood-opacity="0" result="BackgroundImageFix"/>
<feColorMatrix in="SourceAlpha" type="matrix" values="0 0 0 0 0 0 0 0 0 0 0 0 0 0 0 0 0 0 127 0" result="hardAlpha"/>
<feOffset dy="0.986667"/>
<feGaussianBlur stdDeviation="0.493333"/>
<feComposite in2="hardAlpha" operator="out"/>
<feColorMatrix type="matrix" values="0 0 0 0 0 0 0 0 0 0 0 0 0 0 0 0 0 0 0.25 0"/>
<feBlend mode="normal" in2="BackgroundImageFix" result="effect1_dropShadow_393_3481"/>
<feBlend mode="normal" in="SourceGraphic" in2="effect1_dropShadow_393_3481" result="shape"/>
</filter>
<filter id="filter11_d_393_3481" x="5.88987" y="20.2267" width="27.2476" height="27.0008" filterUnits="userSpaceOnUse" color-interpolation-filters="sRGB">
<feFlood flood-opacity="0" result="BackgroundImageFix"/>
<feColorMatrix in="SourceAlpha" type="matrix" values="0 0 0 0 0 0 0 0 0 0 0 0 0 0 0 0 0 0 127 0" result="hardAlpha"/>
<feOffset dy="1.04372"/>
<feGaussianBlur stdDeviation="0.521862"/>
<feComposite in2="hardAlpha" operator="out"/>
<feColorMatrix type="matrix" values="0 0 0 0 0 0 0 0 0 0 0 0 0 0 0 0 0 0 0.25 0"/>
<feBlend mode="normal" in2="BackgroundImageFix" result="effect1_dropShadow_393_3481"/>
<feBlend mode="normal" in="SourceGraphic" in2="effect1_dropShadow_393_3481" result="shape"/>
</filter>
<filter id="filter12_d_393_3481" x="7.67349" y="22.4467" width="23.9265" height="23.9267" filterUnits="userSpaceOnUse" color-interpolation-filters="sRGB">
<feFlood flood-opacity="0" result="BackgroundImageFix"/>
<feColorMatrix in="SourceAlpha" type="matrix" values="0 0 0 0 0 0 0 0 0 0 0 0 0 0 0 0 0 0 127 0" result="hardAlpha"/>
<feOffset dy="0.986667"/>
<feGaussianBlur stdDeviation="0.493333"/>
<feComposite in2="hardAlpha" operator="out"/>
<feColorMatrix type="matrix" values="0 0 0 0 0 0 0 0 0 0 0 0 0 0 0 0 0 0 0.25 0"/>
<feBlend mode="normal" in2="BackgroundImageFix" result="effect1_dropShadow_393_3481"/>
<feBlend mode="normal" in="SourceGraphic" in2="effect1_dropShadow_393_3481" result="shape"/>
</filter>
<filter id="filter13_d_393_3481" x="9.04556" y="23.9139" width="21.1823" height="18.3431" filterUnits="userSpaceOnUse" color-interpolation-filters="sRGB">
<feFlood flood-opacity="0" result="BackgroundImageFix"/>
<feColorMatrix in="SourceAlpha" type="matrix" values="0 0 0 0 0 0 0 0 0 0 0 0 0 0 0 0 0 0 127 0" result="hardAlpha"/>
<feOffset dy="0.986667"/>
<feGaussianBlur stdDeviation="0.493333"/>
<feComposite in2="hardAlpha" operator="out"/>
<feColorMatrix type="matrix" values="0 0 0 0 0 0 0 0 0 0 0 0 0 0 0 0 0 0 0.25 0"/>
<feBlend mode="normal" in2="BackgroundImageFix" result="effect1_dropShadow_393_3481"/>
<feBlend mode="normal" in="SourceGraphic" in2="effect1_dropShadow_393_3481" result="shape"/>
</filter>
<clipPath id="clip0_393_3481">
<rect width="21.9533" height="21.9533" fill="white" transform="translate(8.66016 22.4467)"/>
</clipPath>
</defs>
</svg>
