<svg width="390" height="143" viewBox="0 0 390 143" fill="none" xmlns="http://www.w3.org/2000/svg">
<g id="Dane kontaktowe">
<g id="Rectangle 66">
<rect y="83" width="390" height="60" fill="#0D0C0C"/>
<rect y="83" width="390" height="60" fill="black" fill-opacity="0.2"/>
</g>
<path id="Rectangle 65" d="M0 0H390V2H0V0Z" fill="black"/>
<g id="Dane kontaktowe_2">
<g id="Linia 4">
<g id="Rectangle 1">
<path d="M0 2H390V83.25H0V2Z" fill="#0D0C0C"/>
<path d="M0 2H390V83.25H0V2Z" fill="black" fill-opacity="0.2"/>
</g>
<path id="Vector" d="M318.395 29.0833H325.376C325.492 29.0833 325.603 29.1276 325.685 29.2066C325.767 29.2857 325.813 29.3928 325.813 29.5045V36.2453C325.813 36.357 325.767 36.4642 325.685 36.5432C325.603 36.6222 325.492 36.6666 325.376 36.6666H318.395C318.279 36.6666 318.168 36.6222 318.086 36.5432C318.004 36.4642 317.958 36.357 317.958 36.2453V29.5045C317.958 29.3928 318.004 29.2857 318.086 29.2066C318.168 29.1276 318.279 29.0833 318.395 29.0833ZM318.831 29.9258V35.824H324.94V29.9258H318.831ZM319.922 31.611C319.748 31.611 319.582 31.5445 319.459 31.4259C319.336 31.3074 319.268 31.1467 319.268 30.9791C319.268 30.8115 319.336 30.6507 319.459 30.5322C319.582 30.4137 319.748 30.3471 319.922 30.3471C320.096 30.3471 320.262 30.4137 320.385 30.5322C320.508 30.6507 320.577 30.8115 320.577 30.9791C320.577 31.1467 320.508 31.3074 320.385 31.4259C320.262 31.5445 320.096 31.611 319.922 31.611ZM319.486 32.0323H320.358V35.192H319.486V32.0323ZM321.886 32.2135C322.14 31.9755 322.438 31.8217 322.758 31.8217C323.662 31.8217 324.285 32.529 324.285 33.4015V35.192H323.413V33.4015C323.413 33.206 323.332 33.0185 323.189 32.8802C323.046 32.7419 322.852 32.6643 322.649 32.6643C322.447 32.6643 322.252 32.7419 322.109 32.8802C321.966 33.0185 321.886 33.206 321.886 33.4015V35.192H321.013V32.0323H321.886V32.2135Z" fill="#FCFCFC"/>
<path id="Vector_2" d="M333.904 29.9949C333.565 29.9949 333.24 30.1307 332.999 30.3733C332.757 30.6158 332.618 30.9457 332.612 31.2918L332.599 32.0093C332.599 32.0478 332.59 32.0858 332.574 32.1206C332.558 32.1555 332.535 32.1865 332.506 32.2115C332.478 32.2366 332.444 32.2552 332.408 32.2661C332.372 32.2771 332.334 32.28 332.296 32.2749L331.601 32.1783C330.686 32.0508 329.809 31.6198 328.968 30.9033C328.701 32.4111 329.222 33.4557 330.475 34.2615L331.253 34.7617C331.29 34.7855 331.321 34.8181 331.343 34.8568C331.365 34.8956 331.377 34.9391 331.378 34.9838C331.38 35.0284 331.371 35.0727 331.351 35.1129C331.332 35.153 331.304 35.1878 331.269 35.2141L330.559 35.7439C330.981 35.7707 331.382 35.7516 331.714 35.6842C333.816 35.2551 335.214 33.6379 335.214 30.9702C335.214 30.7525 334.763 29.9949 333.904 29.9949ZM331.721 31.275C331.729 30.8359 331.863 30.4089 332.107 30.0474C332.351 29.686 332.694 29.4061 333.093 29.243C333.491 29.0798 333.928 29.0406 334.349 29.1302C334.77 29.2198 335.155 29.4342 335.457 29.7467C335.774 29.7444 336.043 29.8264 336.646 29.4528C336.497 30.1999 336.423 30.5243 336.105 30.9702C336.105 34.4515 334.012 36.1443 331.889 36.5775C330.433 36.8745 328.315 36.3866 327.708 35.7388C328.018 35.7142 329.274 35.5762 330 35.0328C329.386 34.6187 326.94 33.1473 328.547 29.1913C329.302 30.092 330.067 30.7051 330.842 31.0304C331.358 31.2467 331.485 31.2422 331.721 31.2754L331.721 31.275Z" fill="#FCFCFC"/>
<path id="Media spo&#197;&#130;eczno&#197;&#155;ciowe" d="M259.139 24.1875V17.1675H259.798L262.557 23.0711L265.301 17.1675H265.969V24.1826H265.287V18.7665L262.786 24.1875H262.323L259.827 18.7665V24.1875H259.139ZM269.565 24.3338C269.052 24.3338 268.607 24.22 268.23 23.9925C267.856 23.765 267.565 23.4449 267.357 23.0321C267.149 22.6194 267.045 22.1351 267.045 21.5794C267.045 21.0041 267.147 20.5069 267.352 20.0876C267.557 19.6684 267.844 19.345 268.215 19.1175C268.589 18.89 269.029 18.7762 269.536 18.7762C270.056 18.7762 270.5 18.8965 270.867 19.137C271.234 19.3742 271.512 19.7155 271.701 20.1607C271.889 20.606 271.975 21.1374 271.959 21.7549H271.228V21.5014C271.215 20.8189 271.067 20.3037 270.784 19.956C270.505 19.6082 270.095 19.4344 269.556 19.4344C268.99 19.4344 268.556 19.618 268.254 19.9852C267.955 20.3525 267.805 20.8757 267.805 21.555C267.805 22.218 267.955 22.7331 268.254 23.1004C268.556 23.4644 268.984 23.6464 269.536 23.6464C269.913 23.6464 270.241 23.5602 270.521 23.388C270.804 23.2125 271.026 22.9606 271.189 22.6324L271.857 22.8907C271.649 23.349 271.341 23.7049 270.935 23.9584C270.532 24.2086 270.076 24.3338 269.565 24.3338ZM267.552 21.7549V21.1552H271.574V21.7549H267.552ZM275.083 24.3338C274.593 24.3338 274.173 24.2119 273.826 23.9681C273.478 23.7211 273.211 23.388 273.026 22.9688C272.841 22.5495 272.748 22.0766 272.748 21.5501C272.748 21.0269 272.839 20.5556 273.021 20.1364C273.207 19.7171 273.471 19.3856 273.816 19.1419C274.16 18.8981 274.573 18.7762 275.054 18.7762C275.548 18.7762 275.964 18.8965 276.302 19.137C276.64 19.3775 276.895 19.7074 277.068 20.1266C277.243 20.5426 277.331 21.0171 277.331 21.5501C277.331 22.0734 277.245 22.5462 277.072 22.9688C276.9 23.388 276.647 23.7211 276.312 23.9681C275.977 24.2119 275.568 24.3338 275.083 24.3338ZM275.157 23.6659C275.53 23.6659 275.839 23.5749 276.083 23.3929C276.327 23.2109 276.509 22.9606 276.629 22.6421C276.749 22.3204 276.809 21.9564 276.809 21.5501C276.809 21.1374 276.749 20.7734 276.629 20.4581C276.509 20.1396 276.327 19.891 276.083 19.7122C275.842 19.5335 275.538 19.4441 275.171 19.4441C274.794 19.4441 274.482 19.5367 274.235 19.722C273.988 19.9072 273.805 20.1591 273.684 20.4776C273.567 20.7961 273.509 21.1536 273.509 21.5501C273.509 21.9499 273.569 22.3106 273.689 22.6324C273.813 22.9509 273.996 23.2027 274.24 23.388C274.484 23.5732 274.789 23.6659 275.157 23.6659ZM276.809 24.1875V20.2241H276.731V17.1675H277.453V24.1875H276.809ZM278.918 17.9231V17.1187H279.635V17.9231H278.918ZM278.918 24.1875V18.9225H279.635V24.1875H278.918ZM282.602 24.3338C282.206 24.3338 281.873 24.2623 281.603 24.1192C281.337 23.9762 281.137 23.7861 281.003 23.5489C280.87 23.3116 280.804 23.0532 280.804 22.7737C280.804 22.4877 280.86 22.244 280.974 22.0425C281.091 21.8377 281.249 21.6704 281.447 21.5404C281.649 21.4104 281.881 21.3112 282.144 21.243C282.411 21.178 282.705 21.1211 283.027 21.0724C283.352 21.0204 283.668 20.9765 283.977 20.9407C284.289 20.9017 284.562 20.8644 284.796 20.8286L284.543 20.9846C284.552 20.4646 284.452 20.0795 284.24 19.8292C284.029 19.579 283.662 19.4539 283.139 19.4539C282.778 19.4539 282.472 19.5351 282.222 19.6976C281.975 19.8601 281.801 20.1169 281.701 20.4679L281.003 20.2631C281.124 19.7919 281.366 19.4262 281.73 19.1662C282.094 18.9062 282.567 18.7762 283.148 18.7762C283.629 18.7762 284.037 18.8672 284.372 19.0492C284.71 19.228 284.949 19.488 285.089 19.8292C285.154 19.982 285.196 20.1526 285.215 20.3411C285.235 20.5296 285.245 20.7214 285.245 20.9164V24.1875H284.606V22.8664L284.791 22.9444C284.613 23.3961 284.335 23.7406 283.958 23.9779C283.581 24.2151 283.129 24.3338 282.602 24.3338ZM282.685 23.7146C283.02 23.7146 283.313 23.6545 283.563 23.5342C283.813 23.414 284.015 23.2499 284.167 23.0419C284.32 22.8306 284.419 22.5934 284.465 22.3301C284.504 22.1611 284.525 21.9759 284.528 21.7744C284.531 21.5696 284.533 21.4169 284.533 21.3161L284.806 21.4575C284.562 21.49 284.297 21.5225 284.011 21.555C283.729 21.5875 283.449 21.6249 283.173 21.6671C282.9 21.7094 282.653 21.7597 282.432 21.8182C282.282 21.8605 282.138 21.9206 281.998 21.9986C281.858 22.0734 281.743 22.1741 281.652 22.3009C281.564 22.4276 281.52 22.5852 281.52 22.7737C281.52 22.9265 281.558 23.0744 281.632 23.2174C281.71 23.3604 281.834 23.479 282.003 23.5732C282.175 23.6675 282.403 23.7146 282.685 23.7146ZM290.43 24.3289C289.813 24.3289 289.304 24.1956 288.904 23.9291C288.508 23.6626 288.264 23.2921 288.173 22.8176L288.904 22.6957C288.982 22.9947 289.16 23.2336 289.436 23.4124C289.715 23.5879 290.06 23.6756 290.469 23.6756C290.869 23.6756 291.184 23.5927 291.415 23.427C291.646 23.258 291.761 23.0289 291.761 22.7396C291.761 22.5771 291.724 22.4455 291.649 22.3447C291.578 22.2407 291.43 22.1449 291.205 22.0571C290.981 21.9694 290.646 21.8654 290.201 21.7451C289.723 21.6151 289.35 21.4851 289.08 21.3551C288.81 21.2251 288.618 21.0756 288.505 20.9066C288.391 20.7344 288.334 20.5247 288.334 20.2777C288.334 19.9787 288.419 19.7171 288.588 19.4929C288.757 19.2654 288.991 19.0899 289.29 18.9664C289.589 18.8396 289.936 18.7762 290.333 18.7762C290.729 18.7762 291.084 18.8412 291.396 18.9712C291.711 19.098 291.964 19.2767 292.156 19.5075C292.348 19.7382 292.462 20.0064 292.497 20.3119L291.766 20.4435C291.717 20.1347 291.563 19.891 291.303 19.7122C291.046 19.5302 290.72 19.436 290.323 19.4295C289.949 19.4197 289.645 19.4912 289.411 19.644C289.177 19.7935 289.06 19.9934 289.06 20.2436C289.06 20.3834 289.103 20.5036 289.187 20.6044C289.272 20.7019 289.424 20.7945 289.645 20.8822C289.87 20.97 290.188 21.0659 290.601 21.1699C291.085 21.2934 291.465 21.4234 291.742 21.5599C292.018 21.6964 292.215 21.8572 292.332 22.0425C292.449 22.2277 292.507 22.4569 292.507 22.7299C292.507 23.2271 292.322 23.6187 291.951 23.9047C291.584 24.1875 291.077 24.3289 290.43 24.3289ZM295.953 24.3338C295.468 24.3338 295.059 24.2119 294.724 23.9681C294.389 23.7211 294.136 23.388 293.964 22.9688C293.791 22.5462 293.705 22.0734 293.705 21.5501C293.705 21.0171 293.791 20.5426 293.964 20.1266C294.139 19.7074 294.396 19.3775 294.734 19.137C295.072 18.8965 295.488 18.7762 295.982 18.7762C296.463 18.7762 296.876 18.8981 297.22 19.1419C297.565 19.3856 297.828 19.7171 298.01 20.1364C298.195 20.5556 298.288 21.0269 298.288 21.5501C298.288 22.0766 298.195 22.5495 298.01 22.9688C297.825 23.388 297.558 23.7211 297.21 23.9681C296.863 24.2119 296.443 24.3338 295.953 24.3338ZM293.583 26.5275V18.9225H294.227V22.8859H294.305V26.5275H293.583ZM295.879 23.6659C296.247 23.6659 296.552 23.5732 296.796 23.388C297.04 23.2027 297.222 22.9509 297.342 22.6324C297.465 22.3106 297.527 21.9499 297.527 21.5501C297.527 21.1536 297.467 20.7961 297.347 20.4776C297.227 20.1591 297.043 19.9072 296.796 19.722C296.552 19.5367 296.242 19.4441 295.865 19.4441C295.498 19.4441 295.192 19.5335 294.948 19.7122C294.708 19.891 294.527 20.1396 294.407 20.4581C294.287 20.7734 294.227 21.1374 294.227 21.5501C294.227 21.9564 294.287 22.3204 294.407 22.6421C294.527 22.9606 294.709 23.2109 294.953 23.3929C295.197 23.5749 295.506 23.6659 295.879 23.6659ZM301.557 24.3338C301.034 24.3338 300.587 24.2151 300.216 23.9779C299.846 23.7406 299.561 23.4124 299.363 22.9931C299.165 22.5739 299.066 22.0929 299.066 21.5501C299.066 20.9976 299.166 20.5134 299.368 20.0974C299.569 19.6814 299.855 19.358 300.226 19.1272C300.6 18.8932 301.043 18.7762 301.557 18.7762C302.083 18.7762 302.532 18.8949 302.902 19.1321C303.276 19.3661 303.56 19.6927 303.755 20.112C303.954 20.528 304.053 21.0074 304.053 21.5501C304.053 22.1026 303.954 22.5885 303.755 23.0077C303.557 23.4237 303.271 23.7487 302.897 23.9827C302.524 24.2167 302.077 24.3338 301.557 24.3338ZM301.557 23.6464C302.142 23.6464 302.577 23.453 302.863 23.0662C303.149 22.6762 303.292 22.1709 303.292 21.5501C303.292 20.9131 303.148 20.4061 302.858 20.0291C302.572 19.6521 302.139 19.4636 301.557 19.4636C301.164 19.4636 300.839 19.553 300.582 19.7317C300.328 19.9072 300.138 20.1526 300.011 20.4679C299.888 20.7799 299.826 21.1406 299.826 21.5501C299.826 22.1839 299.972 22.6925 300.265 23.076C300.557 23.4562 300.988 23.6464 301.557 23.6464ZM304.841 21.8329V21.0285L307.717 19.3759V20.1754L304.841 21.8329ZM305.923 24.1875V17.0212H306.64V24.1875H305.923ZM310.831 24.3338C310.318 24.3338 309.873 24.22 309.496 23.9925C309.122 23.765 308.831 23.4449 308.623 23.0321C308.415 22.6194 308.311 22.1351 308.311 21.5794C308.311 21.0041 308.413 20.5069 308.618 20.0876C308.823 19.6684 309.111 19.345 309.481 19.1175C309.855 18.89 310.295 18.7762 310.802 18.7762C311.322 18.7762 311.766 18.8965 312.133 19.137C312.5 19.3742 312.778 19.7155 312.967 20.1607C313.155 20.606 313.241 21.1374 313.225 21.7549H312.494V21.5014C312.481 20.8189 312.333 20.3037 312.05 19.956C311.771 19.6082 311.361 19.4344 310.822 19.4344C310.256 19.4344 309.822 19.618 309.52 19.9852C309.221 20.3525 309.072 20.8757 309.072 21.555C309.072 22.218 309.221 22.7331 309.52 23.1004C309.822 23.4644 310.25 23.6464 310.802 23.6464C311.179 23.6464 311.507 23.5602 311.787 23.388C312.07 23.2125 312.292 22.9606 312.455 22.6324L313.123 22.8907C312.915 23.349 312.608 23.7049 312.201 23.9584C311.798 24.2086 311.342 24.3338 310.831 24.3338ZM308.818 21.7549V21.1552H312.84V21.7549H308.818ZM316.491 24.3338C315.961 24.3338 315.513 24.2151 315.145 23.9779C314.778 23.7406 314.499 23.414 314.307 22.998C314.118 22.5787 314.021 22.0977 314.014 21.555C314.021 21.0025 314.122 20.5182 314.317 20.1022C314.512 19.683 314.793 19.358 315.16 19.1272C315.527 18.8932 315.973 18.7762 316.496 18.7762C317.029 18.7762 317.492 18.9062 317.885 19.1662C318.282 19.4262 318.553 19.7821 318.699 20.2339L317.997 20.4581C317.874 20.1429 317.677 19.8991 317.407 19.7269C317.141 19.5514 316.835 19.4636 316.491 19.4636C316.104 19.4636 315.784 19.553 315.531 19.7317C315.277 19.9072 315.089 20.1526 314.965 20.4679C314.842 20.7831 314.778 21.1455 314.775 21.555C314.781 22.1855 314.928 22.6925 315.214 23.076C315.5 23.4562 315.925 23.6464 316.491 23.6464C316.848 23.6464 317.152 23.5651 317.403 23.4026C317.656 23.2369 317.848 22.9964 317.978 22.6811L318.699 22.8956C318.504 23.3636 318.218 23.7211 317.841 23.9681C317.464 24.2119 317.014 24.3338 316.491 24.3338ZM319.218 24.1875V24.0364L322.616 19.5904H319.472V18.9225H323.796V19.0882L320.403 23.5196H323.611V24.1875H319.218ZM328.669 24.1875V21.5014C328.669 21.2089 328.641 20.9407 328.586 20.697C328.531 20.45 328.441 20.2355 328.318 20.0535C328.198 19.8682 328.04 19.7252 327.845 19.6245C327.653 19.5237 327.419 19.4734 327.143 19.4734C326.889 19.4734 326.665 19.5172 326.47 19.605C326.278 19.6927 326.116 19.8195 325.983 19.9852C325.853 20.1477 325.754 20.346 325.685 20.58C325.617 20.814 325.583 21.0805 325.583 21.3795L325.076 21.2674C325.076 20.7279 325.17 20.2745 325.359 19.9072C325.547 19.54 325.807 19.2621 326.139 19.0736C326.47 18.8851 326.85 18.7909 327.279 18.7909C327.595 18.7909 327.869 18.8396 328.103 18.9371C328.341 19.0346 328.54 19.1662 328.703 19.332C328.869 19.4977 329.002 19.6879 329.103 19.9024C329.203 20.1136 329.277 20.3395 329.322 20.58C329.368 20.8172 329.39 21.0545 329.39 21.2917V24.1875H328.669ZM324.861 24.1875V18.9225H325.51V20.2192H325.583V24.1875H324.861ZM332.825 24.3338C332.302 24.3338 331.855 24.2151 331.485 23.9779C331.114 23.7406 330.83 23.4124 330.632 22.9931C330.433 22.5739 330.334 22.0929 330.334 21.5501C330.334 20.9976 330.435 20.5134 330.637 20.0974C330.838 19.6814 331.124 19.358 331.495 19.1272C331.868 18.8932 332.312 18.7762 332.825 18.7762C333.352 18.7762 333.8 18.8949 334.171 19.1321C334.545 19.3661 334.829 19.6927 335.024 20.112C335.222 20.528 335.321 21.0074 335.321 21.5501C335.321 22.1026 335.222 22.5885 335.024 23.0077C334.826 23.4237 334.54 23.7487 334.166 23.9827C333.792 24.2167 333.345 24.3338 332.825 24.3338ZM332.825 23.6464C333.41 23.6464 333.846 23.453 334.132 23.0662C334.418 22.6762 334.561 22.1709 334.561 21.5501C334.561 20.9131 334.416 20.4061 334.127 20.0291C333.841 19.6521 333.407 19.4636 332.825 19.4636C332.432 19.4636 332.107 19.553 331.85 19.7317C331.597 19.9072 331.407 20.1526 331.28 20.4679C331.157 20.7799 331.095 21.1406 331.095 21.5501C331.095 22.1839 331.241 22.6925 331.534 23.076C331.826 23.4562 332.257 23.6464 332.825 23.6464ZM338.553 18.0938H337.938L338.519 16.5825H339.133L338.553 18.0938ZM338.314 24.3289C337.696 24.3289 337.188 24.1956 336.788 23.9291C336.391 23.6626 336.148 23.2921 336.057 22.8176L336.788 22.6957C336.866 22.9947 337.043 23.2336 337.319 23.4124C337.599 23.5879 337.943 23.6756 338.353 23.6756C338.753 23.6756 339.068 23.5927 339.299 23.427C339.529 23.258 339.645 23.0289 339.645 22.7396C339.645 22.5771 339.607 22.4455 339.533 22.3447C339.461 22.2407 339.313 22.1449 339.089 22.0571C338.865 21.9694 338.53 21.8654 338.085 21.7451C337.607 21.6151 337.233 21.4851 336.963 21.3551C336.694 21.2251 336.502 21.0756 336.388 20.9066C336.274 20.7344 336.218 20.5247 336.218 20.2777C336.218 19.9787 336.302 19.7171 336.471 19.4929C336.64 19.2654 336.874 19.0899 337.173 18.9664C337.472 18.8396 337.82 18.7762 338.216 18.7762C338.613 18.7762 338.967 18.8412 339.279 18.9712C339.594 19.098 339.848 19.2767 340.04 19.5075C340.231 19.7382 340.345 20.0064 340.381 20.3119L339.65 20.4435C339.601 20.1347 339.446 19.891 339.186 19.7122C338.93 19.5302 338.603 19.436 338.207 19.4295C337.833 19.4197 337.529 19.4912 337.295 19.644C337.061 19.7935 336.944 19.9934 336.944 20.2436C336.944 20.3834 336.986 20.5036 337.071 20.6044C337.155 20.7019 337.308 20.7945 337.529 20.8822C337.753 20.97 338.072 21.0659 338.484 21.1699C338.969 21.2934 339.349 21.4234 339.625 21.5599C339.901 21.6964 340.098 21.8572 340.215 22.0425C340.332 22.2277 340.391 22.4569 340.391 22.7299C340.391 23.2271 340.205 23.6187 339.835 23.9047C339.468 24.1875 338.961 24.3289 338.314 24.3289ZM343.656 24.3338C343.126 24.3338 342.678 24.2151 342.31 23.9779C341.943 23.7406 341.664 23.414 341.472 22.998C341.283 22.5787 341.186 22.0977 341.179 21.555C341.186 21.0025 341.287 20.5182 341.482 20.1022C341.677 19.683 341.958 19.358 342.325 19.1272C342.692 18.8932 343.137 18.7762 343.661 18.7762C344.194 18.7762 344.657 18.9062 345.05 19.1662C345.447 19.4262 345.718 19.7821 345.864 20.2339L345.162 20.4581C345.039 20.1429 344.842 19.8991 344.572 19.7269C344.306 19.5514 344 19.4636 343.656 19.4636C343.269 19.4636 342.949 19.553 342.695 19.7317C342.442 19.9072 342.253 20.1526 342.13 20.4679C342.006 20.7831 341.943 21.1455 341.94 21.555C341.946 22.1855 342.093 22.6925 342.379 23.076C342.665 23.4562 343.09 23.6464 343.656 23.6464C344.013 23.6464 344.317 23.5651 344.567 23.4026C344.821 23.2369 345.013 22.9964 345.143 22.6811L345.864 22.8956C345.669 23.3636 345.383 23.7211 345.006 23.9681C344.629 24.2119 344.179 24.3338 343.656 24.3338ZM346.825 17.9231V17.1187H347.542V17.9231H346.825ZM346.825 24.1875V18.9225H347.542V24.1875H346.825ZM351.202 24.3338C350.679 24.3338 350.232 24.2151 349.861 23.9779C349.491 23.7406 349.206 23.4124 349.008 22.9931C348.81 22.5739 348.711 22.0929 348.711 21.5501C348.711 20.9976 348.812 20.5134 349.013 20.0974C349.215 19.6814 349.501 19.358 349.871 19.1272C350.245 18.8932 350.688 18.7762 351.202 18.7762C351.728 18.7762 352.177 18.8949 352.547 19.1321C352.921 19.3661 353.206 19.6927 353.401 20.112C353.599 20.528 353.698 21.0074 353.698 21.5501C353.698 22.1026 353.599 22.5885 353.401 23.0077C353.202 23.4237 352.916 23.7487 352.543 23.9827C352.169 24.2167 351.722 24.3338 351.202 24.3338ZM351.202 23.6464C351.787 23.6464 352.222 23.453 352.508 23.0662C352.794 22.6762 352.937 22.1709 352.937 21.5501C352.937 20.9131 352.793 20.4061 352.504 20.0291C352.218 19.6521 351.784 19.4636 351.202 19.4636C350.809 19.4636 350.484 19.553 350.227 19.7317C349.973 19.9072 349.783 20.1526 349.657 20.4679C349.533 20.7799 349.471 21.1406 349.471 21.5501C349.471 22.1839 349.618 22.6925 349.91 23.076C350.203 23.4562 350.633 23.6464 351.202 23.6464ZM355.704 24.1875L354.095 18.9176L354.812 18.9225L356.06 23.0126L357.313 18.9225H357.966L359.219 23.0126L360.477 18.9225H361.188L359.58 24.1875H358.956L357.639 19.995L356.328 24.1875H355.704ZM364.104 24.3338C363.591 24.3338 363.145 24.22 362.768 23.9925C362.395 23.765 362.104 23.4449 361.896 23.0321C361.688 22.6194 361.584 22.1351 361.584 21.5794C361.584 21.0041 361.686 20.5069 361.891 20.0876C362.096 19.6684 362.383 19.345 362.754 19.1175C363.128 18.89 363.568 18.7762 364.075 18.7762C364.595 18.7762 365.039 18.8965 365.406 19.137C365.773 19.3742 366.051 19.7155 366.239 20.1607C366.428 20.606 366.514 21.1374 366.498 21.7549H365.767V21.5014C365.754 20.8189 365.606 20.3037 365.323 19.956C365.043 19.6082 364.634 19.4344 364.094 19.4344C363.529 19.4344 363.095 19.618 362.793 19.9852C362.494 20.3525 362.344 20.8757 362.344 21.555C362.344 22.218 362.494 22.7331 362.793 23.1004C363.095 23.4644 363.522 23.6464 364.075 23.6464C364.452 23.6464 364.78 23.5602 365.06 23.388C365.342 23.2125 365.565 22.9606 365.728 22.6324L366.395 22.8907C366.187 23.349 365.88 23.7049 365.474 23.9584C365.071 24.2086 364.614 24.3338 364.104 24.3338ZM362.091 21.7549V21.1552H366.113V21.7549H362.091Z" fill="#F2EEEB"/>
<path id="Siedziba g&#197;&#130;&#195;&#179;wna" d="M160.378 24.6046C159.888 24.6046 159.446 24.5234 159.052 24.3609C158.662 24.1951 158.339 23.9611 158.082 23.6589C157.829 23.3566 157.663 22.9975 157.585 22.5815L158.316 22.4596C158.433 22.9146 158.68 23.2721 159.057 23.5321C159.434 23.7889 159.884 23.9172 160.408 23.9172C160.752 23.9172 161.061 23.8636 161.334 23.7564C161.607 23.6459 161.821 23.4899 161.977 23.2884C162.133 23.0869 162.211 22.848 162.211 22.5717C162.211 22.3897 162.179 22.2354 162.114 22.1086C162.049 21.9786 161.963 21.8714 161.855 21.7869C161.748 21.7024 161.631 21.6325 161.504 21.5772C161.378 21.5187 161.254 21.4716 161.134 21.4359L159.355 20.9045C159.14 20.8427 158.942 20.7647 158.76 20.6705C158.578 20.573 158.419 20.4576 158.282 20.3244C158.149 20.1879 158.045 20.0286 157.97 19.8466C157.895 19.6646 157.858 19.4566 157.858 19.2226C157.858 18.8261 157.962 18.4832 158.17 18.194C158.378 17.9047 158.662 17.6821 159.023 17.5261C159.384 17.3701 159.795 17.2937 160.256 17.297C160.724 17.297 161.142 17.3799 161.509 17.5456C161.88 17.7114 162.185 17.9486 162.426 18.2574C162.666 18.5629 162.826 18.9252 162.904 19.3445L162.153 19.481C162.104 19.1755 161.992 18.9106 161.816 18.6864C161.641 18.4621 161.417 18.2899 161.144 18.1696C160.874 18.0461 160.577 17.9827 160.252 17.9795C159.936 17.9795 159.655 18.0331 159.408 18.1404C159.164 18.2444 158.971 18.3874 158.828 18.5694C158.685 18.7514 158.614 18.9594 158.614 19.1934C158.614 19.4306 158.679 19.6207 158.809 19.7637C158.942 19.9067 159.104 20.0189 159.296 20.1001C159.491 20.1814 159.68 20.248 159.862 20.3L161.236 20.7046C161.379 20.7436 161.547 20.8005 161.738 20.8752C161.933 20.9467 162.122 21.0507 162.304 21.1872C162.489 21.3205 162.642 21.496 162.762 21.7137C162.882 21.9315 162.943 22.2077 162.943 22.5425C162.943 22.8675 162.878 23.1584 162.748 23.4151C162.621 23.6719 162.44 23.888 162.206 24.0635C161.976 24.239 161.704 24.3722 161.392 24.4632C161.084 24.5575 160.746 24.6046 160.378 24.6046ZM164.046 18.194V17.3896H164.763V18.194H164.046ZM164.046 24.4584V19.1934H164.763V24.4584H164.046ZM168.452 24.6046C167.939 24.6046 167.494 24.4909 167.117 24.2634C166.743 24.0359 166.452 23.7157 166.244 23.303C166.036 22.8902 165.932 22.406 165.932 21.8502C165.932 21.275 166.034 20.7777 166.239 20.3585C166.444 19.9392 166.731 19.6159 167.102 19.3884C167.476 19.1609 167.916 19.0471 168.423 19.0471C168.943 19.0471 169.387 19.1674 169.754 19.4079C170.121 19.6451 170.399 19.9864 170.588 20.4316C170.776 20.8769 170.862 21.4082 170.846 22.0257H170.115V21.7722C170.102 21.0897 169.954 20.5746 169.671 20.2269C169.392 19.8791 168.982 19.7052 168.443 19.7052C167.877 19.7052 167.443 19.8889 167.141 20.2561C166.842 20.6234 166.692 21.1466 166.692 21.8259C166.692 22.4889 166.842 23.004 167.141 23.3712C167.443 23.7352 167.871 23.9172 168.423 23.9172C168.8 23.9172 169.128 23.8311 169.408 23.6589C169.691 23.4834 169.913 23.2315 170.076 22.9032L170.744 23.1616C170.536 23.6199 170.228 23.9757 169.822 24.2292C169.419 24.4795 168.963 24.6046 168.452 24.6046ZM166.439 22.0257V21.4261H170.461V22.0257H166.439ZM173.97 24.6046C173.48 24.6046 173.06 24.4827 172.713 24.239C172.365 23.992 172.098 23.6589 171.913 23.2396C171.728 22.8204 171.635 22.3475 171.635 21.821C171.635 21.2977 171.726 20.8265 171.908 20.4072C172.094 19.988 172.358 19.6565 172.703 19.4127C173.047 19.169 173.46 19.0471 173.941 19.0471C174.435 19.0471 174.851 19.1674 175.189 19.4079C175.527 19.6484 175.782 19.9782 175.955 20.3975C176.13 20.8135 176.218 21.288 176.218 21.821C176.218 22.3442 176.132 22.8171 175.959 23.2396C175.787 23.6589 175.534 23.992 175.199 24.239C174.864 24.4827 174.455 24.6046 173.97 24.6046ZM174.044 23.9367C174.417 23.9367 174.726 23.8457 174.97 23.6637C175.214 23.4817 175.396 23.2315 175.516 22.913C175.636 22.5912 175.696 22.2272 175.696 21.821C175.696 21.4082 175.636 21.0442 175.516 20.729C175.396 20.4105 175.214 20.1619 174.97 19.9831C174.729 19.8044 174.425 19.715 174.058 19.715C173.681 19.715 173.369 19.8076 173.122 19.9929C172.875 20.1781 172.692 20.43 172.571 20.7485C172.454 21.067 172.396 21.4245 172.396 21.821C172.396 22.2207 172.456 22.5815 172.576 22.9032C172.7 23.2217 172.883 23.4736 173.127 23.6589C173.371 23.8441 173.676 23.9367 174.044 23.9367ZM175.696 24.4584V20.495H175.618V17.4384H176.34V24.4584H175.696ZM177.22 24.4584V24.3072L180.618 19.8612H177.473V19.1934H181.797V19.3591L178.404 23.7905H181.612V24.4584H177.22ZM182.966 18.194V17.3896H183.682V18.194H182.966ZM182.966 24.4584V19.1934H183.682V24.4584H182.966ZM187.508 24.6046C187.024 24.6046 186.614 24.4827 186.28 24.239C185.945 23.992 185.691 23.6589 185.519 23.2396C185.347 22.8171 185.261 22.3442 185.261 21.821C185.261 21.288 185.347 20.8135 185.519 20.3975C185.695 19.9782 185.951 19.6484 186.289 19.4079C186.627 19.1674 187.043 19.0471 187.537 19.0471C188.018 19.0471 188.431 19.169 188.776 19.4127C189.12 19.6565 189.383 19.988 189.565 20.4072C189.751 20.8265 189.843 21.2977 189.843 21.821C189.843 22.3475 189.751 22.8204 189.565 23.2396C189.38 23.6589 189.114 23.992 188.766 24.239C188.418 24.4827 187.999 24.6046 187.508 24.6046ZM185.139 24.4584V17.4384H185.86V20.495H185.782V24.4584H185.139ZM187.435 23.9367C187.802 23.9367 188.108 23.8441 188.351 23.6589C188.595 23.4736 188.777 23.2217 188.897 22.9032C189.021 22.5815 189.083 22.2207 189.083 21.821C189.083 21.4245 189.023 21.067 188.902 20.7485C188.782 20.43 188.598 20.1781 188.351 19.9929C188.108 19.8076 187.797 19.715 187.42 19.715C187.053 19.715 186.748 19.8044 186.504 19.9831C186.263 20.1619 186.083 20.4105 185.963 20.729C185.842 21.0442 185.782 21.4082 185.782 21.821C185.782 22.2272 185.842 22.5912 185.963 22.913C186.083 23.2315 186.265 23.4817 186.509 23.6637C186.752 23.8457 187.061 23.9367 187.435 23.9367ZM192.42 24.6046C192.024 24.6046 191.69 24.5331 191.421 24.3901C191.154 24.2471 190.954 24.057 190.821 23.8197C190.688 23.5825 190.621 23.3241 190.621 23.0446C190.621 22.7586 190.678 22.5149 190.792 22.3134C190.909 22.1086 191.066 21.9412 191.265 21.8112C191.466 21.6812 191.699 21.5821 191.962 21.5139C192.228 21.4489 192.522 21.392 192.844 21.3432C193.169 21.2912 193.486 21.2474 193.795 21.2116C194.107 21.1726 194.38 21.1352 194.614 21.0995L194.36 21.2555C194.37 20.7355 194.269 20.3504 194.058 20.1001C193.847 19.8499 193.48 19.7247 192.956 19.7247C192.596 19.7247 192.29 19.806 192.04 19.9685C191.793 20.131 191.619 20.3877 191.518 20.7387L190.821 20.534C190.941 20.0627 191.183 19.6971 191.547 19.4371C191.911 19.1771 192.384 19.0471 192.966 19.0471C193.447 19.0471 193.855 19.1381 194.19 19.3201C194.528 19.4989 194.767 19.7589 194.906 20.1001C194.971 20.2529 195.014 20.4235 195.033 20.612C195.053 20.8005 195.062 20.9922 195.062 21.1872V24.4584H194.424V23.1372L194.609 23.2152C194.43 23.667 194.152 24.0115 193.775 24.2487C193.398 24.486 192.947 24.6046 192.42 24.6046ZM192.503 23.9855C192.838 23.9855 193.13 23.9254 193.38 23.8051C193.631 23.6849 193.832 23.5207 193.985 23.3127C194.138 23.1015 194.237 22.8642 194.282 22.601C194.321 22.432 194.342 22.2467 194.346 22.0452C194.349 21.8405 194.351 21.6877 194.351 21.587L194.624 21.7284C194.38 21.7609 194.115 21.7934 193.829 21.8259C193.546 21.8584 193.267 21.8957 192.99 21.938C192.717 21.9802 192.47 22.0306 192.249 22.0891C192.1 22.1314 191.955 22.1915 191.816 22.2695C191.676 22.3442 191.56 22.445 191.469 22.5717C191.382 22.6985 191.338 22.8561 191.338 23.0446C191.338 23.1974 191.375 23.3452 191.45 23.4882C191.528 23.6312 191.651 23.7499 191.82 23.8441C191.993 23.9384 192.22 23.9855 192.503 23.9855ZM200.375 26.9446C200.105 26.9446 199.838 26.904 199.575 26.8227C199.315 26.7447 199.075 26.6196 198.854 26.4474C198.633 26.2784 198.447 26.0574 198.298 25.7844L198.946 25.4236C199.093 25.7161 199.297 25.9257 199.561 26.0525C199.827 26.1825 200.098 26.2475 200.375 26.2475C200.755 26.2475 201.062 26.176 201.296 26.033C201.533 25.8932 201.706 25.6852 201.813 25.409C201.92 25.1327 201.972 24.7882 201.969 24.3755V22.9715H202.052V19.1934H202.69V24.3852C202.69 24.5347 202.685 24.6777 202.676 24.8142C202.669 24.954 202.655 25.0905 202.632 25.2237C202.57 25.617 202.442 25.9404 202.247 26.1939C202.055 26.4474 201.801 26.6359 201.486 26.7594C201.174 26.8829 200.804 26.9446 200.375 26.9446ZM200.326 24.6046C199.835 24.6046 199.416 24.4827 199.068 24.239C198.72 23.992 198.454 23.6589 198.269 23.2396C198.083 22.8204 197.991 22.3475 197.991 21.821C197.991 21.2977 198.082 20.8265 198.264 20.4072C198.449 19.988 198.714 19.6565 199.058 19.4127C199.403 19.169 199.816 19.0471 200.297 19.0471C200.791 19.0471 201.207 19.1674 201.545 19.4079C201.883 19.6484 202.138 19.9782 202.31 20.3975C202.486 20.8135 202.573 21.288 202.573 21.821C202.573 22.3442 202.487 22.8171 202.315 23.2396C202.143 23.6589 201.889 23.992 201.554 24.239C201.22 24.4827 200.81 24.6046 200.326 24.6046ZM200.399 23.9367C200.773 23.9367 201.082 23.8457 201.325 23.6637C201.569 23.4817 201.751 23.2315 201.871 22.913C201.992 22.5912 202.052 22.2272 202.052 21.821C202.052 21.4082 201.992 21.0442 201.871 20.729C201.751 20.4105 201.569 20.1619 201.325 19.9831C201.085 19.8044 200.781 19.715 200.414 19.715C200.037 19.715 199.725 19.8076 199.478 19.9929C199.231 20.1781 199.047 20.43 198.927 20.7485C198.81 21.067 198.751 21.4245 198.751 21.821C198.751 22.2207 198.811 22.5815 198.932 22.9032C199.055 23.2217 199.239 23.4736 199.483 23.6589C199.726 23.8441 200.032 23.9367 200.399 23.9367ZM203.766 22.1037V21.2994L206.642 19.6467V20.4462L203.766 22.1037ZM204.848 24.4584V17.2921H205.565V24.4584H204.848ZM210.034 18.3646H209.42L210 16.8534H210.615L210.034 18.3646ZM209.727 24.6046C209.204 24.6046 208.757 24.486 208.387 24.2487C208.016 24.0115 207.732 23.6832 207.534 23.264C207.335 22.8447 207.236 22.3637 207.236 21.821C207.236 21.2685 207.337 20.7842 207.538 20.3682C207.74 19.9522 208.026 19.6289 208.396 19.3981C208.77 19.1641 209.214 19.0471 209.727 19.0471C210.254 19.0471 210.702 19.1657 211.073 19.403C211.447 19.637 211.731 19.9636 211.926 20.3829C212.124 20.7989 212.223 21.2782 212.223 21.821C212.223 22.3735 212.124 22.8594 211.926 23.2786C211.728 23.6946 211.442 24.0196 211.068 24.2536C210.694 24.4876 210.247 24.6046 209.727 24.6046ZM209.727 23.9172C210.312 23.9172 210.748 23.7239 211.034 23.3371C211.32 22.9471 211.463 22.4417 211.463 21.821C211.463 21.184 211.318 20.677 211.029 20.3C210.743 19.923 210.309 19.7345 209.727 19.7345C209.334 19.7345 209.009 19.8239 208.752 20.0026C208.499 20.1781 208.309 20.4235 208.182 20.7387C208.058 21.0507 207.997 21.4115 207.997 21.821C207.997 22.4547 208.143 22.9634 208.435 23.3469C208.728 23.7271 209.159 23.9172 209.727 23.9172ZM214.229 24.4584L212.621 19.1885L213.337 19.1934L214.585 23.2835L215.838 19.1934H216.491L217.744 23.2835L219.002 19.1934H219.714L218.105 24.4584H217.481L216.165 20.2659L214.853 24.4584H214.229ZM224.395 24.4584V21.7722C224.395 21.4797 224.367 21.2116 224.312 20.9679C224.257 20.7209 224.167 20.5064 224.044 20.3244C223.923 20.1391 223.766 19.9961 223.571 19.8954C223.379 19.7946 223.145 19.7442 222.869 19.7442C222.615 19.7442 222.391 19.7881 222.196 19.8759C222.004 19.9636 221.842 20.0904 221.709 20.2561C221.579 20.4186 221.479 20.6169 221.411 20.8509C221.343 21.0849 221.309 21.3514 221.309 21.6504L220.802 21.5382C220.802 20.9987 220.896 20.5454 221.085 20.1781C221.273 19.8109 221.533 19.533 221.865 19.3445C222.196 19.156 222.576 19.0617 223.005 19.0617C223.321 19.0617 223.595 19.1105 223.829 19.208C224.066 19.3055 224.266 19.4371 224.429 19.6029C224.595 19.7686 224.728 19.9587 224.829 20.1732C224.929 20.3845 225.002 20.6104 225.048 20.8509C225.093 21.0881 225.116 21.3254 225.116 21.5626V24.4584H224.395ZM220.587 24.4584V19.1934H221.236V20.4901H221.309V24.4584H220.587ZM227.888 24.6046C227.491 24.6046 227.158 24.5331 226.888 24.3901C226.622 24.2471 226.422 24.057 226.289 23.8197C226.155 23.5825 226.089 23.3241 226.089 23.0446C226.089 22.7586 226.146 22.5149 226.259 22.3134C226.376 22.1086 226.534 21.9412 226.732 21.8112C226.934 21.6812 227.166 21.5821 227.429 21.5139C227.696 21.4489 227.99 21.392 228.312 21.3432C228.637 21.2912 228.954 21.2474 229.262 21.2116C229.574 21.1726 229.847 21.1352 230.081 21.0995L229.828 21.2555C229.838 20.7355 229.737 20.3504 229.526 20.1001C229.314 19.8499 228.947 19.7247 228.424 19.7247C228.063 19.7247 227.758 19.806 227.507 19.9685C227.26 20.131 227.086 20.3877 226.986 20.7387L226.289 20.534C226.409 20.0627 226.651 19.6971 227.015 19.4371C227.379 19.1771 227.852 19.0471 228.434 19.0471C228.915 19.0471 229.322 19.1381 229.657 19.3201C229.995 19.4989 230.234 19.7589 230.374 20.1001C230.439 20.2529 230.481 20.4235 230.501 20.612C230.52 20.8005 230.53 20.9922 230.53 21.1872V24.4584H229.891V23.1372L230.076 23.2152C229.898 23.667 229.62 24.0115 229.243 24.2487C228.866 24.486 228.414 24.6046 227.888 24.6046ZM227.97 23.9855C228.305 23.9855 228.598 23.9254 228.848 23.8051C229.098 23.6849 229.3 23.5207 229.452 23.3127C229.605 23.1015 229.704 22.8642 229.75 22.601C229.789 22.432 229.81 22.2467 229.813 22.0452C229.816 21.8405 229.818 21.6877 229.818 21.587L230.091 21.7284C229.847 21.7609 229.582 21.7934 229.296 21.8259C229.014 21.8584 228.734 21.8957 228.458 21.938C228.185 21.9802 227.938 22.0306 227.717 22.0891C227.567 22.1314 227.423 22.1915 227.283 22.2695C227.143 22.3442 227.028 22.445 226.937 22.5717C226.849 22.6985 226.805 22.8561 226.805 23.0446C226.805 23.1974 226.843 23.3452 226.917 23.4882C226.995 23.6312 227.119 23.7499 227.288 23.8441C227.46 23.9384 227.688 23.9855 227.97 23.9855Z" fill="#F2EEEB"/>
<path id="Warszawa ul.Warszawka 56" d="M179.648 36.0833L178.296 31.4033H178.793L179.889 35.2675L180.977 31.4065L181.478 31.4033L182.573 35.2675L183.662 31.4033H184.162L182.814 36.0833H182.333L181.228 32.245L180.129 36.0833H179.648ZM185.437 36.1808C185.173 36.1808 184.951 36.1331 184.771 36.0378C184.593 35.9424 184.46 35.8157 184.371 35.6575C184.282 35.4993 184.238 35.3271 184.238 35.1408C184.238 34.9501 184.276 34.7876 184.352 34.6533C184.43 34.5168 184.535 34.4052 184.667 34.3185C184.801 34.2318 184.956 34.1658 185.132 34.1203C185.309 34.0769 185.506 34.039 185.72 34.0065C185.937 33.9718 186.148 33.9426 186.354 33.9188C186.562 33.8928 186.744 33.8678 186.9 33.844L186.731 33.948C186.737 33.6013 186.67 33.3446 186.529 33.1778C186.388 33.0109 186.144 32.9275 185.795 32.9275C185.554 32.9275 185.351 32.9817 185.184 33.09C185.019 33.1983 184.903 33.3695 184.836 33.6035L184.371 33.467C184.451 33.1528 184.613 32.9091 184.856 32.7358C185.098 32.5624 185.413 32.4758 185.801 32.4758C186.122 32.4758 186.394 32.5364 186.617 32.6578C186.842 32.7769 187.002 32.9503 187.095 33.1778C187.138 33.2796 187.166 33.3933 187.179 33.519C187.192 33.6447 187.199 33.7725 187.199 33.9025V36.0833H186.773V35.2025L186.897 35.2545C186.777 35.5557 186.592 35.7853 186.341 35.9435C186.089 36.1017 185.788 36.1808 185.437 36.1808ZM185.493 35.768C185.716 35.768 185.911 35.7279 186.078 35.6478C186.244 35.5676 186.379 35.4582 186.481 35.3195C186.582 35.1787 186.648 35.0205 186.679 34.845C186.705 34.7323 186.719 34.6088 186.721 34.4745C186.723 34.338 186.724 34.2362 186.724 34.169L186.906 34.2633C186.744 34.2849 186.567 34.3066 186.377 34.3283C186.188 34.3499 186.002 34.3748 185.818 34.403C185.636 34.4312 185.471 34.4648 185.324 34.5038C185.224 34.5319 185.127 34.572 185.034 34.624C184.941 34.6738 184.864 34.741 184.804 34.8255C184.745 34.91 184.716 35.0151 184.716 35.1408C184.716 35.2426 184.741 35.3412 184.791 35.4365C184.843 35.5318 184.925 35.6109 185.038 35.6738C185.152 35.7366 185.304 35.768 185.493 35.768ZM188.045 36.0833V32.5733H188.474V33.4183L188.389 33.3078C188.428 33.2038 188.479 33.1084 188.542 33.0218C188.605 32.9329 188.673 32.8603 188.747 32.804C188.838 32.7238 188.944 32.6632 189.065 32.622C189.187 32.5787 189.309 32.5538 189.433 32.5473C189.556 32.5386 189.669 32.5473 189.771 32.5733V33.0218C189.643 32.9893 189.503 32.9817 189.351 32.999C189.2 33.0163 189.06 33.077 188.932 33.181C188.815 33.272 188.727 33.3814 188.669 33.5093C188.61 33.6349 188.571 33.7693 188.552 33.9123C188.532 34.0531 188.523 34.1928 188.523 34.3315V36.0833H188.045ZM191.57 36.1775C191.158 36.1775 190.819 36.0887 190.553 35.911C190.288 35.7333 190.126 35.4863 190.065 35.17L190.553 35.0888C190.605 35.2881 190.723 35.4473 190.907 35.5665C191.093 35.6835 191.323 35.742 191.596 35.742C191.862 35.742 192.073 35.6868 192.226 35.5763C192.38 35.4636 192.457 35.3108 192.457 35.118C192.457 35.0097 192.432 34.9219 192.382 34.8548C192.335 34.7854 192.236 34.7215 192.087 34.663C191.937 34.6045 191.714 34.5352 191.417 34.455C191.099 34.3683 190.85 34.2817 190.67 34.195C190.49 34.1083 190.362 34.0087 190.286 33.896C190.21 33.7812 190.172 33.6414 190.172 33.4768C190.172 33.2774 190.229 33.103 190.341 32.9535C190.454 32.8018 190.61 32.6848 190.809 32.6025C191.009 32.518 191.241 32.4758 191.505 32.4758C191.769 32.4758 192.005 32.5191 192.213 32.6058C192.424 32.6903 192.593 32.8094 192.72 32.9633C192.848 33.1171 192.924 33.2958 192.948 33.4995L192.46 33.5873C192.428 33.3814 192.325 33.2189 192.152 33.0998C191.981 32.9784 191.763 32.9156 191.498 32.9113C191.249 32.9048 191.047 32.9524 190.891 33.0543C190.735 33.1539 190.657 33.2872 190.657 33.454C190.657 33.5472 190.685 33.6273 190.741 33.6945C190.798 33.7595 190.899 33.8213 191.047 33.8798C191.196 33.9383 191.409 34.0022 191.684 34.0715C192.007 34.1538 192.26 34.2405 192.444 34.3315C192.628 34.4225 192.759 34.5298 192.837 34.6533C192.915 34.7768 192.954 34.9295 192.954 35.1115C192.954 35.443 192.831 35.7041 192.584 35.8948C192.339 36.0833 192.001 36.1775 191.57 36.1775ZM193.35 36.0833V35.9825L195.615 33.0185H193.519V32.5733H196.402V32.6838L194.14 35.638H196.278V36.0833H193.35ZM197.923 36.1808C197.659 36.1808 197.437 36.1331 197.257 36.0378C197.079 35.9424 196.946 35.8157 196.857 35.6575C196.768 35.4993 196.724 35.3271 196.724 35.1408C196.724 34.9501 196.762 34.7876 196.838 34.6533C196.916 34.5168 197.021 34.4052 197.153 34.3185C197.287 34.2318 197.442 34.1658 197.618 34.1203C197.795 34.0769 197.991 34.039 198.206 34.0065C198.423 33.9718 198.634 33.9426 198.84 33.9188C199.048 33.8928 199.23 33.8678 199.386 33.844L199.217 33.948C199.223 33.6013 199.156 33.3446 199.015 33.1778C198.874 33.0109 198.629 32.9275 198.281 32.9275C198.04 32.9275 197.836 32.9817 197.67 33.09C197.505 33.1983 197.389 33.3695 197.322 33.6035L196.857 33.467C196.937 33.1528 197.099 32.9091 197.341 32.7358C197.584 32.5624 197.899 32.4758 198.287 32.4758C198.608 32.4758 198.88 32.5364 199.103 32.6578C199.328 32.7769 199.487 32.9503 199.581 33.1778C199.624 33.2796 199.652 33.3933 199.665 33.519C199.678 33.6447 199.685 33.7725 199.685 33.9025V36.0833H199.259V35.2025L199.382 35.2545C199.263 35.5557 199.078 35.7853 198.827 35.9435C198.575 36.1017 198.274 36.1808 197.923 36.1808ZM197.978 35.768C198.202 35.768 198.397 35.7279 198.563 35.6478C198.73 35.5676 198.865 35.4582 198.966 35.3195C199.068 35.1787 199.134 35.0205 199.165 34.845C199.191 34.7323 199.205 34.6088 199.207 34.4745C199.209 34.338 199.21 34.2362 199.21 34.169L199.392 34.2633C199.23 34.2849 199.053 34.3066 198.862 34.3283C198.674 34.3499 198.488 34.3748 198.303 34.403C198.121 34.4312 197.957 34.4648 197.809 34.5038C197.71 34.5319 197.613 34.572 197.52 34.624C197.427 34.6738 197.35 34.741 197.289 34.8255C197.231 34.91 197.202 35.0151 197.202 35.1408C197.202 35.2426 197.227 35.3412 197.276 35.4365C197.328 35.5318 197.411 35.6109 197.523 35.6738C197.638 35.7366 197.79 35.768 197.978 35.768ZM201.151 36.0833L200.079 32.57L200.556 32.5733L201.388 35.3L202.224 32.5733H202.659L203.494 35.3L204.333 32.5733H204.807L203.735 36.0833H203.319L202.441 33.2883L201.567 36.0833H201.151ZM206.2 36.1808C205.936 36.1808 205.714 36.1331 205.534 36.0378C205.357 35.9424 205.223 35.8157 205.134 35.6575C205.046 35.4993 205.001 35.3271 205.001 35.1408C205.001 34.9501 205.039 34.7876 205.115 34.6533C205.193 34.5168 205.298 34.4052 205.43 34.3185C205.565 34.2318 205.719 34.1658 205.895 34.1203C206.073 34.0769 206.269 34.039 206.483 34.0065C206.7 33.9718 206.911 33.9426 207.117 33.9188C207.325 33.8928 207.507 33.8678 207.663 33.844L207.494 33.948C207.5 33.6013 207.433 33.3446 207.292 33.1778C207.152 33.0109 206.907 32.9275 206.558 32.9275C206.317 32.9275 206.114 32.9817 205.947 33.09C205.782 33.1983 205.666 33.3695 205.599 33.6035L205.134 33.467C205.215 33.1528 205.376 32.9091 205.619 32.7358C205.861 32.5624 206.177 32.4758 206.564 32.4758C206.885 32.4758 207.157 32.5364 207.38 32.6578C207.606 32.7769 207.765 32.9503 207.858 33.1778C207.901 33.2796 207.929 33.3933 207.942 33.519C207.955 33.6447 207.962 33.7725 207.962 33.9025V36.0833H207.536V35.2025L207.66 35.2545C207.541 35.5557 207.355 35.7853 207.104 35.9435C206.853 36.1017 206.551 36.1808 206.2 36.1808ZM206.256 35.768C206.479 35.768 206.674 35.7279 206.841 35.6478C207.008 35.5676 207.142 35.4582 207.244 35.3195C207.346 35.1787 207.412 35.0205 207.442 34.845C207.468 34.7323 207.482 34.6088 207.484 34.4745C207.486 34.338 207.487 34.2362 207.487 34.169L207.669 34.2633C207.507 34.2849 207.33 34.3066 207.14 34.3283C206.951 34.3499 206.765 34.3748 206.581 34.403C206.399 34.4312 206.234 34.4648 206.087 34.5038C205.987 34.5319 205.891 34.572 205.797 34.624C205.704 34.6738 205.627 34.741 205.567 34.8255C205.508 34.91 205.479 35.0151 205.479 35.1408C205.479 35.2426 205.504 35.3412 205.554 35.4365C205.606 35.5318 205.688 35.6109 205.801 35.6738C205.916 35.7366 206.067 35.768 206.256 35.768ZM170.22 45.171C170.01 45.171 169.826 45.1385 169.668 45.0735C169.512 45.0085 169.379 44.9208 169.268 44.8103C169.16 44.6998 169.072 44.5741 169.005 44.4333C168.938 44.2903 168.889 44.1397 168.859 43.9815C168.828 43.8212 168.813 43.6619 168.813 43.5038V41.5733H169.294V43.364C169.294 43.5568 169.313 43.7356 169.349 43.9003C169.386 44.0649 169.445 44.209 169.525 44.3325C169.607 44.4538 169.712 44.5481 169.84 44.6153C169.97 44.6824 170.127 44.716 170.311 44.716C170.48 44.716 170.629 44.6868 170.757 44.6283C170.887 44.5698 170.995 44.4863 171.082 44.378C171.17 44.2675 171.238 44.1343 171.283 43.9783C171.329 43.8201 171.351 43.6424 171.351 43.4453L171.689 43.52C171.689 43.8797 171.627 44.1819 171.501 44.4268C171.375 44.6716 171.202 44.8568 170.981 44.9825C170.76 45.1082 170.506 45.171 170.22 45.171ZM171.4 45.0833V44.2188H171.351V41.5733H171.829V45.0833H171.4ZM172.802 45.0833V40.3058H173.28V45.0833H172.802ZM174.346 45.0833V44.5275H174.901V45.0833H174.346ZM176.909 45.0833L175.557 40.4033H176.054L177.15 44.2675L178.238 40.4065L178.739 40.4033L179.834 44.2675L180.923 40.4033H181.423L180.075 45.0833H179.594L178.489 41.245L177.39 45.0833H176.909ZM182.698 45.1808C182.434 45.1808 182.212 45.1331 182.032 45.0378C181.854 44.9424 181.721 44.8157 181.632 44.6575C181.543 44.4993 181.499 44.3271 181.499 44.1408C181.499 43.9501 181.537 43.7876 181.613 43.6533C181.691 43.5168 181.796 43.4052 181.928 43.3185C182.062 43.2318 182.217 43.1658 182.393 43.1203C182.57 43.0769 182.767 43.039 182.981 43.0065C183.198 42.9718 183.409 42.9426 183.615 42.9188C183.823 42.8928 184.005 42.8678 184.161 42.844L183.992 42.948C183.998 42.6013 183.931 42.3446 183.79 42.1778C183.649 42.0109 183.405 41.9275 183.056 41.9275C182.815 41.9275 182.612 41.9817 182.445 42.09C182.28 42.1983 182.164 42.3695 182.097 42.6035L181.632 42.467C181.712 42.1528 181.874 41.9091 182.117 41.7358C182.359 41.5624 182.674 41.4758 183.062 41.4758C183.383 41.4758 183.655 41.5364 183.878 41.6578C184.103 41.7769 184.263 41.9503 184.356 42.1778C184.399 42.2796 184.427 42.3933 184.44 42.519C184.453 42.6447 184.46 42.7725 184.46 42.9025V45.0833H184.034V44.2025L184.158 44.2545C184.038 44.5557 183.853 44.7853 183.602 44.9435C183.35 45.1017 183.049 45.1808 182.698 45.1808ZM182.754 44.768C182.977 44.768 183.172 44.7279 183.339 44.6478C183.505 44.5676 183.64 44.4582 183.742 44.3195C183.843 44.1787 183.909 44.0205 183.94 43.845C183.966 43.7323 183.98 43.6088 183.982 43.4745C183.984 43.338 183.985 43.2362 183.985 43.169L184.167 43.2633C184.005 43.2849 183.828 43.3066 183.638 43.3283C183.449 43.3499 183.263 43.3748 183.079 43.403C182.897 43.4312 182.732 43.4648 182.585 43.5038C182.485 43.5319 182.388 43.572 182.295 43.624C182.202 43.6738 182.125 43.741 182.065 43.8255C182.006 43.91 181.977 44.0151 181.977 44.1408C181.977 44.2426 182.002 44.3412 182.052 44.4365C182.104 44.5318 182.186 44.6109 182.299 44.6738C182.413 44.7366 182.565 44.768 182.754 44.768ZM185.306 45.0833V41.5733H185.735V42.4183L185.65 42.3078C185.689 42.2038 185.74 42.1084 185.803 42.0218C185.866 41.9329 185.934 41.8603 186.008 41.804C186.099 41.7238 186.205 41.6632 186.326 41.622C186.448 41.5787 186.57 41.5538 186.694 41.5473C186.817 41.5386 186.93 41.5473 187.032 41.5733V42.0218C186.904 41.9893 186.764 41.9817 186.612 41.999C186.461 42.0163 186.321 42.077 186.193 42.181C186.076 42.272 185.988 42.3814 185.93 42.5093C185.871 42.6349 185.832 42.7693 185.813 42.9123C185.793 43.0531 185.784 43.1928 185.784 43.3315V45.0833H185.306ZM188.831 45.1775C188.419 45.1775 188.08 45.0887 187.814 44.911C187.549 44.7333 187.387 44.4863 187.326 44.17L187.814 44.0888C187.866 44.2881 187.984 44.4473 188.168 44.5665C188.354 44.6835 188.584 44.742 188.857 44.742C189.123 44.742 189.334 44.6868 189.487 44.5763C189.641 44.4636 189.718 44.3108 189.718 44.118C189.718 44.0097 189.693 43.9219 189.643 43.8548C189.596 43.7854 189.497 43.7215 189.348 43.663C189.198 43.6045 188.975 43.5352 188.678 43.455C188.36 43.3683 188.11 43.2817 187.931 43.195C187.751 43.1083 187.623 43.0087 187.547 42.896C187.471 42.7812 187.433 42.6414 187.433 42.4768C187.433 42.2774 187.49 42.103 187.602 41.9535C187.715 41.8018 187.871 41.6848 188.07 41.6025C188.27 41.518 188.502 41.4758 188.766 41.4758C189.03 41.4758 189.266 41.5191 189.474 41.6058C189.685 41.6903 189.854 41.8094 189.981 41.9633C190.109 42.1171 190.185 42.2958 190.209 42.4995L189.721 42.5873C189.689 42.3814 189.586 42.2189 189.413 42.0998C189.241 41.9784 189.024 41.9156 188.759 41.9113C188.51 41.9048 188.308 41.9524 188.152 42.0543C187.996 42.1539 187.918 42.2872 187.918 42.454C187.918 42.5472 187.946 42.6273 188.002 42.6945C188.058 42.7595 188.16 42.8213 188.308 42.8798C188.457 42.9383 188.669 43.0022 188.945 43.0715C189.267 43.1538 189.521 43.2405 189.705 43.3315C189.889 43.4225 190.02 43.5298 190.098 43.6533C190.176 43.7768 190.215 43.9295 190.215 44.1115C190.215 44.443 190.092 44.7041 189.845 44.8948C189.6 45.0833 189.262 45.1775 188.831 45.1775ZM190.611 45.0833V44.9825L192.876 42.0185H190.78V41.5733H193.663V41.6838L191.401 44.638H193.539V45.0833H190.611ZM195.184 45.1808C194.92 45.1808 194.698 45.1331 194.518 45.0378C194.34 44.9424 194.207 44.8157 194.118 44.6575C194.029 44.4993 193.985 44.3271 193.985 44.1408C193.985 43.9501 194.023 43.7876 194.099 43.6533C194.177 43.5168 194.282 43.4052 194.414 43.3185C194.548 43.2318 194.703 43.1658 194.879 43.1203C195.056 43.0769 195.252 43.039 195.467 43.0065C195.684 42.9718 195.895 42.9426 196.101 42.9188C196.309 42.8928 196.491 42.8678 196.647 42.844L196.478 42.948C196.484 42.6013 196.417 42.3446 196.276 42.1778C196.135 42.0109 195.89 41.9275 195.542 41.9275C195.301 41.9275 195.097 41.9817 194.931 42.09C194.766 42.1983 194.65 42.3695 194.583 42.6035L194.118 42.467C194.198 42.1528 194.36 41.9091 194.602 41.7358C194.845 41.5624 195.16 41.4758 195.548 41.4758C195.869 41.4758 196.141 41.5364 196.364 41.6578C196.589 41.7769 196.748 41.9503 196.842 42.1778C196.885 42.2796 196.913 42.3933 196.926 42.519C196.939 42.6447 196.946 42.7725 196.946 42.9025V45.0833H196.52V44.2025L196.643 44.2545C196.524 44.5557 196.339 44.7853 196.088 44.9435C195.836 45.1017 195.535 45.1808 195.184 45.1808ZM195.239 44.768C195.463 44.768 195.658 44.7279 195.824 44.6478C195.991 44.5676 196.126 44.4582 196.227 44.3195C196.329 44.1787 196.395 44.0205 196.426 43.845C196.452 43.7323 196.466 43.6088 196.468 43.4745C196.47 43.338 196.471 43.2362 196.471 43.169L196.653 43.2633C196.491 43.2849 196.314 43.3066 196.123 43.3283C195.935 43.3499 195.749 43.3748 195.564 43.403C195.382 43.4312 195.218 43.4648 195.07 43.5038C194.971 43.5319 194.874 43.572 194.781 43.624C194.688 43.6738 194.611 43.741 194.55 43.8255C194.492 43.91 194.463 44.0151 194.463 44.1408C194.463 44.2426 194.488 44.3412 194.537 44.4365C194.589 44.5318 194.672 44.6109 194.784 44.6738C194.899 44.7366 195.051 44.768 195.239 44.768ZM198.412 45.0833L197.34 41.57L197.817 41.5733L198.649 44.3L199.485 41.5733H199.92L200.755 44.3L201.594 41.5733H202.068L200.996 45.0833H200.58L199.702 42.2883L198.828 45.0833H198.412ZM202.651 45.0833L202.654 40.4033H203.135V43.2633L204.701 41.5733H205.338L203.694 43.3283L205.553 45.0833H204.857L203.135 43.3933V45.0833H202.651ZM206.883 45.1808C206.619 45.1808 206.396 45.1331 206.217 45.0378C206.039 44.9424 205.906 44.8157 205.817 44.6575C205.728 44.4993 205.684 44.3271 205.684 44.1408C205.684 43.9501 205.722 43.7876 205.797 43.6533C205.875 43.5168 205.98 43.4052 206.113 43.3185C206.247 43.2318 206.402 43.1658 206.577 43.1203C206.755 43.0769 206.951 43.039 207.166 43.0065C207.382 42.9718 207.594 42.9426 207.799 42.9188C208.007 42.8928 208.189 42.8678 208.345 42.844L208.176 42.948C208.183 42.6013 208.116 42.3446 207.975 42.1778C207.834 42.0109 207.589 41.9275 207.24 41.9275C207 41.9275 206.796 41.9817 206.629 42.09C206.465 42.1983 206.349 42.3695 206.282 42.6035L205.817 42.467C205.897 42.1528 206.058 41.9091 206.301 41.7358C206.544 41.5624 206.859 41.4758 207.247 41.4758C207.568 41.4758 207.839 41.5364 208.063 41.6578C208.288 41.7769 208.447 41.9503 208.54 42.1778C208.584 42.2796 208.612 42.3933 208.625 42.519C208.638 42.6447 208.644 42.7725 208.644 42.9025V45.0833H208.219V44.2025L208.342 44.2545C208.223 44.5557 208.038 44.7853 207.786 44.9435C207.535 45.1017 207.234 45.1808 206.883 45.1808ZM206.938 44.768C207.161 44.768 207.356 44.7279 207.523 44.6478C207.69 44.5676 207.824 44.4582 207.926 44.3195C208.028 44.1787 208.094 44.0205 208.124 43.845C208.15 43.7323 208.164 43.6088 208.167 43.4745C208.169 43.338 208.17 43.2362 208.17 43.169L208.352 43.2633C208.189 43.2849 208.013 43.3066 207.822 43.3283C207.634 43.3499 207.447 43.3748 207.263 43.403C207.081 43.4312 206.916 43.4648 206.769 43.5038C206.669 43.5319 206.573 43.572 206.48 43.624C206.387 43.6738 206.31 43.741 206.249 43.8255C206.191 43.91 206.161 44.0151 206.161 44.1408C206.161 44.2426 206.186 44.3412 206.236 44.4365C206.288 44.5318 206.37 44.6109 206.483 44.6738C206.598 44.7366 206.75 44.768 206.938 44.768ZM212.173 45.1808C211.93 45.1808 211.706 45.1309 211.5 45.0313C211.294 44.9316 211.119 44.794 210.974 44.6185C210.829 44.443 210.725 44.2415 210.662 44.014L211.12 43.8905C211.161 44.0595 211.236 44.2058 211.344 44.3293C211.453 44.4506 211.579 44.5448 211.724 44.612C211.872 44.6792 212.026 44.7128 212.186 44.7128C212.394 44.7128 212.58 44.6629 212.745 44.5633C212.912 44.4614 213.044 44.3271 213.141 44.1603C213.239 43.9934 213.288 43.8103 213.288 43.611C213.288 43.4052 213.237 43.2199 213.135 43.0553C213.033 42.8884 212.899 42.7563 212.732 42.6588C212.565 42.5613 212.383 42.5125 212.186 42.5125C211.965 42.5125 211.774 42.5613 211.614 42.6588C211.454 42.7541 211.326 42.8743 211.23 43.0195L210.795 42.8375L210.938 40.4033H213.437V40.8615H211.149L211.386 40.6373L211.26 42.714L211.139 42.5548C211.274 42.4009 211.436 42.2807 211.627 42.194C211.818 42.1073 212.018 42.064 212.228 42.064C212.516 42.064 212.776 42.1333 213.008 42.272C213.24 42.4085 213.424 42.5938 213.561 42.8278C213.697 43.0618 213.765 43.3228 213.765 43.611C213.765 43.897 213.693 44.1592 213.548 44.3975C213.403 44.6337 213.21 44.8233 212.969 44.9663C212.729 45.1093 212.463 45.1808 212.173 45.1808ZM216.126 45.1808C215.833 45.1808 215.567 45.1103 215.326 44.9695C215.088 44.8265 214.897 44.6337 214.754 44.391C214.614 44.1462 214.543 43.871 214.543 43.5655V41.9438C214.543 41.6296 214.614 41.3501 214.754 41.1053C214.895 40.8583 215.087 40.6643 215.33 40.5235C215.574 40.3805 215.852 40.309 216.162 40.309C216.428 40.309 216.675 40.3675 216.903 40.4845C217.132 40.6015 217.32 40.7651 217.465 40.9753L217.098 41.2775C216.998 41.1215 216.866 40.9969 216.701 40.9038C216.536 40.8106 216.357 40.764 216.162 40.764C215.943 40.764 215.748 40.8171 215.577 40.9233C215.405 41.0294 215.271 41.1692 215.174 41.3425C215.076 41.5137 215.027 41.7 215.027 41.9015V42.922L214.907 42.7855C215.044 42.571 215.222 42.3977 215.443 42.2655C215.667 42.1333 215.909 42.0673 216.171 42.0673C216.462 42.0673 216.723 42.1366 216.955 42.2753C217.186 42.4118 217.371 42.597 217.507 42.831C217.644 43.065 217.712 43.3272 217.712 43.6175C217.712 43.9057 217.639 44.1678 217.494 44.404C217.351 44.6402 217.159 44.8287 216.919 44.9695C216.681 45.1103 216.416 45.1808 216.126 45.1808ZM216.126 44.716C216.33 44.716 216.515 44.6673 216.682 44.5698C216.851 44.4723 216.984 44.3401 217.081 44.1733C217.181 44.0064 217.231 43.8212 217.231 43.6175C217.231 43.4138 217.181 43.2286 217.081 43.0618C216.984 42.8928 216.852 42.7595 216.685 42.662C216.518 42.5623 216.333 42.5125 216.129 42.5125C215.925 42.5125 215.74 42.5623 215.573 42.662C215.407 42.7595 215.273 42.8928 215.174 43.0618C215.076 43.2286 215.027 43.4138 215.027 43.6175C215.027 43.819 215.076 44.0032 215.174 44.17C215.271 44.3368 215.403 44.4701 215.57 44.5698C215.737 44.6673 215.922 44.716 216.126 44.716Z" fill="#F2EEEB"/>
<path id="Vector_3" d="M313.192 35.8847C313.957 35.7874 314.656 35.4025 315.147 34.8082C315.638 34.2139 315.885 33.4549 315.837 32.6853C315.788 31.9158 315.449 31.1935 314.887 30.6653C314.325 30.1371 313.584 29.8425 312.813 29.8416C312.041 29.841 311.297 30.1348 310.735 30.6631C310.172 31.1914 309.831 31.9145 309.783 32.685C309.735 33.4555 309.982 34.2154 310.474 34.8099C310.967 35.4044 311.667 35.7888 312.433 35.8847V33.6333H311.675V32.8749H312.433V32.2478C312.433 31.7408 312.487 31.5569 312.585 31.3715C312.682 31.1881 312.832 31.0381 313.016 30.9412C313.161 30.8634 313.341 30.8168 313.656 30.7967C313.78 30.7887 313.942 30.7986 314.14 30.827V31.5475H313.95C313.602 31.5475 313.459 31.5638 313.373 31.6096C313.322 31.6359 313.28 31.6776 313.254 31.7287C313.209 31.8144 313.192 31.8993 313.192 32.2474V32.8749H314.14L313.95 33.6333H313.192V35.8847ZM312.813 36.6666C310.719 36.6666 309.021 34.9691 309.021 32.8749C309.021 30.7808 310.719 29.0833 312.813 29.0833C314.907 29.0833 316.604 30.7808 316.604 32.8749C316.604 34.9691 314.907 36.6666 312.813 36.6666Z" fill="#FCFCFC"/>
</g>
<path id="Kontakt" d="M55.6206 24.4584V17.4384H56.3372V20.7534L59.5401 17.4384H60.4566L57.1854 20.8265L60.7247 24.4584H59.7887L56.3372 20.9484V24.4584H55.6206ZM63.2179 24.6046C62.6946 24.6046 62.2478 24.486 61.8773 24.2487C61.5068 24.0115 61.2224 23.6832 61.0241 23.264C60.8259 22.8447 60.7268 22.3637 60.7268 21.821C60.7268 21.2685 60.8275 20.7842 61.029 20.3682C61.2305 19.9522 61.5165 19.6289 61.887 19.3981C62.2608 19.1641 62.7044 19.0471 63.2179 19.0471C63.7444 19.0471 64.1929 19.1657 64.5634 19.403C64.9371 19.637 65.2215 19.9636 65.4165 20.3829C65.6148 20.7989 65.7139 21.2782 65.7139 21.821C65.7139 22.3735 65.6148 22.8594 65.4165 23.2786C65.2183 23.6946 64.9323 24.0196 64.5585 24.2536C64.1848 24.4876 63.7379 24.6046 63.2179 24.6046ZM63.2179 23.9172C63.8029 23.9172 64.2384 23.7239 64.5244 23.3371C64.8104 22.9471 64.9534 22.4417 64.9534 21.821C64.9534 21.184 64.8088 20.677 64.5195 20.3C64.2335 19.923 63.7996 19.7345 63.2179 19.7345C62.8246 19.7345 62.4996 19.8239 62.2429 20.0026C61.9894 20.1781 61.7993 20.4235 61.6725 20.7387C61.549 21.0507 61.4873 21.4115 61.4873 21.821C61.4873 22.4547 61.6335 22.9634 61.926 23.3469C62.2185 23.7271 62.6491 23.9172 63.2179 23.9172ZM70.5918 24.4584V21.7722C70.5918 21.4797 70.5641 21.2116 70.5089 20.9679C70.4536 20.7209 70.3643 20.5064 70.2408 20.3244C70.1205 20.1391 69.9629 19.9961 69.7679 19.8954C69.5761 19.7946 69.3421 19.7442 69.0659 19.7442C68.8124 19.7442 68.5881 19.7881 68.3931 19.8759C68.2014 19.9636 68.0389 20.0904 67.9056 20.2561C67.7756 20.4186 67.6765 20.6169 67.6083 20.8509C67.54 21.0849 67.5059 21.3514 67.5059 21.6504L66.9989 21.5382C66.9989 20.9987 67.0931 20.5454 67.2816 20.1781C67.4701 19.8109 67.7301 19.533 68.0616 19.3445C68.3931 19.156 68.7734 19.0617 69.2024 19.0617C69.5176 19.0617 69.7923 19.1105 70.0263 19.208C70.2635 19.3055 70.4634 19.4371 70.6259 19.6029C70.7916 19.7686 70.9249 19.9587 71.0256 20.1732C71.1264 20.3845 71.1995 20.6104 71.245 20.8509C71.2905 21.0881 71.3133 21.3254 71.3133 21.5626V24.4584H70.5918ZM66.7844 24.4584V19.1934H67.4328V20.4901H67.5059V24.4584H66.7844ZM75.4448 24.4584C75.1491 24.5201 74.8566 24.5445 74.5673 24.5315C74.2813 24.5185 74.0246 24.4567 73.7971 24.3462C73.5728 24.2357 73.4022 24.0635 73.2852 23.8295C73.191 23.6345 73.139 23.4379 73.1292 23.2396C73.1227 23.0381 73.1195 22.809 73.1195 22.5522V17.7309H73.8312V22.523C73.8312 22.744 73.8328 22.9292 73.8361 23.0787C73.8426 23.225 73.8767 23.355 73.9385 23.4687C74.0555 23.6865 74.2407 23.8165 74.4942 23.8587C74.751 23.901 75.0678 23.8912 75.4448 23.8295V24.4584ZM71.9933 19.8076V19.1934H75.4448V19.8076H71.9933ZM77.9885 24.6046C77.592 24.6046 77.2589 24.5331 76.9891 24.3901C76.7226 24.2471 76.5228 24.057 76.3895 23.8197C76.2563 23.5825 76.1896 23.3241 76.1896 23.0446C76.1896 22.7586 76.2465 22.5149 76.3603 22.3134C76.4773 22.1086 76.6349 21.9412 76.8331 21.8112C77.0346 21.6812 77.267 21.5821 77.5303 21.5139C77.7968 21.4489 78.0909 21.392 78.4126 21.3432C78.7376 21.2912 79.0545 21.2474 79.3633 21.2116C79.6753 21.1726 79.9483 21.1352 80.1823 21.0995L79.9288 21.2555C79.9385 20.7355 79.8378 20.3504 79.6265 20.1001C79.4153 19.8499 79.048 19.7247 78.5248 19.7247C78.164 19.7247 77.8585 19.806 77.6083 19.9685C77.3613 20.131 77.1874 20.3877 77.0866 20.7387L76.3895 20.534C76.5098 20.0627 76.7519 19.6971 77.1159 19.4371C77.4799 19.1771 77.9528 19.0471 78.5345 19.0471C79.0155 19.0471 79.4234 19.1381 79.7581 19.3201C80.0961 19.4989 80.335 19.7589 80.4748 20.1001C80.5398 20.2529 80.582 20.4235 80.6015 20.612C80.621 20.8005 80.6308 20.9922 80.6308 21.1872V24.4584H79.9921V23.1372L80.1774 23.2152C79.9986 23.667 79.7208 24.0115 79.3438 24.2487C78.9668 24.486 78.515 24.6046 77.9885 24.6046ZM78.0714 23.9855C78.4061 23.9855 78.6986 23.9254 78.9489 23.8051C79.1991 23.6849 79.4006 23.5207 79.5534 23.3127C79.7061 23.1015 79.8053 22.8642 79.8508 22.601C79.8898 22.432 79.9109 22.2467 79.9141 22.0452C79.9174 21.8405 79.919 21.6877 79.919 21.587L80.192 21.7284C79.9483 21.7609 79.6834 21.7934 79.3974 21.8259C79.1146 21.8584 78.8351 21.8957 78.5589 21.938C78.2859 21.9802 78.0389 22.0306 77.8179 22.0891C77.6684 22.1314 77.5238 22.1915 77.384 22.2695C77.2443 22.3442 77.1289 22.445 77.0379 22.5717C76.9501 22.6985 76.9063 22.8561 76.9063 23.0446C76.9063 23.1974 76.9436 23.3452 77.0184 23.4882C77.0964 23.6312 77.2199 23.7499 77.3889 23.8441C77.5611 23.9384 77.7886 23.9855 78.0714 23.9855ZM81.895 24.4584L81.8999 17.4384H82.6214V21.7284L84.9711 19.1934H85.9266L83.4599 21.8259L86.2484 24.4584H85.2051L82.6214 21.9234V24.4584H81.895ZM89.6033 24.4584C89.3075 24.5201 89.015 24.5445 88.7258 24.5315C88.4398 24.5185 88.183 24.4567 87.9555 24.3462C87.7313 24.2357 87.5607 24.0635 87.4437 23.8295C87.3494 23.6345 87.2974 23.4379 87.2877 23.2396C87.2812 23.0381 87.2779 22.809 87.2779 22.5522V17.7309H87.9897V22.523C87.9897 22.744 87.9913 22.9292 87.9945 23.0787C88.001 23.225 88.0352 23.355 88.0969 23.4687C88.2139 23.6865 88.3992 23.8165 88.6527 23.8587C88.9094 23.901 89.2263 23.8912 89.6033 23.8295V24.4584ZM86.1518 19.8076V19.1934H89.6033V19.8076H86.1518Z" fill="#F2EEEB"/>
<path id="Whale@work.com" d="M46.1944 38.5208L44.8424 33.8408H45.3396L46.4349 37.705L47.5236 33.844L48.0241 33.8408L49.1194 37.705L50.2081 33.8408H50.7086L49.3599 38.5208H48.8789L47.7739 34.6825L46.6754 38.5208H46.1944ZM53.8062 38.5208V36.73C53.8062 36.535 53.7877 36.3563 53.7509 36.1938C53.7141 36.0291 53.6545 35.8861 53.5722 35.7648C53.492 35.6413 53.3869 35.5459 53.2569 35.4788C53.1291 35.4116 52.9731 35.378 52.7889 35.378C52.6199 35.378 52.4704 35.4073 52.3404 35.4658C52.2126 35.5243 52.1042 35.6088 52.0154 35.7193C51.9287 35.8276 51.8627 35.9598 51.8172 36.1158C51.7717 36.2718 51.7489 36.4494 51.7489 36.6488L51.4109 36.574C51.4109 36.2143 51.4737 35.9121 51.5994 35.6673C51.7251 35.4224 51.8984 35.2372 52.1194 35.1115C52.3404 34.9858 52.5939 34.923 52.8799 34.923C53.0901 34.923 53.2732 34.9555 53.4292 35.0205C53.5873 35.0855 53.7206 35.1733 53.8289 35.2838C53.9394 35.3943 54.0282 35.521 54.0954 35.664C54.1626 35.8048 54.2113 35.9554 54.2417 36.1158C54.272 36.2739 54.2872 36.4321 54.2872 36.5903V38.5208H53.8062ZM51.2679 38.5208V33.8408H51.7002V36.483H51.7489V38.5208H51.2679ZM56.1348 38.6183C55.8705 38.6183 55.6484 38.5706 55.4685 38.4753C55.2909 38.3799 55.1576 38.2532 55.0688 38.095C54.98 37.9368 54.9355 37.7646 54.9355 37.5783C54.9355 37.3876 54.9735 37.2251 55.0493 37.0908C55.1273 36.9543 55.2324 36.8427 55.3645 36.756C55.4989 36.6693 55.6538 36.6033 55.8293 36.5578C56.007 36.5144 56.203 36.4765 56.4175 36.444C56.6342 36.4093 56.8455 36.3801 57.0513 36.3563C57.2593 36.3303 57.4413 36.3053 57.5973 36.2815L57.4283 36.3855C57.4348 36.0388 57.3676 35.7821 57.2268 35.6153C57.086 35.4484 56.8411 35.365 56.4923 35.365C56.2518 35.365 56.0481 35.4192 55.8813 35.5275C55.7166 35.6358 55.6007 35.807 55.5335 36.041L55.0688 35.9045C55.149 35.5903 55.3104 35.3466 55.553 35.1733C55.7957 34.9999 56.111 34.9133 56.4988 34.9133C56.8195 34.9133 57.0914 34.9739 57.3145 35.0953C57.5399 35.2144 57.6991 35.3878 57.7923 35.6153C57.8356 35.7171 57.8638 35.8308 57.8768 35.9565C57.8898 36.0822 57.8963 36.21 57.8963 36.34V38.5208H57.4705V37.64L57.594 37.692C57.4749 37.9932 57.2896 38.2228 57.0383 38.381C56.787 38.5392 56.4858 38.6183 56.1348 38.6183ZM56.19 38.2055C56.4132 38.2055 56.6082 38.1654 56.775 38.0853C56.9419 38.0051 57.0762 37.8957 57.178 37.757C57.2799 37.6162 57.346 37.458 57.3763 37.2825C57.4023 37.1698 57.4164 37.0463 57.4185 36.912C57.4207 36.7755 57.4218 36.6737 57.4218 36.6065L57.6038 36.7008C57.4413 36.7224 57.2647 36.7441 57.074 36.7658C56.8855 36.7874 56.6992 36.8123 56.515 36.8405C56.333 36.8687 56.1684 36.9023 56.021 36.9413C55.9214 36.9694 55.825 37.0095 55.7318 37.0615C55.6386 37.1113 55.5617 37.1785 55.501 37.263C55.4425 37.3475 55.4133 37.4526 55.4133 37.5783C55.4133 37.6801 55.4382 37.7787 55.488 37.874C55.54 37.9693 55.6224 38.0484 55.735 38.1113C55.8499 38.1741 56.0015 38.2055 56.19 38.2055ZM58.8074 38.5208V33.7433H59.2851V38.5208H58.8074ZM61.7447 38.6183C61.4024 38.6183 61.1055 38.5424 60.8542 38.3908C60.605 38.2391 60.4111 38.0257 60.2724 37.7505C60.1338 37.4753 60.0644 37.1525 60.0644 36.782C60.0644 36.3985 60.1327 36.067 60.2692 35.7875C60.4057 35.508 60.5974 35.2924 60.8444 35.1408C61.0936 34.9891 61.3872 34.9133 61.7252 34.9133C62.0719 34.9133 62.3676 34.9934 62.6124 35.1538C62.8573 35.3119 63.0425 35.5394 63.1682 35.8363C63.2939 36.1331 63.3513 36.4873 63.3404 36.899H62.8529V36.73C62.8443 36.275 62.7457 35.9316 62.5572 35.6998C62.3709 35.4679 62.0979 35.352 61.7382 35.352C61.3612 35.352 61.0719 35.4744 60.8704 35.7193C60.6711 35.9641 60.5714 36.3129 60.5714 36.7658C60.5714 37.2078 60.6711 37.5512 60.8704 37.796C61.0719 38.0387 61.3569 38.16 61.7252 38.16C61.9765 38.16 62.1954 38.1026 62.3817 37.9878C62.5702 37.8708 62.7186 37.7028 62.8269 37.484L63.2722 37.6563C63.1335 37.9618 62.9288 38.199 62.6579 38.368C62.3893 38.5348 62.0849 38.6183 61.7447 38.6183ZM60.4024 36.899V36.4993H63.0837V36.899H60.4024ZM66.5544 39.2033C66.2078 39.2033 65.8871 39.1426 65.5924 39.0213C65.2978 38.9021 65.041 38.7353 64.8222 38.5208C64.6034 38.3041 64.4322 38.0495 64.3087 37.757C64.1874 37.4645 64.1267 37.146 64.1267 36.8015C64.1267 36.4353 64.1863 36.1017 64.3054 35.8005C64.4246 35.4972 64.5925 35.2361 64.8092 35.0173C65.028 34.7963 65.2869 34.6262 65.5859 34.507C65.8849 34.3878 66.2132 34.3283 66.5707 34.3283C66.9802 34.3283 67.3377 34.3943 67.6432 34.5265C67.9509 34.6565 68.2044 34.8342 68.4037 35.0595C68.603 35.2827 68.7482 35.534 68.8392 35.8135C68.9324 36.093 68.9714 36.3823 68.9562 36.6813C68.9345 37.0908 68.837 37.3995 68.6637 37.6075C68.4925 37.8155 68.2531 37.9195 67.9454 37.9195C67.7461 37.9195 67.5728 37.8729 67.4254 37.7798C67.2781 37.6866 67.1795 37.5555 67.1297 37.3865L67.2857 37.4028C67.2099 37.5566 67.0961 37.6682 66.9444 37.7375C66.7949 37.8068 66.6389 37.8415 66.4764 37.8415C66.2793 37.8415 66.1059 37.7993 65.9564 37.7148C65.8091 37.6281 65.6932 37.5089 65.6087 37.3573C65.5264 37.2056 65.4852 37.0301 65.4852 36.8308C65.4852 36.6228 65.5285 36.4429 65.6152 36.2913C65.7019 36.1396 65.821 36.0226 65.9727 35.9403C66.1244 35.8579 66.2955 35.8168 66.4862 35.8168C66.627 35.8168 66.7722 35.846 66.9217 35.9045C67.0734 35.963 67.1893 36.0583 67.2694 36.1905L67.1427 36.3335V35.9078H67.4872L67.4839 36.964C67.4839 37.1243 67.5208 37.2554 67.5944 37.3573C67.6703 37.4569 67.7949 37.5068 67.9682 37.5068C68.0852 37.5068 68.1827 37.4743 68.2607 37.4093C68.3409 37.3443 68.4026 37.2533 68.4459 37.1363C68.4893 37.0171 68.5142 36.8773 68.5207 36.717C68.5337 36.3877 68.4914 36.0995 68.3939 35.8525C68.2964 35.6055 68.1578 35.3997 67.9779 35.235C67.7981 35.0682 67.589 34.9436 67.3507 34.8613C67.1145 34.7789 66.8621 34.7378 66.5934 34.7378C66.2684 34.7378 65.9792 34.7919 65.7257 34.9003C65.4744 35.0086 65.2609 35.1581 65.0854 35.3488C64.9121 35.5394 64.781 35.7593 64.6922 36.0085C64.6034 36.2555 64.5611 36.5188 64.5654 36.7983C64.5676 37.0864 64.6196 37.3529 64.7214 37.5978C64.8254 37.8404 64.9684 38.0517 65.1504 38.2315C65.3324 38.4092 65.5448 38.5468 65.7874 38.6443C66.0301 38.7439 66.2934 38.7938 66.5772 38.7938C66.7614 38.7938 66.9455 38.7699 67.1297 38.7223C67.316 38.6746 67.4818 38.6085 67.6269 38.524L67.7797 38.888C67.5912 38.9942 67.3929 39.0733 67.1849 39.1253C66.9769 39.1773 66.7668 39.2033 66.5544 39.2033ZM66.5024 37.4255C66.6714 37.4255 66.809 37.3768 66.9152 37.2793C67.0235 37.1818 67.0777 37.0312 67.0777 36.8275C67.0777 36.6282 67.0257 36.4776 66.9217 36.3758C66.8199 36.2739 66.6834 36.223 66.5122 36.223C66.3172 36.223 66.1677 36.2761 66.0637 36.3823C65.9619 36.4884 65.9109 36.6368 65.9109 36.8275C65.9109 37.0203 65.964 37.1688 66.0702 37.2728C66.1764 37.3746 66.3204 37.4255 66.5024 37.4255ZM70.6808 38.5208L69.6083 35.0075L70.086 35.0108L70.918 37.7375L71.7533 35.0108H72.1888L73.024 37.7375L73.8625 35.0108H74.337L73.2645 38.5208H72.8485L71.971 35.7258L71.0968 38.5208H70.6808ZM76.2613 38.6183C75.9125 38.6183 75.6146 38.5392 75.3676 38.381C75.1206 38.2228 74.931 38.004 74.7988 37.7245C74.6667 37.445 74.6006 37.1243 74.6006 36.7625C74.6006 36.3942 74.6677 36.0713 74.8021 35.794C74.9364 35.5167 75.1271 35.3011 75.3741 35.1473C75.6232 34.9913 75.919 34.9133 76.2613 34.9133C76.6123 34.9133 76.9113 34.9923 77.1583 35.1505C77.4075 35.3065 77.5971 35.5243 77.7271 35.8038C77.8592 36.0811 77.9253 36.4007 77.9253 36.7625C77.9253 37.1308 77.8592 37.4548 77.7271 37.7343C77.5949 38.0116 77.4042 38.2283 77.1551 38.3843C76.9059 38.5403 76.608 38.6183 76.2613 38.6183ZM76.2613 38.16C76.6513 38.16 76.9417 38.0311 77.1323 37.7733C77.323 37.5133 77.4183 37.1763 77.4183 36.7625C77.4183 36.3378 77.3219 35.9998 77.1291 35.7485C76.9384 35.4972 76.6492 35.3715 76.2613 35.3715C75.9992 35.3715 75.7825 35.4311 75.6113 35.5503C75.4423 35.6673 75.3156 35.8308 75.2311 36.041C75.1487 36.249 75.1076 36.4895 75.1076 36.7625C75.1076 37.185 75.2051 37.5241 75.4001 37.7798C75.5951 38.0333 75.8822 38.16 76.2613 38.16ZM78.6423 38.5208V35.0108H79.0713V35.8558L78.9868 35.7453C79.0258 35.6413 79.0767 35.5459 79.1395 35.4593C79.2023 35.3704 79.2706 35.2978 79.3443 35.2415C79.4353 35.1613 79.5414 35.1007 79.6628 35.0595C79.7841 35.0162 79.9065 34.9913 80.03 34.9848C80.1535 34.9761 80.2662 34.9848 80.368 35.0108V35.4593C80.2402 35.4268 80.1004 35.4192 79.9488 35.4365C79.7971 35.4538 79.6573 35.5145 79.5295 35.6185C79.4125 35.7095 79.3248 35.8189 79.2663 35.9468C79.2078 36.0724 79.1688 36.2068 79.1493 36.3498C79.1298 36.4906 79.12 36.6303 79.12 36.769V38.5208H78.6423ZM80.9813 38.5208L80.9845 33.8408H81.4655V36.7008L83.032 35.0108H83.669L82.0245 36.7658L83.8835 38.5208H83.188L81.4655 36.8308V38.5208H80.9813ZM84.3002 38.5208V37.965H84.8559V38.5208H84.3002ZM87.3155 38.6183C86.9624 38.6183 86.6634 38.5392 86.4185 38.381C86.1737 38.2228 85.9874 38.0051 85.8595 37.7278C85.7339 37.4483 85.6689 37.1276 85.6645 36.7658C85.6689 36.3974 85.736 36.0746 85.866 35.7973C85.996 35.5178 86.1835 35.3011 86.4283 35.1473C86.6731 34.9913 86.97 34.9133 87.3188 34.9133C87.6741 34.9133 87.9829 34.9999 88.245 35.1733C88.5094 35.3466 88.6903 35.5838 88.7878 35.885L88.3198 36.0345C88.2375 35.8243 88.1064 35.6618 87.9265 35.547C87.7489 35.43 87.5452 35.3715 87.3155 35.3715C87.0577 35.3715 86.8443 35.4311 86.6753 35.5503C86.5063 35.6673 86.3806 35.8308 86.2983 36.041C86.216 36.2512 86.1737 36.4928 86.1715 36.7658C86.1759 37.1861 86.2734 37.5241 86.464 37.7798C86.6547 38.0333 86.9385 38.16 87.3155 38.16C87.5539 38.16 87.7565 38.1058 87.9233 37.9975C88.0923 37.887 88.2201 37.7267 88.3068 37.5165L88.7878 37.6595C88.6578 37.9715 88.4671 38.2098 88.2158 38.3745C87.9645 38.537 87.6644 38.6183 87.3155 38.6183ZM90.8292 38.6183C90.4804 38.6183 90.1824 38.5392 89.9354 38.381C89.6884 38.2228 89.4989 38.004 89.3667 37.7245C89.2345 37.445 89.1684 37.1243 89.1684 36.7625C89.1684 36.3942 89.2356 36.0713 89.3699 35.794C89.5043 35.5167 89.6949 35.3011 89.9419 35.1473C90.1911 34.9913 90.4869 34.9133 90.8292 34.9133C91.1802 34.9133 91.4792 34.9923 91.7262 35.1505C91.9754 35.3065 92.1649 35.5243 92.2949 35.8038C92.4271 36.0811 92.4932 36.4007 92.4932 36.7625C92.4932 37.1308 92.4271 37.4548 92.2949 37.7343C92.1628 38.0116 91.9721 38.2283 91.7229 38.3843C91.4738 38.5403 91.1759 38.6183 90.8292 38.6183ZM90.8292 38.16C91.2192 38.16 91.5095 38.0311 91.7002 37.7733C91.8909 37.5133 91.9862 37.1763 91.9862 36.7625C91.9862 36.3378 91.8898 35.9998 91.6969 35.7485C91.5063 35.4972 91.217 35.3715 90.8292 35.3715C90.567 35.3715 90.3504 35.4311 90.1792 35.5503C90.0102 35.6673 89.8834 35.8308 89.7989 36.041C89.7166 36.249 89.6754 36.4895 89.6754 36.7625C89.6754 37.185 89.7729 37.5241 89.9679 37.7798C90.1629 38.0333 90.45 38.16 90.8292 38.16ZM97.3961 38.5208L97.3994 36.2165C97.3994 35.9457 97.3235 35.7333 97.1719 35.5795C97.0224 35.4235 96.8317 35.3455 96.5999 35.3455C96.4677 35.3455 96.3388 35.3758 96.2131 35.4365C96.0875 35.4972 95.9835 35.5947 95.9011 35.729C95.821 35.8633 95.7809 36.0388 95.7809 36.2555L95.4981 36.1743C95.4916 35.9229 95.5404 35.703 95.6444 35.5145C95.7505 35.326 95.8957 35.1798 96.0799 35.0758C96.2662 34.9696 96.4764 34.9165 96.7104 34.9165C97.0635 34.9165 97.3463 35.0259 97.5586 35.2448C97.771 35.4614 97.8771 35.755 97.8771 36.1255L97.8739 38.5208H97.3961ZM93.2069 38.5208V35.0108H93.6359V35.8753H93.6879V38.5208H93.2069ZM95.3064 38.5208L95.3096 36.249C95.3096 35.9695 95.2349 35.7496 95.0854 35.5893C94.938 35.4268 94.743 35.3455 94.5004 35.3455C94.2577 35.3455 94.0616 35.4289 93.9121 35.5958C93.7626 35.7604 93.6879 35.9803 93.6879 36.2555L93.4019 36.0995C93.4019 35.8742 93.455 35.6727 93.5611 35.495C93.6673 35.3152 93.8125 35.1743 93.9966 35.0725C94.1808 34.9685 94.3899 34.9165 94.6239 34.9165C94.847 34.9165 95.0453 34.9642 95.2186 35.0595C95.3941 35.1548 95.5317 35.2935 95.6314 35.4755C95.731 35.6575 95.7809 35.8785 95.7809 36.1385L95.7776 38.5208H95.3064Z" fill="#F2EEEB"/>
<path id="+48 123-456-789" d="M48.6717 48.7702V47.4897H47.3912V47.0802H48.6717V45.7997H49.0812V47.0802H50.3585V47.4897H49.0812V48.7702H48.6717ZM53.2618 49.625V48.7182H51.0713V48.2632L52.6378 44.945H53.1741L51.6076 48.2632H53.2618V46.8982H53.7428V48.2632H54.2531V48.7182H53.7428V49.625H53.2618ZM56.4621 49.7225C56.1696 49.7225 55.9107 49.664 55.6853 49.547C55.4622 49.43 55.2867 49.2664 55.1588 49.0562C55.0332 48.8439 54.9703 48.5958 54.9703 48.312C54.9703 48.0217 55.0407 47.7638 55.1816 47.5385C55.3224 47.311 55.5369 47.1387 55.8251 47.0217L55.8186 47.2102C55.5781 47.1214 55.395 46.9762 55.2693 46.7747C55.1437 46.5732 55.0808 46.3501 55.0808 46.1052C55.0808 45.8452 55.1404 45.6221 55.2596 45.4357C55.3787 45.2472 55.5412 45.1021 55.7471 45.0002C55.9551 44.8984 56.1934 44.8475 56.4621 44.8475C56.7307 44.8475 56.9691 44.8984 57.1771 45.0002C57.3851 45.1021 57.5487 45.2472 57.6678 45.4357C57.787 45.6221 57.8466 45.8452 57.8466 46.1052C57.8466 46.3501 57.7859 46.5722 57.6646 46.7715C57.5454 46.9708 57.3623 47.1171 57.1153 47.2102L57.0991 47.0217C57.3872 47.1366 57.6028 47.3077 57.7458 47.5352C57.891 47.7627 57.9636 48.0217 57.9636 48.312C57.9636 48.5958 57.8997 48.8439 57.7718 49.0562C57.644 49.2664 57.4674 49.43 57.2421 49.547C57.0167 49.664 56.7567 49.7225 56.4621 49.7225ZM56.4621 49.2642C56.7567 49.2642 56.9962 49.183 57.1803 49.0205C57.3645 48.8558 57.4566 48.6197 57.4566 48.312C57.4566 48 57.3656 47.7638 57.1836 47.6035C57.0016 47.441 56.7611 47.3597 56.4621 47.3597C56.1631 47.3597 55.9237 47.441 55.7438 47.6035C55.564 47.7638 55.4741 48 55.4741 48.312C55.4741 48.6197 55.5651 48.8558 55.7471 49.0205C55.9291 49.183 56.1674 49.2642 56.4621 49.2642ZM56.4621 46.8982C56.7221 46.8982 56.9333 46.8322 57.0958 46.7C57.2583 46.5657 57.3396 46.3674 57.3396 46.1052C57.3396 45.8431 57.2583 45.647 57.0958 45.517C56.9333 45.3848 56.7221 45.3187 56.4621 45.3187C56.2021 45.3187 55.9908 45.3848 55.8283 45.517C55.668 45.647 55.5878 45.8431 55.5878 46.1052C55.5878 46.3674 55.668 46.5657 55.8283 46.7C55.9908 46.8322 56.2021 46.8982 56.4621 46.8982ZM60.9228 49.625V45.478L60.0421 46.0077V45.4715L60.9228 44.945H61.4071V49.625H60.9228ZM62.5098 49.6217L62.5131 49.1862L64.6288 47.2752C64.8108 47.1106 64.9311 46.9546 64.9896 46.8072C65.0502 46.6577 65.0806 46.5017 65.0806 46.3392C65.0806 46.1464 65.0351 45.972 64.9441 45.816C64.8531 45.66 64.7306 45.5365 64.5768 45.4455C64.423 45.3523 64.2507 45.3057 64.0601 45.3057C63.8607 45.3057 63.6831 45.3534 63.5271 45.4487C63.3711 45.5441 63.2476 45.6697 63.1566 45.8257C63.0677 45.9817 63.0244 46.1518 63.0266 46.336H62.5391C62.5391 46.0522 62.6062 45.7976 62.7406 45.5722C62.8749 45.3469 63.0569 45.1703 63.2866 45.0425C63.5162 44.9125 63.7762 44.8475 64.0666 44.8475C64.3504 44.8475 64.605 44.9147 64.8303 45.049C65.0578 45.1812 65.2366 45.361 65.3666 45.5885C65.4987 45.8138 65.5648 46.0652 65.5648 46.3425C65.5648 46.5375 65.541 46.7097 65.4933 46.8592C65.4478 47.0066 65.3752 47.1442 65.2756 47.272C65.1781 47.3977 65.0535 47.5277 64.9018 47.662L63.0233 49.3585L62.9486 49.1635H65.5648V49.6217H62.5098ZM67.6046 49.7193C67.3728 49.7193 67.1593 49.6781 66.9643 49.5957C66.7693 49.5134 66.6014 49.3964 66.4606 49.2447C66.3198 49.0909 66.2168 48.9078 66.1518 48.6955L66.6068 48.559C66.6848 48.7908 66.8127 48.9663 66.9903 49.0855C67.1702 49.2047 67.3728 49.2621 67.5981 49.2577C67.8061 49.2534 67.9848 49.2068 68.1343 49.118C68.286 49.0292 68.4019 48.9057 68.4821 48.7475C68.5623 48.5893 68.6023 48.4062 68.6023 48.1982C68.6023 47.8797 68.5092 47.6241 68.3228 47.4312C68.1387 47.2362 67.8949 47.1387 67.5916 47.1387C67.5071 47.1387 67.4183 47.1507 67.3251 47.1745C67.2319 47.1962 67.1453 47.2276 67.0651 47.2687L66.8246 46.8885L68.6446 45.2082L68.7226 45.4032H66.3371V44.945H69.0411V45.4097L67.4551 46.9242L67.4486 46.7357C67.7736 46.6946 68.0596 46.7314 68.3066 46.8462C68.5536 46.9611 68.7464 47.1366 68.8851 47.3727C69.0259 47.6067 69.0963 47.8819 69.0963 48.1982C69.0963 48.4972 69.0313 48.7616 68.9013 48.9912C68.7735 49.2187 68.5969 49.3975 68.3716 49.5275C68.1463 49.6553 67.8906 49.7193 67.6046 49.7193ZM69.8746 47.4897V47.0802H71.8246V47.4897H69.8746ZM74.7296 49.625V48.7182H72.5391V48.2632L74.1056 44.945H74.6419L73.0754 48.2632H74.7296V46.8982H75.2106V48.2632H75.7209V48.7182H75.2106V49.625H74.7296ZM77.8843 49.7225C77.6417 49.7225 77.4174 49.6727 77.2116 49.573C77.0058 49.4733 76.8303 49.3357 76.6851 49.1602C76.5399 48.9847 76.4359 48.7832 76.3731 48.5557L76.8313 48.4322C76.8725 48.6012 76.9473 48.7475 77.0556 48.871C77.1639 48.9923 77.2907 49.0866 77.4358 49.1537C77.5832 49.2209 77.737 49.2545 77.8973 49.2545C78.1053 49.2545 78.2917 49.2047 78.4563 49.105C78.6232 49.0032 78.7553 48.8688 78.8528 48.702C78.9503 48.5352 78.9991 48.3521 78.9991 48.1527C78.9991 47.9469 78.9482 47.7617 78.8463 47.597C78.7445 47.4302 78.6102 47.298 78.4433 47.2005C78.2765 47.103 78.0945 47.0542 77.8973 47.0542C77.6763 47.0542 77.4857 47.103 77.3253 47.2005C77.165 47.2958 77.0372 47.4161 76.9418 47.5612L76.5063 47.3792L76.6493 44.945H79.1486V45.4032H76.8606L77.0978 45.179L76.9711 47.2557L76.8508 47.0965C76.9852 46.9427 77.1477 46.8224 77.3383 46.7357C77.529 46.6491 77.7294 46.6057 77.9396 46.6057C78.2278 46.6057 78.4878 46.6751 78.7196 46.8137C78.9514 46.9502 79.1356 47.1355 79.2721 47.3695C79.4086 47.6035 79.4768 47.8646 79.4768 48.1527C79.4768 48.4387 79.4043 48.7009 79.2591 48.9392C79.1139 49.1754 78.9211 49.365 78.6806 49.508C78.4401 49.651 78.1747 49.7225 77.8843 49.7225ZM81.8373 49.7225C81.5448 49.7225 81.2783 49.6521 81.0378 49.5112C80.7995 49.3682 80.6088 49.1754 80.4658 48.9327C80.325 48.6879 80.2546 48.4127 80.2546 48.1072V46.4855C80.2546 46.1713 80.325 45.8918 80.4658 45.647C80.6066 45.4 80.7984 45.2061 81.0411 45.0652C81.2859 44.9222 81.5632 44.8507 81.8731 44.8507C82.1396 44.8507 82.3866 44.9092 82.6141 45.0262C82.8437 45.1432 83.0311 45.3068 83.1763 45.517L82.8091 45.8192C82.7094 45.6632 82.5772 45.5387 82.4126 45.4455C82.2479 45.3523 82.0681 45.3057 81.8731 45.3057C81.6542 45.3057 81.4592 45.3588 81.2881 45.465C81.1169 45.5712 80.9826 45.7109 80.8851 45.8842C80.7876 46.0554 80.7388 46.2417 80.7388 46.4432V47.4637L80.6186 47.3272C80.7551 47.1127 80.9338 46.9394 81.1548 46.8072C81.378 46.6751 81.6206 46.609 81.8828 46.609C82.1731 46.609 82.4342 46.6783 82.6661 46.817C82.8979 46.9535 83.0821 47.1387 83.2186 47.3727C83.3551 47.6067 83.4233 47.8689 83.4233 48.1592C83.4233 48.4474 83.3507 48.7096 83.2056 48.9457C83.0626 49.1819 82.8708 49.3704 82.6303 49.5112C82.392 49.6521 82.1276 49.7225 81.8373 49.7225ZM81.8373 49.2577C82.041 49.2577 82.2262 49.209 82.3931 49.1115C82.5621 49.014 82.6953 48.8818 82.7928 48.715C82.8925 48.5482 82.9423 48.3629 82.9423 48.1592C82.9423 47.9556 82.8925 47.7703 82.7928 47.6035C82.6953 47.4345 82.5631 47.3012 82.3963 47.2037C82.2295 47.1041 82.0442 47.0542 81.8406 47.0542C81.6369 47.0542 81.4516 47.1041 81.2848 47.2037C81.118 47.3012 80.9847 47.4345 80.8851 47.6035C80.7876 47.7703 80.7388 47.9556 80.7388 48.1592C80.7388 48.3607 80.7876 48.5449 80.8851 48.7117C80.9826 48.8786 81.1147 49.0118 81.2816 49.1115C81.4484 49.209 81.6336 49.2577 81.8373 49.2577ZM84.2203 47.4897V47.0802H86.1703V47.4897H84.2203ZM87.2651 49.625L88.9876 45.4097H86.8198V44.945H89.4978V45.4097L87.7786 49.625H87.2651ZM91.7043 49.7225C91.4118 49.7225 91.1528 49.664 90.9275 49.547C90.7043 49.43 90.5288 49.2664 90.401 49.0562C90.2753 48.8439 90.2125 48.5958 90.2125 48.312C90.2125 48.0217 90.2829 47.7638 90.4238 47.5385C90.5646 47.311 90.7791 47.1387 91.0673 47.0217L91.0608 47.2102C90.8203 47.1214 90.6372 46.9762 90.5115 46.7747C90.3858 46.5732 90.323 46.3501 90.323 46.1052C90.323 45.8452 90.3826 45.6221 90.5018 45.4357C90.6209 45.2472 90.7834 45.1021 90.9893 45.0002C91.1973 44.8984 91.4356 44.8475 91.7043 44.8475C91.9729 44.8475 92.2113 44.8984 92.4193 45.0002C92.6273 45.1021 92.7908 45.2472 92.91 45.4357C93.0292 45.6221 93.0888 45.8452 93.0888 46.1052C93.0888 46.3501 93.0281 46.5722 92.9068 46.7715C92.7876 46.9708 92.6045 47.1171 92.3575 47.2102L92.3413 47.0217C92.6294 47.1366 92.845 47.3077 92.988 47.5352C93.1332 47.7627 93.2058 48.0217 93.2058 48.312C93.2058 48.5958 93.1418 48.8439 93.014 49.0562C92.8862 49.2664 92.7096 49.43 92.4843 49.547C92.2589 49.664 91.9989 49.7225 91.7043 49.7225ZM91.7043 49.2642C91.9989 49.2642 92.2383 49.183 92.4225 49.0205C92.6067 48.8558 92.6988 48.6197 92.6988 48.312C92.6988 48 92.6078 47.7638 92.4258 47.6035C92.2438 47.441 92.0033 47.3597 91.7043 47.3597C91.4053 47.3597 91.1658 47.441 90.986 47.6035C90.8062 47.7638 90.7163 48 90.7163 48.312C90.7163 48.6197 90.8073 48.8558 90.9893 49.0205C91.1713 49.183 91.4096 49.2642 91.7043 49.2642ZM91.7043 46.8982C91.9643 46.8982 92.1755 46.8322 92.338 46.7C92.5005 46.5657 92.5818 46.3674 92.5818 46.1052C92.5818 45.8431 92.5005 45.647 92.338 45.517C92.1755 45.3848 91.9643 45.3187 91.7043 45.3187C91.4443 45.3187 91.233 45.3848 91.0705 45.517C90.9102 45.647 90.83 45.8431 90.83 46.1052C90.83 46.3674 90.9102 46.5657 91.0705 46.7C91.233 46.8322 91.4443 46.8982 91.7043 46.8982ZM95.5885 44.8507C95.8832 44.8507 96.1497 44.9222 96.388 45.0652C96.6285 45.2061 96.8192 45.3989 96.96 45.6437C97.1009 45.8864 97.1713 46.1594 97.1713 46.4627V48.0877C97.1713 48.3997 97.1009 48.6792 96.96 48.9262C96.8192 49.1732 96.6264 49.3682 96.3815 49.5112C96.1389 49.6521 95.8626 49.7225 95.5528 49.7225C95.2863 49.7225 95.0393 49.664 94.8118 49.547C94.5864 49.4278 94.4001 49.2642 94.2528 49.0562L94.6168 48.754C94.7164 48.9078 94.8486 49.0313 95.0133 49.1245C95.1801 49.2177 95.3599 49.2642 95.5528 49.2642C95.7738 49.2642 95.9688 49.2122 96.1378 49.1082C96.3089 49.0021 96.4433 48.8634 96.5408 48.6922C96.6404 48.5189 96.6903 48.3315 96.6903 48.13V47.1095L96.8073 47.246C96.6729 47.4605 96.4942 47.6338 96.271 47.766C96.05 47.8982 95.8074 47.9642 95.543 47.9642C95.2549 47.9642 94.9938 47.8949 94.7598 47.7562C94.5279 47.6176 94.3438 47.4312 94.2073 47.1972C94.0729 46.9632 94.0058 46.7022 94.0058 46.414C94.0058 46.1258 94.0773 45.8637 94.2203 45.6275C94.3633 45.3892 94.555 45.2007 94.7955 45.062C95.036 44.9212 95.3004 44.8507 95.5885 44.8507ZM95.5885 45.3122C95.3849 45.3122 95.1996 45.3621 95.0328 45.4617C94.8659 45.5592 94.7327 45.6914 94.633 45.8582C94.5355 46.0251 94.4868 46.2103 94.4868 46.414C94.4868 46.6177 94.5355 46.8029 94.633 46.9697C94.7305 47.1366 94.8627 47.2698 95.0295 47.3695C95.1964 47.467 95.3816 47.5157 95.5853 47.5157C95.7889 47.5157 95.9742 47.467 96.141 47.3695C96.31 47.2698 96.4433 47.1366 96.5408 46.9697C96.6404 46.8029 96.6903 46.6177 96.6903 46.414C96.6903 46.2125 96.6404 46.0283 96.5408 45.8615C96.4433 45.6947 96.3111 45.5614 96.1443 45.4617C95.9774 45.3621 95.7922 45.3122 95.5885 45.3122Z" fill="#F2EEEB"/>
<path id="Vector_4" d="M297.053 30.5028C297.017 30.3615 296.915 30.2549 296.798 30.2222C296.59 30.1639 295.581 30.0312 293.448 30.0312C291.315 30.0312 290.307 30.1639 290.098 30.2222C289.982 30.2544 289.88 30.361 289.843 30.5028C289.791 30.7037 289.656 31.5459 289.656 32.8749C289.656 34.2039 289.791 35.0456 289.843 35.2476C289.879 35.3883 289.982 35.495 290.098 35.5272C290.307 35.586 291.315 35.7187 293.448 35.7187C295.581 35.7187 296.59 35.586 296.798 35.5277C296.914 35.4954 297.017 35.3888 297.053 35.2471C297.105 35.0461 297.24 34.202 297.24 32.8749C297.24 31.5478 297.105 30.7042 297.053 30.5028ZM297.971 30.2672C298.188 31.1118 298.188 32.8749 298.188 32.8749C298.188 32.8749 298.188 34.638 297.971 35.4826C297.851 35.9495 297.499 36.3168 297.053 36.441C296.243 36.6666 293.448 36.6666 293.448 36.6666C293.448 36.6666 290.655 36.6666 289.844 36.441C289.396 36.3149 289.044 35.9481 288.925 35.4826C288.708 34.638 288.708 32.8749 288.708 32.8749C288.708 32.8749 288.708 31.1118 288.925 30.2672C289.045 29.8004 289.398 29.433 289.844 29.3089C290.655 29.0833 293.448 29.0833 293.448 29.0833C293.448 29.0833 296.243 29.0833 297.053 29.3089C297.5 29.4349 297.852 29.8018 297.971 30.2672ZM292.5 34.5338V31.2161L295.344 32.8749L292.5 34.5338Z" fill="#FCFCFC"/>
<path id="Vector_5" d="M303.875 31.7374C303.573 31.7374 303.284 31.8573 303.071 32.0706C302.858 32.2839 302.738 32.5732 302.738 32.8749C302.738 33.1766 302.858 33.4659 303.071 33.6793C303.284 33.8926 303.573 34.0124 303.875 34.0124C304.177 34.0124 304.466 33.8926 304.679 33.6793C304.893 33.4659 305.013 33.1766 305.013 32.8749C305.013 32.5732 304.893 32.2839 304.679 32.0706C304.466 31.8573 304.177 31.7374 303.875 31.7374ZM303.875 30.9791C304.378 30.9791 304.86 31.1788 305.216 31.5344C305.571 31.8899 305.771 32.3721 305.771 32.8749C305.771 33.3777 305.571 33.8599 305.216 34.2155C304.86 34.571 304.378 34.7708 303.875 34.7708C303.372 34.7708 302.89 34.571 302.535 34.2155C302.179 33.8599 301.979 33.3777 301.979 32.8749C301.979 32.3721 302.179 31.8899 302.535 31.5344C302.89 31.1788 303.372 30.9791 303.875 30.9791ZM306.34 30.8843C306.34 31.01 306.29 31.1305 306.201 31.2194C306.112 31.3083 305.991 31.3583 305.866 31.3583C305.74 31.3583 305.62 31.3083 305.531 31.2194C305.442 31.1305 305.392 31.01 305.392 30.8843C305.392 30.7586 305.442 30.638 305.531 30.5492C305.62 30.4603 305.74 30.4103 305.866 30.4103C305.991 30.4103 306.112 30.4603 306.201 30.5492C306.29 30.638 306.34 30.7586 306.34 30.8843ZM303.875 29.8416C302.937 29.8416 302.784 29.8442 302.348 29.8636C302.05 29.8776 301.851 29.9174 301.666 29.9895C301.501 30.0532 301.383 30.1294 301.256 30.256C301.138 30.3707 301.046 30.5107 300.989 30.6655C300.917 30.8513 300.877 31.0504 300.864 31.3473C300.844 31.7659 300.842 31.9122 300.842 32.8749C300.842 33.813 300.844 33.9662 300.864 34.4026C300.878 34.6995 300.918 34.8993 300.989 35.0839C301.054 35.2489 301.13 35.3676 301.256 35.4934C301.383 35.6208 301.502 35.6971 301.665 35.76C301.852 35.8324 302.052 35.8726 302.348 35.8863C302.766 35.906 302.912 35.9083 303.875 35.9083C304.813 35.9083 304.966 35.9056 305.403 35.8863C305.699 35.8722 305.899 35.8324 306.084 35.7608C306.248 35.6967 306.368 35.6205 306.494 35.4946C306.621 35.3668 306.698 35.2481 306.761 35.0851C306.833 34.8982 306.873 34.6983 306.887 34.4026C306.906 33.984 306.908 33.8376 306.908 32.8749C306.908 31.9369 306.906 31.7837 306.887 31.3473C306.872 31.0507 306.833 30.8505 306.761 30.6655C306.703 30.5108 306.612 30.3709 306.494 30.256C306.379 30.1373 306.239 30.046 306.085 29.9891C305.899 29.917 305.699 29.8772 305.403 29.8636C304.984 29.8439 304.838 29.8416 303.875 29.8416ZM303.875 29.0833C304.905 29.0833 305.034 29.087 305.438 29.106C305.842 29.125 306.117 29.1883 306.359 29.2823C306.609 29.3786 306.82 29.5091 307.031 29.7195C307.223 29.909 307.373 30.1383 307.468 30.3914C307.561 30.6329 307.625 30.9082 307.644 31.312C307.662 31.7162 307.667 31.8447 307.667 32.8749C307.667 33.9051 307.663 34.0337 307.644 34.4378C307.625 34.8417 307.561 35.1166 307.468 35.3585C307.373 35.6117 307.224 35.841 307.031 36.0303C306.841 36.2231 306.612 36.3723 306.359 36.4675C306.117 36.5612 305.842 36.6249 305.438 36.6438C305.034 36.6617 304.905 36.6666 303.875 36.6666C302.845 36.6666 302.716 36.6628 302.312 36.6438C301.908 36.6249 301.634 36.5612 301.392 36.4675C301.138 36.3725 300.909 36.2233 300.72 36.0303C300.527 35.8408 300.378 35.6115 300.283 35.3585C300.189 35.1169 300.125 34.8417 300.106 34.4378C300.088 34.0337 300.083 33.9051 300.083 32.8749C300.083 31.8447 300.087 31.7162 300.106 31.312C300.125 30.9078 300.189 30.6333 300.283 30.3914C300.377 30.1382 300.527 29.9088 300.72 29.7195C300.909 29.5266 301.139 29.3774 301.392 29.2823C301.634 29.1883 301.908 29.125 302.312 29.106C302.716 29.0882 302.845 29.0833 303.875 29.0833Z" fill="#FCFCFC"/>
</g>
</g>
</svg>
