<svg width="1440" height="300" viewBox="0 0 1440 300" fill="none" xmlns="http://www.w3.org/2000/svg">
<g id="Dane kontaktowe">
<g id="Linia 4">
<g id="Rectangle 1">
<path d="M0 0H1440V300H0V0Z" fill="#0D0C0C"/>
<path d="M0 0H1440V300H0V0Z" fill="black" fill-opacity="0.2"/>
</g>
<path id="Vector" d="M1175.61 100H1201.39C1201.82 100 1202.23 100.164 1202.53 100.456C1202.83 100.747 1203 101.143 1203 101.556V126.444C1203 126.857 1202.83 127.253 1202.53 127.544C1202.23 127.836 1201.82 128 1201.39 128H1175.61C1175.18 128 1174.77 127.836 1174.47 127.544C1174.17 127.253 1174 126.857 1174 126.444V101.556C1174 101.143 1174.17 100.747 1174.47 100.456C1174.77 100.164 1175.18 100 1175.61 100ZM1177.22 103.111V124.889H1199.78V103.111H1177.22ZM1181.25 109.333C1180.61 109.333 1179.99 109.088 1179.54 108.65C1179.09 108.212 1178.83 107.619 1178.83 107C1178.83 106.381 1179.09 105.788 1179.54 105.35C1179.99 104.912 1180.61 104.667 1181.25 104.667C1181.89 104.667 1182.51 104.912 1182.96 105.35C1183.41 105.788 1183.67 106.381 1183.67 107C1183.67 107.619 1183.41 108.212 1182.96 108.65C1182.51 109.088 1181.89 109.333 1181.25 109.333ZM1179.64 110.889H1182.86V122.556H1179.64V110.889ZM1188.5 111.558C1189.44 110.679 1190.54 110.111 1191.72 110.111C1195.06 110.111 1197.36 112.723 1197.36 115.944V122.556H1194.14V115.944C1194.14 115.222 1193.84 114.53 1193.31 114.02C1192.78 113.509 1192.07 113.222 1191.32 113.222C1190.57 113.222 1189.85 113.509 1189.33 114.02C1188.8 114.53 1188.5 115.222 1188.5 115.944V122.556H1185.28V110.889H1188.5V111.558Z" fill="#FCFCFC"/>
<path id="Vector_2" d="M1232.88 103.366C1231.63 103.366 1230.42 103.868 1229.53 104.763C1228.64 105.659 1228.13 106.877 1228.1 108.155L1228.06 110.804C1228.06 110.946 1228.02 111.086 1227.96 111.215C1227.91 111.344 1227.82 111.458 1227.71 111.551C1227.61 111.643 1227.49 111.712 1227.35 111.752C1227.22 111.793 1227.08 111.804 1226.94 111.785L1224.37 111.428C1220.99 110.957 1217.76 109.366 1214.65 106.72C1213.67 112.287 1215.59 116.144 1220.21 119.12L1223.09 120.967C1223.23 121.054 1223.34 121.175 1223.42 121.318C1223.5 121.461 1223.54 121.622 1223.55 121.787C1223.56 121.951 1223.52 122.115 1223.45 122.263C1223.38 122.411 1223.28 122.54 1223.14 122.637L1220.53 124.593C1222.08 124.692 1223.56 124.622 1224.79 124.373C1232.55 122.788 1237.71 116.817 1237.71 106.967C1237.71 106.163 1236.05 103.366 1232.88 103.366ZM1224.81 108.093C1224.84 106.471 1225.34 104.895 1226.24 103.56C1227.14 102.225 1228.41 101.192 1229.88 100.59C1231.35 99.9874 1232.97 99.8425 1234.52 100.173C1236.07 100.504 1237.49 101.296 1238.61 102.449C1239.78 102.441 1240.77 102.744 1243 101.365C1242.45 104.123 1242.18 105.321 1241 106.967C1241 119.821 1233.28 126.071 1225.43 127.671C1220.06 128.768 1212.24 126.966 1210 124.574C1211.14 124.484 1215.78 123.974 1218.46 121.967C1216.19 120.438 1207.16 115.006 1213.1 100.399C1215.88 103.724 1218.71 105.988 1221.57 107.189C1223.48 107.988 1223.94 107.971 1224.82 108.094L1224.81 108.093Z" fill="#FCFCFC"/>
<path id="Media spo&#197;&#130;eczno&#197;&#155;ciowe" d="M956.823 83V57.08H959.253L969.441 78.878L979.575 57.08H982.041V82.982H979.521V62.984L970.287 83H968.577L959.361 62.984V83H956.823ZM995.318 83.54C993.422 83.54 991.778 83.12 990.386 82.28C989.006 81.44 987.932 80.258 987.164 78.734C986.396 77.21 986.012 75.422 986.012 73.37C986.012 71.246 986.39 69.41 987.146 67.862C987.902 66.314 988.964 65.12 990.332 64.28C991.712 63.44 993.338 63.02 995.21 63.02C997.13 63.02 998.768 63.464 1000.12 64.352C1001.48 65.228 1002.51 66.488 1003.2 68.132C1003.9 69.776 1004.22 71.738 1004.16 74.018H1001.46V73.082C1001.41 70.562 1000.86 68.66 999.818 67.376C998.786 66.092 997.274 65.45 995.282 65.45C993.194 65.45 991.592 66.128 990.476 67.484C989.372 68.84 988.82 70.772 988.82 73.28C988.82 75.728 989.372 77.63 990.476 78.986C991.592 80.33 993.17 81.002 995.21 81.002C996.602 81.002 997.814 80.684 998.846 80.048C999.89 79.4 1000.71 78.47 1001.31 77.258L1003.78 78.212C1003.01 79.904 1001.88 81.218 1000.38 82.154C998.888 83.078 997.202 83.54 995.318 83.54ZM987.884 74.018V71.804H1002.73V74.018H987.884ZM1015.69 83.54C1013.88 83.54 1012.33 83.09 1011.05 82.19C1009.76 81.278 1008.78 80.048 1008.1 78.5C1007.41 76.952 1007.07 75.206 1007.07 73.262C1007.07 71.33 1007.41 69.59 1008.08 68.042C1008.76 66.494 1009.74 65.27 1011.01 64.37C1012.28 63.47 1013.81 63.02 1015.58 63.02C1017.41 63.02 1018.94 63.464 1020.19 64.352C1021.44 65.24 1022.38 66.458 1023.02 68.006C1023.67 69.542 1023.99 71.294 1023.99 73.262C1023.99 75.194 1023.67 76.94 1023.04 78.5C1022.4 80.048 1021.46 81.278 1020.23 82.19C1018.99 83.09 1017.48 83.54 1015.69 83.54ZM1015.96 81.074C1017.34 81.074 1018.48 80.738 1019.38 80.066C1020.28 79.394 1020.95 78.47 1021.4 77.294C1021.84 76.106 1022.06 74.762 1022.06 73.262C1022.06 71.738 1021.84 70.394 1021.4 69.23C1020.95 68.054 1020.28 67.136 1019.38 66.476C1018.49 65.816 1017.37 65.486 1016.02 65.486C1014.62 65.486 1013.47 65.828 1012.56 66.512C1011.65 67.196 1010.97 68.126 1010.53 69.302C1010.09 70.478 1009.88 71.798 1009.88 73.262C1009.88 74.738 1010.1 76.07 1010.54 77.258C1011 78.434 1011.68 79.364 1012.58 80.048C1013.48 80.732 1014.61 81.074 1015.96 81.074ZM1022.06 83V68.366H1021.78V57.08H1024.44V83H1022.06ZM1029.85 59.87V56.9H1032.5V59.87H1029.85ZM1029.85 83V63.56H1032.5V83H1029.85ZM1043.46 83.54C1041.99 83.54 1040.76 83.276 1039.77 82.748C1038.78 82.22 1038.04 81.518 1037.55 80.642C1037.06 79.766 1036.81 78.812 1036.81 77.78C1036.81 76.724 1037.02 75.824 1037.44 75.08C1037.88 74.324 1038.46 73.706 1039.19 73.226C1039.93 72.746 1040.79 72.38 1041.76 72.128C1042.75 71.888 1043.83 71.678 1045.02 71.498C1046.22 71.306 1047.39 71.144 1048.53 71.012C1049.68 70.868 1050.69 70.73 1051.56 70.598L1050.62 71.174C1050.66 69.254 1050.28 67.832 1049.5 66.908C1048.72 65.984 1047.37 65.522 1045.44 65.522C1044.1 65.522 1042.98 65.822 1042.05 66.422C1041.14 67.022 1040.5 67.97 1040.13 69.266L1037.55 68.51C1038 66.77 1038.89 65.42 1040.23 64.46C1041.58 63.5 1043.32 63.02 1045.47 63.02C1047.25 63.02 1048.75 63.356 1049.99 64.028C1051.24 64.688 1052.12 65.648 1052.64 66.908C1052.88 67.472 1053.03 68.102 1053.1 68.798C1053.18 69.494 1053.21 70.202 1053.21 70.922V83H1050.85V78.122L1051.54 78.41C1050.88 80.078 1049.85 81.35 1048.46 82.226C1047.07 83.102 1045.4 83.54 1043.46 83.54ZM1043.76 81.254C1045 81.254 1046.08 81.032 1047 80.588C1047.93 80.144 1048.67 79.538 1049.23 78.77C1049.8 77.99 1050.16 77.114 1050.33 76.142C1050.48 75.518 1050.55 74.834 1050.57 74.09C1050.58 73.334 1050.58 72.77 1050.58 72.398L1051.59 72.92C1050.69 73.04 1049.71 73.16 1048.66 73.28C1047.61 73.4 1046.58 73.538 1045.56 73.694C1044.55 73.85 1043.64 74.036 1042.83 74.252C1042.27 74.408 1041.74 74.63 1041.22 74.918C1040.71 75.194 1040.28 75.566 1039.95 76.034C1039.62 76.502 1039.46 77.084 1039.46 77.78C1039.46 78.344 1039.6 78.89 1039.87 79.418C1040.16 79.946 1040.62 80.384 1041.24 80.732C1041.88 81.08 1042.72 81.254 1043.76 81.254ZM1072.36 83.522C1070.08 83.522 1068.2 83.03 1066.72 82.046C1065.26 81.062 1064.36 79.694 1064.02 77.942L1066.72 77.492C1067.01 78.596 1067.67 79.478 1068.69 80.138C1069.72 80.786 1070.99 81.11 1072.5 81.11C1073.98 81.11 1075.14 80.804 1075.99 80.192C1076.85 79.568 1077.27 78.722 1077.27 77.654C1077.27 77.054 1077.13 76.568 1076.86 76.196C1076.59 75.812 1076.05 75.458 1075.22 75.134C1074.39 74.81 1073.16 74.426 1071.51 73.982C1069.75 73.502 1068.37 73.022 1067.37 72.542C1066.38 72.062 1065.67 71.51 1065.25 70.886C1064.83 70.25 1064.62 69.476 1064.62 68.564C1064.62 67.46 1064.93 66.494 1065.55 65.666C1066.18 64.826 1067.04 64.178 1068.15 63.722C1069.25 63.254 1070.53 63.02 1072 63.02C1073.46 63.02 1074.77 63.26 1075.92 63.74C1077.09 64.208 1078.02 64.868 1078.73 65.72C1079.44 66.572 1079.86 67.562 1079.99 68.69L1077.29 69.176C1077.11 68.036 1076.54 67.136 1075.58 66.476C1074.63 65.804 1073.43 65.456 1071.96 65.432C1070.58 65.396 1069.46 65.66 1068.6 66.224C1067.73 66.776 1067.3 67.514 1067.3 68.438C1067.3 68.954 1067.46 69.398 1067.77 69.77C1068.08 70.13 1068.64 70.472 1069.46 70.796C1070.29 71.12 1071.46 71.474 1072.99 71.858C1074.78 72.314 1076.18 72.794 1077.2 73.298C1078.22 73.802 1078.95 74.396 1079.38 75.08C1079.81 75.764 1080.03 76.61 1080.03 77.618C1080.03 79.454 1079.34 80.9 1077.97 81.956C1076.62 83 1074.75 83.522 1072.36 83.522ZM1092.75 83.54C1090.96 83.54 1089.45 83.09 1088.21 82.19C1086.98 81.278 1086.04 80.048 1085.4 78.5C1084.77 76.94 1084.45 75.194 1084.45 73.262C1084.45 71.294 1084.77 69.542 1085.4 68.006C1086.05 66.458 1087 65.24 1088.25 64.352C1089.5 63.464 1091.03 63.02 1092.86 63.02C1094.63 63.02 1096.16 63.47 1097.43 64.37C1098.7 65.27 1099.67 66.494 1100.34 68.042C1101.03 69.59 1101.37 71.33 1101.37 73.262C1101.37 75.206 1101.03 76.952 1100.34 78.5C1099.66 80.048 1098.68 81.278 1097.39 82.19C1096.11 83.09 1094.56 83.54 1092.75 83.54ZM1084 91.64V63.56H1086.38V78.194H1086.66V91.64H1084ZM1092.48 81.074C1093.83 81.074 1094.96 80.732 1095.86 80.048C1096.76 79.364 1097.43 78.434 1097.88 77.258C1098.33 76.07 1098.56 74.738 1098.56 73.262C1098.56 71.798 1098.34 70.478 1097.9 69.302C1097.45 68.126 1096.77 67.196 1095.86 66.512C1094.96 65.828 1093.82 65.486 1092.42 65.486C1091.07 65.486 1089.94 65.816 1089.04 66.476C1088.15 67.136 1087.49 68.054 1087.04 69.23C1086.6 70.394 1086.38 71.738 1086.38 73.262C1086.38 74.762 1086.6 76.106 1087.04 77.294C1087.49 78.47 1088.16 79.394 1089.06 80.066C1089.96 80.738 1091.1 81.074 1092.48 81.074ZM1113.44 83.54C1111.51 83.54 1109.86 83.102 1108.49 82.226C1107.12 81.35 1106.07 80.138 1105.34 78.59C1104.61 77.042 1104.24 75.266 1104.24 73.262C1104.24 71.222 1104.61 69.434 1105.36 67.898C1106.1 66.362 1107.16 65.168 1108.53 64.316C1109.91 63.452 1111.54 63.02 1113.44 63.02C1115.38 63.02 1117.04 63.458 1118.41 64.334C1119.79 65.198 1120.84 66.404 1121.56 67.952C1122.29 69.488 1122.66 71.258 1122.66 73.262C1122.66 75.302 1122.29 77.096 1121.56 78.644C1120.83 80.18 1119.77 81.38 1118.39 82.244C1117.01 83.108 1115.36 83.54 1113.44 83.54ZM1113.44 81.002C1115.6 81.002 1117.21 80.288 1118.26 78.86C1119.32 77.42 1119.85 75.554 1119.85 73.262C1119.85 70.91 1119.31 69.038 1118.25 67.646C1117.19 66.254 1115.59 65.558 1113.44 65.558C1111.99 65.558 1110.79 65.888 1109.84 66.548C1108.9 67.196 1108.2 68.102 1107.73 69.266C1107.28 70.418 1107.05 71.75 1107.05 73.262C1107.05 75.602 1107.59 77.48 1108.67 78.896C1109.75 80.3 1111.34 81.002 1113.44 81.002ZM1125.57 74.306V71.336L1136.19 65.234V68.186L1125.57 74.306ZM1129.56 83V56.54H1132.21V83H1129.56ZM1147.69 83.54C1145.79 83.54 1144.15 83.12 1142.75 82.28C1141.37 81.44 1140.3 80.258 1139.53 78.734C1138.76 77.21 1138.38 75.422 1138.38 73.37C1138.38 71.246 1138.76 69.41 1139.51 67.862C1140.27 66.314 1141.33 65.12 1142.7 64.28C1144.08 63.44 1145.71 63.02 1147.58 63.02C1149.5 63.02 1151.14 63.464 1152.49 64.352C1153.85 65.228 1154.87 66.488 1155.57 68.132C1156.27 69.776 1156.58 71.738 1156.52 74.018H1153.82V73.082C1153.78 70.562 1153.23 68.66 1152.19 67.376C1151.15 66.092 1149.64 65.45 1147.65 65.45C1145.56 65.45 1143.96 66.128 1142.84 67.484C1141.74 68.84 1141.19 70.772 1141.19 73.28C1141.19 75.728 1141.74 77.63 1142.84 78.986C1143.96 80.33 1145.54 81.002 1147.58 81.002C1148.97 81.002 1150.18 80.684 1151.21 80.048C1152.26 79.4 1153.08 78.47 1153.68 77.258L1156.15 78.212C1155.38 79.904 1154.24 81.218 1152.74 82.154C1151.26 83.078 1149.57 83.54 1147.69 83.54ZM1140.25 74.018V71.804H1155.1V74.018H1140.25ZM1168.58 83.54C1166.63 83.54 1164.97 83.102 1163.61 82.226C1162.26 81.35 1161.23 80.144 1160.52 78.608C1159.82 77.06 1159.46 75.284 1159.44 73.28C1159.46 71.24 1159.83 69.452 1160.55 67.916C1161.27 66.368 1162.31 65.168 1163.67 64.316C1165.02 63.452 1166.67 63.02 1168.6 63.02C1170.57 63.02 1172.28 63.5 1173.73 64.46C1175.19 65.42 1176.2 66.734 1176.74 68.402L1174.14 69.23C1173.69 68.066 1172.96 67.166 1171.97 66.53C1170.98 65.882 1169.85 65.558 1168.58 65.558C1167.15 65.558 1165.97 65.888 1165.04 66.548C1164.1 67.196 1163.4 68.102 1162.95 69.266C1162.49 70.43 1162.26 71.768 1162.25 73.28C1162.27 75.608 1162.81 77.48 1163.87 78.896C1164.92 80.3 1166.49 81.002 1168.58 81.002C1169.9 81.002 1171.02 80.702 1171.95 80.102C1172.88 79.49 1173.59 78.602 1174.07 77.438L1176.74 78.23C1176.02 79.958 1174.96 81.278 1173.57 82.19C1172.18 83.09 1170.51 83.54 1168.58 83.54ZM1178.65 83V82.442L1191.2 66.026H1179.59V63.56H1195.55V64.172L1183.03 80.534H1194.87V83H1178.65ZM1213.55 83V73.082C1213.55 72.002 1213.44 71.012 1213.24 70.112C1213.04 69.2 1212.71 68.408 1212.25 67.736C1211.81 67.052 1211.22 66.524 1210.5 66.152C1209.8 65.78 1208.93 65.594 1207.91 65.594C1206.98 65.594 1206.15 65.756 1205.43 66.08C1204.72 66.404 1204.12 66.872 1203.63 67.484C1203.15 68.084 1202.78 68.816 1202.53 69.68C1202.28 70.544 1202.15 71.528 1202.15 72.632L1200.28 72.218C1200.28 70.226 1200.63 68.552 1201.32 67.196C1202.02 65.84 1202.98 64.814 1204.2 64.118C1205.43 63.422 1206.83 63.074 1208.42 63.074C1209.58 63.074 1210.59 63.254 1211.46 63.614C1212.33 63.974 1213.07 64.46 1213.67 65.072C1214.28 65.684 1214.78 66.386 1215.15 67.178C1215.52 67.958 1215.79 68.792 1215.96 69.68C1216.13 70.556 1216.21 71.432 1216.21 72.308V83H1213.55ZM1199.49 83V63.56H1201.88V68.348H1202.15V83H1199.49ZM1228.89 83.54C1226.96 83.54 1225.31 83.102 1223.94 82.226C1222.58 81.35 1221.53 80.138 1220.79 78.59C1220.06 77.042 1219.7 75.266 1219.7 73.262C1219.7 71.222 1220.07 69.434 1220.81 67.898C1221.56 66.362 1222.61 65.168 1223.98 64.316C1225.36 63.452 1227 63.02 1228.89 63.02C1230.84 63.02 1232.49 63.458 1233.86 64.334C1235.24 65.198 1236.29 66.404 1237.01 67.952C1237.74 69.488 1238.11 71.258 1238.11 73.262C1238.11 75.302 1237.74 77.096 1237.01 78.644C1236.28 80.18 1235.22 81.38 1233.84 82.244C1232.46 83.108 1230.81 83.54 1228.89 83.54ZM1228.89 81.002C1231.05 81.002 1232.66 80.288 1233.72 78.86C1234.77 77.42 1235.3 75.554 1235.3 73.262C1235.3 70.91 1234.77 69.038 1233.7 67.646C1232.64 66.254 1231.04 65.558 1228.89 65.558C1227.44 65.558 1226.24 65.888 1225.29 66.548C1224.36 67.196 1223.66 68.102 1223.19 69.266C1222.73 70.418 1222.5 71.75 1222.5 73.262C1222.5 75.602 1223.04 77.48 1224.12 78.896C1225.2 80.3 1226.79 81.002 1228.89 81.002ZM1250.04 60.5H1247.77L1249.91 54.92H1252.18L1250.04 60.5ZM1249.16 83.522C1246.88 83.522 1245 83.03 1243.52 82.046C1242.06 81.062 1241.16 79.694 1240.82 77.942L1243.52 77.492C1243.81 78.596 1244.47 79.478 1245.49 80.138C1246.52 80.786 1247.79 81.11 1249.3 81.11C1250.78 81.11 1251.94 80.804 1252.79 80.192C1253.65 79.568 1254.07 78.722 1254.07 77.654C1254.07 77.054 1253.93 76.568 1253.66 76.196C1253.39 75.812 1252.85 75.458 1252.02 75.134C1251.19 74.81 1249.96 74.426 1248.31 73.982C1246.55 73.502 1245.17 73.022 1244.17 72.542C1243.18 72.062 1242.47 71.51 1242.05 70.886C1241.63 70.25 1241.42 69.476 1241.42 68.564C1241.42 67.46 1241.73 66.494 1242.35 65.666C1242.98 64.826 1243.84 64.178 1244.95 63.722C1246.05 63.254 1247.33 63.02 1248.8 63.02C1250.26 63.02 1251.57 63.26 1252.72 63.74C1253.89 64.208 1254.82 64.868 1255.53 65.72C1256.24 66.572 1256.66 67.562 1256.79 68.69L1254.09 69.176C1253.91 68.036 1253.34 67.136 1252.38 66.476C1251.43 65.804 1250.23 65.456 1248.76 65.432C1247.38 65.396 1246.26 65.66 1245.4 66.224C1244.53 66.776 1244.1 67.514 1244.1 68.438C1244.1 68.954 1244.26 69.398 1244.57 69.77C1244.88 70.13 1245.44 70.472 1246.26 70.796C1247.09 71.12 1248.26 71.474 1249.79 71.858C1251.58 72.314 1252.98 72.794 1254 73.298C1255.02 73.802 1255.75 74.396 1256.18 75.08C1256.61 75.764 1256.83 76.61 1256.83 77.618C1256.83 79.454 1256.14 80.9 1254.77 81.956C1253.42 83 1251.55 83.522 1249.16 83.522ZM1268.88 83.54C1266.93 83.54 1265.27 83.102 1263.91 82.226C1262.56 81.35 1261.53 80.144 1260.82 78.608C1260.12 77.06 1259.76 75.284 1259.74 73.28C1259.76 71.24 1260.13 69.452 1260.85 67.916C1261.57 66.368 1262.61 65.168 1263.97 64.316C1265.32 63.452 1266.97 63.02 1268.9 63.02C1270.87 63.02 1272.58 63.5 1274.03 64.46C1275.49 65.42 1276.5 66.734 1277.04 68.402L1274.44 69.23C1273.99 68.066 1273.26 67.166 1272.27 66.53C1271.28 65.882 1270.15 65.558 1268.88 65.558C1267.45 65.558 1266.27 65.888 1265.34 66.548C1264.4 67.196 1263.7 68.102 1263.25 69.266C1262.79 70.43 1262.56 71.768 1262.55 73.28C1262.57 75.608 1263.11 77.48 1264.17 78.896C1265.22 80.3 1266.79 81.002 1268.88 81.002C1270.2 81.002 1271.32 80.702 1272.25 80.102C1273.18 79.49 1273.89 78.602 1274.37 77.438L1277.04 78.23C1276.32 79.958 1275.26 81.278 1273.87 82.19C1272.48 83.09 1270.81 83.54 1268.88 83.54ZM1280.59 59.87V56.9H1283.23V59.87H1280.59ZM1280.59 83V63.56H1283.23V83H1280.59ZM1296.75 83.54C1294.81 83.54 1293.16 83.102 1291.8 82.226C1290.43 81.35 1289.38 80.138 1288.65 78.59C1287.91 77.042 1287.55 75.266 1287.55 73.262C1287.55 71.222 1287.92 69.434 1288.66 67.898C1289.41 66.362 1290.46 65.168 1291.83 64.316C1293.21 63.452 1294.85 63.02 1296.75 63.02C1298.69 63.02 1300.35 63.458 1301.71 64.334C1303.09 65.198 1304.14 66.404 1304.86 67.952C1305.6 69.488 1305.96 71.258 1305.96 73.262C1305.96 75.302 1305.6 77.096 1304.86 78.644C1304.13 80.18 1303.08 81.38 1301.7 82.244C1300.32 83.108 1298.67 83.54 1296.75 83.54ZM1296.75 81.002C1298.91 81.002 1300.51 80.288 1301.57 78.86C1302.63 77.42 1303.15 75.554 1303.15 73.262C1303.15 70.91 1302.62 69.038 1301.55 67.646C1300.5 66.254 1298.89 65.558 1296.75 65.558C1295.29 65.558 1294.09 65.888 1293.15 66.548C1292.21 67.196 1291.51 68.102 1291.04 69.266C1290.58 70.418 1290.36 71.75 1290.36 73.262C1290.36 75.602 1290.9 77.48 1291.98 78.896C1293.06 80.3 1294.65 81.002 1296.75 81.002ZM1313.37 83L1307.43 63.542L1310.07 63.56L1314.68 78.662L1319.31 63.56H1321.72L1326.35 78.662L1330.99 63.56H1333.62L1327.68 83H1325.37L1320.51 67.52L1315.67 83H1313.37ZM1344.38 83.54C1342.49 83.54 1340.84 83.12 1339.45 82.28C1338.07 81.44 1337 80.258 1336.23 78.734C1335.46 77.21 1335.08 75.422 1335.08 73.37C1335.08 71.246 1335.46 69.41 1336.21 67.862C1336.97 66.314 1338.03 65.12 1339.4 64.28C1340.78 63.44 1342.4 63.02 1344.28 63.02C1346.2 63.02 1347.83 63.464 1349.19 64.352C1350.55 65.228 1351.57 66.488 1352.27 68.132C1352.96 69.776 1353.28 71.738 1353.22 74.018H1350.52V73.082C1350.47 70.562 1349.93 68.66 1348.88 67.376C1347.85 66.092 1346.34 65.45 1344.35 65.45C1342.26 65.45 1340.66 66.128 1339.54 67.484C1338.44 68.84 1337.89 70.772 1337.89 73.28C1337.89 75.728 1338.44 77.63 1339.54 78.986C1340.66 80.33 1342.24 81.002 1344.28 81.002C1345.67 81.002 1346.88 80.684 1347.91 80.048C1348.96 79.4 1349.78 78.47 1350.38 77.258L1352.84 78.212C1352.08 79.904 1350.94 81.218 1349.44 82.154C1347.95 83.078 1346.27 83.54 1344.38 83.54ZM1336.95 74.018V71.804H1351.8V74.018H1336.95Z" fill="#F2EEEB"/>
<path id="Siedziba g&#197;&#130;&#195;&#179;wna" d="M592.166 84.54C590.354 84.54 588.722 84.24 587.27 83.64C585.83 83.028 584.636 82.164 583.688 81.048C582.752 79.932 582.14 78.606 581.852 77.07L584.552 76.62C584.984 78.3 585.896 79.62 587.288 80.58C588.68 81.528 590.342 82.002 592.274 82.002C593.546 82.002 594.686 81.804 595.694 81.408C596.702 81 597.494 80.424 598.07 79.68C598.646 78.936 598.934 78.054 598.934 77.034C598.934 76.362 598.814 75.792 598.574 75.324C598.334 74.844 598.016 74.448 597.62 74.136C597.224 73.824 596.792 73.566 596.324 73.362C595.856 73.146 595.4 72.972 594.956 72.84L588.386 70.878C587.594 70.65 586.862 70.362 586.19 70.014C585.518 69.654 584.93 69.228 584.426 68.736C583.934 68.232 583.55 67.644 583.274 66.972C582.998 66.3 582.86 65.532 582.86 64.668C582.86 63.204 583.244 61.938 584.012 60.87C584.78 59.802 585.83 58.98 587.162 58.404C588.494 57.828 590.012 57.546 591.716 57.558C593.444 57.558 594.986 57.864 596.342 58.476C597.71 59.088 598.838 59.964 599.726 61.104C600.614 62.232 601.202 63.57 601.49 65.118L598.718 65.622C598.538 64.494 598.124 63.516 597.476 62.688C596.828 61.86 596 61.224 594.992 60.78C593.996 60.324 592.898 60.09 591.698 60.078C590.534 60.078 589.496 60.276 588.584 60.672C587.684 61.056 586.97 61.584 586.442 62.256C585.914 62.928 585.65 63.696 585.65 64.56C585.65 65.436 585.89 66.138 586.37 66.666C586.862 67.194 587.462 67.608 588.17 67.908C588.89 68.208 589.586 68.454 590.258 68.646L595.334 70.14C595.862 70.284 596.48 70.494 597.188 70.77C597.908 71.034 598.604 71.418 599.276 71.922C599.96 72.414 600.524 73.062 600.968 73.866C601.412 74.67 601.634 75.69 601.634 76.926C601.634 78.126 601.394 79.2 600.914 80.148C600.446 81.096 599.78 81.894 598.916 82.542C598.064 83.19 597.062 83.682 595.91 84.018C594.77 84.366 593.522 84.54 592.166 84.54ZM605.71 60.87V57.9H608.356V60.87H605.71ZM605.71 84V64.56H608.356V84H605.71ZM621.978 84.54C620.082 84.54 618.438 84.12 617.046 83.28C615.666 82.44 614.592 81.258 613.824 79.734C613.056 78.21 612.672 76.422 612.672 74.37C612.672 72.246 613.05 70.41 613.806 68.862C614.562 67.314 615.624 66.12 616.992 65.28C618.372 64.44 619.998 64.02 621.87 64.02C623.79 64.02 625.428 64.464 626.784 65.352C628.14 66.228 629.166 67.488 629.862 69.132C630.558 70.776 630.876 72.738 630.816 75.018H628.116V74.082C628.068 71.562 627.522 69.66 626.478 68.376C625.446 67.092 623.934 66.45 621.942 66.45C619.854 66.45 618.252 67.128 617.136 68.484C616.032 69.84 615.48 71.772 615.48 74.28C615.48 76.728 616.032 78.63 617.136 79.986C618.252 81.33 619.83 82.002 621.87 82.002C623.262 82.002 624.474 81.684 625.506 81.048C626.55 80.4 627.372 79.47 627.972 78.258L630.438 79.212C629.67 80.904 628.536 82.218 627.036 83.154C625.548 84.078 623.862 84.54 621.978 84.54ZM614.544 75.018V72.804H629.394V75.018H614.544ZM642.353 84.54C640.541 84.54 638.993 84.09 637.709 83.19C636.425 82.278 635.441 81.048 634.757 79.5C634.073 77.952 633.731 76.206 633.731 74.262C633.731 72.33 634.067 70.59 634.739 69.042C635.423 67.494 636.401 66.27 637.673 65.37C638.945 64.47 640.469 64.02 642.245 64.02C644.069 64.02 645.605 64.464 646.853 65.352C648.101 66.24 649.043 67.458 649.679 69.006C650.327 70.542 650.651 72.294 650.651 74.262C650.651 76.194 650.333 77.94 649.697 79.5C649.061 81.048 648.125 82.278 646.889 83.19C645.653 84.09 644.141 84.54 642.353 84.54ZM642.623 82.074C644.003 82.074 645.143 81.738 646.043 81.066C646.943 80.394 647.615 79.47 648.059 78.294C648.503 77.106 648.725 75.762 648.725 74.262C648.725 72.738 648.503 71.394 648.059 70.23C647.615 69.054 646.943 68.136 646.043 67.476C645.155 66.816 644.033 66.486 642.677 66.486C641.285 66.486 640.133 66.828 639.221 67.512C638.309 68.196 637.631 69.126 637.187 70.302C636.755 71.478 636.539 72.798 636.539 74.262C636.539 75.738 636.761 77.07 637.205 78.258C637.661 79.434 638.339 80.364 639.239 81.048C640.139 81.732 641.267 82.074 642.623 82.074ZM648.725 84V69.366H648.437V58.08H651.101V84H648.725ZM654.351 84V83.442L666.897 67.026H655.287V64.56H671.253V65.172L658.725 81.534H670.569V84H654.351ZM675.566 60.87V57.9H678.212V60.87H675.566ZM675.566 84V64.56H678.212V84H675.566ZM692.338 84.54C690.55 84.54 689.038 84.09 687.802 83.19C686.566 82.278 685.63 81.048 684.994 79.5C684.358 77.94 684.04 76.194 684.04 74.262C684.04 72.294 684.358 70.542 684.994 69.006C685.642 67.458 686.59 66.24 687.838 65.352C689.086 64.464 690.622 64.02 692.446 64.02C694.222 64.02 695.746 64.47 697.018 65.37C698.29 66.27 699.262 67.494 699.934 69.042C700.618 70.59 700.96 72.33 700.96 74.262C700.96 76.206 700.618 77.952 699.934 79.5C699.25 81.048 698.266 82.278 696.982 83.19C695.698 84.09 694.15 84.54 692.338 84.54ZM683.59 84V58.08H686.254V69.366H685.966V84H683.59ZM692.068 82.074C693.424 82.074 694.552 81.732 695.452 81.048C696.352 80.364 697.024 79.434 697.468 78.258C697.924 77.07 698.152 75.738 698.152 74.262C698.152 72.798 697.93 71.478 697.486 70.302C697.042 69.126 696.364 68.196 695.452 67.512C694.552 66.828 693.406 66.486 692.014 66.486C690.658 66.486 689.53 66.816 688.63 67.476C687.742 68.136 687.076 69.054 686.632 70.23C686.188 71.394 685.966 72.738 685.966 74.262C685.966 75.762 686.188 77.106 686.632 78.294C687.076 79.47 687.748 80.394 688.648 81.066C689.548 81.738 690.688 82.074 692.068 82.074ZM710.475 84.54C709.011 84.54 707.781 84.276 706.785 83.748C705.801 83.22 705.063 82.518 704.571 81.642C704.079 80.766 703.833 79.812 703.833 78.78C703.833 77.724 704.043 76.824 704.463 76.08C704.895 75.324 705.477 74.706 706.209 74.226C706.953 73.746 707.811 73.38 708.783 73.128C709.767 72.888 710.853 72.678 712.041 72.498C713.241 72.306 714.411 72.144 715.551 72.012C716.703 71.868 717.711 71.73 718.575 71.598L717.639 72.174C717.675 70.254 717.303 68.832 716.523 67.908C715.743 66.984 714.387 66.522 712.455 66.522C711.123 66.522 709.995 66.822 709.071 67.422C708.159 68.022 707.517 68.97 707.145 70.266L704.571 69.51C705.015 67.77 705.909 66.42 707.253 65.46C708.597 64.5 710.343 64.02 712.491 64.02C714.267 64.02 715.773 64.356 717.009 65.028C718.257 65.688 719.139 66.648 719.655 67.908C719.895 68.472 720.051 69.102 720.123 69.798C720.195 70.494 720.231 71.202 720.231 71.922V84H717.873V79.122L718.557 79.41C717.897 81.078 716.871 82.35 715.479 83.226C714.087 84.102 712.419 84.54 710.475 84.54ZM710.781 82.254C712.017 82.254 713.097 82.032 714.021 81.588C714.945 81.144 715.689 80.538 716.253 79.77C716.817 78.99 717.183 78.114 717.351 77.142C717.495 76.518 717.573 75.834 717.585 75.09C717.597 74.334 717.603 73.77 717.603 73.398L718.611 73.92C717.711 74.04 716.733 74.16 715.677 74.28C714.633 74.4 713.601 74.538 712.581 74.694C711.573 74.85 710.661 75.036 709.845 75.252C709.293 75.408 708.759 75.63 708.243 75.918C707.727 76.194 707.301 76.566 706.965 77.034C706.641 77.502 706.479 78.084 706.479 78.78C706.479 79.344 706.617 79.89 706.893 80.418C707.181 80.946 707.637 81.384 708.261 81.732C708.897 82.08 709.737 82.254 710.781 82.254ZM739.846 93.18C738.85 93.18 737.866 93.03 736.894 92.73C735.934 92.442 735.046 91.98 734.23 91.344C733.414 90.72 732.73 89.904 732.178 88.896L734.572 87.564C735.112 88.644 735.868 89.418 736.84 89.886C737.824 90.366 738.826 90.606 739.846 90.606C741.25 90.606 742.384 90.342 743.248 89.814C744.124 89.298 744.76 88.53 745.156 87.51C745.552 86.49 745.744 85.218 745.732 83.694V78.51H746.038V64.56H748.396V83.73C748.396 84.282 748.378 84.81 748.342 85.314C748.318 85.83 748.264 86.334 748.18 86.826C747.952 88.278 747.478 89.472 746.758 90.408C746.05 91.344 745.114 92.04 743.95 92.496C742.798 92.952 741.43 93.18 739.846 93.18ZM739.666 84.54C737.854 84.54 736.306 84.09 735.022 83.19C733.738 82.278 732.754 81.048 732.07 79.5C731.386 77.952 731.044 76.206 731.044 74.262C731.044 72.33 731.38 70.59 732.052 69.042C732.736 67.494 733.714 66.27 734.986 65.37C736.258 64.47 737.782 64.02 739.558 64.02C741.382 64.02 742.918 64.464 744.166 65.352C745.414 66.24 746.356 67.458 746.992 69.006C747.64 70.542 747.964 72.294 747.964 74.262C747.964 76.194 747.646 77.94 747.01 79.5C746.374 81.048 745.438 82.278 744.202 83.19C742.966 84.09 741.454 84.54 739.666 84.54ZM739.936 82.074C741.316 82.074 742.456 81.738 743.356 81.066C744.256 80.394 744.928 79.47 745.372 78.294C745.816 77.106 746.038 75.762 746.038 74.262C746.038 72.738 745.816 71.394 745.372 70.23C744.928 69.054 744.256 68.136 743.356 67.476C742.468 66.816 741.346 66.486 739.99 66.486C738.598 66.486 737.446 66.828 736.534 67.512C735.622 68.196 734.944 69.126 734.5 70.302C734.068 71.478 733.852 72.798 733.852 74.262C733.852 75.738 734.074 77.07 734.518 78.258C734.974 79.434 735.652 80.364 736.552 81.048C737.452 81.732 738.58 82.074 739.936 82.074ZM752.366 75.306V72.336L762.986 66.234V69.186L752.366 75.306ZM756.362 84V57.54H759.008V84H756.362ZM775.512 61.5H773.244L775.386 55.92H777.654L775.512 61.5ZM774.378 84.54C772.446 84.54 770.796 84.102 769.428 83.226C768.06 82.35 767.01 81.138 766.278 79.59C765.546 78.042 765.18 76.266 765.18 74.262C765.18 72.222 765.552 70.434 766.296 68.898C767.04 67.362 768.096 66.168 769.464 65.316C770.844 64.452 772.482 64.02 774.378 64.02C776.322 64.02 777.978 64.458 779.346 65.334C780.726 66.198 781.776 67.404 782.496 68.952C783.228 70.488 783.594 72.258 783.594 74.262C783.594 76.302 783.228 78.096 782.496 79.644C781.764 81.18 780.708 82.38 779.328 83.244C777.948 84.108 776.298 84.54 774.378 84.54ZM774.378 82.002C776.538 82.002 778.146 81.288 779.202 79.86C780.258 78.42 780.786 76.554 780.786 74.262C780.786 71.91 780.252 70.038 779.184 68.646C778.128 67.254 776.526 66.558 774.378 66.558C772.926 66.558 771.726 66.888 770.778 67.548C769.842 68.196 769.14 69.102 768.672 70.266C768.216 71.418 767.988 72.75 767.988 74.262C767.988 76.602 768.528 78.48 769.608 79.896C770.688 81.3 772.278 82.002 774.378 82.002ZM791.002 84L785.062 64.542L787.708 64.56L792.316 79.662L796.942 64.56H799.354L803.98 79.662L808.624 64.56H811.252L805.312 84H803.008L798.148 68.52L793.306 84H791.002ZM828.535 84V74.082C828.535 73.002 828.433 72.012 828.229 71.112C828.025 70.2 827.695 69.408 827.239 68.736C826.795 68.052 826.213 67.524 825.493 67.152C824.785 66.78 823.921 66.594 822.901 66.594C821.965 66.594 821.137 66.756 820.417 67.08C819.709 67.404 819.109 67.872 818.617 68.484C818.137 69.084 817.771 69.816 817.519 70.68C817.267 71.544 817.141 72.528 817.141 73.632L815.269 73.218C815.269 71.226 815.617 69.552 816.313 68.196C817.009 66.84 817.969 65.814 819.193 65.118C820.417 64.422 821.821 64.074 823.405 64.074C824.569 64.074 825.583 64.254 826.447 64.614C827.323 64.974 828.061 65.46 828.661 66.072C829.273 66.684 829.765 67.386 830.137 68.178C830.509 68.958 830.779 69.792 830.947 70.68C831.115 71.556 831.199 72.432 831.199 73.308V84H828.535ZM814.477 84V64.56H816.871V69.348H817.141V84H814.477ZM841.432 84.54C839.968 84.54 838.738 84.276 837.742 83.748C836.758 83.22 836.02 82.518 835.528 81.642C835.036 80.766 834.79 79.812 834.79 78.78C834.79 77.724 835 76.824 835.42 76.08C835.852 75.324 836.434 74.706 837.166 74.226C837.91 73.746 838.768 73.38 839.74 73.128C840.724 72.888 841.81 72.678 842.998 72.498C844.198 72.306 845.368 72.144 846.508 72.012C847.66 71.868 848.668 71.73 849.532 71.598L848.596 72.174C848.632 70.254 848.26 68.832 847.48 67.908C846.7 66.984 845.344 66.522 843.412 66.522C842.08 66.522 840.952 66.822 840.028 67.422C839.116 68.022 838.474 68.97 838.102 70.266L835.528 69.51C835.972 67.77 836.866 66.42 838.21 65.46C839.554 64.5 841.3 64.02 843.448 64.02C845.224 64.02 846.73 64.356 847.966 65.028C849.214 65.688 850.096 66.648 850.612 67.908C850.852 68.472 851.008 69.102 851.08 69.798C851.152 70.494 851.188 71.202 851.188 71.922V84H848.83V79.122L849.514 79.41C848.854 81.078 847.828 82.35 846.436 83.226C845.044 84.102 843.376 84.54 841.432 84.54ZM841.738 82.254C842.974 82.254 844.054 82.032 844.978 81.588C845.902 81.144 846.646 80.538 847.21 79.77C847.774 78.99 848.14 78.114 848.308 77.142C848.452 76.518 848.53 75.834 848.542 75.09C848.554 74.334 848.56 73.77 848.56 73.398L849.568 73.92C848.668 74.04 847.69 74.16 846.634 74.28C845.59 74.4 844.558 74.538 843.538 74.694C842.53 74.85 841.618 75.036 840.802 75.252C840.25 75.408 839.716 75.63 839.2 75.918C838.684 76.194 838.258 76.566 837.922 77.034C837.598 77.502 837.436 78.084 837.436 78.78C837.436 79.344 837.574 79.89 837.85 80.418C838.138 80.946 838.594 81.384 839.218 81.732C839.854 82.08 840.694 82.254 841.738 82.254Z" fill="#F2EEEB"/>
<path id="Warszawa ul.Warszawka 56" d="M666.701 126L661.708 108.72H663.545L667.589 122.988L671.609 108.732L673.457 108.72L677.501 122.988L681.521 108.72H683.369L678.389 126H676.613L672.533 111.828L668.477 126H666.701ZM688.076 126.36C687.1 126.36 686.28 126.184 685.616 125.832C684.96 125.48 684.468 125.012 684.14 124.428C683.812 123.844 683.648 123.208 683.648 122.52C683.648 121.816 683.788 121.216 684.068 120.72C684.356 120.216 684.744 119.804 685.232 119.484C685.728 119.164 686.3 118.92 686.948 118.752C687.604 118.592 688.328 118.452 689.12 118.332C689.92 118.204 690.7 118.096 691.46 118.008C692.228 117.912 692.9 117.82 693.476 117.732L692.852 118.116C692.876 116.836 692.628 115.888 692.108 115.272C691.588 114.656 690.684 114.348 689.396 114.348C688.508 114.348 687.756 114.548 687.14 114.948C686.532 115.348 686.104 115.98 685.855 116.844L684.14 116.34C684.436 115.18 685.032 114.28 685.928 113.64C686.824 113 687.988 112.68 689.42 112.68C690.604 112.68 691.608 112.904 692.432 113.352C693.264 113.792 693.852 114.432 694.196 115.272C694.356 115.648 694.46 116.068 694.508 116.532C694.556 116.996 694.58 117.468 694.58 117.948V126H693.008V122.748L693.464 122.94C693.024 124.052 692.34 124.9 691.412 125.484C690.484 126.068 689.372 126.36 688.076 126.36ZM688.28 124.836C689.104 124.836 689.824 124.688 690.44 124.392C691.056 124.096 691.552 123.692 691.928 123.18C692.304 122.66 692.548 122.076 692.66 121.428C692.756 121.012 692.808 120.556 692.816 120.06C692.824 119.556 692.828 119.18 692.828 118.932L693.5 119.28C692.9 119.36 692.248 119.44 691.544 119.52C690.848 119.6 690.16 119.692 689.48 119.796C688.808 119.9 688.2 120.024 687.656 120.168C687.288 120.272 686.932 120.42 686.588 120.612C686.244 120.796 685.96 121.044 685.736 121.356C685.52 121.668 685.412 122.056 685.412 122.52C685.412 122.896 685.504 123.26 685.688 123.612C685.88 123.964 686.184 124.256 686.6 124.488C687.024 124.72 687.584 124.836 688.28 124.836ZM697.703 126V113.04H699.287V116.16L698.975 115.752C699.119 115.368 699.307 115.016 699.539 114.696C699.771 114.368 700.023 114.1 700.295 113.892C700.631 113.596 701.023 113.372 701.471 113.22C701.919 113.06 702.371 112.968 702.827 112.944C703.283 112.912 703.699 112.944 704.075 113.04V114.696C703.603 114.576 703.087 114.548 702.527 114.612C701.967 114.676 701.451 114.9 700.979 115.284C700.547 115.62 700.223 116.024 700.007 116.496C699.791 116.96 699.647 117.456 699.575 117.984C699.503 118.504 699.467 119.02 699.467 119.532V126H697.703ZM710.719 126.348C709.199 126.348 707.947 126.02 706.963 125.364C705.987 124.708 705.387 123.796 705.163 122.628L706.963 122.328C707.155 123.064 707.591 123.652 708.271 124.092C708.959 124.524 709.807 124.74 710.815 124.74C711.799 124.74 712.575 124.536 713.143 124.128C713.711 123.712 713.995 123.148 713.995 122.436C713.995 122.036 713.903 121.712 713.719 121.464C713.543 121.208 713.179 120.972 712.627 120.756C712.075 120.54 711.251 120.284 710.155 119.988C708.979 119.668 708.059 119.348 707.395 119.028C706.731 118.708 706.259 118.34 705.979 117.924C705.699 117.5 705.559 116.984 705.559 116.376C705.559 115.64 705.767 114.996 706.183 114.444C706.599 113.884 707.175 113.452 707.911 113.148C708.647 112.836 709.503 112.68 710.479 112.68C711.455 112.68 712.327 112.84 713.095 113.16C713.871 113.472 714.495 113.912 714.967 114.48C715.439 115.048 715.719 115.708 715.807 116.46L714.007 116.784C713.887 116.024 713.507 115.424 712.867 114.984C712.235 114.536 711.431 114.304 710.455 114.288C709.535 114.264 708.787 114.44 708.211 114.816C707.635 115.184 707.347 115.676 707.347 116.292C707.347 116.636 707.451 116.932 707.659 117.18C707.867 117.42 708.243 117.648 708.787 117.864C709.339 118.08 710.123 118.316 711.139 118.572C712.331 118.876 713.267 119.196 713.947 119.532C714.627 119.868 715.111 120.264 715.399 120.72C715.687 121.176 715.831 121.74 715.831 122.412C715.831 123.636 715.375 124.6 714.463 125.304C713.559 126 712.311 126.348 710.719 126.348ZM717.293 126V125.628L725.657 114.684H717.917V113.04H728.561V113.448L720.209 124.356H728.105V126H717.293ZM734.177 126.36C733.201 126.36 732.381 126.184 731.717 125.832C731.061 125.48 730.569 125.012 730.241 124.428C729.913 123.844 729.749 123.208 729.749 122.52C729.749 121.816 729.889 121.216 730.169 120.72C730.457 120.216 730.845 119.804 731.333 119.484C731.829 119.164 732.401 118.92 733.049 118.752C733.705 118.592 734.429 118.452 735.221 118.332C736.021 118.204 736.801 118.096 737.561 118.008C738.329 117.912 739.001 117.82 739.577 117.732L738.953 118.116C738.977 116.836 738.729 115.888 738.209 115.272C737.689 114.656 736.785 114.348 735.497 114.348C734.609 114.348 733.857 114.548 733.241 114.948C732.633 115.348 732.205 115.98 731.957 116.844L730.241 116.34C730.537 115.18 731.133 114.28 732.029 113.64C732.925 113 734.089 112.68 735.521 112.68C736.705 112.68 737.709 112.904 738.533 113.352C739.365 113.792 739.953 114.432 740.297 115.272C740.457 115.648 740.561 116.068 740.609 116.532C740.657 116.996 740.681 117.468 740.681 117.948V126H739.109V122.748L739.565 122.94C739.125 124.052 738.441 124.9 737.513 125.484C736.585 126.068 735.473 126.36 734.177 126.36ZM734.381 124.836C735.205 124.836 735.925 124.688 736.541 124.392C737.157 124.096 737.653 123.692 738.029 123.18C738.405 122.66 738.649 122.076 738.761 121.428C738.857 121.012 738.909 120.556 738.917 120.06C738.925 119.556 738.929 119.18 738.929 118.932L739.601 119.28C739.001 119.36 738.349 119.44 737.645 119.52C736.949 119.6 736.261 119.692 735.581 119.796C734.909 119.9 734.301 120.024 733.757 120.168C733.389 120.272 733.033 120.42 732.689 120.612C732.345 120.796 732.061 121.044 731.837 121.356C731.621 121.668 731.513 122.056 731.513 122.52C731.513 122.896 731.605 123.26 731.789 123.612C731.981 123.964 732.285 124.256 732.701 124.488C733.125 124.72 733.685 124.836 734.381 124.836ZM746.096 126L742.136 113.028L743.9 113.04L746.972 123.108L750.056 113.04H751.664L754.748 123.108L757.844 113.04H759.596L755.636 126H754.1L750.86 115.68L747.632 126H746.096ZM764.74 126.36C763.764 126.36 762.944 126.184 762.28 125.832C761.624 125.48 761.132 125.012 760.804 124.428C760.476 123.844 760.312 123.208 760.312 122.52C760.312 121.816 760.452 121.216 760.732 120.72C761.02 120.216 761.408 119.804 761.896 119.484C762.392 119.164 762.964 118.92 763.612 118.752C764.268 118.592 764.992 118.452 765.784 118.332C766.584 118.204 767.364 118.096 768.124 118.008C768.892 117.912 769.564 117.82 770.14 117.732L769.516 118.116C769.54 116.836 769.292 115.888 768.772 115.272C768.252 114.656 767.348 114.348 766.06 114.348C765.172 114.348 764.42 114.548 763.804 114.948C763.196 115.348 762.768 115.98 762.52 116.844L760.804 116.34C761.1 115.18 761.696 114.28 762.592 113.64C763.488 113 764.652 112.68 766.084 112.68C767.268 112.68 768.272 112.904 769.096 113.352C769.928 113.792 770.516 114.432 770.86 115.272C771.02 115.648 771.124 116.068 771.172 116.532C771.22 116.996 771.244 117.468 771.244 117.948V126H769.672V122.748L770.128 122.94C769.688 124.052 769.004 124.9 768.076 125.484C767.148 126.068 766.036 126.36 764.74 126.36ZM764.944 124.836C765.768 124.836 766.488 124.688 767.104 124.392C767.72 124.096 768.216 123.692 768.592 123.18C768.968 122.66 769.212 122.076 769.324 121.428C769.42 121.012 769.472 120.556 769.48 120.06C769.488 119.556 769.492 119.18 769.492 118.932L770.164 119.28C769.564 119.36 768.912 119.44 768.208 119.52C767.512 119.6 766.824 119.692 766.144 119.796C765.472 119.9 764.864 120.024 764.32 120.168C763.952 120.272 763.596 120.42 763.252 120.612C762.908 120.796 762.624 121.044 762.4 121.356C762.184 121.668 762.076 122.056 762.076 122.52C762.076 122.896 762.168 123.26 762.352 123.612C762.544 123.964 762.848 124.256 763.264 124.488C763.688 124.72 764.248 124.836 764.944 124.836ZM631.89 159.324C631.114 159.324 630.434 159.204 629.85 158.964C629.274 158.724 628.782 158.4 628.374 157.992C627.974 157.584 627.65 157.12 627.402 156.6C627.154 156.072 626.974 155.516 626.862 154.932C626.75 154.34 626.694 153.752 626.694 153.168V146.04H628.47V152.652C628.47 153.364 628.538 154.024 628.674 154.632C628.81 155.24 629.026 155.772 629.322 156.228C629.626 156.676 630.014 157.024 630.486 157.272C630.966 157.52 631.546 157.644 632.226 157.644C632.85 157.644 633.398 157.536 633.87 157.32C634.35 157.104 634.75 156.796 635.07 156.396C635.398 155.988 635.646 155.496 635.814 154.92C635.982 154.336 636.066 153.68 636.066 152.952L637.314 153.228C637.314 154.556 637.082 155.672 636.618 156.576C636.154 157.48 635.514 158.164 634.698 158.628C633.882 159.092 632.946 159.324 631.89 159.324ZM636.246 159V155.808H636.066V146.04H637.83V159H636.246ZM641.424 159V141.36H643.188V159H641.424ZM647.121 159V156.948H649.173V159H647.121ZM656.587 159L651.595 141.72H653.431L657.475 155.988L661.495 141.732L663.343 141.72L667.387 155.988L671.407 141.72H673.255L668.275 159H666.499L662.419 144.828L658.363 159H656.587ZM677.962 159.36C676.986 159.36 676.166 159.184 675.502 158.832C674.846 158.48 674.354 158.012 674.026 157.428C673.698 156.844 673.534 156.208 673.534 155.52C673.534 154.816 673.674 154.216 673.954 153.72C674.242 153.216 674.63 152.804 675.118 152.484C675.614 152.164 676.186 151.92 676.834 151.752C677.49 151.592 678.214 151.452 679.006 151.332C679.806 151.204 680.586 151.096 681.346 151.008C682.114 150.912 682.786 150.82 683.362 150.732L682.738 151.116C682.762 149.836 682.514 148.888 681.994 148.272C681.474 147.656 680.57 147.348 679.282 147.348C678.394 147.348 677.642 147.548 677.026 147.948C676.418 148.348 675.99 148.98 675.742 149.844L674.026 149.34C674.322 148.18 674.918 147.28 675.814 146.64C676.71 146 677.874 145.68 679.306 145.68C680.49 145.68 681.494 145.904 682.318 146.352C683.15 146.792 683.738 147.432 684.082 148.272C684.242 148.648 684.346 149.068 684.394 149.532C684.442 149.996 684.466 150.468 684.466 150.948V159H682.894V155.748L683.35 155.94C682.91 157.052 682.226 157.9 681.298 158.484C680.37 159.068 679.258 159.36 677.962 159.36ZM678.166 157.836C678.99 157.836 679.71 157.688 680.326 157.392C680.942 157.096 681.438 156.692 681.814 156.18C682.19 155.66 682.434 155.076 682.546 154.428C682.642 154.012 682.694 153.556 682.702 153.06C682.71 152.556 682.714 152.18 682.714 151.932L683.386 152.28C682.786 152.36 682.134 152.44 681.43 152.52C680.734 152.6 680.046 152.692 679.366 152.796C678.694 152.9 678.086 153.024 677.542 153.168C677.174 153.272 676.818 153.42 676.474 153.612C676.13 153.796 675.846 154.044 675.622 154.356C675.406 154.668 675.298 155.056 675.298 155.52C675.298 155.896 675.39 156.26 675.574 156.612C675.766 156.964 676.07 157.256 676.486 157.488C676.91 157.72 677.47 157.836 678.166 157.836ZM687.59 159V146.04H689.174V149.16L688.862 148.752C689.006 148.368 689.194 148.016 689.426 147.696C689.658 147.368 689.91 147.1 690.182 146.892C690.518 146.596 690.91 146.372 691.358 146.22C691.806 146.06 692.258 145.968 692.714 145.944C693.17 145.912 693.586 145.944 693.962 146.04V147.696C693.49 147.576 692.974 147.548 692.414 147.612C691.854 147.676 691.338 147.9 690.866 148.284C690.434 148.62 690.11 149.024 689.894 149.496C689.678 149.96 689.534 150.456 689.462 150.984C689.39 151.504 689.354 152.02 689.354 152.532V159H687.59ZM700.606 159.348C699.086 159.348 697.834 159.02 696.85 158.364C695.874 157.708 695.274 156.796 695.05 155.628L696.85 155.328C697.042 156.064 697.478 156.652 698.158 157.092C698.846 157.524 699.694 157.74 700.702 157.74C701.686 157.74 702.462 157.536 703.03 157.128C703.598 156.712 703.882 156.148 703.882 155.436C703.882 155.036 703.79 154.712 703.606 154.464C703.43 154.208 703.066 153.972 702.514 153.756C701.962 153.54 701.138 153.284 700.042 152.988C698.866 152.668 697.946 152.348 697.282 152.028C696.618 151.708 696.146 151.34 695.866 150.924C695.586 150.5 695.446 149.984 695.446 149.376C695.446 148.64 695.654 147.996 696.07 147.444C696.486 146.884 697.062 146.452 697.798 146.148C698.534 145.836 699.39 145.68 700.366 145.68C701.342 145.68 702.214 145.84 702.982 146.16C703.758 146.472 704.382 146.912 704.854 147.48C705.326 148.048 705.606 148.708 705.694 149.46L703.894 149.784C703.774 149.024 703.394 148.424 702.754 147.984C702.122 147.536 701.318 147.304 700.342 147.288C699.422 147.264 698.674 147.44 698.098 147.816C697.522 148.184 697.234 148.676 697.234 149.292C697.234 149.636 697.338 149.932 697.546 150.18C697.754 150.42 698.13 150.648 698.674 150.864C699.226 151.08 700.01 151.316 701.026 151.572C702.218 151.876 703.154 152.196 703.834 152.532C704.514 152.868 704.998 153.264 705.286 153.72C705.574 154.176 705.718 154.74 705.718 155.412C705.718 156.636 705.262 157.6 704.35 158.304C703.446 159 702.198 159.348 700.606 159.348ZM707.179 159V158.628L715.543 147.684H707.803V146.04H718.447V146.448L710.095 157.356H717.991V159H707.179ZM724.064 159.36C723.088 159.36 722.268 159.184 721.604 158.832C720.948 158.48 720.456 158.012 720.128 157.428C719.8 156.844 719.636 156.208 719.636 155.52C719.636 154.816 719.776 154.216 720.056 153.72C720.344 153.216 720.732 152.804 721.22 152.484C721.716 152.164 722.288 151.92 722.936 151.752C723.592 151.592 724.316 151.452 725.108 151.332C725.908 151.204 726.688 151.096 727.448 151.008C728.216 150.912 728.888 150.82 729.464 150.732L728.84 151.116C728.864 149.836 728.616 148.888 728.096 148.272C727.576 147.656 726.672 147.348 725.384 147.348C724.496 147.348 723.744 147.548 723.128 147.948C722.52 148.348 722.092 148.98 721.844 149.844L720.128 149.34C720.424 148.18 721.02 147.28 721.916 146.64C722.812 146 723.976 145.68 725.408 145.68C726.592 145.68 727.596 145.904 728.42 146.352C729.252 146.792 729.84 147.432 730.184 148.272C730.344 148.648 730.448 149.068 730.496 149.532C730.544 149.996 730.568 150.468 730.568 150.948V159H728.996V155.748L729.452 155.94C729.012 157.052 728.328 157.9 727.4 158.484C726.472 159.068 725.36 159.36 724.064 159.36ZM724.268 157.836C725.092 157.836 725.812 157.688 726.428 157.392C727.044 157.096 727.54 156.692 727.916 156.18C728.292 155.66 728.536 155.076 728.648 154.428C728.744 154.012 728.796 153.556 728.804 153.06C728.812 152.556 728.816 152.18 728.816 151.932L729.488 152.28C728.888 152.36 728.236 152.44 727.532 152.52C726.836 152.6 726.148 152.692 725.468 152.796C724.796 152.9 724.188 153.024 723.644 153.168C723.276 153.272 722.92 153.42 722.576 153.612C722.232 153.796 721.948 154.044 721.724 154.356C721.508 154.668 721.4 155.056 721.4 155.52C721.4 155.896 721.492 156.26 721.676 156.612C721.868 156.964 722.172 157.256 722.588 157.488C723.012 157.72 723.572 157.836 724.268 157.836ZM735.983 159L732.023 146.028L733.787 146.04L736.859 156.108L739.943 146.04H741.551L744.635 156.108L747.731 146.04H749.483L745.523 159H743.987L740.747 148.68L737.519 159H735.983ZM751.633 159L751.645 141.72H753.421V152.28L759.205 146.04H761.557L755.485 152.52L762.349 159H759.781L753.421 152.76V159H751.633ZM767.259 159.36C766.283 159.36 765.463 159.184 764.799 158.832C764.143 158.48 763.651 158.012 763.323 157.428C762.995 156.844 762.831 156.208 762.831 155.52C762.831 154.816 762.971 154.216 763.251 153.72C763.539 153.216 763.927 152.804 764.415 152.484C764.911 152.164 765.483 151.92 766.131 151.752C766.787 151.592 767.511 151.452 768.303 151.332C769.103 151.204 769.883 151.096 770.643 151.008C771.411 150.912 772.083 150.82 772.659 150.732L772.035 151.116C772.059 149.836 771.811 148.888 771.291 148.272C770.771 147.656 769.867 147.348 768.579 147.348C767.691 147.348 766.939 147.548 766.323 147.948C765.715 148.348 765.287 148.98 765.039 149.844L763.323 149.34C763.619 148.18 764.215 147.28 765.111 146.64C766.007 146 767.171 145.68 768.603 145.68C769.787 145.68 770.791 145.904 771.615 146.352C772.447 146.792 773.035 147.432 773.379 148.272C773.539 148.648 773.643 149.068 773.691 149.532C773.739 149.996 773.763 150.468 773.763 150.948V159H772.191V155.748L772.647 155.94C772.207 157.052 771.523 157.9 770.595 158.484C769.667 159.068 768.555 159.36 767.259 159.36ZM767.463 157.836C768.287 157.836 769.007 157.688 769.623 157.392C770.239 157.096 770.735 156.692 771.111 156.18C771.487 155.66 771.731 155.076 771.843 154.428C771.939 154.012 771.991 153.556 771.999 153.06C772.007 152.556 772.011 152.18 772.011 151.932L772.683 152.28C772.083 152.36 771.431 152.44 770.727 152.52C770.031 152.6 769.343 152.692 768.663 152.796C767.991 152.9 767.383 153.024 766.839 153.168C766.471 153.272 766.115 153.42 765.771 153.612C765.427 153.796 765.143 154.044 764.919 154.356C764.703 154.668 764.595 155.056 764.595 155.52C764.595 155.896 764.687 156.26 764.871 156.612C765.063 156.964 765.367 157.256 765.783 157.488C766.207 157.72 766.767 157.836 767.463 157.836ZM786.792 159.36C785.896 159.36 785.068 159.176 784.308 158.808C783.548 158.44 782.9 157.932 782.364 157.284C781.828 156.636 781.444 155.892 781.212 155.052L782.904 154.596C783.056 155.22 783.332 155.76 783.732 156.216C784.132 156.664 784.6 157.012 785.136 157.26C785.68 157.508 786.248 157.632 786.84 157.632C787.608 157.632 788.296 157.448 788.904 157.08C789.52 156.704 790.008 156.208 790.368 155.592C790.728 154.976 790.908 154.3 790.908 153.564C790.908 152.804 790.72 152.12 790.344 151.512C789.968 150.896 789.472 150.408 788.856 150.048C788.24 149.688 787.568 149.508 786.84 149.508C786.024 149.508 785.32 149.688 784.728 150.048C784.136 150.4 783.664 150.844 783.312 151.38L781.704 150.708L782.232 141.72H791.46V143.412H783.012L783.888 142.584L783.42 150.252L782.976 149.664C783.472 149.096 784.072 148.652 784.776 148.332C785.48 148.012 786.22 147.852 786.996 147.852C788.06 147.852 789.02 148.108 789.876 148.62C790.732 149.124 791.412 149.808 791.916 150.672C792.42 151.536 792.672 152.5 792.672 153.564C792.672 154.62 792.404 155.588 791.868 156.468C791.332 157.34 790.62 158.04 789.732 158.568C788.844 159.096 787.864 159.36 786.792 159.36ZM801.387 159.36C800.307 159.36 799.323 159.1 798.435 158.58C797.555 158.052 796.851 157.34 796.323 156.444C795.803 155.54 795.543 154.524 795.543 153.396V147.408C795.543 146.248 795.803 145.216 796.323 144.312C796.843 143.4 797.551 142.684 798.447 142.164C799.351 141.636 800.375 141.372 801.519 141.372C802.503 141.372 803.415 141.588 804.255 142.02C805.103 142.452 805.795 143.056 806.331 143.832L804.975 144.948C804.607 144.372 804.119 143.912 803.511 143.568C802.903 143.224 802.239 143.052 801.519 143.052C800.711 143.052 799.991 143.248 799.359 143.64C798.727 144.032 798.231 144.548 797.871 145.188C797.511 145.82 797.331 146.508 797.331 147.252V151.02L796.887 150.516C797.391 149.724 798.051 149.084 798.867 148.596C799.691 148.108 800.587 147.864 801.555 147.864C802.627 147.864 803.591 148.12 804.447 148.632C805.303 149.136 805.983 149.82 806.487 150.684C806.991 151.548 807.243 152.516 807.243 153.588C807.243 154.652 806.975 155.62 806.439 156.492C805.911 157.364 805.203 158.06 804.315 158.58C803.435 159.1 802.459 159.36 801.387 159.36ZM801.387 157.644C802.139 157.644 802.823 157.464 803.439 157.104C804.063 156.744 804.555 156.256 804.915 155.64C805.283 155.024 805.467 154.34 805.467 153.588C805.467 152.836 805.283 152.152 804.915 151.536C804.555 150.912 804.067 150.42 803.451 150.06C802.835 149.692 802.151 149.508 801.399 149.508C800.647 149.508 799.963 149.692 799.347 150.06C798.731 150.42 798.239 150.912 797.871 151.536C797.511 152.152 797.331 152.836 797.331 153.588C797.331 154.332 797.511 155.012 797.871 155.628C798.231 156.244 798.719 156.736 799.335 157.104C799.951 157.464 800.635 157.644 801.387 157.644Z" fill="#F2EEEB"/>
<path id="Vector_3" d="M1156.4 125.113C1159.22 124.754 1161.81 123.333 1163.62 121.138C1165.43 118.944 1166.34 116.141 1166.17 113.3C1165.99 110.459 1164.73 107.792 1162.66 105.841C1160.59 103.891 1157.85 102.804 1155 102.8C1152.15 102.798 1149.41 103.883 1147.33 105.833C1145.25 107.784 1143.99 110.454 1143.81 113.299C1143.64 116.144 1144.55 118.949 1146.37 121.145C1148.18 123.34 1150.77 124.759 1153.6 125.113V116.8H1150.8V114H1153.6V111.684C1153.6 109.813 1153.8 109.134 1154.16 108.449C1154.52 107.772 1155.07 107.218 1155.75 106.86C1156.29 106.573 1156.95 106.401 1158.11 106.327C1158.57 106.297 1159.17 106.334 1159.9 106.439V109.099H1159.2C1157.92 109.099 1157.39 109.159 1157.07 109.328C1156.88 109.425 1156.73 109.579 1156.63 109.768C1156.46 110.084 1156.4 110.398 1156.4 111.683V114H1159.9L1159.2 116.8H1156.4V125.113ZM1155 128C1147.27 128 1141 121.732 1141 114C1141 106.268 1147.27 100 1155 100C1162.73 100 1169 106.268 1169 114C1169 121.732 1162.73 128 1155 128Z" fill="#FCFCFC"/>
</g>
<path id="Kontakt" d="M205.368 84V58.08H208.014V70.32L219.84 58.08H223.224L211.146 70.59L224.214 84H220.758L208.014 71.04V84H205.368ZM233.419 84.54C231.487 84.54 229.837 84.102 228.469 83.226C227.101 82.35 226.051 81.138 225.319 79.59C224.587 78.042 224.221 76.266 224.221 74.262C224.221 72.222 224.593 70.434 225.337 68.898C226.081 67.362 227.137 66.168 228.505 65.316C229.885 64.452 231.523 64.02 233.419 64.02C235.363 64.02 237.019 64.458 238.387 65.334C239.767 66.198 240.817 67.404 241.537 68.952C242.269 70.488 242.635 72.258 242.635 74.262C242.635 76.302 242.269 78.096 241.537 79.644C240.805 81.18 239.749 82.38 238.369 83.244C236.989 84.108 235.339 84.54 233.419 84.54ZM233.419 82.002C235.579 82.002 237.187 81.288 238.243 79.86C239.299 78.42 239.827 76.554 239.827 74.262C239.827 71.91 239.293 70.038 238.225 68.646C237.169 67.254 235.567 66.558 233.419 66.558C231.967 66.558 230.767 66.888 229.819 67.548C228.883 68.196 228.181 69.102 227.713 70.266C227.257 71.418 227.029 72.75 227.029 74.262C227.029 76.602 227.569 78.48 228.649 79.896C229.729 81.3 231.319 82.002 233.419 82.002ZM260.646 84V74.082C260.646 73.002 260.544 72.012 260.34 71.112C260.136 70.2 259.806 69.408 259.35 68.736C258.906 68.052 258.324 67.524 257.604 67.152C256.896 66.78 256.032 66.594 255.012 66.594C254.076 66.594 253.248 66.756 252.528 67.08C251.82 67.404 251.22 67.872 250.728 68.484C250.248 69.084 249.882 69.816 249.63 70.68C249.378 71.544 249.252 72.528 249.252 73.632L247.38 73.218C247.38 71.226 247.728 69.552 248.424 68.196C249.12 66.84 250.08 65.814 251.304 65.118C252.528 64.422 253.932 64.074 255.516 64.074C256.68 64.074 257.694 64.254 258.558 64.614C259.434 64.974 260.172 65.46 260.772 66.072C261.384 66.684 261.876 67.386 262.248 68.178C262.62 68.958 262.89 69.792 263.058 70.68C263.226 71.556 263.31 72.432 263.31 73.308V84H260.646ZM246.588 84V64.56H248.982V69.348H249.252V84H246.588ZM278.565 84C277.473 84.228 276.393 84.318 275.325 84.27C274.269 84.222 273.321 83.994 272.481 83.586C271.653 83.178 271.023 82.542 270.591 81.678C270.243 80.958 270.051 80.232 270.015 79.5C269.991 78.756 269.979 77.91 269.979 76.962V59.16H272.607V76.854C272.607 77.67 272.613 78.354 272.625 78.906C272.649 79.446 272.775 79.926 273.003 80.346C273.435 81.15 274.119 81.63 275.055 81.786C276.003 81.942 277.173 81.906 278.565 81.678V84ZM265.821 66.828V64.56H278.565V66.828H265.821ZM287.957 84.54C286.493 84.54 285.263 84.276 284.267 83.748C283.283 83.22 282.545 82.518 282.053 81.642C281.561 80.766 281.315 79.812 281.315 78.78C281.315 77.724 281.525 76.824 281.945 76.08C282.377 75.324 282.959 74.706 283.691 74.226C284.435 73.746 285.293 73.38 286.265 73.128C287.249 72.888 288.335 72.678 289.523 72.498C290.723 72.306 291.893 72.144 293.033 72.012C294.185 71.868 295.193 71.73 296.057 71.598L295.121 72.174C295.157 70.254 294.785 68.832 294.005 67.908C293.225 66.984 291.869 66.522 289.937 66.522C288.605 66.522 287.477 66.822 286.553 67.422C285.641 68.022 284.999 68.97 284.627 70.266L282.053 69.51C282.497 67.77 283.391 66.42 284.735 65.46C286.079 64.5 287.825 64.02 289.973 64.02C291.749 64.02 293.255 64.356 294.491 65.028C295.739 65.688 296.621 66.648 297.137 67.908C297.377 68.472 297.533 69.102 297.605 69.798C297.677 70.494 297.713 71.202 297.713 71.922V84H295.355V79.122L296.039 79.41C295.379 81.078 294.353 82.35 292.961 83.226C291.569 84.102 289.901 84.54 287.957 84.54ZM288.263 82.254C289.499 82.254 290.579 82.032 291.503 81.588C292.427 81.144 293.171 80.538 293.735 79.77C294.299 78.99 294.665 78.114 294.833 77.142C294.977 76.518 295.055 75.834 295.067 75.09C295.079 74.334 295.085 73.77 295.085 73.398L296.093 73.92C295.193 74.04 294.215 74.16 293.159 74.28C292.115 74.4 291.083 74.538 290.063 74.694C289.055 74.85 288.143 75.036 287.327 75.252C286.775 75.408 286.241 75.63 285.725 75.918C285.209 76.194 284.783 76.566 284.447 77.034C284.123 77.502 283.961 78.084 283.961 78.78C283.961 79.344 284.099 79.89 284.375 80.418C284.663 80.946 285.119 81.384 285.743 81.732C286.379 82.08 287.219 82.254 288.263 82.254ZM302.381 84L302.399 58.08H305.063V73.92L313.739 64.56H317.267L308.159 74.28L318.455 84H314.603L305.063 74.64V84H302.381ZM330.842 84C329.75 84.228 328.67 84.318 327.602 84.27C326.546 84.222 325.598 83.994 324.758 83.586C323.93 83.178 323.3 82.542 322.868 81.678C322.52 80.958 322.328 80.232 322.292 79.5C322.268 78.756 322.256 77.91 322.256 76.962V59.16H324.884V76.854C324.884 77.67 324.89 78.354 324.902 78.906C324.926 79.446 325.052 79.926 325.28 80.346C325.712 81.15 326.396 81.63 327.332 81.786C328.28 81.942 329.45 81.906 330.842 81.678V84ZM318.098 66.828V64.56H330.842V66.828H318.098Z" fill="#F2EEEB"/>
<path id="Whale@work.com" d="M173.564 135L168.572 117.72H170.408L174.452 131.988L178.472 117.732L180.32 117.72L184.364 131.988L188.384 117.72H190.232L185.252 135H183.476L179.396 120.828L175.34 135H173.564ZM201.669 135V128.388C201.669 127.668 201.601 127.008 201.465 126.408C201.329 125.8 201.109 125.272 200.805 124.824C200.509 124.368 200.121 124.016 199.641 123.768C199.169 123.52 198.593 123.396 197.913 123.396C197.289 123.396 196.737 123.504 196.257 123.72C195.785 123.936 195.385 124.248 195.057 124.656C194.737 125.056 194.493 125.544 194.325 126.12C194.157 126.696 194.073 127.352 194.073 128.088L192.825 127.812C192.825 126.484 193.057 125.368 193.521 124.464C193.985 123.56 194.625 122.876 195.441 122.412C196.257 121.948 197.193 121.716 198.249 121.716C199.025 121.716 199.701 121.836 200.277 122.076C200.861 122.316 201.353 122.64 201.753 123.048C202.161 123.456 202.489 123.924 202.737 124.452C202.985 124.972 203.165 125.528 203.277 126.12C203.389 126.704 203.445 127.288 203.445 127.872V135H201.669ZM192.297 135V117.72H193.893V127.476H194.073V135H192.297ZM210.267 135.36C209.291 135.36 208.471 135.184 207.807 134.832C207.151 134.48 206.659 134.012 206.331 133.428C206.003 132.844 205.839 132.208 205.839 131.52C205.839 130.816 205.979 130.216 206.259 129.72C206.547 129.216 206.935 128.804 207.423 128.484C207.919 128.164 208.491 127.92 209.139 127.752C209.795 127.592 210.519 127.452 211.311 127.332C212.111 127.204 212.891 127.096 213.651 127.008C214.419 126.912 215.091 126.82 215.667 126.732L215.043 127.116C215.067 125.836 214.819 124.888 214.299 124.272C213.779 123.656 212.875 123.348 211.587 123.348C210.699 123.348 209.947 123.548 209.331 123.948C208.723 124.348 208.295 124.98 208.047 125.844L206.331 125.34C206.627 124.18 207.223 123.28 208.119 122.64C209.015 122 210.179 121.68 211.611 121.68C212.795 121.68 213.799 121.904 214.623 122.352C215.455 122.792 216.043 123.432 216.387 124.272C216.547 124.648 216.651 125.068 216.699 125.532C216.747 125.996 216.771 126.468 216.771 126.948V135H215.199V131.748L215.655 131.94C215.215 133.052 214.531 133.9 213.603 134.484C212.675 135.068 211.563 135.36 210.267 135.36ZM210.471 133.836C211.295 133.836 212.015 133.688 212.631 133.392C213.247 133.096 213.743 132.692 214.119 132.18C214.495 131.66 214.739 131.076 214.851 130.428C214.947 130.012 214.999 129.556 215.007 129.06C215.015 128.556 215.019 128.18 215.019 127.932L215.691 128.28C215.091 128.36 214.439 128.44 213.735 128.52C213.039 128.6 212.351 128.692 211.671 128.796C210.999 128.9 210.391 129.024 209.847 129.168C209.479 129.272 209.123 129.42 208.779 129.612C208.435 129.796 208.151 130.044 207.927 130.356C207.711 130.668 207.603 131.056 207.603 131.52C207.603 131.896 207.695 132.26 207.879 132.612C208.071 132.964 208.375 133.256 208.791 133.488C209.215 133.72 209.775 133.836 210.471 133.836ZM220.135 135V117.36H221.899V135H220.135ZM230.98 135.36C229.716 135.36 228.62 135.08 227.692 134.52C226.772 133.96 226.056 133.172 225.544 132.156C225.032 131.14 224.776 129.948 224.776 128.58C224.776 127.164 225.028 125.94 225.532 124.908C226.036 123.876 226.744 123.08 227.656 122.52C228.576 121.96 229.66 121.68 230.908 121.68C232.188 121.68 233.28 121.976 234.184 122.568C235.088 123.152 235.772 123.992 236.236 125.088C236.7 126.184 236.912 127.492 236.872 129.012H235.072V128.388C235.04 126.708 234.676 125.44 233.98 124.584C233.292 123.728 232.284 123.3 230.956 123.3C229.564 123.3 228.496 123.752 227.752 124.656C227.016 125.56 226.648 126.848 226.648 128.52C226.648 130.152 227.016 131.42 227.752 132.324C228.496 133.22 229.548 133.668 230.908 133.668C231.836 133.668 232.644 133.456 233.332 133.032C234.028 132.6 234.576 131.98 234.976 131.172L236.62 131.808C236.108 132.936 235.352 133.812 234.352 134.436C233.36 135.052 232.236 135.36 230.98 135.36ZM226.024 129.012V127.536H235.924V129.012H226.024ZM248.739 137.52C247.459 137.52 246.275 137.296 245.187 136.848C244.099 136.408 243.151 135.792 242.343 135C241.535 134.2 240.903 133.26 240.447 132.18C239.999 131.1 239.775 129.924 239.775 128.652C239.775 127.3 239.995 126.068 240.435 124.956C240.875 123.836 241.495 122.872 242.295 122.064C243.103 121.248 244.059 120.62 245.163 120.18C246.267 119.74 247.479 119.52 248.799 119.52C250.311 119.52 251.631 119.764 252.759 120.252C253.895 120.732 254.831 121.388 255.567 122.22C256.303 123.044 256.839 123.972 257.175 125.004C257.519 126.036 257.663 127.104 257.607 128.208C257.527 129.72 257.167 130.86 256.527 131.628C255.895 132.396 255.011 132.78 253.875 132.78C253.139 132.78 252.499 132.608 251.955 132.264C251.411 131.92 251.047 131.436 250.863 130.812L251.439 130.872C251.159 131.44 250.739 131.852 250.179 132.108C249.627 132.364 249.051 132.492 248.451 132.492C247.723 132.492 247.083 132.336 246.531 132.024C245.987 131.704 245.559 131.264 245.247 130.704C244.943 130.144 244.791 129.496 244.791 128.76C244.791 127.992 244.951 127.328 245.271 126.768C245.591 126.208 246.031 125.776 246.591 125.472C247.151 125.168 247.783 125.016 248.487 125.016C249.007 125.016 249.543 125.124 250.095 125.34C250.655 125.556 251.083 125.908 251.379 126.396L250.911 126.924V125.352H252.183L252.171 129.252C252.171 129.844 252.307 130.328 252.579 130.704C252.859 131.072 253.319 131.256 253.959 131.256C254.391 131.256 254.751 131.136 255.039 130.896C255.335 130.656 255.563 130.32 255.723 129.888C255.883 129.448 255.975 128.932 255.999 128.34C256.047 127.124 255.891 126.06 255.531 125.148C255.171 124.236 254.659 123.476 253.995 122.868C253.331 122.252 252.559 121.792 251.679 121.488C250.807 121.184 249.875 121.032 248.883 121.032C247.683 121.032 246.615 121.232 245.679 121.632C244.751 122.032 243.963 122.584 243.315 123.288C242.675 123.992 242.191 124.804 241.863 125.724C241.535 126.636 241.379 127.608 241.395 128.64C241.403 129.704 241.595 130.688 241.971 131.592C242.355 132.488 242.883 133.268 243.555 133.932C244.227 134.588 245.011 135.096 245.907 135.456C246.803 135.824 247.775 136.008 248.823 136.008C249.503 136.008 250.183 135.92 250.863 135.744C251.551 135.568 252.163 135.324 252.699 135.012L253.263 136.356C252.567 136.748 251.835 137.04 251.067 137.232C250.299 137.424 249.523 137.52 248.739 137.52ZM248.547 130.956C249.171 130.956 249.679 130.776 250.071 130.416C250.471 130.056 250.671 129.5 250.671 128.748C250.671 128.012 250.479 127.456 250.095 127.08C249.719 126.704 249.215 126.516 248.583 126.516C247.863 126.516 247.311 126.712 246.927 127.104C246.551 127.496 246.363 128.044 246.363 128.748C246.363 129.46 246.559 130.008 246.951 130.392C247.343 130.768 247.875 130.956 248.547 130.956ZM263.975 135L260.015 122.028L261.779 122.04L264.851 132.108L267.935 122.04H269.543L272.627 132.108L275.723 122.04H277.475L273.515 135H271.979L268.739 124.68L265.511 135H263.975ZM284.58 135.36C283.292 135.36 282.192 135.068 281.28 134.484C280.368 133.9 279.668 133.092 279.18 132.06C278.692 131.028 278.448 129.844 278.448 128.508C278.448 127.148 278.696 125.956 279.192 124.932C279.688 123.908 280.392 123.112 281.304 122.544C282.224 121.968 283.316 121.68 284.58 121.68C285.876 121.68 286.98 121.972 287.892 122.556C288.812 123.132 289.512 123.936 289.992 124.968C290.48 125.992 290.724 127.172 290.724 128.508C290.724 129.868 290.48 131.064 289.992 132.096C289.504 133.12 288.8 133.92 287.88 134.496C286.96 135.072 285.86 135.36 284.58 135.36ZM284.58 133.668C286.02 133.668 287.092 133.192 287.796 132.24C288.5 131.28 288.852 130.036 288.852 128.508C288.852 126.94 288.496 125.692 287.784 124.764C287.08 123.836 286.012 123.372 284.58 123.372C283.612 123.372 282.812 123.592 282.18 124.032C281.556 124.464 281.088 125.068 280.776 125.844C280.472 126.612 280.32 127.5 280.32 128.508C280.32 130.068 280.68 131.32 281.4 132.264C282.12 133.2 283.18 133.668 284.58 133.668ZM293.371 135V122.04H294.955V125.16L294.643 124.752C294.787 124.368 294.975 124.016 295.207 123.696C295.439 123.368 295.691 123.1 295.963 122.892C296.299 122.596 296.691 122.372 297.139 122.22C297.587 122.06 298.039 121.968 298.495 121.944C298.951 121.912 299.367 121.944 299.743 122.04V123.696C299.271 123.576 298.755 123.548 298.195 123.612C297.635 123.676 297.119 123.9 296.647 124.284C296.215 124.62 295.891 125.024 295.675 125.496C295.459 125.96 295.315 126.456 295.243 126.984C295.171 127.504 295.135 128.02 295.135 128.532V135H293.371ZM302.008 135L302.02 117.72H303.796V128.28L309.58 122.04H311.932L305.86 128.52L312.724 135H310.156L303.796 128.76V135H302.008ZM314.262 135V132.948H316.314V135H314.262ZM325.396 135.36C324.092 135.36 322.988 135.068 322.084 134.484C321.18 133.9 320.492 133.096 320.02 132.072C319.556 131.04 319.316 129.856 319.3 128.52C319.316 127.16 319.564 125.968 320.044 124.944C320.524 123.912 321.216 123.112 322.12 122.544C323.024 121.968 324.12 121.68 325.408 121.68C326.72 121.68 327.86 122 328.828 122.64C329.804 123.28 330.472 124.156 330.832 125.268L329.104 125.82C328.8 125.044 328.316 124.444 327.652 124.02C326.996 123.588 326.244 123.372 325.396 123.372C324.444 123.372 323.656 123.592 323.032 124.032C322.408 124.464 321.944 125.068 321.64 125.844C321.336 126.62 321.18 127.512 321.172 128.52C321.188 130.072 321.548 131.32 322.252 132.264C322.956 133.2 324.004 133.668 325.396 133.668C326.276 133.668 327.024 133.468 327.64 133.068C328.264 132.66 328.736 132.068 329.056 131.292L330.832 131.82C330.352 132.972 329.648 133.852 328.72 134.46C327.792 135.06 326.684 135.36 325.396 135.36ZM338.369 135.36C337.081 135.36 335.981 135.068 335.069 134.484C334.157 133.9 333.457 133.092 332.969 132.06C332.481 131.028 332.237 129.844 332.237 128.508C332.237 127.148 332.485 125.956 332.981 124.932C333.477 123.908 334.181 123.112 335.093 122.544C336.013 121.968 337.105 121.68 338.369 121.68C339.665 121.68 340.769 121.972 341.681 122.556C342.601 123.132 343.301 123.936 343.781 124.968C344.269 125.992 344.513 127.172 344.513 128.508C344.513 129.868 344.269 131.064 343.781 132.096C343.293 133.12 342.589 133.92 341.669 134.496C340.749 135.072 339.649 135.36 338.369 135.36ZM338.369 133.668C339.809 133.668 340.881 133.192 341.585 132.24C342.289 131.28 342.641 130.036 342.641 128.508C342.641 126.94 342.285 125.692 341.573 124.764C340.869 123.836 339.801 123.372 338.369 123.372C337.401 123.372 336.601 123.592 335.969 124.032C335.345 124.464 334.877 125.068 334.565 125.844C334.261 126.612 334.109 127.5 334.109 128.508C334.109 130.068 334.469 131.32 335.189 132.264C335.909 133.2 336.969 133.668 338.369 133.668ZM362.616 135L362.628 126.492C362.628 125.492 362.348 124.708 361.788 124.14C361.236 123.564 360.532 123.276 359.676 123.276C359.188 123.276 358.712 123.388 358.248 123.612C357.784 123.836 357.4 124.196 357.096 124.692C356.8 125.188 356.652 125.836 356.652 126.636L355.608 126.336C355.584 125.408 355.764 124.596 356.148 123.9C356.54 123.204 357.076 122.664 357.756 122.28C358.444 121.888 359.22 121.692 360.084 121.692C361.388 121.692 362.432 122.096 363.216 122.904C364 123.704 364.392 124.788 364.392 126.156L364.38 135H362.616ZM347.148 135V122.04H348.732V125.232H348.924V135H347.148ZM354.9 135L354.912 126.612C354.912 125.58 354.636 124.768 354.084 124.176C353.54 123.576 352.82 123.276 351.924 123.276C351.028 123.276 350.304 123.584 349.752 124.2C349.2 124.808 348.924 125.62 348.924 126.636L347.868 126.06C347.868 125.228 348.064 124.484 348.456 123.828C348.848 123.164 349.384 122.644 350.064 122.268C350.744 121.884 351.516 121.692 352.38 121.692C353.204 121.692 353.936 121.868 354.576 122.22C355.224 122.572 355.732 123.084 356.1 123.756C356.468 124.428 356.652 125.244 356.652 126.204L356.64 135H354.9Z" fill="#F2EEEB"/>
<path id="+48 123-456-789" d="M179.711 172.844V168.116H174.983V166.604H179.711V161.876H181.223V166.604H185.939V168.116H181.223V172.844H179.711ZM196.659 176V172.652H188.571V170.972L194.355 158.72H196.335L190.551 170.972H196.659V165.932H198.435V170.972H200.319V172.652H198.435V176H196.659ZM208.475 176.36C207.395 176.36 206.439 176.144 205.607 175.712C204.783 175.28 204.135 174.676 203.663 173.9C203.199 173.116 202.967 172.2 202.967 171.152C202.967 170.08 203.227 169.128 203.747 168.296C204.267 167.456 205.059 166.82 206.123 166.388L206.099 167.084C205.211 166.756 204.535 166.22 204.071 165.476C203.607 164.732 203.375 163.908 203.375 163.004C203.375 162.044 203.595 161.22 204.035 160.532C204.475 159.836 205.075 159.3 205.835 158.924C206.603 158.548 207.483 158.36 208.475 158.36C209.467 158.36 210.347 158.548 211.115 158.924C211.883 159.3 212.487 159.836 212.927 160.532C213.367 161.22 213.587 162.044 213.587 163.004C213.587 163.908 213.363 164.728 212.915 165.464C212.475 166.2 211.799 166.74 210.887 167.084L210.827 166.388C211.891 166.812 212.687 167.444 213.215 168.284C213.751 169.124 214.019 170.08 214.019 171.152C214.019 172.2 213.783 173.116 213.311 173.9C212.839 174.676 212.187 175.28 211.355 175.712C210.523 176.144 209.563 176.36 208.475 176.36ZM208.475 174.668C209.563 174.668 210.447 174.368 211.127 173.768C211.807 173.16 212.147 172.288 212.147 171.152C212.147 170 211.811 169.128 211.139 168.536C210.467 167.936 209.579 167.636 208.475 167.636C207.371 167.636 206.487 167.936 205.823 168.536C205.159 169.128 204.827 170 204.827 171.152C204.827 172.288 205.163 173.16 205.835 173.768C206.507 174.368 207.387 174.668 208.475 174.668ZM208.475 165.932C209.435 165.932 210.215 165.688 210.815 165.2C211.415 164.704 211.715 163.972 211.715 163.004C211.715 162.036 211.415 161.312 210.815 160.832C210.215 160.344 209.435 160.1 208.475 160.1C207.515 160.1 206.735 160.344 206.135 160.832C205.543 161.312 205.247 162.036 205.247 163.004C205.247 163.972 205.543 164.704 206.135 165.2C206.735 165.688 207.515 165.932 208.475 165.932ZM224.946 176V160.688L221.694 162.644V160.664L224.946 158.72H226.734V176H224.946ZM230.805 175.988L230.817 174.38L238.629 167.324C239.301 166.716 239.745 166.14 239.961 165.596C240.185 165.044 240.297 164.468 240.297 163.868C240.297 163.156 240.129 162.512 239.793 161.936C239.457 161.36 239.005 160.904 238.437 160.568C237.869 160.224 237.233 160.052 236.529 160.052C235.793 160.052 235.137 160.228 234.561 160.58C233.985 160.932 233.529 161.396 233.193 161.972C232.865 162.548 232.705 163.176 232.713 163.856H230.913C230.913 162.808 231.161 161.868 231.657 161.036C232.153 160.204 232.825 159.552 233.673 159.08C234.521 158.6 235.481 158.36 236.553 158.36C237.601 158.36 238.541 158.608 239.373 159.104C240.213 159.592 240.873 160.256 241.353 161.096C241.841 161.928 242.085 162.856 242.085 163.88C242.085 164.6 241.997 165.236 241.821 165.788C241.653 166.332 241.385 166.84 241.017 167.312C240.657 167.776 240.197 168.256 239.637 168.752L232.701 175.016L232.425 174.296H242.085V175.988H230.805ZM249.617 176.348C248.761 176.348 247.973 176.196 247.253 175.892C246.533 175.588 245.913 175.156 245.393 174.596C244.873 174.028 244.493 173.352 244.253 172.568L245.933 172.064C246.221 172.92 246.693 173.568 247.349 174.008C248.013 174.448 248.761 174.66 249.593 174.644C250.361 174.628 251.021 174.456 251.573 174.128C252.133 173.8 252.561 173.344 252.857 172.76C253.153 172.176 253.301 171.5 253.301 170.732C253.301 169.556 252.957 168.612 252.269 167.9C251.589 167.18 250.689 166.82 249.569 166.82C249.257 166.82 248.929 166.864 248.585 166.952C248.241 167.032 247.921 167.148 247.625 167.3L246.737 165.896L253.457 159.692L253.745 160.412H244.937V158.72H254.921V160.436L249.065 166.028L249.041 165.332C250.241 165.18 251.297 165.316 252.209 165.74C253.121 166.164 253.833 166.812 254.345 167.684C254.865 168.548 255.125 169.564 255.125 170.732C255.125 171.836 254.885 172.812 254.405 173.66C253.933 174.5 253.281 175.16 252.449 175.64C251.617 176.112 250.673 176.348 249.617 176.348ZM257.999 168.116V166.604H265.199V168.116H257.999ZM275.925 176V172.652H267.837V170.972L273.621 158.72H275.601L269.817 170.972H275.925V165.932H277.701V170.972H279.585V172.652H277.701V176H275.925ZM287.573 176.36C286.677 176.36 285.849 176.176 285.089 175.808C284.329 175.44 283.681 174.932 283.145 174.284C282.609 173.636 282.225 172.892 281.993 172.052L283.685 171.596C283.837 172.22 284.113 172.76 284.513 173.216C284.913 173.664 285.381 174.012 285.917 174.26C286.461 174.508 287.029 174.632 287.621 174.632C288.389 174.632 289.077 174.448 289.685 174.08C290.301 173.704 290.789 173.208 291.149 172.592C291.509 171.976 291.689 171.3 291.689 170.564C291.689 169.804 291.501 169.12 291.125 168.512C290.749 167.896 290.253 167.408 289.637 167.048C289.021 166.688 288.349 166.508 287.621 166.508C286.805 166.508 286.101 166.688 285.509 167.048C284.917 167.4 284.445 167.844 284.093 168.38L282.485 167.708L283.013 158.72H292.241V160.412H283.793L284.669 159.584L284.201 167.252L283.757 166.664C284.253 166.096 284.853 165.652 285.557 165.332C286.261 165.012 287.001 164.852 287.777 164.852C288.841 164.852 289.801 165.108 290.657 165.62C291.513 166.124 292.193 166.808 292.697 167.672C293.201 168.536 293.453 169.5 293.453 170.564C293.453 171.62 293.185 172.588 292.649 173.468C292.113 174.34 291.401 175.04 290.513 175.568C289.625 176.096 288.645 176.36 287.573 176.36ZM302.169 176.36C301.089 176.36 300.105 176.1 299.217 175.58C298.337 175.052 297.633 174.34 297.105 173.444C296.585 172.54 296.325 171.524 296.325 170.396V164.408C296.325 163.248 296.585 162.216 297.105 161.312C297.625 160.4 298.333 159.684 299.229 159.164C300.133 158.636 301.157 158.372 302.301 158.372C303.285 158.372 304.197 158.588 305.037 159.02C305.885 159.452 306.577 160.056 307.113 160.832L305.757 161.948C305.389 161.372 304.901 160.912 304.293 160.568C303.685 160.224 303.021 160.052 302.301 160.052C301.493 160.052 300.773 160.248 300.141 160.64C299.509 161.032 299.013 161.548 298.653 162.188C298.293 162.82 298.113 163.508 298.113 164.252V168.02L297.669 167.516C298.173 166.724 298.833 166.084 299.649 165.596C300.473 165.108 301.369 164.864 302.337 164.864C303.409 164.864 304.373 165.12 305.229 165.632C306.085 166.136 306.765 166.82 307.269 167.684C307.773 168.548 308.025 169.516 308.025 170.588C308.025 171.652 307.757 172.62 307.221 173.492C306.693 174.364 305.985 175.06 305.097 175.58C304.217 176.1 303.241 176.36 302.169 176.36ZM302.169 174.644C302.921 174.644 303.605 174.464 304.221 174.104C304.845 173.744 305.337 173.256 305.697 172.64C306.065 172.024 306.249 171.34 306.249 170.588C306.249 169.836 306.065 169.152 305.697 168.536C305.337 167.912 304.849 167.42 304.233 167.06C303.617 166.692 302.933 166.508 302.181 166.508C301.429 166.508 300.745 166.692 300.129 167.06C299.513 167.42 299.021 167.912 298.653 168.536C298.293 169.152 298.113 169.836 298.113 170.588C298.113 171.332 298.293 172.012 298.653 172.628C299.013 173.244 299.501 173.736 300.117 174.104C300.733 174.464 301.417 174.644 302.169 174.644ZM310.967 168.116V166.604H318.167V168.116H310.967ZM322.209 176L328.569 160.436H320.565V158.72H330.453V160.436L324.105 176H322.209ZM338.6 176.36C337.52 176.36 336.564 176.144 335.732 175.712C334.908 175.28 334.26 174.676 333.788 173.9C333.324 173.116 333.092 172.2 333.092 171.152C333.092 170.08 333.352 169.128 333.872 168.296C334.392 167.456 335.184 166.82 336.248 166.388L336.224 167.084C335.336 166.756 334.66 166.22 334.196 165.476C333.732 164.732 333.5 163.908 333.5 163.004C333.5 162.044 333.72 161.22 334.16 160.532C334.6 159.836 335.2 159.3 335.96 158.924C336.728 158.548 337.608 158.36 338.6 158.36C339.592 158.36 340.472 158.548 341.24 158.924C342.008 159.3 342.612 159.836 343.052 160.532C343.492 161.22 343.712 162.044 343.712 163.004C343.712 163.908 343.488 164.728 343.04 165.464C342.6 166.2 341.924 166.74 341.012 167.084L340.952 166.388C342.016 166.812 342.812 167.444 343.34 168.284C343.876 169.124 344.144 170.08 344.144 171.152C344.144 172.2 343.908 173.116 343.436 173.9C342.964 174.676 342.312 175.28 341.48 175.712C340.648 176.144 339.688 176.36 338.6 176.36ZM338.6 174.668C339.688 174.668 340.572 174.368 341.252 173.768C341.932 173.16 342.272 172.288 342.272 171.152C342.272 170 341.936 169.128 341.264 168.536C340.592 167.936 339.704 167.636 338.6 167.636C337.496 167.636 336.612 167.936 335.948 168.536C335.284 169.128 334.952 170 334.952 171.152C334.952 172.288 335.288 173.16 335.96 173.768C336.632 174.368 337.512 174.668 338.6 174.668ZM338.6 165.932C339.56 165.932 340.34 165.688 340.94 165.2C341.54 164.704 341.84 163.972 341.84 163.004C341.84 162.036 341.54 161.312 340.94 160.832C340.34 160.344 339.56 160.1 338.6 160.1C337.64 160.1 336.86 160.344 336.26 160.832C335.668 161.312 335.372 162.036 335.372 163.004C335.372 163.972 335.668 164.704 336.26 165.2C336.86 165.688 337.64 165.932 338.6 165.932ZM352.942 158.372C354.03 158.372 355.014 158.636 355.894 159.164C356.782 159.684 357.486 160.396 358.006 161.3C358.526 162.196 358.786 163.204 358.786 164.324V170.324C358.786 171.476 358.526 172.508 358.006 173.42C357.486 174.332 356.774 175.052 355.87 175.58C354.974 176.1 353.954 176.36 352.81 176.36C351.826 176.36 350.914 176.144 350.074 175.712C349.242 175.272 348.554 174.668 348.01 173.9L349.354 172.784C349.722 173.352 350.21 173.808 350.818 174.152C351.434 174.496 352.098 174.668 352.81 174.668C353.626 174.668 354.346 174.476 354.97 174.092C355.602 173.7 356.098 173.188 356.458 172.556C356.826 171.916 357.01 171.224 357.01 170.48V166.712L357.442 167.216C356.946 168.008 356.286 168.648 355.462 169.136C354.646 169.624 353.75 169.868 352.774 169.868C351.71 169.868 350.746 169.612 349.882 169.1C349.026 168.588 348.346 167.9 347.842 167.036C347.346 166.172 347.098 165.208 347.098 164.144C347.098 163.08 347.362 162.112 347.89 161.24C348.418 160.36 349.126 159.664 350.014 159.152C350.902 158.632 351.878 158.372 352.942 158.372ZM352.942 160.076C352.19 160.076 351.506 160.26 350.89 160.628C350.274 160.988 349.782 161.476 349.414 162.092C349.054 162.708 348.874 163.392 348.874 164.144C348.874 164.896 349.054 165.58 349.414 166.196C349.774 166.812 350.262 167.304 350.878 167.672C351.494 168.032 352.178 168.212 352.93 168.212C353.682 168.212 354.366 168.032 354.982 167.672C355.606 167.304 356.098 166.812 356.458 166.196C356.826 165.58 357.01 164.896 357.01 164.144C357.01 163.4 356.826 162.72 356.458 162.104C356.098 161.488 355.61 160.996 354.994 160.628C354.378 160.26 353.694 160.076 352.942 160.076Z" fill="#F2EEEB"/>
<path id="Vector_4" d="M1096.81 105.241C1096.68 104.72 1096.3 104.326 1095.87 104.205C1095.1 103.99 1091.38 103.5 1083.5 103.5C1075.62 103.5 1071.9 103.99 1071.13 104.205C1070.7 104.324 1070.32 104.718 1070.19 105.241C1070 105.983 1069.5 109.093 1069.5 114C1069.5 118.907 1070 122.015 1070.19 122.761C1070.32 123.28 1070.7 123.674 1071.13 123.793C1071.9 124.01 1075.62 124.5 1083.5 124.5C1091.38 124.5 1095.1 124.01 1095.87 123.795C1096.3 123.676 1096.68 123.282 1096.81 122.759C1097 122.017 1097.5 118.9 1097.5 114C1097.5 109.1 1097 105.985 1096.81 105.241ZM1100.2 104.372C1101 107.49 1101 114 1101 114C1101 114 1101 120.51 1100.2 123.629C1099.76 125.352 1098.46 126.708 1096.81 127.167C1093.82 128 1083.5 128 1083.5 128C1083.5 128 1073.19 128 1070.19 127.167C1068.54 126.701 1067.24 125.347 1066.8 123.629C1066 120.51 1066 114 1066 114C1066 114 1066 107.49 1066.8 104.372C1067.24 102.648 1068.54 101.291 1070.19 100.833C1073.19 100 1083.5 100 1083.5 100C1083.5 100 1093.82 100 1096.81 100.833C1098.46 101.298 1099.76 102.653 1100.2 104.372ZM1080 120.125V107.875L1090.5 114L1080 120.125Z" fill="#FCFCFC"/>
<path id="Vector_5" d="M1122 109.8C1120.89 109.8 1119.82 110.242 1119.03 111.03C1118.24 111.818 1117.8 112.886 1117.8 114C1117.8 115.114 1118.24 116.182 1119.03 116.97C1119.82 117.758 1120.89 118.2 1122 118.2C1123.11 118.2 1124.18 117.758 1124.97 116.97C1125.76 116.182 1126.2 115.114 1126.2 114C1126.2 112.886 1125.76 111.818 1124.97 111.03C1124.18 110.242 1123.11 109.8 1122 109.8ZM1122 107C1123.86 107 1125.64 107.737 1126.95 109.05C1128.26 110.363 1129 112.143 1129 114C1129 115.857 1128.26 117.637 1126.95 118.95C1125.64 120.263 1123.86 121 1122 121C1120.14 121 1118.36 120.263 1117.05 118.95C1115.74 117.637 1115 115.857 1115 114C1115 112.143 1115.74 110.363 1117.05 109.05C1118.36 107.737 1120.14 107 1122 107ZM1131.1 106.65C1131.1 107.114 1130.92 107.559 1130.59 107.887C1130.26 108.216 1129.81 108.4 1129.35 108.4C1128.89 108.4 1128.44 108.216 1128.11 107.887C1127.78 107.559 1127.6 107.114 1127.6 106.65C1127.6 106.186 1127.78 105.741 1128.11 105.413C1128.44 105.084 1128.89 104.9 1129.35 104.9C1129.81 104.9 1130.26 105.084 1130.59 105.413C1130.92 105.741 1131.1 106.186 1131.1 106.65ZM1122 102.8C1118.54 102.8 1117.97 102.81 1116.36 102.881C1115.26 102.933 1114.53 103.08 1113.84 103.346C1113.23 103.581 1112.8 103.863 1112.33 104.33C1111.89 104.754 1111.56 105.27 1111.34 105.842C1111.08 106.528 1110.93 107.263 1110.88 108.359C1110.81 109.905 1110.8 110.445 1110.8 114C1110.8 117.464 1110.81 118.029 1110.88 119.641C1110.93 120.737 1111.08 121.475 1111.34 122.156C1111.58 122.765 1111.86 123.204 1112.33 123.668C1112.8 124.139 1113.24 124.42 1113.84 124.653C1114.53 124.92 1115.27 125.068 1116.36 125.119C1117.9 125.192 1118.45 125.2 1122 125.2C1125.46 125.2 1126.03 125.19 1127.64 125.119C1128.74 125.067 1129.47 124.92 1130.16 124.655C1130.76 124.419 1131.2 124.137 1131.67 123.673C1132.14 123.201 1132.42 122.763 1132.65 122.161C1132.92 121.47 1133.07 120.733 1133.12 119.641C1133.19 118.095 1133.2 117.555 1133.2 114C1133.2 110.536 1133.19 109.971 1133.12 108.359C1133.07 107.265 1132.92 106.525 1132.65 105.842C1132.44 105.271 1132.11 104.754 1131.67 104.33C1131.25 103.892 1130.73 103.555 1130.16 103.345C1129.47 103.079 1128.74 102.932 1127.64 102.881C1126.09 102.808 1125.55 102.8 1122 102.8ZM1122 100C1125.8 100 1126.28 100.014 1127.77 100.084C1129.26 100.154 1130.28 100.388 1131.17 100.735C1132.09 101.091 1132.87 101.572 1133.65 102.349C1134.36 103.049 1134.91 103.896 1135.26 104.83C1135.61 105.722 1135.85 106.738 1135.92 108.229C1135.98 109.722 1136 110.196 1136 114C1136 117.804 1135.99 118.278 1135.92 119.771C1135.85 121.262 1135.61 122.277 1135.26 123.17C1134.91 124.105 1134.36 124.952 1133.65 125.651C1132.95 126.362 1132.1 126.913 1131.17 127.265C1130.28 127.611 1129.26 127.846 1127.77 127.916C1126.28 127.982 1125.8 128 1122 128C1118.2 128 1117.72 127.986 1116.23 127.916C1114.74 127.846 1113.72 127.611 1112.83 127.265C1111.9 126.914 1111.05 126.363 1110.35 125.651C1109.64 124.951 1109.09 124.104 1108.74 123.17C1108.39 122.278 1108.15 121.262 1108.08 119.771C1108.02 118.278 1108 117.804 1108 114C1108 110.196 1108.01 109.722 1108.08 108.229C1108.15 106.737 1108.39 105.723 1108.74 104.83C1109.09 103.895 1109.64 103.048 1110.35 102.349C1111.05 101.637 1111.9 101.086 1112.83 100.735C1113.72 100.388 1114.74 100.154 1116.23 100.084C1117.72 100.018 1118.2 100 1122 100Z" fill="#FCFCFC"/>
</g>
</svg>
