<svg width="228" height="216" viewBox="0 0 228 216" fill="none" xmlns="http://www.w3.org/2000/svg">
<g id="Funkcja 2">
<g id="Funkcja 2_2">
<g id="Rectangle 16" filter="url(#filter0_d_393_3493)">
<rect width="224.582" height="216" rx="43.9802" fill="#545351"/>
<rect x="0.977337" y="0.977337" width="222.628" height="214.045" rx="43.0028" stroke="#4E4E4E" stroke-width="1.95467"/>
</g>
<g id="Rectangle 7" filter="url(#filter1_d_393_3493)">
<path d="M25.3877 31.2756C25.3877 25.8779 29.7634 21.5023 35.1611 21.5023H45.4304C50.8281 21.5023 55.2038 25.8779 55.2038 31.2756V42.0275C55.2038 47.4252 50.8281 51.8009 45.4304 51.8009H35.1611C29.7634 51.8009 25.3877 47.4252 25.3877 42.0275V31.2756Z" fill="#43BFC1"/>
</g>
<path id="Wiadomo&#197;&#155;ci" d="M65.2384 40.3213L62.4706 32.1116H63.3619L65.9538 39.8404H65.5081L68.1821 32.1116H68.9796L71.6184 39.8404H71.1962L73.8116 32.1116H74.6443L71.8764 40.3213H70.9617L68.4401 32.9912H68.6747L66.1414 40.3213H65.2384ZM76.0252 40.3213V34.164H76.8579V40.3213H76.0252ZM76.4475 32.8036C76.2754 32.8036 76.1308 32.7449 76.0135 32.6277C75.8962 32.5104 75.8376 32.3696 75.8376 32.2055C75.8376 32.0413 75.8962 31.9044 76.0135 31.795C76.1308 31.6777 76.2754 31.6191 76.4475 31.6191C76.6195 31.6191 76.7641 31.6738 76.8814 31.7832C76.9987 31.8927 77.0573 32.0295 77.0573 32.1937C77.0573 32.3657 76.9987 32.5104 76.8814 32.6277C76.7719 32.7449 76.6273 32.8036 76.4475 32.8036ZM83.0334 40.3213V38.9608L82.9982 38.738V36.4627C82.9982 35.9389 82.8496 35.5362 82.5525 35.2547C82.2632 34.9733 81.8293 34.8325 81.2507 34.8325C80.852 34.8325 80.4728 34.899 80.1131 35.0319C79.7534 35.1648 79.4485 35.3408 79.1983 35.5597L78.823 34.9381C79.1358 34.6723 79.5111 34.469 79.9489 34.3282C80.3868 34.1797 80.8481 34.1054 81.3328 34.1054C82.1303 34.1054 82.7441 34.3048 83.1741 34.7035C83.612 35.0945 83.8309 35.6926 83.8309 36.4979V40.3213H83.0334ZM80.9106 40.3799C80.4493 40.3799 80.0466 40.3056 79.7026 40.1571C79.3664 40.0007 79.1084 39.7896 78.9286 39.5238C78.7487 39.2501 78.6588 38.9373 78.6588 38.5855C78.6588 38.2649 78.7331 37.9757 78.8817 37.7176C79.038 37.4518 79.2882 37.2407 79.6323 37.0843C79.9841 36.9201 80.4532 36.838 81.0396 36.838H83.1624V37.4596H81.0631C80.4689 37.4596 80.0545 37.5652 79.8199 37.7763C79.5932 37.9874 79.4798 38.2493 79.4798 38.5621C79.4798 38.9139 79.6166 39.1954 79.8903 39.4065C80.1639 39.6176 80.547 39.7231 81.0396 39.7231C81.5087 39.7231 81.9114 39.6176 82.2476 39.4065C82.5916 39.1875 82.8418 38.8748 82.9982 38.4682L83.1859 39.0429C83.0295 39.4495 82.7558 39.7739 82.3649 40.0163C81.9818 40.2587 81.497 40.3799 80.9106 40.3799ZM88.5437 40.3799C87.9573 40.3799 87.4296 40.247 86.9605 39.9811C86.4991 39.7153 86.1356 39.3478 85.8697 38.8787C85.6039 38.4018 85.471 37.8545 85.471 37.2368C85.471 36.6113 85.6039 36.064 85.8697 35.5949C86.1356 35.1257 86.4991 34.7622 86.9605 34.5041C87.4296 34.2383 87.9573 34.1054 88.5437 34.1054C89.0832 34.1054 89.5641 34.2266 89.9863 34.469C90.4163 34.7113 90.7564 35.0671 91.0066 35.5362C91.2646 35.9975 91.3937 36.5644 91.3937 37.2368C91.3937 37.9014 91.2686 38.4682 91.0184 38.9373C90.7682 39.4065 90.428 39.7661 89.998 40.0163C89.5758 40.2587 89.091 40.3799 88.5437 40.3799ZM88.6024 39.641C89.0402 39.641 89.4312 39.5433 89.7752 39.3478C90.127 39.1445 90.4007 38.8631 90.5961 38.5034C90.7994 38.1359 90.9011 37.7137 90.9011 37.2368C90.9011 36.752 90.7994 36.3298 90.5961 35.9702C90.4007 35.6105 90.127 35.3329 89.7752 35.1375C89.4312 34.9342 89.0402 34.8325 88.6024 34.8325C88.1723 34.8325 87.7853 34.9342 87.4413 35.1375C87.0973 35.3329 86.8236 35.6105 86.6203 35.9702C86.4171 36.3298 86.3154 36.752 86.3154 37.2368C86.3154 37.7137 86.4171 38.1359 86.6203 38.5034C86.8236 38.8631 87.0973 39.1445 87.4413 39.3478C87.7853 39.5433 88.1723 39.641 88.6024 39.641ZM90.9245 40.3213V38.4682L91.0066 37.2251L90.8893 35.9819V31.6191H91.722V40.3213H90.9245ZM96.5509 40.3799C95.9567 40.3799 95.4211 40.247 94.9441 39.9811C94.475 39.7075 94.1036 39.3361 93.83 38.867C93.5563 38.39 93.4195 37.8466 93.4195 37.2368C93.4195 36.6191 93.5563 36.0757 93.83 35.6066C94.1036 35.1375 94.475 34.77 94.9441 34.5041C95.4133 34.2383 95.9488 34.1054 96.5509 34.1054C97.1607 34.1054 97.7002 34.2383 98.1693 34.5041C98.6463 34.77 99.0177 35.1375 99.2835 35.6066C99.5572 36.0757 99.694 36.6191 99.694 37.2368C99.694 37.8466 99.5572 38.39 99.2835 38.867C99.0177 39.3361 98.6463 39.7075 98.1693 39.9811C97.6924 40.247 97.1529 40.3799 96.5509 40.3799ZM96.5509 39.641C96.9965 39.641 97.3914 39.5433 97.7354 39.3478C98.0794 39.1445 98.3492 38.8631 98.5446 38.5034C98.7479 38.1359 98.8496 37.7137 98.8496 37.2368C98.8496 36.752 98.7479 36.3298 98.5446 35.9702C98.3492 35.6105 98.0794 35.3329 97.7354 35.1375C97.3914 34.9342 97.0004 34.8325 96.5626 34.8325C96.1248 34.8325 95.7338 34.9342 95.3898 35.1375C95.0458 35.3329 94.7721 35.6105 94.5688 35.9702C94.3655 36.3298 94.2639 36.752 94.2639 37.2368C94.2639 37.7137 94.3655 38.1359 94.5688 38.5034C94.7721 38.8631 95.0458 39.1445 95.3898 39.3478C95.7338 39.5433 96.1208 39.641 96.5509 39.641ZM109.088 34.1054C109.588 34.1054 110.022 34.2031 110.389 34.3986C110.765 34.5862 111.054 34.8755 111.257 35.2665C111.468 35.6574 111.574 36.15 111.574 36.7442V40.3213H110.741V36.8263C110.741 36.1774 110.585 35.6887 110.272 35.3603C109.967 35.0241 109.533 34.856 108.97 34.856C108.548 34.856 108.181 34.9459 107.868 35.1257C107.563 35.2977 107.324 35.5519 107.152 35.8881C106.988 36.2164 106.906 36.6152 106.906 37.0843V40.3213H106.073V36.8263C106.073 36.1774 105.917 35.6887 105.604 35.3603C105.292 35.0241 104.854 34.856 104.291 34.856C103.876 34.856 103.513 34.9459 103.2 35.1257C102.887 35.2977 102.645 35.5519 102.473 35.8881C102.309 36.2164 102.227 36.6152 102.227 37.0843V40.3213H101.394V34.164H102.192V35.8294L102.063 35.5362C102.25 35.0906 102.551 34.7426 102.966 34.4924C103.388 34.2344 103.884 34.1054 104.455 34.1054C105.057 34.1054 105.569 34.2579 105.991 34.5628C106.414 34.8599 106.687 35.3095 106.812 35.9115L106.484 35.7825C106.664 35.2821 106.98 34.8794 107.434 34.5745C107.895 34.2618 108.446 34.1054 109.088 34.1054ZM116.342 40.3799C115.748 40.3799 115.212 40.247 114.735 39.9811C114.266 39.7075 113.895 39.3361 113.621 38.867C113.347 38.39 113.211 37.8466 113.211 37.2368C113.211 36.6191 113.347 36.0757 113.621 35.6066C113.895 35.1375 114.266 34.77 114.735 34.5041C115.204 34.2383 115.74 34.1054 116.342 34.1054C116.952 34.1054 117.491 34.2383 117.96 34.5041C118.437 34.77 118.809 35.1375 119.075 35.6066C119.348 36.0757 119.485 36.6191 119.485 37.2368C119.485 37.8466 119.348 38.39 119.075 38.867C118.809 39.3361 118.437 39.7075 117.96 39.9811C117.483 40.247 116.944 40.3799 116.342 40.3799ZM116.342 39.641C116.788 39.641 117.182 39.5433 117.526 39.3478C117.87 39.1445 118.14 38.8631 118.336 38.5034C118.539 38.1359 118.641 37.7137 118.641 37.2368C118.641 36.752 118.539 36.3298 118.336 35.9702C118.14 35.6105 117.87 35.3329 117.526 35.1375C117.182 34.9342 116.792 34.8325 116.354 34.8325C115.916 34.8325 115.525 34.9342 115.181 35.1375C114.837 35.3329 114.563 35.6105 114.36 35.9702C114.157 36.3298 114.055 36.752 114.055 37.2368C114.055 37.7137 114.157 38.1359 114.36 38.5034C114.563 38.8631 114.837 39.1445 115.181 39.3478C115.525 39.5433 115.912 39.641 116.342 39.641ZM122.839 40.3799C122.331 40.3799 121.85 40.3095 121.396 40.1688C120.943 40.0202 120.587 39.8365 120.329 39.6176L120.704 38.9608C120.954 39.1485 121.275 39.3126 121.666 39.4534C122.057 39.5863 122.467 39.6528 122.897 39.6528C123.484 39.6528 123.906 39.5628 124.164 39.383C124.422 39.1954 124.551 38.9491 124.551 38.6441C124.551 38.4174 124.477 38.2415 124.328 38.1164C124.187 37.9835 124 37.8857 123.765 37.8232C123.531 37.7528 123.269 37.6942 122.979 37.6473C122.69 37.6004 122.401 37.5456 122.112 37.4831C121.83 37.4205 121.572 37.3306 121.338 37.2133C121.103 37.0882 120.911 36.9201 120.763 36.709C120.622 36.4979 120.552 36.2164 120.552 35.8646C120.552 35.5284 120.646 35.2274 120.833 34.9615C121.021 34.6957 121.295 34.4885 121.654 34.34C122.022 34.1836 122.467 34.1054 122.991 34.1054C123.39 34.1054 123.789 34.1601 124.187 34.2696C124.586 34.3712 124.915 34.5081 125.173 34.6801L124.809 35.3486C124.535 35.1609 124.242 35.028 123.929 34.9498C123.617 34.8638 123.304 34.8208 122.991 34.8208C122.436 34.8208 122.026 34.9185 121.76 35.114C121.502 35.3017 121.373 35.544 121.373 35.8411C121.373 36.0757 121.443 36.2594 121.584 36.3924C121.732 36.5253 121.924 36.6308 122.159 36.709C122.401 36.7794 122.663 36.838 122.944 36.8849C123.234 36.9319 123.519 36.9905 123.8 37.0609C124.09 37.1234 124.352 37.2133 124.586 37.3306C124.829 37.4401 125.02 37.6004 125.161 37.8115C125.309 38.0147 125.384 38.2845 125.384 38.6207C125.384 38.9804 125.282 39.2931 125.079 39.5589C124.883 39.817 124.594 40.0202 124.211 40.1688C123.836 40.3095 123.378 40.3799 122.839 40.3799ZM122.112 33.2023L123.718 31.7481H124.832L122.933 33.2023H122.112ZM129.468 40.3799C128.859 40.3799 128.311 40.247 127.826 39.9811C127.35 39.7075 126.974 39.3361 126.701 38.867C126.427 38.39 126.29 37.8466 126.29 37.2368C126.29 36.6191 126.427 36.0757 126.701 35.6066C126.974 35.1375 127.35 34.77 127.826 34.5041C128.311 34.2383 128.859 34.1054 129.468 34.1054C129.992 34.1054 130.465 34.207 130.887 34.4103C131.31 34.6136 131.642 34.9185 131.884 35.3251L131.263 35.7473C131.052 35.4346 130.79 35.2039 130.477 35.0554C130.164 34.9068 129.824 34.8325 129.457 34.8325C129.019 34.8325 128.624 34.9342 128.272 35.1375C127.92 35.3329 127.643 35.6105 127.439 35.9702C127.236 36.3298 127.134 36.752 127.134 37.2368C127.134 37.7215 127.236 38.1438 127.439 38.5034C127.643 38.8631 127.92 39.1445 128.272 39.3478C128.624 39.5433 129.019 39.641 129.457 39.641C129.824 39.641 130.164 39.5668 130.477 39.4182C130.79 39.2696 131.052 39.0429 131.263 38.738L131.884 39.1602C131.642 39.5589 131.31 39.8639 130.887 40.075C130.465 40.2783 129.992 40.3799 129.468 40.3799ZM133.429 40.3213V34.164H134.261V40.3213H133.429ZM133.851 32.8036C133.679 32.8036 133.534 32.7449 133.417 32.6277C133.3 32.5104 133.241 32.3696 133.241 32.2055C133.241 32.0413 133.3 31.9044 133.417 31.795C133.534 31.6777 133.679 31.6191 133.851 31.6191C134.023 31.6191 134.167 31.6738 134.285 31.7832C134.402 31.8927 134.461 32.0295 134.461 32.1937C134.461 32.3657 134.402 32.5104 134.285 32.6277C134.175 32.7449 134.031 32.8036 133.851 32.8036Z" fill="#00FBFF"/>
<g id="Rectangle 14" filter="url(#filter2_d_393_3493)">
<rect x="25.4878" y="67.4389" width="173.607" height="122.661" rx="21.9901" fill="#43BFC1" fill-opacity="0.1" shape-rendering="crispEdges"/>
<rect x="25.7321" y="67.6832" width="173.118" height="122.172" rx="21.7457" stroke="#43BFC1" stroke-opacity="0.2" stroke-width="0.488668" shape-rendering="crispEdges"/>
</g>
<line id="Line 2" x1="63.96" y1="91.629" x2="160.141" y2="91.629" stroke="#00FBFF" stroke-width="0.488668"/>
<path id="Monika Wi&#197;&#155;nia" d="M71.7092 88.2127V80.003H72.4246L76.1775 86.4066H75.8022L79.52 80.003H80.2354V88.2127H79.4028V81.3049H79.6021L76.1775 87.1689H75.7671L72.319 81.3049H72.5418V88.2127H71.7092ZM85.2442 88.2713C84.65 88.2713 84.1144 88.1384 83.6375 87.8726C83.1684 87.5989 82.797 87.2275 82.5233 86.7584C82.2497 86.2815 82.1128 85.7381 82.1128 85.1282C82.1128 84.5105 82.2497 83.9671 82.5233 83.498C82.797 83.0289 83.1684 82.6614 83.6375 82.3956C84.1066 82.1297 84.6422 81.9968 85.2442 81.9968C85.8541 81.9968 86.3936 82.1297 86.8627 82.3956C87.3396 82.6614 87.711 83.0289 87.9769 83.498C88.2505 83.9671 88.3873 84.5105 88.3873 85.1282C88.3873 85.7381 88.2505 86.2815 87.9769 86.7584C87.711 87.2275 87.3396 87.5989 86.8627 87.8726C86.3858 88.1384 85.8463 88.2713 85.2442 88.2713ZM85.2442 87.5325C85.6899 87.5325 86.0847 87.4347 86.4288 87.2392C86.7728 87.036 87.0425 86.7545 87.238 86.3948C87.4413 86.0274 87.5429 85.6051 87.5429 85.1282C87.5429 84.6434 87.4413 84.2212 87.238 83.8616C87.0425 83.5019 86.7728 83.2243 86.4288 83.0289C86.0847 82.8256 85.6938 82.724 85.256 82.724C84.8181 82.724 84.4272 82.8256 84.0832 83.0289C83.7391 83.2243 83.4655 83.5019 83.2622 83.8616C83.0589 84.2212 82.9573 84.6434 82.9573 85.1282C82.9573 85.6051 83.0589 86.0274 83.2622 86.3948C83.4655 86.7545 83.7391 87.036 84.0832 87.2392C84.4272 87.4347 84.8142 87.5325 85.2442 87.5325ZM93.2305 81.9968C93.7309 81.9968 94.1687 82.0945 94.544 82.29C94.9271 82.4777 95.2243 82.767 95.4354 83.1579C95.6543 83.5488 95.7637 84.0414 95.7637 84.6356V88.2127H94.9311V84.7177C94.9311 84.0688 94.7669 83.5801 94.4385 83.2517C94.1179 82.9155 93.6644 82.7474 93.078 82.7474C92.6402 82.7474 92.2571 82.8373 91.9287 83.0172C91.6081 83.1892 91.3579 83.4433 91.1781 83.7795C91.0061 84.1079 90.9201 84.5066 90.9201 84.9757V88.2127H90.0874V82.0555H90.8849V83.7443L90.7559 83.4276C90.9513 82.982 91.2641 82.634 91.6941 82.3838C92.1241 82.1258 92.6363 81.9968 93.2305 81.9968ZM98.013 88.2127V82.0555H98.8457V88.2127H98.013ZM98.4352 80.695C98.2632 80.695 98.1185 80.6364 98.0012 80.5191C97.884 80.4018 97.8253 80.2611 97.8253 80.0969C97.8253 79.9327 97.884 79.7959 98.0012 79.6864C98.1185 79.5691 98.2632 79.5105 98.4352 79.5105C98.6072 79.5105 98.7518 79.5652 98.8691 79.6747C98.9864 79.7841 99.045 79.921 99.045 80.0851C99.045 80.2572 98.9864 80.4018 98.8691 80.5191C98.7596 80.6364 98.615 80.695 98.4352 80.695ZM101.819 86.6177L101.843 85.5504L105.678 82.0555H106.698L103.989 84.6474L103.52 85.0461L101.819 86.6177ZM101.163 88.2127V79.5105H101.995V88.2127H101.163ZM105.936 88.2127L103.367 85.0109L103.907 84.3659L106.956 88.2127H105.936ZM111.95 88.2127V86.8522L111.915 86.6294V84.3542C111.915 83.8303 111.767 83.4276 111.469 83.1462C111.18 82.8647 110.746 82.724 110.168 82.724C109.769 82.724 109.39 82.7904 109.03 82.9233C108.67 83.0562 108.365 83.2322 108.115 83.4511L107.74 82.8295C108.053 82.5637 108.428 82.3604 108.866 82.2196C109.304 82.0711 109.765 81.9968 110.25 81.9968C111.047 81.9968 111.661 82.1962 112.091 82.5949C112.529 82.9859 112.748 83.584 112.748 84.3893V88.2127H111.95ZM109.827 88.2713C109.366 88.2713 108.964 88.197 108.62 88.0485C108.283 87.8921 108.025 87.681 107.845 87.4152C107.666 87.1415 107.576 86.8288 107.576 86.4769C107.576 86.1564 107.65 85.8671 107.799 85.6091C107.955 85.3432 108.205 85.1321 108.549 84.9757C108.901 84.8115 109.37 84.7294 109.957 84.7294H112.079V85.351H109.98C109.386 85.351 108.971 85.4566 108.737 85.6677C108.51 85.8788 108.397 86.1407 108.397 86.4535C108.397 86.8053 108.534 87.0868 108.807 87.2979C109.081 87.509 109.464 87.6145 109.957 87.6145C110.426 87.6145 110.828 87.509 111.164 87.2979C111.509 87.079 111.759 86.7662 111.915 86.3596L112.103 86.9343C111.946 87.3409 111.673 87.6654 111.282 87.9077C110.899 88.1501 110.414 88.2713 109.827 88.2713ZM120.12 88.2127L117.352 80.003H118.243L120.835 87.7318H120.389L123.063 80.003H123.861L126.5 87.7318H126.077L128.693 80.003H129.525L126.758 88.2127H125.843L123.321 80.8827H123.556L121.023 88.2127H120.12ZM130.906 88.2127V82.0555H131.739V88.2127H130.906ZM131.329 80.695C131.157 80.695 131.012 80.6364 130.895 80.5191C130.777 80.4018 130.719 80.2611 130.719 80.0969C130.719 79.9327 130.777 79.7959 130.895 79.6864C131.012 79.5691 131.157 79.5105 131.329 79.5105C131.501 79.5105 131.645 79.5652 131.763 79.6747C131.88 79.7841 131.939 79.921 131.939 80.0851C131.939 80.2572 131.88 80.4018 131.763 80.5191C131.653 80.6364 131.508 80.695 131.329 80.695ZM135.71 88.2713C135.202 88.2713 134.721 88.2009 134.267 88.0602C133.814 87.9117 133.458 87.7279 133.2 87.509L133.575 86.8522C133.825 87.0399 134.146 87.2041 134.537 87.3448C134.928 87.4777 135.338 87.5442 135.768 87.5442C136.355 87.5442 136.777 87.4543 137.035 87.2744C137.293 87.0868 137.422 86.8405 137.422 86.5356C137.422 86.3088 137.348 86.1329 137.199 86.0078C137.058 85.8749 136.871 85.7772 136.636 85.7146C136.402 85.6442 136.14 85.5856 135.85 85.5387C135.561 85.4918 135.272 85.437 134.983 85.3745C134.701 85.3119 134.443 85.222 134.209 85.1047C133.974 84.9796 133.782 84.8115 133.634 84.6004C133.493 84.3893 133.423 84.1079 133.423 83.756C133.423 83.4198 133.517 83.1188 133.704 82.853C133.892 82.5871 134.166 82.3799 134.525 82.2314C134.893 82.075 135.338 81.9968 135.862 81.9968C136.261 81.9968 136.66 82.0515 137.058 82.161C137.457 82.2627 137.786 82.3995 138.044 82.5715L137.68 83.24C137.406 83.0523 137.113 82.9194 136.8 82.8412C136.488 82.7552 136.175 82.7122 135.862 82.7122C135.307 82.7122 134.897 82.81 134.631 83.0054C134.373 83.1931 134.244 83.4355 134.244 83.7326C134.244 83.9671 134.314 84.1509 134.455 84.2838C134.603 84.4167 134.795 84.5223 135.029 84.6004C135.272 84.6708 135.534 84.7294 135.815 84.7764C136.105 84.8233 136.39 84.8819 136.671 84.9523C136.961 85.0148 137.223 85.1047 137.457 85.222C137.7 85.3315 137.891 85.4918 138.032 85.7029C138.18 85.9062 138.255 86.1759 138.255 86.5121C138.255 86.8718 138.153 87.1845 137.95 87.4504C137.754 87.7084 137.465 87.9117 137.082 88.0602C136.707 88.2009 136.249 88.2713 135.71 88.2713ZM134.983 81.0938L136.589 79.6395H137.703L135.804 81.0938H134.983ZM142.926 81.9968C143.426 81.9968 143.864 82.0945 144.239 82.29C144.622 82.4777 144.92 82.767 145.131 83.1579C145.35 83.5488 145.459 84.0414 145.459 84.6356V88.2127H144.626V84.7177C144.626 84.0688 144.462 83.5801 144.134 83.2517C143.813 82.9155 143.36 82.7474 142.773 82.7474C142.335 82.7474 141.952 82.8373 141.624 83.0172C141.303 83.1892 141.053 83.4433 140.873 83.7795C140.701 84.1079 140.615 84.5066 140.615 84.9757V88.2127H139.783V82.0555H140.58V83.7443L140.451 83.4276C140.647 82.982 140.959 82.634 141.389 82.3838C141.819 82.1258 142.332 81.9968 142.926 81.9968ZM147.708 88.2127V82.0555H148.541V88.2127H147.708ZM148.13 80.695C147.958 80.695 147.814 80.6364 147.697 80.5191C147.579 80.4018 147.521 80.2611 147.521 80.0969C147.521 79.9327 147.579 79.7959 147.697 79.6864C147.814 79.5691 147.958 79.5105 148.13 79.5105C148.302 79.5105 148.447 79.5652 148.564 79.6747C148.682 79.7841 148.74 79.921 148.74 80.0851C148.74 80.2572 148.682 80.4018 148.564 80.5191C148.455 80.6364 148.31 80.695 148.13 80.695ZM154.716 88.2127V86.8522L154.681 86.6294V84.3542C154.681 83.8303 154.533 83.4276 154.236 83.1462C153.946 82.8647 153.512 82.724 152.934 82.724C152.535 82.724 152.156 82.7904 151.796 82.9233C151.436 83.0562 151.132 83.2322 150.881 83.4511L150.506 82.8295C150.819 82.5637 151.194 82.3604 151.632 82.2196C152.07 82.0711 152.531 81.9968 153.016 81.9968C153.813 81.9968 154.427 82.1962 154.857 82.5949C155.295 82.9859 155.514 83.584 155.514 84.3893V88.2127H154.716ZM152.594 88.2713C152.132 88.2713 151.73 88.197 151.386 88.0485C151.049 87.8921 150.791 87.681 150.612 87.4152C150.432 87.1415 150.342 86.8288 150.342 86.4769C150.342 86.1564 150.416 85.8671 150.565 85.6091C150.721 85.3432 150.971 85.1321 151.315 84.9757C151.667 84.8115 152.136 84.7294 152.723 84.7294H154.845V85.351H152.746C152.152 85.351 151.737 85.4566 151.503 85.6677C151.276 85.8788 151.163 86.1407 151.163 86.4535C151.163 86.8053 151.3 87.0868 151.573 87.2979C151.847 87.509 152.23 87.6145 152.723 87.6145C153.192 87.6145 153.594 87.509 153.931 87.2979C154.275 87.079 154.525 86.7662 154.681 86.3596L154.869 86.9343C154.712 87.3409 154.439 87.6654 154.048 87.9077C153.665 88.1501 153.18 88.2713 152.594 88.2713Z" fill="#00FBFF"/>
<path id="Tre&#197;&#155;&#196;&#135; wiadomo&#197;&#155;ci" d="M66.8949 105.783L64.3577 98.2573H65.1748L67.5507 105.342H67.1422L69.5933 98.2573H70.3244L72.7433 105.342H72.3563L74.7537 98.2573H75.517L72.9798 105.783H72.1412L69.8298 99.0636H70.0449L67.7227 105.783H66.8949ZM76.7829 105.783V100.139H77.5462V105.783H76.7829ZM77.1699 98.8916C77.0122 98.8916 76.8796 98.8379 76.7721 98.7303C76.6646 98.6228 76.6109 98.4938 76.6109 98.3433C76.6109 98.1928 76.6646 98.0674 76.7721 97.967C76.8796 97.8595 77.0122 97.8058 77.1699 97.8058C77.3276 97.8058 77.4602 97.856 77.5677 97.9563C77.6752 98.0566 77.7289 98.1821 77.7289 98.3326C77.7289 98.4902 77.6752 98.6228 77.5677 98.7303C77.4673 98.8379 77.3347 98.8916 77.1699 98.8916ZM81.9169 105.837C81.3794 105.837 80.8956 105.715 80.4656 105.471C80.0427 105.227 79.7094 104.89 79.4658 104.46C79.2221 104.023 79.1002 103.522 79.1002 102.955C79.1002 102.382 79.2221 101.88 79.4658 101.45C79.7094 101.02 80.0427 100.687 80.4656 100.45C80.8956 100.207 81.3794 100.085 81.9169 100.085C82.4114 100.085 82.8522 100.196 83.2392 100.418C83.6334 100.64 83.9452 100.966 84.1746 101.397C84.4111 101.819 84.5293 102.339 84.5293 102.955C84.5293 103.565 84.4147 104.084 84.1853 104.514C83.956 104.944 83.6442 105.274 83.25 105.503C82.863 105.725 82.4186 105.837 81.9169 105.837ZM81.9707 105.159C82.372 105.159 82.7304 105.07 83.0457 104.89C83.3683 104.704 83.6191 104.446 83.7983 104.116C83.9846 103.78 84.0778 103.393 84.0778 102.955C84.0778 102.511 83.9846 102.124 83.7983 101.794C83.6191 101.465 83.3683 101.21 83.0457 101.031C82.7304 100.845 82.372 100.751 81.9707 100.751C81.5765 100.751 81.2217 100.845 80.9063 101.031C80.591 101.21 80.3401 101.465 80.1538 101.794C79.9675 102.124 79.8743 102.511 79.8743 102.955C79.8743 103.393 79.9675 103.78 80.1538 104.116C80.3401 104.446 80.591 104.704 80.9063 104.89C81.2217 105.07 81.5765 105.159 81.9707 105.159ZM84.0993 105.783V104.084L84.1746 102.945L84.0671 101.805V97.8058H84.8304V105.783H84.0993ZM86.3433 105.783V105.278L90.1061 100.515L90.2674 100.773H86.4079V100.139H90.8694V100.633L87.1174 105.407L86.9239 105.149H90.9447V105.783H86.3433ZM92.447 105.783V100.139H93.2103V105.783H92.447ZM92.834 98.8916C92.6763 98.8916 92.5437 98.8379 92.4362 98.7303C92.3287 98.6228 92.275 98.4938 92.275 98.3433C92.275 98.1928 92.3287 98.0674 92.4362 97.967C92.5437 97.8595 92.6763 97.8058 92.834 97.8058C92.9917 97.8058 93.1243 97.856 93.2318 97.9563C93.3393 98.0566 93.393 98.1821 93.393 98.3326C93.393 98.4902 93.3393 98.6228 93.2318 98.7303C93.1314 98.8379 92.9988 98.8916 92.834 98.8916ZM102.387 100.085C102.845 100.085 103.243 100.175 103.58 100.354C103.924 100.526 104.189 100.791 104.375 101.149C104.569 101.508 104.666 101.959 104.666 102.504V105.783H103.902V102.579C103.902 101.984 103.759 101.536 103.472 101.235C103.193 100.927 102.795 100.773 102.279 100.773C101.892 100.773 101.555 100.855 101.269 101.02C100.989 101.178 100.77 101.411 100.613 101.719C100.462 102.02 100.387 102.386 100.387 102.816V105.783H99.6237V102.579C99.6237 101.984 99.4803 101.536 99.1936 101.235C98.9069 100.927 98.5056 100.773 97.9896 100.773C97.6097 100.773 97.2764 100.855 96.9897 101.02C96.7031 101.178 96.4809 101.411 96.3232 101.719C96.1727 102.02 96.0974 102.386 96.0974 102.816V105.783H95.3341V100.139H96.0652V101.665L95.9469 101.397C96.1189 100.988 96.3949 100.669 96.7747 100.44C97.1617 100.203 97.6169 100.085 98.1401 100.085C98.6919 100.085 99.1614 100.225 99.5484 100.504C99.9354 100.777 100.186 101.189 100.301 101.741L99.9999 101.622C100.165 101.164 100.455 100.794 100.871 100.515C101.294 100.228 101.799 100.085 102.387 100.085ZM106.674 107.922C106.409 107.922 106.154 107.879 105.91 107.793C105.674 107.707 105.47 107.578 105.298 107.406L105.652 106.836C105.796 106.973 105.95 107.076 106.115 107.148C106.287 107.227 106.477 107.266 106.685 107.266C106.935 107.266 107.15 107.195 107.33 107.051C107.516 106.915 107.692 106.672 107.856 106.32L108.222 105.493L108.308 105.374L110.63 100.139H111.383L108.555 106.46C108.397 106.826 108.222 107.116 108.028 107.331C107.842 107.546 107.638 107.696 107.416 107.782C107.193 107.876 106.946 107.922 106.674 107.922ZM108.179 105.944L105.577 100.139H106.373L108.673 105.321L108.179 105.944ZM116.787 105.837C116.321 105.837 115.88 105.772 115.465 105.643C115.049 105.507 114.723 105.338 114.486 105.138L114.83 104.536C115.06 104.708 115.354 104.858 115.712 104.987C116.07 105.109 116.447 105.17 116.841 105.17C117.378 105.17 117.765 105.088 118.002 104.923C118.238 104.751 118.357 104.525 118.357 104.245C118.357 104.038 118.289 103.876 118.152 103.762C118.023 103.64 117.851 103.55 117.636 103.493C117.421 103.428 117.181 103.375 116.916 103.332C116.651 103.289 116.386 103.238 116.121 103.181C115.863 103.124 115.626 103.041 115.411 102.934C115.196 102.819 115.02 102.665 114.884 102.472C114.755 102.278 114.691 102.02 114.691 101.698C114.691 101.389 114.777 101.113 114.949 100.87C115.121 100.626 115.372 100.436 115.701 100.3C116.038 100.157 116.447 100.085 116.927 100.085C117.292 100.085 117.658 100.135 118.023 100.235C118.389 100.329 118.69 100.454 118.926 100.612L118.593 101.225C118.342 101.052 118.074 100.931 117.787 100.859C117.5 100.78 117.214 100.741 116.927 100.741C116.418 100.741 116.042 100.83 115.798 101.009C115.561 101.182 115.443 101.404 115.443 101.676C115.443 101.891 115.508 102.059 115.637 102.181C115.773 102.303 115.949 102.4 116.164 102.472C116.386 102.536 116.626 102.59 116.884 102.633C117.149 102.676 117.411 102.73 117.669 102.794C117.934 102.851 118.174 102.934 118.389 103.041C118.611 103.142 118.787 103.289 118.916 103.482C119.052 103.669 119.12 103.916 119.12 104.224C119.12 104.554 119.027 104.84 118.84 105.084C118.661 105.321 118.396 105.507 118.045 105.643C117.701 105.772 117.282 105.837 116.787 105.837ZM120.521 105.783V100.139H121.284V105.783H120.521ZM120.908 98.8916C120.75 98.8916 120.617 98.8379 120.51 98.7303C120.402 98.6228 120.349 98.4938 120.349 98.3433C120.349 98.1928 120.402 98.0674 120.51 97.967C120.617 97.8595 120.75 97.8058 120.908 97.8058C121.065 97.8058 121.198 97.856 121.305 97.9563C121.413 98.0566 121.467 98.1821 121.467 98.3326C121.467 98.4902 121.413 98.6228 121.305 98.7303C121.205 98.8379 121.072 98.8916 120.908 98.8916ZM126.966 108.148C126.615 108.148 126.328 108.051 126.106 107.858C125.891 107.671 125.784 107.417 125.784 107.094C125.784 106.865 125.848 106.611 125.977 106.331C126.113 106.059 126.353 105.786 126.697 105.514L126.945 105.632C126.773 105.697 126.59 105.747 126.396 105.783C126.21 105.819 126.013 105.837 125.805 105.837C125.217 105.837 124.701 105.715 124.257 105.471C123.813 105.22 123.465 104.88 123.214 104.45C122.963 104.013 122.838 103.514 122.838 102.955C122.838 102.396 122.956 101.902 123.193 101.472C123.436 101.042 123.766 100.705 124.182 100.461C124.605 100.21 125.078 100.085 125.601 100.085C126.131 100.085 126.601 100.207 127.009 100.45C127.425 100.687 127.751 101.024 127.988 101.461C128.224 101.891 128.342 102.389 128.342 102.955C128.342 102.991 128.339 103.031 128.332 103.074C128.332 103.109 128.332 103.149 128.332 103.192H123.419V102.622H127.923L127.622 102.848C127.622 102.439 127.532 102.077 127.353 101.762C127.181 101.44 126.945 101.189 126.644 101.009C126.343 100.83 125.995 100.741 125.601 100.741C125.214 100.741 124.866 100.83 124.558 101.009C124.25 101.189 124.01 101.44 123.838 101.762C123.666 102.085 123.58 102.454 123.58 102.869V102.988C123.58 103.418 123.673 103.798 123.859 104.127C124.053 104.45 124.318 104.704 124.655 104.89C124.999 105.07 125.389 105.159 125.827 105.159C126.171 105.159 126.49 105.098 126.783 104.977C127.084 104.855 127.343 104.668 127.558 104.417L127.988 104.912C127.93 104.984 127.866 105.048 127.794 105.106C127.73 105.163 127.658 105.227 127.579 105.299C127.242 105.586 126.984 105.833 126.805 106.041C126.633 106.256 126.511 106.442 126.439 106.6C126.375 106.758 126.343 106.908 126.343 107.051C126.343 107.266 126.407 107.424 126.536 107.524C126.672 107.625 126.844 107.675 127.052 107.675C127.167 107.675 127.282 107.657 127.396 107.621C127.518 107.585 127.622 107.535 127.708 107.471L127.88 107.89C127.751 107.969 127.608 108.03 127.45 108.073C127.3 108.123 127.138 108.148 126.966 108.148ZM132.097 105.783V105.278L135.86 100.515L136.021 100.773H132.161V100.139H136.623V100.633L132.871 105.407L132.677 105.149H136.698V105.783H132.097ZM141.737 105.783V104.536L141.705 104.331V102.246C141.705 101.766 141.569 101.397 141.297 101.139C141.031 100.88 140.634 100.751 140.103 100.751C139.738 100.751 139.39 100.812 139.061 100.934C138.731 101.056 138.451 101.217 138.222 101.418L137.878 100.848C138.165 100.605 138.509 100.418 138.91 100.289C139.311 100.153 139.734 100.085 140.179 100.085C140.91 100.085 141.472 100.268 141.866 100.633C142.268 100.992 142.468 101.54 142.468 102.278V105.783H141.737ZM139.792 105.837C139.369 105.837 139 105.768 138.684 105.632C138.376 105.489 138.14 105.295 137.975 105.052C137.81 104.801 137.727 104.514 137.727 104.192C137.727 103.898 137.796 103.633 137.932 103.396C138.075 103.152 138.304 102.959 138.62 102.816C138.942 102.665 139.372 102.59 139.91 102.59H141.856V103.16H139.931C139.387 103.16 139.007 103.256 138.792 103.45C138.584 103.643 138.48 103.884 138.48 104.17C138.48 104.493 138.605 104.751 138.856 104.944C139.107 105.138 139.458 105.235 139.91 105.235C140.34 105.235 140.709 105.138 141.017 104.944C141.333 104.744 141.562 104.457 141.705 104.084L141.877 104.611C141.734 104.984 141.483 105.281 141.125 105.503C140.773 105.725 140.329 105.837 139.792 105.837ZM146.71 105.783V105.235L149.839 102.171C150.125 101.891 150.34 101.647 150.484 101.44C150.627 101.225 150.724 101.024 150.774 100.837C150.824 100.651 150.849 100.476 150.849 100.311C150.849 99.8735 150.699 99.5295 150.398 99.2786C150.104 99.0278 149.667 98.9024 149.086 98.9024C148.642 98.9024 148.248 98.9704 147.904 99.1066C147.567 99.2428 147.277 99.4542 147.033 99.7409L146.485 99.2679C146.778 98.9239 147.155 98.6587 147.613 98.4723C148.072 98.286 148.585 98.1928 149.151 98.1928C149.66 98.1928 150.1 98.2752 150.473 98.4401C150.846 98.5978 151.132 98.8307 151.333 99.1389C151.541 99.4471 151.645 99.809 151.645 100.225C151.645 100.468 151.609 100.708 151.537 100.945C151.473 101.182 151.351 101.432 151.172 101.698C151 101.956 150.745 102.249 150.409 102.579L147.538 105.396L147.323 105.095H151.989V105.783H146.71ZM67.4324 120.922C66.9164 120.922 66.4219 120.847 65.9488 120.696C65.4758 120.546 65.0924 120.331 64.7985 120.051L65.1855 119.471C65.4507 119.707 65.7768 119.894 66.1639 120.03C66.558 120.173 66.9737 120.245 67.4109 120.245C68.1277 120.245 68.6544 120.076 68.9913 119.74C69.3281 119.41 69.4966 118.894 69.4966 118.192V116.783L69.6041 115.816L69.5288 114.848V113.139H70.2599V118.095C70.2599 119.069 70.0198 119.783 69.5396 120.234C69.0665 120.693 68.3642 120.922 67.4324 120.922ZM67.2927 118.568C66.7551 118.568 66.2714 118.453 65.8413 118.224C65.4113 117.987 65.0709 117.661 64.82 117.245C64.5763 116.83 64.4545 116.353 64.4545 115.816C64.4545 115.278 64.5763 114.805 64.82 114.397C65.0709 113.981 65.4113 113.658 65.8413 113.429C66.2714 113.2 66.7551 113.085 67.2927 113.085C67.7944 113.085 68.2459 113.189 68.6473 113.397C69.0486 113.605 69.3676 113.913 69.6041 114.321C69.8406 114.73 69.9589 115.228 69.9589 115.816C69.9589 116.403 69.8406 116.901 69.6041 117.31C69.3676 117.718 69.0486 118.03 68.6473 118.245C68.2459 118.46 67.7944 118.568 67.2927 118.568ZM67.3679 117.89C67.7836 117.89 68.1527 117.804 68.4753 117.632C68.7978 117.453 69.0522 117.21 69.2386 116.901C69.4249 116.586 69.5181 116.224 69.5181 115.816C69.5181 115.407 69.4249 115.049 69.2386 114.741C69.0522 114.432 68.7978 114.192 68.4753 114.02C68.1527 113.841 67.7836 113.751 67.3679 113.751C66.9594 113.751 66.5903 113.841 66.2606 114.02C65.9381 114.192 65.6837 114.432 65.4973 114.741C65.3181 115.049 65.2285 115.407 65.2285 115.816C65.2285 116.224 65.3181 116.586 65.4973 116.901C65.6837 117.21 65.9381 117.453 66.2606 117.632C66.5903 117.804 66.9594 117.89 67.3679 117.89ZM74.6845 118.837C74.1398 118.837 73.6489 118.715 73.2117 118.471C72.7817 118.22 72.4412 117.88 72.1904 117.45C71.9395 117.013 71.8141 116.514 71.8141 115.955C71.8141 115.389 71.9395 114.891 72.1904 114.461C72.4412 114.031 72.7817 113.694 73.2117 113.45C73.6417 113.207 74.1327 113.085 74.6845 113.085C75.2436 113.085 75.7381 113.207 76.1681 113.45C76.6053 113.694 76.9458 114.031 77.1895 114.461C77.4403 114.891 77.5657 115.389 77.5657 115.955C77.5657 116.514 77.4403 117.013 77.1895 117.45C76.9458 117.88 76.6053 118.22 76.1681 118.471C75.7309 118.715 75.2364 118.837 74.6845 118.837ZM74.6845 118.159C75.0931 118.159 75.455 118.07 75.7704 117.89C76.0857 117.704 76.333 117.446 76.5122 117.116C76.6985 116.78 76.7917 116.393 76.7917 115.955C76.7917 115.511 76.6985 115.124 76.5122 114.794C76.333 114.465 76.0857 114.21 75.7704 114.031C75.455 113.845 75.0967 113.751 74.6953 113.751C74.2939 113.751 73.9356 113.845 73.6202 114.031C73.3049 114.21 73.054 114.465 72.8677 114.794C72.6813 115.124 72.5882 115.511 72.5882 115.955C72.5882 116.393 72.6813 116.78 72.8677 117.116C73.054 117.446 73.3049 117.704 73.6202 117.89C73.9356 118.07 74.2904 118.159 74.6845 118.159ZM81.371 118.837C80.8334 118.837 80.3497 118.715 79.9196 118.471C79.4968 118.227 79.1635 117.89 78.9198 117.46C78.6761 117.023 78.5543 116.522 78.5543 115.955C78.5543 115.382 78.6761 114.88 78.9198 114.45C79.1635 114.02 79.4968 113.687 79.9196 113.45C80.3497 113.207 80.8334 113.085 81.371 113.085C81.8655 113.085 82.3063 113.196 82.6933 113.418C83.0875 113.64 83.3993 113.966 83.6286 114.397C83.8651 114.819 83.9834 115.339 83.9834 115.955C83.9834 116.565 83.8687 117.084 83.6394 117.514C83.41 117.944 83.0983 118.274 82.7041 118.503C82.317 118.725 81.8727 118.837 81.371 118.837ZM81.4247 118.159C81.8261 118.159 82.1845 118.07 82.4998 117.89C82.8223 117.704 83.0732 117.446 83.2524 117.116C83.4387 116.78 83.5319 116.393 83.5319 115.955C83.5319 115.511 83.4387 115.124 83.2524 114.794C83.0732 114.465 82.8223 114.21 82.4998 114.031C82.1845 113.845 81.8261 113.751 81.4247 113.751C81.0305 113.751 80.6758 113.845 80.3604 114.031C80.0451 114.21 79.7942 114.465 79.6079 114.794C79.4215 115.124 79.3283 115.511 79.3283 115.955C79.3283 116.393 79.4215 116.78 79.6079 117.116C79.7942 117.446 80.0451 117.704 80.3604 117.89C80.6758 118.07 81.0305 118.159 81.4247 118.159ZM83.5534 118.783V117.084L83.6286 115.945L83.5211 114.805V110.806H84.2844V118.783H83.5534ZM85.7974 118.783V118.278L89.5602 113.515L89.7214 113.773H85.8619V113.139H90.3235V113.633L86.5715 118.407L86.378 118.149H90.3987V118.783H85.7974ZM91.901 118.783V113.139H92.6643V118.783H91.901ZM92.2881 111.892C92.1304 111.892 91.9978 111.838 91.8903 111.73C91.7828 111.623 91.729 111.494 91.729 111.343C91.729 111.193 91.7828 111.067 91.8903 110.967C91.9978 110.86 92.1304 110.806 92.2881 110.806C92.4457 110.806 92.5783 110.856 92.6858 110.956C92.7934 111.057 92.8471 111.182 92.8471 111.333C92.8471 111.49 92.7934 111.623 92.6858 111.73C92.5855 111.838 92.4529 111.892 92.2881 111.892ZM97.6694 113.085C98.1281 113.085 98.5294 113.175 98.8735 113.354C99.2247 113.526 99.497 113.791 99.6905 114.149C99.8912 114.508 99.9915 114.959 99.9915 115.504V118.783H99.2282V115.579C99.2282 114.984 99.0777 114.536 98.7767 114.235C98.4829 113.927 98.0672 113.773 97.5296 113.773C97.1283 113.773 96.7771 113.855 96.4761 114.02C96.1822 114.178 95.9529 114.411 95.788 114.719C95.6303 115.02 95.5515 115.386 95.5515 115.816V118.783H94.7882V113.139H95.5192V114.687L95.401 114.397C95.5802 113.988 95.8668 113.669 96.261 113.44C96.6552 113.203 97.1247 113.085 97.6694 113.085ZM101.991 120.922C101.726 120.922 101.472 120.879 101.228 120.793C100.992 120.707 100.787 120.578 100.615 120.406L100.97 119.836C101.113 119.973 101.267 120.076 101.432 120.148C101.604 120.227 101.794 120.266 102.002 120.266C102.253 120.266 102.468 120.195 102.647 120.051C102.833 119.915 103.009 119.672 103.174 119.32L103.539 118.493L103.625 118.374L105.948 113.139H106.7L103.873 119.46C103.715 119.826 103.539 120.116 103.346 120.331C103.16 120.546 102.955 120.696 102.733 120.782C102.511 120.876 102.264 120.922 101.991 120.922ZM103.496 118.944L100.895 113.139H101.69L103.991 118.321L103.496 118.944ZM111.739 118.783L109.61 113.139H110.342L112.277 118.374H111.943L113.932 113.139H114.588L116.555 118.374H116.222L118.19 113.139H118.888L116.749 118.783H116.029L114.137 113.859H114.362L112.459 118.783H111.739ZM65.6263 130.321L65.6478 129.342L69.1633 126.139H70.0986L67.6152 128.515L67.1852 128.88L65.6263 130.321ZM65.0243 131.783V123.806H65.7876V131.783H65.0243ZM69.3998 131.783L67.0454 128.848L67.5399 128.257L70.3351 131.783H69.3998ZM74.913 131.783V130.536L74.8807 130.331V128.246C74.8807 127.766 74.7446 127.397 74.4722 127.139C74.207 126.88 73.8093 126.751 73.2789 126.751C72.9134 126.751 72.5658 126.812 72.2361 126.934C71.9064 127.056 71.6269 127.217 71.3975 127.418L71.0535 126.848C71.3402 126.605 71.6842 126.418 72.0856 126.289C72.4869 126.153 72.9098 126.085 73.3541 126.085C74.0852 126.085 74.6478 126.268 75.042 126.633C75.4434 126.992 75.644 127.54 75.644 128.278V131.783H74.913ZM72.9671 131.837C72.5443 131.837 72.1752 131.768 71.8598 131.632C71.5516 131.489 71.3151 131.295 71.1503 131.052C70.9854 130.801 70.903 130.514 70.903 130.192C70.903 129.898 70.9711 129.633 71.1072 129.396C71.2506 129.152 71.4799 128.959 71.7953 128.816C72.1178 128.665 72.5478 128.59 73.0854 128.59H75.0313V129.16H73.1069C72.5622 129.16 72.1823 129.256 71.9673 129.45C71.7595 129.643 71.6555 129.884 71.6555 130.17C71.6555 130.493 71.781 130.751 72.0318 130.944C72.2827 131.138 72.6338 131.235 73.0854 131.235C73.5154 131.235 73.8845 131.138 74.1927 130.944C74.5081 130.744 74.7374 130.457 74.8807 130.084L75.0528 130.611C74.9094 130.984 74.6586 131.281 74.3002 131.503C73.949 131.725 73.5047 131.837 72.9671 131.837ZM78.7626 131.783L76.6339 126.139H77.365L79.3001 131.374H78.9669L80.9557 126.139H81.6115L83.5789 131.374H83.2456L85.213 126.139H85.9118L83.7724 131.783H83.0521L81.16 126.859H81.3858L79.4829 131.783H78.7626ZM87.0611 131.783V126.139H87.8244V131.783H87.0611ZM87.4482 124.892C87.2905 124.892 87.1579 124.838 87.0504 124.73C86.9429 124.623 86.8891 124.494 86.8891 124.343C86.8891 124.193 86.9429 124.067 87.0504 123.967C87.1579 123.86 87.2905 123.806 87.4482 123.806C87.6058 123.806 87.7384 123.856 87.8459 123.956C87.9534 124.057 88.0072 124.182 88.0072 124.333C88.0072 124.49 87.9534 124.623 87.8459 124.73C87.7456 124.838 87.613 124.892 87.4482 124.892ZM93.4853 131.783V130.536L93.453 130.331V128.246C93.453 127.766 93.3168 127.397 93.0445 127.139C92.7793 126.88 92.3815 126.751 91.8512 126.751C91.4856 126.751 91.138 126.812 90.8083 126.934C90.4786 127.056 90.1991 127.217 89.9698 127.418L89.6258 126.848C89.9124 126.605 90.2565 126.418 90.6578 126.289C91.0592 126.153 91.482 126.085 91.9264 126.085C92.6575 126.085 93.2201 126.268 93.6143 126.633C94.0156 126.992 94.2163 127.54 94.2163 128.278V131.783H93.4853ZM91.5394 131.837C91.1165 131.837 90.7474 131.768 90.4321 131.632C90.1239 131.489 89.8874 131.295 89.7225 131.052C89.5577 130.801 89.4752 130.514 89.4752 130.192C89.4752 129.898 89.5433 129.633 89.6795 129.396C89.8229 129.152 90.0522 128.959 90.3676 128.816C90.6901 128.665 91.1201 128.59 91.6576 128.59H93.6035V129.16H91.6791C91.1344 129.16 90.7546 129.256 90.5396 129.45C90.3317 129.643 90.2278 129.884 90.2278 130.17C90.2278 130.493 90.3532 130.751 90.6041 130.944C90.8549 131.138 91.2061 131.235 91.6576 131.235C92.0877 131.235 92.4568 131.138 92.765 130.944C93.0803 130.744 93.3097 130.457 93.453 130.084L93.625 130.611C93.4817 130.984 93.2308 131.281 92.8725 131.503C92.5213 131.725 92.0769 131.837 91.5394 131.837ZM96.2895 131.783V126.139H97.0206V127.676L96.9453 127.407C97.103 126.977 97.3682 126.651 97.7409 126.429C98.1136 126.2 98.5758 126.085 99.1277 126.085V126.827C99.099 126.827 99.0704 126.827 99.0417 126.827C99.013 126.82 98.9844 126.816 98.9557 126.816C98.3608 126.816 97.895 126.999 97.5581 127.364C97.2212 127.723 97.0528 128.235 97.0528 128.902V131.783H96.2895ZM103.402 126.085C103.86 126.085 104.262 126.175 104.606 126.354C104.957 126.526 105.229 126.791 105.423 127.149C105.624 127.508 105.724 127.959 105.724 128.504V131.783H104.961V128.579C104.961 127.984 104.81 127.536 104.509 127.235C104.215 126.927 103.799 126.773 103.262 126.773C102.861 126.773 102.509 126.855 102.208 127.02C101.915 127.178 101.685 127.411 101.52 127.719C101.363 128.02 101.284 128.386 101.284 128.816V131.783H100.521V126.139H101.252V127.687L101.133 127.397C101.312 126.988 101.599 126.669 101.993 126.44C102.388 126.203 102.857 126.085 103.402 126.085ZM107.786 131.783V126.139H108.549V131.783H107.786ZM108.173 124.892C108.015 124.892 107.882 124.838 107.775 124.73C107.667 124.623 107.614 124.494 107.614 124.343C107.614 124.193 107.667 124.067 107.775 123.967C107.882 123.86 108.015 123.806 108.173 123.806C108.33 123.806 108.463 123.856 108.57 123.956C108.678 124.057 108.732 124.182 108.732 124.333C108.732 124.49 108.678 124.623 108.57 124.73C108.47 124.838 108.337 124.892 108.173 124.892ZM110.673 131.783V126.139H111.436V131.783H110.673ZM111.06 124.892C110.902 124.892 110.77 124.838 110.662 124.73C110.555 124.623 110.501 124.494 110.501 124.343C110.501 124.193 110.555 124.067 110.662 123.967C110.77 123.86 110.902 123.806 111.06 123.806C111.217 123.806 111.35 123.856 111.458 123.956C111.565 124.057 111.619 124.182 111.619 124.333C111.619 124.49 111.565 124.623 111.458 124.73C111.357 124.838 111.225 124.892 111.06 124.892ZM119.255 126.085C119.713 126.085 120.115 126.175 120.459 126.354C120.81 126.526 121.082 126.791 121.276 127.149C121.477 127.508 121.577 127.959 121.577 128.504V131.783H120.814V128.579C120.814 127.984 120.663 127.536 120.362 127.235C120.068 126.927 119.653 126.773 119.115 126.773C118.714 126.773 118.362 126.855 118.061 127.02C117.768 127.178 117.538 127.411 117.373 127.719C117.216 128.02 117.137 128.386 117.137 128.816V131.783H116.374V126.139H117.105V127.687L116.986 127.397C117.166 126.988 117.452 126.669 117.846 126.44C118.241 126.203 118.71 126.085 119.255 126.085ZM127.176 131.783V130.536L127.143 130.331V128.246C127.143 127.766 127.007 127.397 126.735 127.139C126.47 126.88 126.072 126.751 125.542 126.751C125.176 126.751 124.828 126.812 124.499 126.934C124.169 127.056 123.89 127.217 123.66 127.418L123.316 126.848C123.603 126.605 123.947 126.418 124.348 126.289C124.75 126.153 125.172 126.085 125.617 126.085C126.348 126.085 126.911 126.268 127.305 126.633C127.706 126.992 127.907 127.54 127.907 128.278V131.783H127.176ZM125.23 131.837C124.807 131.837 124.438 131.768 124.123 131.632C123.814 131.489 123.578 131.295 123.413 131.052C123.248 130.801 123.166 130.514 123.166 130.192C123.166 129.898 123.234 129.633 123.37 129.396C123.513 129.152 123.743 128.959 124.058 128.816C124.381 128.665 124.811 128.59 125.348 128.59H127.294V129.16H125.37C124.825 129.16 124.445 129.256 124.23 129.45C124.022 129.643 123.918 129.884 123.918 130.17C123.918 130.493 124.044 130.751 124.295 130.944C124.545 131.138 124.897 131.235 125.348 131.235C125.778 131.235 126.147 131.138 126.455 130.944C126.771 130.744 127 130.457 127.143 130.084L127.315 130.611C127.172 130.984 126.921 131.281 126.563 131.503C126.212 131.725 125.767 131.837 125.23 131.837ZM66.8949 144.783L64.3577 137.257H65.1748L67.5507 144.342H67.1422L69.5933 137.257H70.3244L72.7433 144.342H72.3563L74.7537 137.257H75.517L72.9798 144.783H72.1412L69.8298 138.064H70.0449L67.7227 144.783H66.8949ZM79.9209 144.783V143.536L79.8886 143.331V141.246C79.8886 140.766 79.7525 140.397 79.4801 140.139C79.2149 139.88 78.8172 139.751 78.2868 139.751C77.9213 139.751 77.5737 139.812 77.244 139.934C76.9143 140.056 76.6348 140.217 76.4054 140.418L76.0614 139.848C76.3481 139.605 76.6921 139.418 77.0935 139.289C77.4948 139.153 77.9177 139.085 78.362 139.085C79.0931 139.085 79.6557 139.268 80.0499 139.633C80.4513 139.992 80.6519 140.54 80.6519 141.278V144.783H79.9209ZM77.975 144.837C77.5522 144.837 77.183 144.768 76.8677 144.632C76.5595 144.489 76.323 144.295 76.1581 144.052C75.9933 143.801 75.9109 143.514 75.9109 143.192C75.9109 142.898 75.979 142.633 76.1151 142.396C76.2585 142.152 76.4878 141.959 76.8032 141.816C77.1257 141.665 77.5557 141.59 78.0933 141.59H80.0392V142.16H78.1148C77.5701 142.16 77.1902 142.256 76.9752 142.45C76.7674 142.643 76.6634 142.884 76.6634 143.17C76.6634 143.493 76.7889 143.751 77.0397 143.944C77.2906 144.138 77.6417 144.235 78.0933 144.235C78.5233 144.235 78.8924 144.138 79.2006 143.944C79.516 143.744 79.7453 143.457 79.8886 143.084L80.0607 143.611C79.9173 143.984 79.6665 144.281 79.3081 144.503C78.9569 144.725 78.5126 144.837 77.975 144.837ZM82.7251 144.783V139.139H83.4562V140.676L83.3809 140.407C83.5386 139.977 83.8038 139.651 84.1765 139.429C84.5492 139.2 85.0115 139.085 85.5633 139.085V139.827C85.5347 139.827 85.506 139.827 85.4773 139.827C85.4487 139.82 85.42 139.816 85.3913 139.816C84.7964 139.816 84.3306 139.999 83.9937 140.364C83.6569 140.723 83.4884 141.235 83.4884 141.902V144.783H82.7251ZM88.535 144.837C88.0691 144.837 87.6283 144.772 87.2126 144.643C86.7969 144.507 86.4708 144.338 86.2343 144.138L86.5784 143.536C86.8077 143.708 87.1016 143.858 87.4599 143.987C87.8183 144.109 88.1945 144.17 88.5887 144.17C89.1263 144.17 89.5133 144.088 89.7498 143.923C89.9863 143.751 90.1046 143.525 90.1046 143.245C90.1046 143.038 90.0365 142.876 89.9003 142.762C89.7713 142.64 89.5993 142.55 89.3843 142.493C89.1693 142.428 88.9292 142.375 88.664 142.332C88.3988 142.289 88.1336 142.238 87.8684 142.181C87.6104 142.124 87.3739 142.041 87.1589 141.934C86.9439 141.819 86.7683 141.665 86.6321 141.472C86.5031 141.278 86.4386 141.02 86.4386 140.698C86.4386 140.389 86.5246 140.113 86.6966 139.87C86.8686 139.626 87.1195 139.436 87.4492 139.3C87.786 139.157 88.1945 139.085 88.6747 139.085C89.0403 139.085 89.4058 139.135 89.7713 139.235C90.1368 139.329 90.4379 139.454 90.6744 139.612L90.3411 140.225C90.0902 140.052 89.8215 139.931 89.5348 139.859C89.2481 139.78 88.9614 139.741 88.6747 139.741C88.1659 139.741 87.7896 139.83 87.5459 140.009C87.3094 140.182 87.1911 140.404 87.1911 140.676C87.1911 140.891 87.2556 141.059 87.3847 141.181C87.5208 141.303 87.6964 141.4 87.9114 141.472C88.1336 141.536 88.3737 141.59 88.6317 141.633C88.8969 141.676 89.1585 141.73 89.4165 141.794C89.6817 141.851 89.9218 141.934 90.1368 142.041C90.359 142.142 90.5346 142.289 90.6636 142.482C90.7998 142.669 90.8679 142.916 90.8679 143.224C90.8679 143.554 90.7747 143.84 90.5884 144.084C90.4092 144.321 90.144 144.507 89.7928 144.643C89.4488 144.772 89.0295 144.837 88.535 144.837ZM91.6557 144.783V144.278L95.4185 139.515L95.5797 139.773H91.7202V139.139H96.1818V139.633L92.4298 144.407L92.2362 144.149H96.257V144.783H91.6557ZM101.296 144.783V143.536L101.264 143.331V141.246C101.264 140.766 101.128 140.397 100.856 140.139C100.59 139.88 100.193 139.751 99.6622 139.751C99.2967 139.751 98.9491 139.812 98.6194 139.934C98.2897 140.056 98.0102 140.217 97.7808 140.418L97.4368 139.848C97.7235 139.605 98.0675 139.418 98.4689 139.289C98.8702 139.153 99.2931 139.085 99.7375 139.085C100.469 139.085 101.031 139.268 101.425 139.633C101.827 139.992 102.027 140.54 102.027 141.278V144.783H101.296ZM99.3504 144.837C98.9276 144.837 98.5585 144.768 98.2431 144.632C97.9349 144.489 97.6984 144.295 97.5336 144.052C97.3687 143.801 97.2863 143.514 97.2863 143.192C97.2863 142.898 97.3544 142.633 97.4906 142.396C97.6339 142.152 97.8633 141.959 98.1786 141.816C98.5011 141.665 98.9312 141.59 99.4687 141.59H101.415V142.16H99.4902C98.9455 142.16 98.5656 142.256 98.3506 142.45C98.1428 142.643 98.0389 142.884 98.0389 143.17C98.0389 143.493 98.1643 143.751 98.4151 143.944C98.666 144.138 99.0172 144.235 99.4687 144.235C99.8987 144.235 100.268 144.138 100.576 143.944C100.891 143.744 101.121 143.457 101.264 143.084L101.436 143.611C101.293 143.984 101.042 144.281 100.684 144.503C100.332 144.725 99.888 144.837 99.3504 144.837ZM105.146 144.783L103.017 139.139H103.748L105.683 144.374H105.35L107.339 139.139H107.995L109.962 144.374H109.629L111.596 139.139H112.295L110.156 144.783H109.435L107.543 139.859H107.769L105.866 144.783H105.146ZM114.046 143.321L114.068 142.342L117.583 139.139H118.519L116.035 141.515L115.605 141.88L114.046 143.321ZM113.444 144.783V136.806H114.208V144.783H113.444ZM117.82 144.783L115.466 141.848L115.96 141.257L118.755 144.783H117.82ZM119.901 144.783V139.139H120.664V144.783H119.901ZM120.288 137.892C120.131 137.892 119.998 137.838 119.89 137.73C119.783 137.623 119.729 137.494 119.729 137.343C119.729 137.193 119.783 137.067 119.89 136.967C119.998 136.86 120.131 136.806 120.288 136.806C120.446 136.806 120.578 136.856 120.686 136.956C120.793 137.057 120.847 137.182 120.847 137.333C120.847 137.49 120.793 137.623 120.686 137.73C120.586 137.838 120.453 137.892 120.288 137.892ZM125.186 144.837C124.598 144.837 124.082 144.715 123.638 144.471C123.193 144.22 122.846 143.88 122.595 143.45C122.344 143.013 122.219 142.514 122.219 141.955C122.219 141.396 122.337 140.902 122.573 140.472C122.817 140.042 123.147 139.705 123.562 139.461C123.985 139.21 124.458 139.085 124.981 139.085C125.512 139.085 125.981 139.207 126.39 139.45C126.806 139.687 127.132 140.024 127.368 140.461C127.605 140.891 127.723 141.389 127.723 141.955C127.723 141.991 127.719 142.031 127.712 142.074C127.712 142.109 127.712 142.149 127.712 142.192H122.799V141.622H127.304L127.003 141.848C127.003 141.439 126.913 141.077 126.734 140.762C126.562 140.44 126.325 140.189 126.024 140.009C125.723 139.83 125.376 139.741 124.981 139.741C124.594 139.741 124.247 139.83 123.939 140.009C123.63 140.189 123.39 140.44 123.218 140.762C123.046 141.085 122.96 141.454 122.96 141.869V141.988C122.96 142.418 123.054 142.798 123.24 143.127C123.433 143.45 123.699 143.704 124.035 143.89C124.379 144.07 124.77 144.159 125.207 144.159C125.551 144.159 125.87 144.098 126.164 143.977C126.465 143.855 126.723 143.668 126.938 143.417L127.368 143.912C127.117 144.213 126.802 144.442 126.422 144.6C126.049 144.758 125.637 144.837 125.186 144.837ZM128.438 146.922C128.209 146.922 127.99 146.89 127.782 146.825C127.567 146.768 127.388 146.679 127.245 146.557L127.513 145.976C127.743 146.17 128.037 146.266 128.395 146.266C128.696 146.266 128.925 146.177 129.083 145.998C129.248 145.818 129.33 145.553 129.33 145.202V139.139H130.094V145.202C130.094 145.725 129.95 146.141 129.664 146.449C129.384 146.765 128.976 146.922 128.438 146.922ZM129.717 137.892C129.56 137.892 129.427 137.838 129.32 137.73C129.212 137.623 129.158 137.494 129.158 137.343C129.158 137.193 129.212 137.067 129.32 136.967C129.427 136.86 129.56 136.806 129.717 136.806C129.875 136.806 130.008 136.856 130.115 136.956C130.223 137.057 130.276 137.182 130.276 137.333C130.276 137.49 130.223 137.623 130.115 137.73C130.015 137.838 129.882 137.892 129.717 137.892ZM135.847 144.783V137.58L136.191 137.945H134.073V137.257H136.621V144.783H135.847ZM138.28 144.783V144.235L141.408 141.171C141.695 140.891 141.91 140.647 142.053 140.44C142.197 140.225 142.293 140.024 142.344 139.837C142.394 139.651 142.419 139.476 142.419 139.311C142.419 138.874 142.268 138.529 141.967 138.279C141.673 138.028 141.236 137.902 140.656 137.902C140.211 137.902 139.817 137.97 139.473 138.107C139.136 138.243 138.846 138.454 138.602 138.741L138.054 138.268C138.348 137.924 138.724 137.659 139.183 137.472C139.642 137.286 140.154 137.193 140.72 137.193C141.229 137.193 141.67 137.275 142.043 137.44C142.415 137.598 142.702 137.831 142.903 138.139C143.11 138.447 143.214 138.809 143.214 139.225C143.214 139.468 143.179 139.708 143.107 139.945C143.042 140.182 142.921 140.432 142.741 140.698C142.569 140.956 142.315 141.249 141.978 141.579L139.108 144.396L138.893 144.095H143.558V144.783H138.28ZM145.215 144.837C145.058 144.837 144.922 144.779 144.807 144.665C144.699 144.55 144.646 144.41 144.646 144.245C144.646 144.073 144.699 143.934 144.807 143.826C144.922 143.718 145.058 143.665 145.215 143.665C145.373 143.665 145.506 143.718 145.613 143.826C145.728 143.934 145.785 144.073 145.785 144.245C145.785 144.41 145.728 144.55 145.613 144.665C145.506 144.779 145.373 144.837 145.215 144.837Z" fill="#00FBFF"/>
</g>
<line id="Line 2_2" x1="40.0342" y1="91.629" x2="137.679" y2="91.629" stroke="#00FBFF" stroke-width="0.488668"/>
<g id="Subtract" filter="url(#filter3_d_393_3493)">
<path fill-rule="evenodd" clip-rule="evenodd" d="M40.5223 27.3665C35.3992 27.3665 31.2461 31.5236 31.2461 36.6516C31.2461 38.5255 31.8007 40.2697 32.7545 41.7288C33.1309 42.1799 33.4608 43.6215 31.4795 45.6092V45.6092C31.4711 45.6177 31.4711 45.6314 31.4795 45.6398L31.5111 45.6713L31.5427 45.703C31.5511 45.7115 31.5648 45.7115 31.5732 45.703V45.703C33.559 43.7198 34.9993 44.0501 35.45 44.4268C36.9077 45.3815 38.6502 45.9366 40.5223 45.9366C45.6454 45.9366 49.7986 41.7796 49.7986 36.6516C49.7986 31.5236 45.6454 27.3665 40.5223 27.3665Z" fill="url(#paint0_linear_393_3493)"/>
</g>
<path id="11:58" d="M166.401 88.1901V80.9871L166.745 81.3526H164.628V80.6646H167.175V88.1901H166.401ZM170.286 88.1901V80.9871L170.63 81.3526H168.512V80.6646H171.06V88.1901H170.286ZM173.439 83.664C173.282 83.664 173.146 83.6067 173.031 83.492C172.923 83.3773 172.87 83.2376 172.87 83.0727C172.87 82.9007 172.923 82.761 173.031 82.6535C173.146 82.5459 173.282 82.4922 173.439 82.4922C173.597 82.4922 173.73 82.5459 173.837 82.6535C173.952 82.761 174.009 82.9007 174.009 83.0727C174.009 83.2376 173.952 83.3773 173.837 83.492C173.73 83.6067 173.597 83.664 173.439 83.664ZM173.439 88.2438C173.282 88.2438 173.146 88.1865 173.031 88.0718C172.923 87.9571 172.87 87.8174 172.87 87.6525C172.87 87.4805 172.923 87.3408 173.031 87.2333C173.146 87.1257 173.282 87.072 173.439 87.072C173.597 87.072 173.73 87.1257 173.837 87.2333C173.952 87.3408 174.009 87.4805 174.009 87.6525C174.009 87.8174 173.952 87.9571 173.837 88.0718C173.73 88.1865 173.597 88.2438 173.439 88.2438ZM177.513 88.2546C176.975 88.2546 176.463 88.1686 175.976 87.9966C175.488 87.8174 175.101 87.5809 174.815 87.287L175.191 86.6742C175.427 86.9251 175.75 87.1329 176.158 87.2978C176.574 87.4626 177.022 87.545 177.502 87.545C178.14 87.545 178.624 87.4053 178.954 87.1257C179.29 86.8391 179.459 86.4664 179.459 86.0077C179.459 85.6851 179.38 85.4092 179.222 85.1799C179.072 84.9434 178.814 84.7606 178.448 84.6316C178.083 84.5026 177.581 84.4381 176.943 84.4381H175.341L175.728 80.6646H179.846V81.3526H176.04L176.438 80.9763L176.105 84.137L175.707 83.75H177.115C177.875 83.75 178.484 83.8432 178.943 84.0295C179.402 84.2159 179.731 84.4775 179.932 84.8143C180.14 85.144 180.244 85.5311 180.244 85.9754C180.244 86.3983 180.143 86.7853 179.943 87.1365C179.742 87.4805 179.441 87.7529 179.04 87.9535C178.638 88.1542 178.129 88.2546 177.513 88.2546ZM184.086 88.2546C183.484 88.2546 182.964 88.1686 182.527 87.9966C182.097 87.8245 181.764 87.5773 181.527 87.2548C181.298 86.9251 181.183 86.538 181.183 86.0937C181.183 85.6636 181.294 85.2981 181.517 84.9971C181.746 84.6889 182.076 84.4524 182.506 84.2876C182.943 84.1227 183.47 84.0403 184.086 84.0403C184.695 84.0403 185.218 84.1227 185.656 84.2876C186.093 84.4524 186.426 84.6889 186.655 84.9971C186.892 85.2981 187.01 85.6636 187.01 86.0937C187.01 86.538 186.892 86.9251 186.655 87.2548C186.419 87.5773 186.082 87.8245 185.645 87.9966C185.208 88.1686 184.688 88.2546 184.086 88.2546ZM184.086 87.5988C184.753 87.5988 185.272 87.4626 185.645 87.1902C186.025 86.9179 186.215 86.5488 186.215 86.0829C186.215 85.6171 186.025 85.2515 185.645 84.9864C185.272 84.714 184.753 84.5778 184.086 84.5778C183.419 84.5778 182.9 84.714 182.527 84.9864C182.154 85.2515 181.968 85.6171 181.968 86.0829C181.968 86.5488 182.154 86.9179 182.527 87.1902C182.9 87.4626 183.419 87.5988 184.086 87.5988ZM184.086 84.4811C183.527 84.4811 183.05 84.4058 182.656 84.2553C182.269 84.1048 181.972 83.8898 181.764 83.6103C181.556 83.3236 181.452 82.9831 181.452 82.5889C181.452 82.1733 181.56 81.8185 181.775 81.5246C181.997 81.2236 182.305 80.9943 182.699 80.8366C183.093 80.6789 183.556 80.6001 184.086 80.6001C184.616 80.6001 185.079 80.6789 185.473 80.8366C185.874 80.9943 186.186 81.2236 186.408 81.5246C186.63 81.8185 186.741 82.1733 186.741 82.5889C186.741 82.9831 186.638 83.3236 186.43 83.6103C186.222 83.8898 185.917 84.1048 185.516 84.2553C185.122 84.4058 184.645 84.4811 184.086 84.4811ZM184.086 83.965C184.674 83.965 185.132 83.8432 185.462 83.5995C185.792 83.3558 185.957 83.0297 185.957 82.6212C185.957 82.1912 185.785 81.8579 185.441 81.6214C185.104 81.3777 184.652 81.2559 184.086 81.2559C183.52 81.2559 183.068 81.3777 182.731 81.6214C182.395 81.8579 182.226 82.1876 182.226 82.6104C182.226 83.0261 182.387 83.3558 182.71 83.5995C183.04 83.8432 183.498 83.965 184.086 83.965Z" fill="#00FBFF"/>
<line id="Line 6" x1="90.3213" y1="91.629" x2="187.966" y2="91.629" stroke="#00FBFF" stroke-width="0.488668"/>
</g>
<defs>
<filter id="filter0_d_393_3493" x="-1.95467" y="0" width="228.492" height="219.909" filterUnits="userSpaceOnUse" color-interpolation-filters="sRGB">
<feFlood flood-opacity="0" result="BackgroundImageFix"/>
<feColorMatrix in="SourceAlpha" type="matrix" values="0 0 0 0 0 0 0 0 0 0 0 0 0 0 0 0 0 0 127 0" result="hardAlpha"/>
<feOffset dy="1.95467"/>
<feGaussianBlur stdDeviation="0.977337"/>
<feComposite in2="hardAlpha" operator="out"/>
<feColorMatrix type="matrix" values="0 0 0 0 0 0 0 0 0 0 0 0 0 0 0 0 0 0 0.25 0"/>
<feBlend mode="normal" in2="BackgroundImageFix" result="effect1_dropShadow_393_3493"/>
<feBlend mode="normal" in="SourceGraphic" in2="effect1_dropShadow_393_3493" result="shape"/>
</filter>
<filter id="filter1_d_393_3493" x="23.433" y="21.5023" width="33.7253" height="34.208" filterUnits="userSpaceOnUse" color-interpolation-filters="sRGB">
<feFlood flood-opacity="0" result="BackgroundImageFix"/>
<feColorMatrix in="SourceAlpha" type="matrix" values="0 0 0 0 0 0 0 0 0 0 0 0 0 0 0 0 0 0 127 0" result="hardAlpha"/>
<feOffset dy="1.95467"/>
<feGaussianBlur stdDeviation="0.977337"/>
<feComposite in2="hardAlpha" operator="out"/>
<feColorMatrix type="matrix" values="0 0 0 0 0 0 0 0 0 0 0 0 0 0 0 0 0 0 0.25 0"/>
<feBlend mode="normal" in2="BackgroundImageFix" result="effect1_dropShadow_393_3493"/>
<feBlend mode="normal" in="SourceGraphic" in2="effect1_dropShadow_393_3493" result="shape"/>
</filter>
<filter id="filter2_d_393_3493" x="23.5331" y="67.4389" width="177.516" height="126.57" filterUnits="userSpaceOnUse" color-interpolation-filters="sRGB">
<feFlood flood-opacity="0" result="BackgroundImageFix"/>
<feColorMatrix in="SourceAlpha" type="matrix" values="0 0 0 0 0 0 0 0 0 0 0 0 0 0 0 0 0 0 127 0" result="hardAlpha"/>
<feOffset dy="1.95467"/>
<feGaussianBlur stdDeviation="0.977337"/>
<feComposite in2="hardAlpha" operator="out"/>
<feColorMatrix type="matrix" values="0 0 0 0 0 0 0 0 0 0 0 0 0 0 0 0 0 0 0.25 0"/>
<feBlend mode="normal" in2="BackgroundImageFix" result="effect1_dropShadow_393_3493"/>
<feBlend mode="normal" in="SourceGraphic" in2="effect1_dropShadow_393_3493" result="shape"/>
</filter>
<filter id="filter3_d_393_3493" x="29.2914" y="27.3665" width="22.4616" height="22.4795" filterUnits="userSpaceOnUse" color-interpolation-filters="sRGB">
<feFlood flood-opacity="0" result="BackgroundImageFix"/>
<feColorMatrix in="SourceAlpha" type="matrix" values="0 0 0 0 0 0 0 0 0 0 0 0 0 0 0 0 0 0 127 0" result="hardAlpha"/>
<feOffset dy="1.95467"/>
<feGaussianBlur stdDeviation="0.977337"/>
<feComposite in2="hardAlpha" operator="out"/>
<feColorMatrix type="matrix" values="0 0 0 0 0 0 0 0 0 0 0 0 0 0 0 0 0 0 0.25 0"/>
<feBlend mode="normal" in2="BackgroundImageFix" result="effect1_dropShadow_393_3493"/>
<feBlend mode="normal" in="SourceGraphic" in2="effect1_dropShadow_393_3493" result="shape"/>
</filter>
<linearGradient id="paint0_linear_393_3493" x1="40.5223" y1="27.3665" x2="40.5223" y2="45.9366" gradientUnits="userSpaceOnUse">
<stop stop-color="white"/>
<stop offset="0.0001" stop-color="#90F9A1"/>
<stop offset="0.0002" stop-color="white"/>
<stop offset="0.357292" stop-color="white"/>
</linearGradient>
</defs>
</svg>
