<svg width="228" height="216" viewBox="0 0 228 216" fill="none" xmlns="http://www.w3.org/2000/svg">
<g id="Funkcja 3">
<g id="Funkcja 3_2">
<g id="Funkcja 2">
<g id="Rectangle 16" filter="url(#filter0_d_393_3491)">
<rect width="224.582" height="216" rx="43.9819" fill="#545351"/>
<rect x="0.977376" y="0.977376" width="222.628" height="214.045" rx="43.0045" stroke="#4E4E4E" stroke-width="1.95475"/>
</g>
<g id="Rectangle 7" filter="url(#filter1_d_393_3491)">
<path d="M25.3877 31.276C25.3877 25.8781 29.7636 21.5023 35.1615 21.5023H45.43C50.8279 21.5023 55.2038 25.8781 55.2038 31.276V42.0271C55.2038 47.425 50.8279 51.8009 45.43 51.8009H35.1614C29.7636 51.8009 25.3877 47.425 25.3877 42.0271V31.276Z" fill="#43BFC1"/>
</g>
<path id="Wiadomo&#197;&#155;ci" d="M63.3737 40.3213V32.1113H64.0891L67.8422 38.5151H67.4669L71.1849 32.1113H71.9003V40.3213H71.0676V33.4132H71.267L67.8422 39.2775H67.4317L63.9836 33.4132H64.2064V40.3213H63.3737ZM78.2581 40.3213V38.9608L78.2229 38.7379V36.4626C78.2229 35.9387 78.0743 35.5361 77.7772 35.2546C77.4879 34.9731 77.0539 34.8323 76.4753 34.8323C76.0766 34.8323 75.6973 34.8988 75.3377 35.0317C74.978 35.1647 74.673 35.3406 74.4228 35.5595L74.0475 34.9379C74.3603 34.6721 74.7356 34.4688 75.1735 34.328C75.6113 34.1795 76.0726 34.1052 76.5574 34.1052C77.355 34.1052 77.9688 34.3046 78.3988 34.7033C78.8367 35.0943 79.0556 35.6924 79.0556 36.4978V40.3213H78.2581ZM76.1352 40.3799C75.6739 40.3799 75.2712 40.3057 74.9272 40.1571C74.5909 40.0007 74.3329 39.7896 74.1531 39.5238C73.9732 39.2501 73.8833 38.9373 73.8833 38.5855C73.8833 38.2649 73.9576 37.9756 74.1062 37.7176C74.2625 37.4517 74.5128 37.2406 74.8568 37.0842C75.2086 36.92 75.6778 36.8379 76.2642 36.8379H78.3871V37.4595H76.2877C75.6934 37.4595 75.279 37.5651 75.0445 37.7762C74.8177 37.9873 74.7043 38.2493 74.7043 38.562C74.7043 38.9139 74.8412 39.1954 75.1148 39.4065C75.3885 39.6176 75.7716 39.7231 76.2642 39.7231C76.7334 39.7231 77.136 39.6176 77.4723 39.4065C77.8163 39.1875 78.0665 38.8748 78.2229 38.4682L78.4105 39.0429C78.2542 39.4495 77.9805 39.774 77.5895 40.0163C77.2064 40.2587 76.7216 40.3799 76.1352 40.3799ZM84.4958 40.3799C83.9641 40.3799 83.4832 40.2587 83.0532 40.0163C82.6231 39.7661 82.2791 39.4104 82.0211 38.9491C81.7709 38.4799 81.6458 37.9091 81.6458 37.2367C81.6458 36.5643 81.7709 35.9974 82.0211 35.5361C82.2713 35.0669 82.6114 34.7112 83.0415 34.4688C83.4715 34.2264 83.9563 34.1052 84.4958 34.1052C85.0822 34.1052 85.6061 34.2381 86.0674 34.5039C86.5366 34.762 86.904 35.1295 87.1699 35.6064C87.4357 36.0756 87.5687 36.619 87.5687 37.2367C87.5687 37.8622 87.4357 38.4095 87.1699 38.8787C86.904 39.3478 86.5366 39.7153 86.0674 39.9812C85.6061 40.247 85.0822 40.3799 84.4958 40.3799ZM81.3174 42.5966V34.1638H82.1149V36.0169L82.0328 37.2484L82.1501 38.4916V42.5966H81.3174ZM84.4372 39.641C84.875 39.641 85.266 39.5433 85.61 39.3478C85.954 39.1445 86.2277 38.863 86.431 38.5034C86.6343 38.1359 86.7359 37.7137 86.7359 37.2367C86.7359 36.7597 86.6343 36.3414 86.431 35.9817C86.2277 35.6221 85.954 35.3406 85.61 35.1373C85.266 34.934 84.875 34.8323 84.4372 34.8323C83.9993 34.8323 83.6044 34.934 83.2526 35.1373C82.9085 35.3406 82.6349 35.6221 82.4316 35.9817C82.2361 36.3414 82.1384 36.7597 82.1384 37.2367C82.1384 37.7137 82.2361 38.1359 82.4316 38.5034C82.6349 38.863 82.9085 39.1445 83.2526 39.3478C83.6044 39.5433 83.9993 39.641 84.4372 39.641ZM89.1413 42.6553C88.852 42.6553 88.5744 42.6083 88.3086 42.5145C88.0505 42.4207 87.8277 42.2799 87.64 42.0923L88.0271 41.4707C88.1835 41.6192 88.3516 41.7326 88.5314 41.8108C88.7191 41.8968 88.9263 41.9398 89.153 41.9398C89.4267 41.9398 89.6613 41.8616 89.8567 41.7053C90.06 41.5567 90.2516 41.2908 90.4314 40.9077L90.8302 40.0046L90.924 39.8756L93.4574 34.1638H94.2784L91.1938 41.0602C91.0218 41.459 90.8302 41.7756 90.6191 42.0102C90.4158 42.2448 90.1929 42.409 89.9506 42.5028C89.7082 42.6044 89.4384 42.6553 89.1413 42.6553ZM90.7833 40.4972L87.945 34.1638H88.8129L91.3228 39.817L90.7833 40.4972Z" fill="#00FBFF"/>
<g id="Rectangle 14" filter="url(#filter2_d_393_3491)">
<rect x="25.4878" y="67.4389" width="173.607" height="122.661" rx="21.9909" fill="#43BFC1" fill-opacity="0.1" shape-rendering="crispEdges"/>
<rect x="25.7321" y="67.6832" width="173.118" height="122.172" rx="21.7466" stroke="#43BFC1" stroke-opacity="0.2" stroke-width="0.488688" shape-rendering="crispEdges"/>
</g>
<line id="Line 2" x1="63.9604" y1="91.6289" x2="160.141" y2="91.6289" stroke="#00FBFF" stroke-width="0.488688"/>
</g>
<line id="Line 2_2" x1="40.0342" y1="91.6289" x2="137.679" y2="91.6289" stroke="#00FBFF" stroke-width="0.488688"/>
<line id="Line 6" x1="90.3213" y1="91.6289" x2="187.966" y2="91.6289" stroke="#00FBFF" stroke-width="0.488688"/>
</g>
<g id="Group 2446" filter="url(#filter3_d_393_3491)">
<path id="Ellipse 123" d="M47.3578 32.45C47.3578 38.7339 40.7668 45.8145 40.7668 45.8145C40.7668 45.8145 34.1758 38.5569 34.1758 32.45C34.1758 28.8328 37.1267 25.9005 40.7668 25.9005C44.4069 25.9005 47.3578 28.8328 47.3578 32.45Z" fill="white"/>
<ellipse id="Ellipse 125" cx="40.7667" cy="32.8032" rx="3.66167" ry="3.72624" fill="#43BFC1"/>
</g>
<path id="Rectangle 20" d="M98.1328 116.796H103.503V158.824H98.1328V116.796Z" fill="#00FBFF"/>
<rect id="Rectangle 21" x="74.6982" y="122.172" width="5.37557" height="25.8758" transform="rotate(-90 74.6982 122.172)" fill="#00FBFF"/>
<path id="Polygon 1" d="M63.957 119.484L76.0405 112.501V126.467L63.957 119.484Z" fill="#00FBFF"/>
<path id="10km/h" d="M136.938 114.579V108.031L137.251 108.363H135.326V107.738H137.642V114.579H136.938ZM142.004 114.638C141.477 114.638 141.008 114.501 140.597 114.227C140.187 113.947 139.864 113.55 139.629 113.035C139.395 112.514 139.278 111.888 139.278 111.158C139.278 110.429 139.395 109.806 139.629 109.292C139.864 108.77 140.187 108.373 140.597 108.099C141.008 107.819 141.477 107.679 142.004 107.679C142.532 107.679 143.001 107.819 143.412 108.099C143.822 108.373 144.145 108.77 144.379 109.292C144.621 109.806 144.741 110.429 144.741 111.158C144.741 111.888 144.621 112.514 144.379 113.035C144.145 113.55 143.822 113.947 143.412 114.227C143.001 114.501 142.532 114.638 142.004 114.638ZM142.004 113.993C142.408 113.993 142.76 113.885 143.06 113.67C143.36 113.449 143.594 113.129 143.764 112.712C143.933 112.289 144.018 111.771 144.018 111.158C144.018 110.546 143.933 110.031 143.764 109.614C143.594 109.191 143.36 108.871 143.06 108.656C142.76 108.435 142.408 108.324 142.004 108.324C141.613 108.324 141.265 108.435 140.959 108.656C140.652 108.871 140.415 109.191 140.245 109.614C140.076 110.031 139.991 110.546 139.991 111.158C139.991 111.771 140.076 112.289 140.245 112.712C140.415 113.129 140.652 113.449 140.959 113.67C141.265 113.885 141.613 113.993 142.004 113.993ZM146.756 113.25L146.775 112.361L149.971 109.448H150.821L148.564 111.608L148.173 111.94L146.756 113.25ZM146.208 114.579V107.327H146.902V114.579H146.208ZM150.186 114.579L148.046 111.911L148.495 111.373L151.036 114.579H150.186ZM158.413 109.399C158.83 109.399 159.192 109.481 159.498 109.643C159.811 109.8 160.052 110.041 160.222 110.367C160.398 110.692 160.485 111.103 160.485 111.598V114.579H159.792V111.667C159.792 111.126 159.661 110.719 159.401 110.445C159.146 110.165 158.785 110.025 158.316 110.025C157.964 110.025 157.658 110.1 157.397 110.249C157.143 110.393 156.944 110.605 156.801 110.885C156.664 111.158 156.596 111.491 156.596 111.882V114.579H155.902V111.667C155.902 111.126 155.771 110.719 155.511 110.445C155.25 110.165 154.885 110.025 154.416 110.025C154.071 110.025 153.768 110.1 153.507 110.249C153.246 110.393 153.044 110.605 152.901 110.885C152.764 111.158 152.696 111.491 152.696 111.882V114.579H152.002V109.448H152.666V110.836L152.559 110.591C152.715 110.22 152.966 109.93 153.312 109.722C153.663 109.507 154.077 109.399 154.553 109.399C155.055 109.399 155.481 109.526 155.833 109.78C156.185 110.028 156.413 110.403 156.517 110.904L156.244 110.797C156.394 110.38 156.657 110.044 157.035 109.79C157.42 109.529 157.879 109.399 158.413 109.399ZM161.155 115.557L164.381 106.35H165.016L161.791 115.557H161.155ZM168.261 109.399C168.678 109.399 169.042 109.481 169.355 109.643C169.674 109.8 169.922 110.041 170.098 110.367C170.28 110.692 170.372 111.103 170.372 111.598V114.579H169.678V111.667C169.678 111.126 169.541 110.719 169.267 110.445C169 110.165 168.622 110.025 168.134 110.025C167.769 110.025 167.449 110.1 167.176 110.249C166.909 110.393 166.7 110.605 166.55 110.885C166.407 111.158 166.335 111.491 166.335 111.882V114.579H165.641V107.327H166.335V110.855L166.198 110.591C166.361 110.22 166.622 109.93 166.98 109.722C167.339 109.507 167.765 109.399 168.261 109.399Z" fill="#00FBFF"/>
<line id="Line 4" x1="119.126" y1="116.552" x2="187.966" y2="116.552" stroke="#00FBFF" stroke-width="0.488688"/>
<path id="Do celu: 2km" d="M122.682 129.729V122.887H125.467C126.197 122.887 126.835 123.033 127.383 123.327C127.937 123.613 128.367 124.014 128.673 124.529C128.979 125.044 129.132 125.637 129.132 126.308C129.132 126.979 128.979 127.572 128.673 128.087C128.367 128.601 127.937 129.005 127.383 129.298C126.835 129.585 126.197 129.729 125.467 129.729H122.682ZM123.405 129.103H125.428C126.034 129.103 126.559 128.986 127.002 128.751C127.451 128.51 127.8 128.181 128.047 127.764C128.295 127.34 128.419 126.855 128.419 126.308C128.419 125.754 128.295 125.268 128.047 124.851C127.8 124.434 127.451 124.109 127.002 123.874C126.559 123.633 126.034 123.512 125.428 123.512H123.405V129.103ZM132.701 129.777C132.206 129.777 131.76 129.667 131.362 129.445C130.971 129.217 130.662 128.908 130.434 128.517C130.206 128.119 130.092 127.666 130.092 127.158C130.092 126.643 130.206 126.19 130.434 125.799C130.662 125.409 130.971 125.102 131.362 124.881C131.753 124.659 132.2 124.548 132.701 124.548C133.21 124.548 133.659 124.659 134.05 124.881C134.448 125.102 134.757 125.409 134.979 125.799C135.207 126.19 135.321 126.643 135.321 127.158C135.321 127.666 135.207 128.119 134.979 128.517C134.757 128.908 134.448 129.217 134.05 129.445C133.653 129.667 133.203 129.777 132.701 129.777ZM132.701 129.162C133.073 129.162 133.402 129.08 133.689 128.917C133.975 128.748 134.2 128.513 134.363 128.214C134.532 127.907 134.617 127.555 134.617 127.158C134.617 126.754 134.532 126.402 134.363 126.102C134.2 125.803 133.975 125.571 133.689 125.409C133.402 125.239 133.076 125.154 132.711 125.154C132.346 125.154 132.02 125.239 131.734 125.409C131.447 125.571 131.219 125.803 131.05 126.102C130.88 126.402 130.795 126.754 130.795 127.158C130.795 127.555 130.88 127.907 131.05 128.214C131.219 128.513 131.447 128.748 131.734 128.917C132.02 129.08 132.343 129.162 132.701 129.162ZM141.426 129.777C140.918 129.777 140.462 129.667 140.058 129.445C139.66 129.217 139.348 128.908 139.12 128.517C138.891 128.119 138.777 127.666 138.777 127.158C138.777 126.643 138.891 126.19 139.12 125.799C139.348 125.409 139.66 125.102 140.058 124.881C140.462 124.659 140.918 124.548 141.426 124.548C141.863 124.548 142.257 124.633 142.609 124.803C142.961 124.972 143.238 125.226 143.44 125.565L142.922 125.917C142.746 125.656 142.527 125.464 142.267 125.34C142.006 125.216 141.723 125.154 141.416 125.154C141.051 125.154 140.722 125.239 140.429 125.409C140.136 125.571 139.905 125.803 139.735 126.102C139.566 126.402 139.481 126.754 139.481 127.158C139.481 127.562 139.566 127.914 139.735 128.214C139.905 128.513 140.136 128.748 140.429 128.917C140.722 129.08 141.051 129.162 141.416 129.162C141.723 129.162 142.006 129.1 142.267 128.976C142.527 128.852 142.746 128.663 142.922 128.409L143.44 128.761C143.238 129.093 142.961 129.347 142.609 129.523C142.257 129.693 141.863 129.777 141.426 129.777ZM146.896 129.777C146.362 129.777 145.893 129.667 145.489 129.445C145.085 129.217 144.769 128.908 144.541 128.517C144.313 128.119 144.199 127.666 144.199 127.158C144.199 126.65 144.306 126.2 144.521 125.809C144.743 125.418 145.043 125.112 145.421 124.891C145.805 124.662 146.235 124.548 146.711 124.548C147.193 124.548 147.62 124.659 147.991 124.881C148.369 125.096 148.665 125.402 148.88 125.799C149.095 126.19 149.203 126.643 149.203 127.158C149.203 127.191 149.2 127.226 149.193 127.266C149.193 127.298 149.193 127.334 149.193 127.373H144.727V126.855H148.822L148.548 127.06C148.548 126.689 148.467 126.36 148.304 126.073C148.147 125.78 147.932 125.552 147.659 125.389C147.385 125.226 147.069 125.145 146.711 125.145C146.359 125.145 146.043 125.226 145.763 125.389C145.482 125.552 145.264 125.78 145.108 126.073C144.951 126.366 144.873 126.702 144.873 127.08V127.187C144.873 127.578 144.958 127.924 145.127 128.223C145.303 128.517 145.544 128.748 145.851 128.917C146.163 129.08 146.518 129.162 146.916 129.162C147.229 129.162 147.519 129.106 147.786 128.995C148.059 128.885 148.294 128.715 148.489 128.487L148.88 128.937C148.652 129.211 148.366 129.419 148.02 129.562C147.682 129.706 147.307 129.777 146.896 129.777ZM150.615 129.729V122.476H151.309V129.729H150.615ZM155.361 129.777C154.925 129.777 154.543 129.696 154.218 129.533C153.892 129.37 153.638 129.126 153.455 128.8C153.279 128.474 153.191 128.067 153.191 127.578V124.597H153.885V127.5C153.885 128.047 154.019 128.461 154.286 128.741C154.56 129.015 154.941 129.152 155.43 129.152C155.788 129.152 156.097 129.08 156.358 128.937C156.625 128.787 156.827 128.572 156.964 128.292C157.107 128.012 157.179 127.676 157.179 127.285V124.597H157.873V129.729H157.208V128.321L157.316 128.575C157.153 128.953 156.899 129.25 156.554 129.465C156.215 129.673 155.817 129.777 155.361 129.777ZM159.875 125.614C159.732 125.614 159.608 125.562 159.504 125.457C159.406 125.353 159.357 125.226 159.357 125.076C159.357 124.92 159.406 124.793 159.504 124.695C159.608 124.597 159.732 124.548 159.875 124.548C160.019 124.548 160.139 124.597 160.237 124.695C160.341 124.793 160.393 124.92 160.393 125.076C160.393 125.226 160.341 125.353 160.237 125.457C160.139 125.562 160.019 125.614 159.875 125.614ZM159.875 129.777C159.732 129.777 159.608 129.725 159.504 129.621C159.406 129.517 159.357 129.39 159.357 129.24C159.357 129.083 159.406 128.956 159.504 128.859C159.608 128.761 159.732 128.712 159.875 128.712C160.019 128.712 160.139 128.761 160.237 128.859C160.341 128.956 160.393 129.083 160.393 129.24C160.393 129.39 160.341 129.517 160.237 129.621C160.139 129.725 160.019 129.777 159.875 129.777ZM163.85 129.729V129.23L166.694 126.445C166.955 126.19 167.15 125.969 167.28 125.78C167.411 125.584 167.499 125.402 167.544 125.233C167.59 125.063 167.613 124.904 167.613 124.754C167.613 124.356 167.476 124.043 167.202 123.815C166.935 123.587 166.537 123.473 166.01 123.473C165.606 123.473 165.247 123.535 164.935 123.659C164.628 123.783 164.364 123.975 164.143 124.236L163.644 123.806C163.912 123.493 164.254 123.252 164.671 123.082C165.088 122.913 165.554 122.828 166.068 122.828C166.531 122.828 166.932 122.903 167.271 123.053C167.609 123.196 167.87 123.408 168.052 123.688C168.241 123.969 168.336 124.298 168.336 124.675C168.336 124.897 168.303 125.115 168.238 125.33C168.179 125.545 168.069 125.773 167.906 126.014C167.749 126.249 167.518 126.516 167.212 126.816L164.602 129.377L164.407 129.103H168.649V129.729H163.85ZM170.538 128.399L170.558 127.51L173.754 124.597H174.604L172.347 126.757L171.956 127.09L170.538 128.399ZM169.991 129.729V122.476H170.685V129.729H169.991ZM173.969 129.729L171.829 127.06L172.278 126.523L174.819 129.729H173.969ZM182.196 124.548C182.613 124.548 182.975 124.63 183.281 124.793C183.594 124.949 183.835 125.19 184.004 125.516C184.18 125.842 184.268 126.252 184.268 126.748V129.729H183.574V126.816C183.574 126.275 183.444 125.868 183.184 125.594C182.929 125.314 182.568 125.174 182.099 125.174C181.747 125.174 181.441 125.249 181.18 125.399C180.926 125.542 180.727 125.754 180.584 126.034C180.447 126.308 180.378 126.64 180.378 127.031V129.729H179.684V126.816C179.684 126.275 179.554 125.868 179.294 125.594C179.033 125.314 178.668 125.174 178.199 125.174C177.854 125.174 177.551 125.249 177.29 125.399C177.029 125.542 176.827 125.754 176.684 126.034C176.547 126.308 176.479 126.64 176.479 127.031V129.729H175.785V124.597H176.449V125.985L176.342 125.741C176.498 125.369 176.749 125.079 177.094 124.871C177.446 124.656 177.86 124.548 178.336 124.548C178.837 124.548 179.264 124.675 179.616 124.93C179.968 125.177 180.196 125.552 180.3 126.054L180.027 125.946C180.176 125.529 180.44 125.193 180.818 124.939C181.203 124.679 181.662 124.548 182.196 124.548Z" fill="#00FBFF"/>
<path id="Czas: 15 min" d="M125.653 142.982C125.138 142.982 124.662 142.897 124.226 142.728C123.789 142.552 123.411 142.307 123.092 141.995C122.773 141.682 122.522 141.314 122.34 140.89C122.164 140.467 122.076 140.004 122.076 139.502C122.076 139.001 122.164 138.538 122.34 138.114C122.522 137.691 122.773 137.323 123.092 137.01C123.418 136.697 123.799 136.456 124.236 136.287C124.672 136.111 125.148 136.023 125.663 136.023C126.158 136.023 126.624 136.108 127.06 136.277C127.497 136.44 127.865 136.687 128.165 137.02L127.705 137.479C127.425 137.192 127.116 136.987 126.777 136.863C126.438 136.733 126.073 136.668 125.682 136.668C125.272 136.668 124.89 136.74 124.539 136.883C124.187 137.02 123.881 137.218 123.62 137.479C123.359 137.733 123.154 138.033 123.004 138.378C122.861 138.717 122.789 139.092 122.789 139.502C122.789 139.913 122.861 140.291 123.004 140.636C123.154 140.975 123.359 141.275 123.62 141.535C123.881 141.789 124.187 141.988 124.539 142.131C124.89 142.268 125.272 142.337 125.682 142.337C126.073 142.337 126.438 142.272 126.777 142.141C127.116 142.011 127.425 141.802 127.705 141.516L128.165 141.975C127.865 142.307 127.497 142.558 127.06 142.728C126.624 142.897 126.155 142.982 125.653 142.982ZM128.831 142.923V142.464L132.252 138.134L132.398 138.369H128.89V137.792H132.946V138.241L129.535 142.581L129.359 142.346H133.014V142.923H128.831ZM137.596 142.923V141.789L137.566 141.604V139.708C137.566 139.271 137.442 138.935 137.195 138.701C136.954 138.466 136.592 138.349 136.11 138.349C135.778 138.349 135.462 138.404 135.162 138.515C134.862 138.626 134.608 138.773 134.399 138.955L134.087 138.437C134.347 138.215 134.66 138.046 135.025 137.929C135.39 137.805 135.774 137.743 136.178 137.743C136.843 137.743 137.354 137.909 137.713 138.241C138.078 138.567 138.26 139.066 138.26 139.737V142.923H137.596ZM135.826 142.972C135.442 142.972 135.106 142.91 134.82 142.786C134.54 142.656 134.325 142.48 134.175 142.258C134.025 142.03 133.95 141.77 133.95 141.477C133.95 141.209 134.012 140.968 134.136 140.753C134.266 140.532 134.474 140.356 134.761 140.226C135.054 140.089 135.445 140.02 135.934 140.02H137.703V140.538H135.954C135.458 140.538 135.113 140.626 134.917 140.802C134.729 140.978 134.634 141.196 134.634 141.457C134.634 141.75 134.748 141.985 134.976 142.161C135.204 142.337 135.523 142.425 135.934 142.425C136.325 142.425 136.66 142.337 136.941 142.161C137.227 141.978 137.436 141.718 137.566 141.379L137.723 141.858C137.592 142.197 137.364 142.467 137.038 142.669C136.719 142.871 136.315 142.972 135.826 142.972ZM141.523 142.972C141.099 142.972 140.699 142.913 140.321 142.796C139.943 142.672 139.646 142.519 139.431 142.337L139.744 141.789C139.953 141.946 140.22 142.083 140.546 142.2C140.871 142.311 141.214 142.366 141.572 142.366C142.061 142.366 142.412 142.291 142.627 142.141C142.842 141.985 142.95 141.78 142.95 141.525C142.95 141.336 142.888 141.19 142.764 141.086C142.647 140.975 142.491 140.893 142.295 140.841C142.1 140.783 141.881 140.734 141.64 140.695C141.399 140.656 141.158 140.61 140.917 140.558C140.682 140.506 140.467 140.431 140.272 140.333C140.077 140.229 139.917 140.089 139.793 139.913C139.676 139.737 139.617 139.502 139.617 139.209C139.617 138.929 139.695 138.678 139.852 138.456C140.008 138.235 140.236 138.062 140.536 137.938C140.842 137.808 141.214 137.743 141.65 137.743C141.982 137.743 142.315 137.789 142.647 137.88C142.979 137.965 143.253 138.079 143.468 138.222L143.165 138.779C142.937 138.623 142.693 138.512 142.432 138.447C142.171 138.375 141.911 138.339 141.65 138.339C141.187 138.339 140.845 138.421 140.624 138.584C140.409 138.74 140.301 138.942 140.301 139.19C140.301 139.385 140.36 139.538 140.477 139.649C140.601 139.76 140.761 139.848 140.956 139.913C141.158 139.971 141.376 140.02 141.611 140.059C141.852 140.098 142.09 140.147 142.324 140.206C142.566 140.258 142.784 140.333 142.979 140.431C143.181 140.522 143.341 140.656 143.458 140.832C143.582 141.001 143.644 141.226 143.644 141.506C143.644 141.806 143.559 142.066 143.39 142.288C143.227 142.503 142.986 142.672 142.667 142.796C142.354 142.913 141.973 142.972 141.523 142.972ZM144.986 138.808C144.842 138.808 144.719 138.756 144.614 138.652C144.517 138.548 144.468 138.421 144.468 138.271C144.468 138.114 144.517 137.987 144.614 137.89C144.719 137.792 144.842 137.743 144.986 137.743C145.129 137.743 145.25 137.792 145.347 137.89C145.452 137.987 145.504 138.114 145.504 138.271C145.504 138.421 145.452 138.548 145.347 138.652C145.25 138.756 145.129 138.808 144.986 138.808ZM144.986 142.972C144.842 142.972 144.719 142.92 144.614 142.816C144.517 142.711 144.468 142.584 144.468 142.434C144.468 142.278 144.517 142.151 144.614 142.053C144.719 141.955 144.842 141.907 144.986 141.907C145.129 141.907 145.25 141.955 145.347 142.053C145.452 142.151 145.504 142.278 145.504 142.434C145.504 142.584 145.452 142.711 145.347 142.816C145.25 142.92 145.129 142.972 144.986 142.972ZM150.279 142.923V136.375L150.592 136.707H148.667V136.081H150.983V142.923H150.279ZM154.779 142.982C154.29 142.982 153.824 142.904 153.381 142.747C152.938 142.584 152.586 142.369 152.325 142.102L152.667 141.545C152.882 141.773 153.176 141.962 153.547 142.112C153.925 142.262 154.332 142.337 154.769 142.337C155.349 142.337 155.789 142.21 156.088 141.955C156.395 141.695 156.548 141.356 156.548 140.939C156.548 140.646 156.476 140.395 156.333 140.186C156.196 139.971 155.961 139.805 155.629 139.688C155.297 139.571 154.841 139.512 154.261 139.512H152.804L153.156 136.081H156.9V136.707H153.44L153.801 136.365L153.498 139.238L153.137 138.887H154.417C155.108 138.887 155.661 138.971 156.079 139.141C156.496 139.31 156.795 139.548 156.978 139.854C157.167 140.154 157.261 140.506 157.261 140.91C157.261 141.294 157.17 141.646 156.987 141.965C156.805 142.278 156.531 142.526 156.166 142.708C155.802 142.891 155.339 142.982 154.779 142.982ZM167.583 137.743C168 137.743 168.362 137.824 168.668 137.987C168.981 138.144 169.222 138.385 169.392 138.711C169.568 139.036 169.655 139.447 169.655 139.942V142.923H168.962V140.011C168.962 139.47 168.831 139.062 168.571 138.789C168.316 138.509 167.955 138.369 167.486 138.369C167.134 138.369 166.828 138.443 166.567 138.593C166.313 138.737 166.114 138.948 165.971 139.229C165.834 139.502 165.766 139.835 165.766 140.226V142.923H165.072V140.011C165.072 139.47 164.941 139.062 164.681 138.789C164.42 138.509 164.055 138.369 163.586 138.369C163.241 138.369 162.938 138.443 162.677 138.593C162.416 138.737 162.214 138.948 162.071 139.229C161.934 139.502 161.866 139.835 161.866 140.226V142.923H161.172V137.792H161.836V139.18L161.729 138.935C161.885 138.564 162.136 138.274 162.482 138.066C162.833 137.851 163.247 137.743 163.723 137.743C164.225 137.743 164.651 137.87 165.003 138.124C165.355 138.372 165.583 138.746 165.687 139.248L165.414 139.141C165.564 138.724 165.827 138.388 166.205 138.134C166.59 137.873 167.049 137.743 167.583 137.743ZM171.537 142.923V137.792H172.231V142.923H171.537ZM171.889 136.658C171.746 136.658 171.625 136.609 171.528 136.512C171.43 136.414 171.381 136.296 171.381 136.16C171.381 136.023 171.43 135.909 171.528 135.818C171.625 135.72 171.746 135.671 171.889 135.671C172.033 135.671 172.153 135.717 172.251 135.808C172.349 135.899 172.397 136.013 172.397 136.15C172.397 136.293 172.349 136.414 172.251 136.512C172.16 136.609 172.039 136.658 171.889 136.658ZM176.782 137.743C177.199 137.743 177.563 137.824 177.876 137.987C178.195 138.144 178.443 138.385 178.619 138.711C178.801 139.036 178.893 139.447 178.893 139.942V142.923H178.199V140.011C178.199 139.47 178.062 139.062 177.788 138.789C177.521 138.509 177.143 138.369 176.654 138.369C176.29 138.369 175.97 138.443 175.697 138.593C175.43 138.737 175.221 138.948 175.071 139.229C174.928 139.502 174.856 139.835 174.856 140.226V142.923H174.162V137.792H174.827V139.199L174.719 138.935C174.882 138.564 175.143 138.274 175.501 138.066C175.86 137.851 176.286 137.743 176.782 137.743Z" fill="#00FBFF"/>
<path id="Za 50m" d="M95.6434 79.8823V79.3839L100.393 73.3926L100.472 73.6662H95.7118V73.0407H101.136V73.5392L96.396 79.5305L96.308 79.2568H101.254V79.8823H95.6434ZM105.753 79.8823V78.7486L105.724 78.5629V76.6668C105.724 76.2302 105.6 75.8946 105.352 75.6601C105.111 75.4255 104.75 75.3082 104.267 75.3082C103.935 75.3082 103.619 75.3636 103.319 75.4744C103.02 75.5851 102.766 75.7317 102.557 75.9142L102.244 75.3962C102.505 75.1746 102.818 75.0052 103.183 74.8879C103.547 74.7641 103.932 74.7022 104.336 74.7022C105.001 74.7022 105.512 74.8684 105.87 75.2007C106.235 75.5265 106.418 76.0249 106.418 76.6961V79.8823H105.753ZM103.984 79.9312C103.6 79.9312 103.264 79.8693 102.977 79.7455C102.697 79.6152 102.482 79.4392 102.332 79.2177C102.182 78.9897 102.107 78.729 102.107 78.4358C102.107 78.1687 102.169 77.9276 102.293 77.7126C102.423 77.491 102.632 77.3151 102.919 77.1848C103.212 77.0479 103.603 76.9795 104.092 76.9795H105.861V77.4975H104.111C103.616 77.4975 103.271 77.5855 103.075 77.7614C102.886 77.9373 102.792 78.1556 102.792 78.4163C102.792 78.7095 102.906 78.944 103.134 79.12C103.362 79.2959 103.681 79.3839 104.092 79.3839C104.482 79.3839 104.818 79.2959 105.098 79.12C105.385 78.9375 105.593 78.6769 105.724 78.3381L105.88 78.817C105.75 79.1558 105.522 79.4262 105.196 79.6282C104.877 79.8302 104.473 79.9312 103.984 79.9312ZM112.561 79.941C112.072 79.941 111.607 79.8628 111.163 79.7064C110.72 79.5435 110.369 79.3285 110.108 79.0613L110.45 78.5042C110.665 78.7323 110.958 78.9212 111.33 79.0711C111.708 79.221 112.115 79.2959 112.551 79.2959C113.131 79.2959 113.571 79.1688 113.871 78.9147C114.177 78.6541 114.33 78.3153 114.33 77.8983C114.33 77.605 114.258 77.3542 114.115 77.1457C113.978 76.9307 113.744 76.7645 113.411 76.6472C113.079 76.5299 112.623 76.4713 112.043 76.4713H110.587L110.939 73.0407H114.682V73.6662H111.222L111.584 73.3241L111.281 76.1976L110.919 75.8458H112.199C112.89 75.8458 113.444 75.9305 113.861 76.0999C114.278 76.2693 114.578 76.5071 114.76 76.8134C114.949 77.1131 115.044 77.4649 115.044 77.8689C115.044 78.2534 114.952 78.6052 114.77 78.9245C114.588 79.2373 114.314 79.4849 113.949 79.6673C113.584 79.8497 113.121 79.941 112.561 79.941ZM118.664 79.941C118.136 79.941 117.667 79.8041 117.256 79.5305C116.846 79.2503 116.523 78.8528 116.289 78.3381C116.054 77.8168 115.937 77.1913 115.937 76.4615C115.937 75.7317 116.054 75.1095 116.289 74.5947C116.523 74.0735 116.846 73.676 117.256 73.4023C117.667 73.1221 118.136 72.9821 118.664 72.9821C119.192 72.9821 119.661 73.1221 120.071 73.4023C120.482 73.676 120.804 74.0735 121.039 74.5947C121.28 75.1095 121.401 75.7317 121.401 76.4615C121.401 77.1913 121.28 77.8168 121.039 78.3381C120.804 78.8528 120.482 79.2503 120.071 79.5305C119.661 79.8041 119.192 79.941 118.664 79.941ZM118.664 79.2959C119.068 79.2959 119.42 79.1884 119.719 78.9734C120.019 78.7518 120.254 78.4326 120.423 78.0155C120.593 77.592 120.677 77.074 120.677 76.4615C120.677 75.849 120.593 75.3343 120.423 74.9173C120.254 74.4937 120.019 74.1745 119.719 73.9594C119.42 73.7379 119.068 73.6271 118.664 73.6271C118.273 73.6271 117.924 73.7379 117.618 73.9594C117.312 74.1745 117.074 74.4937 116.905 74.9173C116.735 75.3343 116.651 75.849 116.651 76.4615C116.651 77.074 116.735 77.592 116.905 78.0155C117.074 78.4326 117.312 78.7518 117.618 78.9734C117.924 79.1884 118.273 79.2959 118.664 79.2959ZM129.279 74.7022C129.696 74.7022 130.058 74.7837 130.364 74.9466C130.677 75.103 130.918 75.344 131.087 75.6698C131.263 75.9956 131.351 76.4061 131.351 76.9013V79.8823H130.657V76.9697C130.657 76.4289 130.527 76.0217 130.266 75.748C130.012 75.4678 129.651 75.3278 129.182 75.3278C128.83 75.3278 128.523 75.4027 128.263 75.5526C128.009 75.6959 127.81 75.9077 127.667 76.1878C127.53 76.4615 127.461 76.7938 127.461 77.1848V79.8823H126.767V76.9697C126.767 76.4289 126.637 76.0217 126.376 75.748C126.116 75.4678 125.751 75.3278 125.282 75.3278C124.936 75.3278 124.633 75.4027 124.373 75.5526C124.112 75.6959 123.91 75.9077 123.767 76.1878C123.63 76.4615 123.562 76.7938 123.562 77.1848V79.8823H122.868V74.7511H123.532V76.139L123.425 75.8946C123.581 75.5232 123.832 75.2333 124.177 75.0248C124.529 74.8097 124.943 74.7022 125.419 74.7022C125.92 74.7022 126.347 74.8293 126.699 75.0834C127.051 75.331 127.279 75.7057 127.383 76.2074L127.11 76.0999C127.259 75.6829 127.523 75.3473 127.901 75.0932C128.286 74.8326 128.745 74.7022 129.279 74.7022Z" fill="#00FBFF"/>
<path id="Skr&#196;&#153;&#196;&#135; w prawo" d="M81.1163 89.2261C80.608 89.2261 80.1193 89.1446 79.6502 88.9817C79.1876 88.8123 78.8292 88.5973 78.5751 88.3367L78.8585 87.7795C79.0996 88.0141 79.4221 88.2128 79.8261 88.3757C80.2366 88.5321 80.6667 88.6103 81.1163 88.6103C81.5463 88.6103 81.8949 88.5582 82.1621 88.4539C82.4357 88.3432 82.6345 88.1966 82.7583 88.0141C82.8886 87.8317 82.9537 87.6297 82.9537 87.4081C82.9537 87.141 82.8755 86.926 82.7192 86.7631C82.5693 86.6002 82.3706 86.4731 82.123 86.3819C81.8754 86.2842 81.6017 86.1995 81.302 86.1278C81.0022 86.0561 80.7025 85.9812 80.4028 85.903C80.1031 85.8183 79.8261 85.7075 79.572 85.5707C79.3244 85.4338 79.1224 85.2547 78.966 85.0331C78.8162 84.8051 78.7412 84.5086 78.7412 84.1437C78.7412 83.8049 78.8292 83.4954 79.0051 83.2152C79.1876 82.9285 79.4645 82.7005 79.8359 82.531C80.2073 82.3551 80.683 82.2671 81.2629 82.2671C81.6473 82.2671 82.0285 82.3225 82.4064 82.4333C82.7843 82.5376 83.1101 82.6842 83.3838 82.8731L83.1394 83.4498C82.8462 83.2543 82.5335 83.1109 82.2012 83.0197C81.8754 82.9285 81.5593 82.8829 81.2531 82.8829C80.8426 82.8829 80.5038 82.9383 80.2366 83.049C79.9695 83.1598 79.7707 83.3097 79.6404 83.4986C79.5166 83.6811 79.4547 83.8896 79.4547 84.1242C79.4547 84.3913 79.5297 84.6063 79.6795 84.7692C79.8359 84.9321 80.0379 85.0592 80.2855 85.1504C80.5396 85.2416 80.8165 85.3231 81.1163 85.3947C81.416 85.4664 81.7125 85.5446 82.0057 85.6293C82.3054 85.714 82.5791 85.8248 82.8267 85.9616C83.0808 86.0919 83.2828 86.2679 83.4326 86.4894C83.589 86.7109 83.6672 87.0009 83.6672 87.3593C83.6672 87.6916 83.576 88.0011 83.3936 88.2878C83.2111 88.568 82.9309 88.796 82.553 88.9719C82.1816 89.1414 81.7027 89.2261 81.1163 89.2261ZM85.6438 87.8382L85.6634 86.9488L88.8594 84.0362H89.7097L87.4519 86.1962L87.061 86.5285L85.6438 87.8382ZM85.0965 89.1674V81.9153H85.7904V89.1674H85.0965ZM89.0744 89.1674L86.9339 86.4992L87.3835 85.9616L89.9247 89.1674H89.0744ZM90.8901 89.1674V84.0362H91.5547V85.4338L91.4863 85.1895C91.6296 84.7986 91.8707 84.5021 92.2096 84.3001C92.5484 84.0916 92.9686 83.9873 93.4704 83.9873V84.6617C93.4443 84.6617 93.4182 84.6617 93.3922 84.6617C93.3661 84.6552 93.3401 84.6519 93.314 84.6519C92.7732 84.6519 92.3496 84.8181 92.0434 85.1504C91.7372 85.4762 91.584 85.9421 91.584 86.5481V89.1674H90.8901ZM97.924 91.3176C97.6047 91.3176 97.3441 91.2297 97.1421 91.0538C96.9466 90.8843 96.8489 90.653 96.8489 90.3598C96.8489 90.1513 96.9075 89.92 97.0248 89.6659C97.1486 89.4183 97.3669 89.1707 97.6797 88.9231L97.9044 89.0306C97.7481 89.0892 97.5819 89.1348 97.406 89.1674C97.2366 89.2 97.0574 89.2163 96.8684 89.2163C96.3341 89.2163 95.865 89.1055 95.461 88.884C95.057 88.6559 94.741 88.3464 94.513 87.9555C94.2849 87.558 94.1709 87.1052 94.1709 86.5969C94.1709 86.0887 94.2784 85.6391 94.4934 85.2481C94.7149 84.8572 95.0147 84.5509 95.3926 84.3294C95.777 84.1014 96.2071 83.9873 96.6827 83.9873C97.1649 83.9873 97.5917 84.0981 97.9631 84.3196C98.341 84.5347 98.6375 84.8409 98.8525 85.2384C99.0675 85.6293 99.175 86.0822 99.175 86.5969C99.175 86.6295 99.1718 86.6653 99.1653 86.7044C99.1653 86.737 99.1653 86.7728 99.1653 86.8119H94.6987V86.2939H98.7939L98.5202 86.4992C98.5202 86.1278 98.4387 85.7987 98.2758 85.512C98.1195 85.2188 97.9044 84.9908 97.6308 84.8279C97.3571 84.665 97.0411 84.5835 96.6827 84.5835C96.3309 84.5835 96.0149 84.665 95.7347 84.8279C95.4545 84.9908 95.2362 85.2188 95.0798 85.512C94.9235 85.8052 94.8453 86.1408 94.8453 86.5187V86.6262C94.8453 87.0172 94.93 87.3625 95.0994 87.6623C95.2753 87.9555 95.5164 88.1868 95.8226 88.3562C96.1354 88.5191 96.4905 88.6005 96.888 88.6005C97.2007 88.6005 97.4907 88.5452 97.7578 88.4344C98.0315 88.3236 98.2661 88.1542 98.4616 87.9262L98.8525 88.3757C98.8004 88.4409 98.7417 88.4995 98.6766 88.5517C98.6179 88.6038 98.5528 88.6624 98.4811 88.7276C98.1749 88.9882 97.9403 89.213 97.7774 89.402C97.621 89.5975 97.5102 89.7669 97.4451 89.9102C97.3864 90.0536 97.3571 90.1904 97.3571 90.3207C97.3571 90.5162 97.4158 90.6595 97.533 90.7508C97.6568 90.842 97.8132 90.8876 98.0022 90.8876C98.1064 90.8876 98.2107 90.8713 98.3149 90.8387C98.4257 90.8062 98.5202 90.7605 98.5984 90.7019L98.7548 91.0831C98.6375 91.1547 98.5072 91.2101 98.3638 91.2492C98.227 91.2948 98.0804 91.3176 97.924 91.3176ZM102.718 89.2163C102.21 89.2163 101.754 89.1055 101.35 88.884C100.952 88.6559 100.64 88.3464 100.412 87.9555C100.184 87.558 100.069 87.1052 100.069 86.5969C100.069 86.0822 100.184 85.6293 100.412 85.2384C100.64 84.8474 100.952 84.5412 101.35 84.3196C101.754 84.0981 102.21 83.9873 102.718 83.9873C103.155 83.9873 103.549 84.072 103.901 84.2414C104.253 84.4109 104.53 84.665 104.732 85.0038L104.214 85.3557C104.038 85.095 103.819 84.9028 103.559 84.779C103.298 84.6552 103.015 84.5933 102.708 84.5933C102.344 84.5933 102.014 84.678 101.721 84.8474C101.428 85.0103 101.197 85.2416 101.027 85.5414C100.858 85.8411 100.773 86.1929 100.773 86.5969C100.773 87.0009 100.858 87.3528 101.027 87.6525C101.197 87.9522 101.428 88.1868 101.721 88.3562C102.014 88.5191 102.344 88.6005 102.708 88.6005C103.015 88.6005 103.298 88.5386 103.559 88.4148C103.819 88.291 104.038 88.1021 104.214 87.848L104.732 88.1998C104.53 88.5321 104.253 88.7862 103.901 88.9622C103.549 89.1316 103.155 89.2163 102.718 89.2163ZM101.907 83.2347L103.246 82.0228H104.174L102.591 83.2347H101.907ZM109.699 89.1674L107.763 84.0362H108.428L110.187 88.796H109.884L111.692 84.0362H112.289L114.077 88.796H113.774L115.563 84.0362H116.198L114.253 89.1674H113.598L111.878 84.691H112.083L110.353 89.1674H109.699ZM122.45 89.2163C122.007 89.2163 121.606 89.1153 121.247 88.9133C120.889 88.7048 120.602 88.4083 120.387 88.0239C120.179 87.6329 120.075 87.1573 120.075 86.5969C120.075 86.0366 120.179 85.5642 120.387 85.1797C120.596 84.7888 120.879 84.4923 121.238 84.2903C121.596 84.0883 122 83.9873 122.45 83.9873C122.938 83.9873 123.375 84.0981 123.759 84.3196C124.15 84.5347 124.457 84.8409 124.678 85.2384C124.9 85.6293 125.01 86.0822 125.01 86.5969C125.01 87.1182 124.9 87.5743 124.678 87.9652C124.457 88.3562 124.15 88.6624 123.759 88.884C123.375 89.1055 122.938 89.2163 122.45 89.2163ZM119.801 91.0635V84.0362H120.466V85.5805L120.397 86.6067L120.495 87.6427V91.0635H119.801ZM122.401 88.6005C122.766 88.6005 123.091 88.5191 123.378 88.3562C123.665 88.1868 123.893 87.9522 124.062 87.6525C124.232 87.3462 124.316 86.9944 124.316 86.5969C124.316 86.1995 124.232 85.8509 124.062 85.5511C123.893 85.2514 123.665 85.0168 123.378 84.8474C123.091 84.678 122.766 84.5933 122.401 84.5933C122.036 84.5933 121.707 84.678 121.414 84.8474C121.127 85.0168 120.899 85.2514 120.729 85.5511C120.567 85.8509 120.485 86.1995 120.485 86.5969C120.485 86.9944 120.567 87.3462 120.729 87.6525C120.899 87.9522 121.127 88.1868 121.414 88.3562C121.707 88.5191 122.036 88.6005 122.401 88.6005ZM126.425 89.1674V84.0362H127.09V85.4338L127.021 85.1895C127.164 84.7986 127.406 84.5021 127.744 84.3001C128.083 84.0916 128.504 83.9873 129.005 83.9873V84.6617C128.979 84.6617 128.953 84.6617 128.927 84.6617C128.901 84.6552 128.875 84.6519 128.849 84.6519C128.308 84.6519 127.884 84.8181 127.578 85.1504C127.272 85.4762 127.119 85.9421 127.119 86.5481V89.1674H126.425ZM133.105 89.1674V88.0337L133.076 87.848V85.9519C133.076 85.5153 132.952 85.1797 132.705 84.9452C132.463 84.7106 132.102 84.5933 131.62 84.5933C131.287 84.5933 130.971 84.6487 130.672 84.7595C130.372 84.8702 130.118 85.0168 129.909 85.1993L129.596 84.6813C129.857 84.4597 130.17 84.2903 130.535 84.173C130.9 84.0492 131.284 83.9873 131.688 83.9873C132.353 83.9873 132.864 84.1535 133.223 84.4858C133.587 84.8116 133.77 85.31 133.77 85.9812V89.1674H133.105ZM131.336 89.2163C130.952 89.2163 130.616 89.1544 130.329 89.0306C130.049 88.9003 129.834 88.7243 129.684 88.5028C129.535 88.2747 129.46 88.0141 129.46 87.7209C129.46 87.4538 129.522 87.2127 129.645 86.9976C129.776 86.7761 129.984 86.6002 130.271 86.4699C130.564 86.333 130.955 86.2646 131.444 86.2646H133.213V86.7826H131.463C130.968 86.7826 130.623 86.8706 130.427 87.0465C130.238 87.2224 130.144 87.4407 130.144 87.7014C130.144 87.9946 130.258 88.2291 130.486 88.4051C130.714 88.581 131.033 88.669 131.444 88.669C131.835 88.669 132.17 88.581 132.45 88.4051C132.737 88.2226 132.946 87.962 133.076 87.6232L133.232 88.1021C133.102 88.4409 132.874 88.7113 132.548 88.9133C132.229 89.1153 131.825 89.2163 131.336 89.2163ZM136.605 89.1674L134.67 84.0362H135.334L137.094 88.796H136.791L138.599 84.0362H139.195L140.984 88.796H140.681L142.469 84.0362H143.105L141.16 89.1674H140.505L138.785 84.691H138.99L137.26 89.1674H136.605ZM146.098 89.2163C145.603 89.2163 145.156 89.1055 144.759 88.884C144.368 88.6559 144.058 88.3464 143.83 87.9555C143.602 87.558 143.488 87.1052 143.488 86.5969C143.488 86.0822 143.602 85.6293 143.83 85.2384C144.058 84.8474 144.368 84.5412 144.759 84.3196C145.15 84.0981 145.596 83.9873 146.098 83.9873C146.606 83.9873 147.056 84.0981 147.447 84.3196C147.844 84.5412 148.154 84.8474 148.375 85.2384C148.603 85.6293 148.717 86.0822 148.717 86.5969C148.717 87.1052 148.603 87.558 148.375 87.9555C148.154 88.3464 147.844 88.6559 147.447 88.884C147.049 89.1055 146.6 89.2163 146.098 89.2163ZM146.098 88.6005C146.469 88.6005 146.798 88.5191 147.085 88.3562C147.372 88.1868 147.596 87.9522 147.759 87.6525C147.929 87.3462 148.013 86.9944 148.013 86.5969C148.013 86.1929 147.929 85.8411 147.759 85.5414C147.596 85.2416 147.372 85.0103 147.085 84.8474C146.798 84.678 146.473 84.5933 146.108 84.5933C145.743 84.5933 145.417 84.678 145.13 84.8474C144.844 85.0103 144.615 85.2416 144.446 85.5414C144.277 85.8411 144.192 86.1929 144.192 86.5969C144.192 86.9944 144.277 87.3462 144.446 87.6525C144.615 87.9522 144.844 88.1868 145.13 88.3562C145.417 88.5191 145.739 88.6005 146.098 88.6005Z" fill="#00FBFF"/>
</g>
<defs>
<filter id="filter0_d_393_3491" x="-1.95475" y="0" width="228.492" height="219.91" filterUnits="userSpaceOnUse" color-interpolation-filters="sRGB">
<feFlood flood-opacity="0" result="BackgroundImageFix"/>
<feColorMatrix in="SourceAlpha" type="matrix" values="0 0 0 0 0 0 0 0 0 0 0 0 0 0 0 0 0 0 127 0" result="hardAlpha"/>
<feOffset dy="1.95475"/>
<feGaussianBlur stdDeviation="0.977376"/>
<feComposite in2="hardAlpha" operator="out"/>
<feColorMatrix type="matrix" values="0 0 0 0 0 0 0 0 0 0 0 0 0 0 0 0 0 0 0.25 0"/>
<feBlend mode="normal" in2="BackgroundImageFix" result="effect1_dropShadow_393_3491"/>
<feBlend mode="normal" in="SourceGraphic" in2="effect1_dropShadow_393_3491" result="shape"/>
</filter>
<filter id="filter1_d_393_3491" x="23.4329" y="21.5023" width="33.7254" height="34.2081" filterUnits="userSpaceOnUse" color-interpolation-filters="sRGB">
<feFlood flood-opacity="0" result="BackgroundImageFix"/>
<feColorMatrix in="SourceAlpha" type="matrix" values="0 0 0 0 0 0 0 0 0 0 0 0 0 0 0 0 0 0 127 0" result="hardAlpha"/>
<feOffset dy="1.95475"/>
<feGaussianBlur stdDeviation="0.977376"/>
<feComposite in2="hardAlpha" operator="out"/>
<feColorMatrix type="matrix" values="0 0 0 0 0 0 0 0 0 0 0 0 0 0 0 0 0 0 0.25 0"/>
<feBlend mode="normal" in2="BackgroundImageFix" result="effect1_dropShadow_393_3491"/>
<feBlend mode="normal" in="SourceGraphic" in2="effect1_dropShadow_393_3491" result="shape"/>
</filter>
<filter id="filter2_d_393_3491" x="23.533" y="67.4389" width="177.516" height="126.57" filterUnits="userSpaceOnUse" color-interpolation-filters="sRGB">
<feFlood flood-opacity="0" result="BackgroundImageFix"/>
<feColorMatrix in="SourceAlpha" type="matrix" values="0 0 0 0 0 0 0 0 0 0 0 0 0 0 0 0 0 0 127 0" result="hardAlpha"/>
<feOffset dy="1.95475"/>
<feGaussianBlur stdDeviation="0.977376"/>
<feComposite in2="hardAlpha" operator="out"/>
<feColorMatrix type="matrix" values="0 0 0 0 0 0 0 0 0 0 0 0 0 0 0 0 0 0 0.25 0"/>
<feBlend mode="normal" in2="BackgroundImageFix" result="effect1_dropShadow_393_3491"/>
<feBlend mode="normal" in="SourceGraphic" in2="effect1_dropShadow_393_3491" result="shape"/>
</filter>
<filter id="filter3_d_393_3491" x="32.221" y="25.9005" width="17.0916" height="23.8235" filterUnits="userSpaceOnUse" color-interpolation-filters="sRGB">
<feFlood flood-opacity="0" result="BackgroundImageFix"/>
<feColorMatrix in="SourceAlpha" type="matrix" values="0 0 0 0 0 0 0 0 0 0 0 0 0 0 0 0 0 0 127 0" result="hardAlpha"/>
<feOffset dy="1.95475"/>
<feGaussianBlur stdDeviation="0.977376"/>
<feComposite in2="hardAlpha" operator="out"/>
<feColorMatrix type="matrix" values="0 0 0 0 0 0 0 0 0 0 0 0 0 0 0 0 0 0 0.25 0"/>
<feBlend mode="normal" in2="BackgroundImageFix" result="effect1_dropShadow_393_3491"/>
<feBlend mode="normal" in="SourceGraphic" in2="effect1_dropShadow_393_3491" result="shape"/>
</filter>
</defs>
</svg>
