<svg width="390" height="100" viewBox="0 0 390 100" fill="none" xmlns="http://www.w3.org/2000/svg">
<g id="G&#195;&#179;ra">
<path id="Rectangle 62" d="M0 9H390V59H0V9Z" fill="black" fill-opacity="0.6"/>
<g id="layer1">
<path id="path1496" d="M178.131 19.0559C191.484 34.5375 159.213 46.6616 195.194 32.2992C231.174 17.9367 178.131 19.0559 178.131 19.0559Z" fill="#F2EEEB"/>
<path id="path1498" d="M194.883 28.8952C206.011 49.786 218.994 34.6774 218.994 34.6774L182.643 39.9001L207.681 24.4185L206.197 49.9725L194.883 28.8952Z" fill="#F2EEEB"/>
<path id="path115" d="M192.701 31.7741C203.829 52.6649 216.811 37.5564 216.811 37.5564L180.46 42.7791L205.498 27.2975L204.014 52.8515L192.701 31.7741Z" fill="#212D33"/>
<g id="g3447">
<g id="g3445">
<path id="path113" d="M176.009 21.7018C189.362 37.1834 157.091 49.3075 193.071 34.9451C229.052 20.5826 176.009 21.7018 176.009 21.7018Z" fill="#212D33"/>
</g>
</g>
<g id="a3442">
<path id="path3390" d="M177.036 22.0986C177.036 22.0986 180.902 25.1027 181.2 29.8626C181.497 34.6225 175.999 40.108 176.035 40.4944C176.2 42.2367 193.467 31.878 177.036 22.0986V22.0986Z" fill="#F2EEEB"/>
</g>
<path id="path1656" d="M199.691 30.1961C200.65 30.1961 201.428 29.4137 201.428 28.4485C201.428 27.4833 200.65 26.7009 199.691 26.7009C198.731 26.7009 197.953 27.4833 197.953 28.4485C197.953 29.4137 198.731 30.1961 199.691 30.1961Z" fill="#F2EEEB"/>
<path id="circle1662" d="M200.248 27.6799C199.83 27.2003 199.106 27.152 198.629 27.5719C198.152 27.9918 198.104 28.7209 198.521 29.2004C198.939 29.6799 199.664 29.7283 200.141 29.3084C200.617 28.8885 200.666 28.1594 200.248 27.6799Z" fill="#212D33"/>
<path id="circle3267" d="M199.83 27.9987C199.581 27.7129 199.149 27.6841 198.865 27.9344C198.581 28.1846 198.552 28.6191 198.801 28.9049C199.05 29.1906 199.482 29.2194 199.766 28.9692C200.05 28.719 200.079 28.2845 199.83 27.9987Z" fill="white"/>
</g>
<g id="Frame 13">
<path id="Sglasses" d="M28.912 39.096C28.08 39.096 27.28 38.9627 26.512 38.696C25.7547 38.4187 25.168 38.0667 24.752 37.64L25.216 36.728C25.6107 37.112 26.1387 37.4373 26.8 37.704C27.472 37.96 28.176 38.088 28.912 38.088C29.616 38.088 30.1867 38.0027 30.624 37.832C31.072 37.6507 31.3973 37.4107 31.6 37.112C31.8133 36.8133 31.92 36.4827 31.92 36.12C31.92 35.6827 31.792 35.3307 31.536 35.064C31.2907 34.7973 30.9653 34.5893 30.56 34.44C30.1547 34.28 29.7067 34.1413 29.216 34.024C28.7253 33.9067 28.2347 33.784 27.744 33.656C27.2533 33.5173 26.8 33.336 26.384 33.112C25.9787 32.888 25.648 32.5947 25.392 32.232C25.1467 31.8587 25.024 31.3733 25.024 30.776C25.024 30.2213 25.168 29.7147 25.456 29.256C25.7547 28.7867 26.208 28.4133 26.816 28.136C27.424 27.848 28.2027 27.704 29.152 27.704C29.7813 27.704 30.4053 27.7947 31.024 27.976C31.6427 28.1467 32.176 28.3867 32.624 28.696L32.224 29.64C31.744 29.32 31.232 29.0853 30.688 28.936C30.1547 28.7867 29.6373 28.712 29.136 28.712C28.464 28.712 27.9093 28.8027 27.472 28.984C27.0347 29.1653 26.7093 29.4107 26.496 29.72C26.2933 30.0187 26.192 30.36 26.192 30.744C26.192 31.1813 26.3147 31.5333 26.56 31.8C26.816 32.0667 27.1467 32.2747 27.552 32.424C27.968 32.5733 28.4213 32.7067 28.912 32.824C29.4027 32.9413 29.888 33.0693 30.368 33.208C30.8587 33.3467 31.3067 33.528 31.712 33.752C32.128 33.9653 32.4587 34.2533 32.704 34.616C32.96 34.9787 33.088 35.4533 33.088 36.04C33.088 36.584 32.9387 37.0907 32.64 37.56C32.3413 38.0187 31.8827 38.392 31.264 38.68C30.656 38.9573 29.872 39.096 28.912 39.096ZM39.0118 42.184C38.2438 42.184 37.5078 42.072 36.8038 41.848C36.0998 41.624 35.5291 41.304 35.0918 40.888L35.6678 40.024C36.0624 40.376 36.5478 40.6533 37.1238 40.856C37.7104 41.0693 38.3291 41.176 38.9798 41.176C40.0464 41.176 40.8304 40.9253 41.3318 40.424C41.8331 39.9333 42.0838 39.1653 42.0838 38.12V36.024L42.2438 34.584L42.1318 33.144V30.6H43.2198V37.976C43.2198 39.4267 42.8624 40.488 42.1478 41.16C41.4438 41.8427 40.3984 42.184 39.0118 42.184ZM38.8038 38.68C38.0038 38.68 37.2838 38.5093 36.6438 38.168C36.0038 37.816 35.4971 37.3307 35.1238 36.712C34.7611 36.0933 34.5798 35.384 34.5798 34.584C34.5798 33.784 34.7611 33.08 35.1238 32.472C35.4971 31.8533 36.0038 31.3733 36.6438 31.032C37.2838 30.6907 38.0038 30.52 38.8038 30.52C39.5504 30.52 40.2224 30.6747 40.8198 30.984C41.4171 31.2933 41.8918 31.752 42.2438 32.36C42.5958 32.968 42.7718 33.7093 42.7718 34.584C42.7718 35.4587 42.5958 36.2 42.2438 36.808C41.8918 37.416 41.4171 37.88 40.8198 38.2C40.2224 38.52 39.5504 38.68 38.8038 38.68ZM38.9158 37.672C39.5344 37.672 40.0838 37.544 40.5638 37.288C41.0438 37.0213 41.4224 36.6587 41.6998 36.2C41.9771 35.7307 42.1158 35.192 42.1158 34.584C42.1158 33.976 41.9771 33.4427 41.6998 32.984C41.4224 32.5253 41.0438 32.168 40.5638 31.912C40.0838 31.6453 39.5344 31.512 38.9158 31.512C38.3078 31.512 37.7584 31.6453 37.2678 31.912C36.7878 32.168 36.4091 32.5253 36.1318 32.984C35.8651 33.4427 35.7318 33.976 35.7318 34.584C35.7318 35.192 35.8651 35.7307 36.1318 36.2C36.4091 36.6587 36.7878 37.0213 37.2678 37.288C37.7584 37.544 38.3078 37.672 38.9158 37.672ZM46.3809 39V27.128H47.5169V39H46.3809ZM55.9418 39V37.144L55.8938 36.84V33.736C55.8938 33.0213 55.6911 32.472 55.2858 32.088C54.8911 31.704 54.2991 31.512 53.5098 31.512C52.9658 31.512 52.4484 31.6027 51.9578 31.784C51.4671 31.9653 51.0511 32.2053 50.7098 32.504L50.1978 31.656C50.6244 31.2933 51.1364 31.016 51.7338 30.824C52.3311 30.6213 52.9604 30.52 53.6218 30.52C54.7098 30.52 55.5471 30.792 56.1338 31.336C56.7311 31.8693 57.0298 32.6853 57.0298 33.784V39H55.9418ZM53.0458 39.08C52.4164 39.08 51.8671 38.9787 51.3978 38.776C50.9391 38.5627 50.5871 38.2747 50.3418 37.912C50.0964 37.5387 49.9738 37.112 49.9738 36.632C49.9738 36.1947 50.0751 35.8 50.2778 35.448C50.4911 35.0853 50.8324 34.7973 51.3018 34.584C51.7818 34.36 52.4218 34.248 53.2218 34.248H56.1178V35.096H53.2538C52.4431 35.096 51.8778 35.24 51.5578 35.528C51.2484 35.816 51.0938 36.1733 51.0938 36.6C51.0938 37.08 51.2804 37.464 51.6538 37.752C52.0271 38.04 52.5498 38.184 53.2218 38.184C53.8618 38.184 54.4111 38.04 54.8698 37.752C55.3391 37.4533 55.6804 37.0267 55.8938 36.472L56.1498 37.256C55.9364 37.8107 55.5631 38.2533 55.0298 38.584C54.5071 38.9147 53.8458 39.08 53.0458 39.08ZM62.3713 39.08C61.6779 39.08 61.0219 38.984 60.4033 38.792C59.7846 38.5893 59.2993 38.3387 58.9473 38.04L59.4593 37.144C59.8006 37.4 60.2379 37.624 60.7713 37.816C61.3046 37.9973 61.8646 38.088 62.4513 38.088C63.2513 38.088 63.8273 37.9653 64.1793 37.72C64.5313 37.464 64.7073 37.128 64.7073 36.712C64.7073 36.4027 64.6059 36.1627 64.4033 35.992C64.2113 35.8107 63.9553 35.6773 63.6353 35.592C63.3153 35.496 62.9579 35.416 62.5633 35.352C62.1686 35.288 61.7739 35.2133 61.3793 35.128C60.9953 35.0427 60.6433 34.92 60.3233 34.76C60.0033 34.5893 59.7419 34.36 59.5393 34.072C59.3473 33.784 59.2513 33.4 59.2513 32.92C59.2513 32.4613 59.3793 32.0507 59.6353 31.688C59.8913 31.3253 60.2646 31.0427 60.7553 30.84C61.2566 30.6267 61.8646 30.52 62.5793 30.52C63.1233 30.52 63.6673 30.5947 64.2113 30.744C64.7553 30.8827 65.2033 31.0693 65.5553 31.304L65.0593 32.216C64.6859 31.96 64.2859 31.7787 63.8593 31.672C63.4326 31.5547 63.0059 31.496 62.5793 31.496C61.8219 31.496 61.2619 31.6293 60.8993 31.896C60.5473 32.152 60.3713 32.4827 60.3713 32.888C60.3713 33.208 60.4673 33.4587 60.6593 33.64C60.8619 33.8213 61.1233 33.9653 61.4433 34.072C61.7739 34.168 62.1313 34.248 62.5153 34.312C62.9099 34.376 63.2993 34.456 63.6833 34.552C64.0779 34.6373 64.4353 34.76 64.7553 34.92C65.0859 35.0693 65.3473 35.288 65.5393 35.576C65.7419 35.8533 65.8433 36.2213 65.8433 36.68C65.8433 37.1707 65.7046 37.5973 65.4273 37.96C65.1606 38.312 64.7659 38.5893 64.2433 38.792C63.7313 38.984 63.1073 39.08 62.3713 39.08ZM70.1838 39.08C69.4904 39.08 68.8344 38.984 68.2158 38.792C67.5971 38.5893 67.1118 38.3387 66.7598 38.04L67.2718 37.144C67.6131 37.4 68.0504 37.624 68.5838 37.816C69.1171 37.9973 69.6771 38.088 70.2638 38.088C71.0638 38.088 71.6398 37.9653 71.9918 37.72C72.3438 37.464 72.5198 37.128 72.5198 36.712C72.5198 36.4027 72.4184 36.1627 72.2158 35.992C72.0238 35.8107 71.7678 35.6773 71.4478 35.592C71.1278 35.496 70.7704 35.416 70.3758 35.352C69.9811 35.288 69.5864 35.2133 69.1918 35.128C68.8078 35.0427 68.4558 34.92 68.1358 34.76C67.8158 34.5893 67.5544 34.36 67.3518 34.072C67.1598 33.784 67.0638 33.4 67.0638 32.92C67.0638 32.4613 67.1918 32.0507 67.4478 31.688C67.7038 31.3253 68.0771 31.0427 68.5678 30.84C69.0691 30.6267 69.6771 30.52 70.3918 30.52C70.9358 30.52 71.4798 30.5947 72.0238 30.744C72.5678 30.8827 73.0158 31.0693 73.3678 31.304L72.8718 32.216C72.4984 31.96 72.0984 31.7787 71.6718 31.672C71.2451 31.5547 70.8184 31.496 70.3918 31.496C69.6344 31.496 69.0744 31.6293 68.7118 31.896C68.3598 32.152 68.1838 32.4827 68.1838 32.888C68.1838 33.208 68.2798 33.4587 68.4718 33.64C68.6744 33.8213 68.9358 33.9653 69.2558 34.072C69.5864 34.168 69.9438 34.248 70.3278 34.312C70.7224 34.376 71.1118 34.456 71.4958 34.552C71.8904 34.6373 72.2478 34.76 72.5678 34.92C72.8984 35.0693 73.1598 35.288 73.3518 35.576C73.5544 35.8533 73.6558 36.2213 73.6558 36.68C73.6558 37.1707 73.5171 37.5973 73.2398 37.96C72.9731 38.312 72.5784 38.5893 72.0558 38.792C71.5438 38.984 70.9198 39.08 70.1838 39.08ZM79.3083 39.08C78.4336 39.08 77.6656 38.8987 77.0043 38.536C76.3429 38.1627 75.8256 37.656 75.4523 37.016C75.0789 36.3653 74.8923 35.624 74.8923 34.792C74.8923 33.96 75.0683 33.224 75.4203 32.584C75.7829 31.944 76.2736 31.4427 76.8923 31.08C77.5216 30.7067 78.2256 30.52 79.0043 30.52C79.7936 30.52 80.4923 30.7013 81.1003 31.064C81.7189 31.416 82.2043 31.9173 82.5563 32.568C82.9083 33.208 83.0843 33.9493 83.0843 34.792C83.0843 34.8453 83.0789 34.904 83.0683 34.968C83.0683 35.0213 83.0683 35.08 83.0683 35.144H75.7563V34.296H82.4603L82.0123 34.632C82.0123 34.024 81.8789 33.4853 81.6123 33.016C81.3563 32.536 81.0043 32.1627 80.5563 31.896C80.1083 31.6293 79.5909 31.496 79.0043 31.496C78.4283 31.496 77.9109 31.6293 77.4523 31.896C76.9936 32.1627 76.6363 32.536 76.3803 33.016C76.1243 33.496 75.9963 34.0453 75.9963 34.664V34.84C75.9963 35.48 76.1349 36.0453 76.4123 36.536C76.7003 37.016 77.0949 37.3947 77.5963 37.672C78.1083 37.9387 78.6896 38.072 79.3403 38.072C79.8523 38.072 80.3269 37.9813 80.7643 37.8C81.2123 37.6187 81.5963 37.3413 81.9163 36.968L82.5563 37.704C82.1829 38.152 81.7136 38.4933 81.1483 38.728C80.5936 38.9627 79.9803 39.08 79.3083 39.08ZM87.6525 39.08C86.9592 39.08 86.3032 38.984 85.6845 38.792C85.0658 38.5893 84.5805 38.3387 84.2285 38.04L84.7405 37.144C85.0818 37.4 85.5192 37.624 86.0525 37.816C86.5858 37.9973 87.1458 38.088 87.7325 38.088C88.5325 38.088 89.1085 37.9653 89.4605 37.72C89.8125 37.464 89.9885 37.128 89.9885 36.712C89.9885 36.4027 89.8872 36.1627 89.6845 35.992C89.4925 35.8107 89.2365 35.6773 88.9165 35.592C88.5965 35.496 88.2392 35.416 87.8445 35.352C87.4498 35.288 87.0552 35.2133 86.6605 35.128C86.2765 35.0427 85.9245 34.92 85.6045 34.76C85.2845 34.5893 85.0232 34.36 84.8205 34.072C84.6285 33.784 84.5325 33.4 84.5325 32.92C84.5325 32.4613 84.6605 32.0507 84.9165 31.688C85.1725 31.3253 85.5458 31.0427 86.0365 30.84C86.5378 30.6267 87.1458 30.52 87.8605 30.52C88.4045 30.52 88.9485 30.5947 89.4925 30.744C90.0365 30.8827 90.4845 31.0693 90.8365 31.304L90.3405 32.216C89.9672 31.96 89.5672 31.7787 89.1405 31.672C88.7138 31.5547 88.2872 31.496 87.8605 31.496C87.1032 31.496 86.5432 31.6293 86.1805 31.896C85.8285 32.152 85.6525 32.4827 85.6525 32.888C85.6525 33.208 85.7485 33.4587 85.9405 33.64C86.1432 33.8213 86.4045 33.9653 86.7245 34.072C87.0552 34.168 87.4125 34.248 87.7965 34.312C88.1912 34.376 88.5805 34.456 88.9645 34.552C89.3592 34.6373 89.7165 34.76 90.0365 34.92C90.3672 35.0693 90.6285 35.288 90.8205 35.576C91.0232 35.8533 91.1245 36.2213 91.1245 36.68C91.1245 37.1707 90.9858 37.5973 90.7085 37.96C90.4418 38.312 90.0472 38.5893 89.5245 38.792C89.0125 38.984 88.3885 39.08 87.6525 39.08Z" fill="#F2EEEB"/>
</g>
<g id="Frame 13_2" filter="url(#filter0_d_393_3501)">
<rect x="280" y="18" width="103" height="33" rx="16.5" fill="#2A449E" shape-rendering="crispEdges"/>
<path id="Kup teraz" d="M305.136 36.912L305.1 35.832L310.188 30.6H311.208L307.5 34.488L306.996 35.028L305.136 36.912ZM304.368 39V30.6H305.256V39H304.368ZM310.404 39L306.78 34.824L307.38 34.176L311.46 39H310.404ZM315.101 39.06C314.565 39.06 314.097 38.96 313.697 38.76C313.297 38.56 312.985 38.26 312.761 37.86C312.545 37.46 312.437 36.96 312.437 36.36V32.7H313.289V36.264C313.289 36.936 313.453 37.444 313.781 37.788C314.117 38.124 314.585 38.292 315.185 38.292C315.625 38.292 316.005 38.204 316.325 38.028C316.653 37.844 316.901 37.58 317.069 37.236C317.245 36.892 317.333 36.48 317.333 36V32.7H318.185V39H317.369V37.272L317.501 37.584C317.301 38.048 316.989 38.412 316.565 38.676C316.149 38.932 315.661 39.06 315.101 39.06ZM323.811 39.06C323.267 39.06 322.775 38.936 322.335 38.688C321.895 38.432 321.543 38.068 321.279 37.596C321.023 37.116 320.895 36.532 320.895 35.844C320.895 35.156 321.023 34.576 321.279 34.104C321.535 33.624 321.883 33.26 322.323 33.012C322.763 32.764 323.259 32.64 323.811 32.64C324.411 32.64 324.947 32.776 325.419 33.048C325.899 33.312 326.275 33.688 326.547 34.176C326.819 34.656 326.955 35.212 326.955 35.844C326.955 36.484 326.819 37.044 326.547 37.524C326.275 38.004 325.899 38.38 325.419 38.652C324.947 38.924 324.411 39.06 323.811 39.06ZM320.559 41.328V32.7H321.375V34.596L321.291 35.856L321.411 37.128V41.328H320.559ZM323.751 38.304C324.199 38.304 324.599 38.204 324.951 38.004C325.303 37.796 325.583 37.508 325.791 37.14C325.999 36.764 326.103 36.332 326.103 35.844C326.103 35.356 325.999 34.928 325.791 34.56C325.583 34.192 325.303 33.904 324.951 33.696C324.599 33.488 324.199 33.384 323.751 33.384C323.303 33.384 322.899 33.488 322.539 33.696C322.187 33.904 321.907 34.192 321.699 34.56C321.499 34.928 321.399 35.356 321.399 35.844C321.399 36.332 321.499 36.764 321.699 37.14C321.907 37.508 322.187 37.796 322.539 38.004C322.899 38.204 323.303 38.304 323.751 38.304ZM333.825 39.06C333.233 39.06 332.777 38.9 332.457 38.58C332.137 38.26 331.977 37.808 331.977 37.224V31.308H332.829V37.176C332.829 37.544 332.921 37.828 333.105 38.028C333.297 38.228 333.569 38.328 333.921 38.328C334.297 38.328 334.609 38.22 334.857 38.004L335.157 38.616C334.989 38.768 334.785 38.88 334.545 38.952C334.313 39.024 334.073 39.06 333.825 39.06ZM330.849 33.408V32.7H334.749V33.408H330.849ZM339.161 39.06C338.505 39.06 337.929 38.924 337.433 38.652C336.937 38.372 336.549 37.992 336.269 37.512C335.989 37.024 335.849 36.468 335.849 35.844C335.849 35.22 335.981 34.668 336.245 34.188C336.517 33.708 336.885 33.332 337.349 33.06C337.821 32.78 338.349 32.64 338.933 32.64C339.525 32.64 340.049 32.776 340.505 33.048C340.969 33.312 341.333 33.688 341.597 34.176C341.861 34.656 341.993 35.212 341.993 35.844C341.993 35.884 341.989 35.928 341.981 35.976C341.981 36.016 341.981 36.06 341.981 36.108H336.497V35.472H341.525L341.189 35.724C341.189 35.268 341.089 34.864 340.889 34.512C340.697 34.152 340.433 33.872 340.097 33.672C339.761 33.472 339.373 33.372 338.933 33.372C338.501 33.372 338.113 33.472 337.769 33.672C337.425 33.872 337.157 34.152 336.965 34.512C336.773 34.872 336.677 35.284 336.677 35.748V35.88C336.677 36.36 336.781 36.784 336.989 37.152C337.205 37.512 337.501 37.796 337.877 38.004C338.261 38.204 338.697 38.304 339.185 38.304C339.569 38.304 339.925 38.236 340.253 38.1C340.589 37.964 340.877 37.756 341.117 37.476L341.597 38.028C341.317 38.364 340.965 38.62 340.541 38.796C340.125 38.972 339.665 39.06 339.161 39.06ZM343.727 39V32.7H344.543V34.416L344.459 34.116C344.635 33.636 344.931 33.272 345.347 33.024C345.763 32.768 346.279 32.64 346.895 32.64V33.468C346.863 33.468 346.831 33.468 346.799 33.468C346.767 33.46 346.735 33.456 346.703 33.456C346.039 33.456 345.519 33.66 345.143 34.068C344.767 34.468 344.579 35.04 344.579 35.784V39H343.727ZM351.929 39V37.608L351.893 37.38V35.052C351.893 34.516 351.741 34.104 351.437 33.816C351.141 33.528 350.697 33.384 350.105 33.384C349.697 33.384 349.309 33.452 348.941 33.588C348.573 33.724 348.261 33.904 348.005 34.128L347.621 33.492C347.941 33.22 348.325 33.012 348.773 32.868C349.221 32.716 349.693 32.64 350.189 32.64C351.005 32.64 351.633 32.844 352.073 33.252C352.521 33.652 352.745 34.264 352.745 35.088V39H351.929ZM349.757 39.06C349.285 39.06 348.873 38.984 348.521 38.832C348.177 38.672 347.913 38.456 347.729 38.184C347.545 37.904 347.453 37.584 347.453 37.224C347.453 36.896 347.529 36.6 347.681 36.336C347.841 36.064 348.097 35.848 348.449 35.688C348.809 35.52 349.289 35.436 349.889 35.436H352.061V36.072H349.913C349.305 36.072 348.881 36.18 348.641 36.396C348.409 36.612 348.293 36.88 348.293 37.2C348.293 37.56 348.433 37.848 348.713 38.064C348.993 38.28 349.385 38.388 349.889 38.388C350.369 38.388 350.781 38.28 351.125 38.064C351.477 37.84 351.733 37.52 351.893 37.104L352.085 37.692C351.925 38.108 351.645 38.44 351.245 38.688C350.853 38.936 350.357 39.06 349.757 39.06ZM354.375 39V38.436L358.575 33.12L358.755 33.408H354.447V32.7H359.427V33.252L355.239 38.58L355.023 38.292H359.511V39H354.375Z" fill="white"/>
<rect x="280.375" y="18.375" width="102.25" height="32.25" rx="16.125" stroke="#1E3A9E" stroke-width="0.75" shape-rendering="crispEdges"/>
</g>
</g>
<defs>
<filter id="filter0_d_393_3501" x="278.5" y="18" width="106" height="36" filterUnits="userSpaceOnUse" color-interpolation-filters="sRGB">
<feFlood flood-opacity="0" result="BackgroundImageFix"/>
<feColorMatrix in="SourceAlpha" type="matrix" values="0 0 0 0 0 0 0 0 0 0 0 0 0 0 0 0 0 0 127 0" result="hardAlpha"/>
<feOffset dy="1.5"/>
<feGaussianBlur stdDeviation="0.75"/>
<feComposite in2="hardAlpha" operator="out"/>
<feColorMatrix type="matrix" values="0 0 0 0 0 0 0 0 0 0 0 0 0 0 0 0 0 0 0.25 0"/>
<feBlend mode="normal" in2="BackgroundImageFix" result="effect1_dropShadow_393_3501"/>
<feBlend mode="normal" in="SourceGraphic" in2="effect1_dropShadow_393_3501" result="shape"/>
</filter>
</defs>
</svg>
