<svg width="1440" height="138" viewBox="0 0 1440 138" fill="none" xmlns="http://www.w3.org/2000/svg">
<g id="G&#195;&#179;ra 1">
<path id="Rectangle 1" d="M0 18H1440V78H0V18Z" fill="black" fill-opacity="0.6"/>
<g id="Frame 1" filter="url(#filter0_d_182_276)">
<rect x="1278" y="24" width="144" height="49" rx="24.5" fill="#2A449E" shape-rendering="crispEdges"/>
<path id="Kup teraz" d="M1297.27 52.824L1297.2 50.664L1307.38 40.2H1309.42L1302 47.976L1300.99 49.056L1297.27 52.824ZM1295.74 57V40.2H1297.51V57H1295.74ZM1307.81 57L1300.56 48.648L1301.76 47.352L1309.92 57H1307.81ZM1317.2 57.12C1316.13 57.12 1315.19 56.92 1314.39 56.52C1313.59 56.12 1312.97 55.52 1312.52 54.72C1312.09 53.92 1311.87 52.92 1311.87 51.72V44.4H1313.58V51.528C1313.58 52.872 1313.91 53.888 1314.56 54.576C1315.23 55.248 1316.17 55.584 1317.37 55.584C1318.25 55.584 1319.01 55.408 1319.65 55.056C1320.31 54.688 1320.8 54.16 1321.14 53.472C1321.49 52.784 1321.67 51.96 1321.67 51V44.4H1323.37V57H1321.74V53.544L1322 54.168C1321.6 55.096 1320.98 55.824 1320.13 56.352C1319.3 56.864 1318.32 57.12 1317.2 57.12ZM1334.62 57.12C1333.53 57.12 1332.55 56.872 1331.67 56.376C1330.79 55.864 1330.09 55.136 1329.56 54.192C1329.05 53.232 1328.79 52.064 1328.79 50.688C1328.79 49.312 1329.05 48.152 1329.56 47.208C1330.07 46.248 1330.77 45.52 1331.65 45.024C1332.53 44.528 1333.52 44.28 1334.62 44.28C1335.82 44.28 1336.89 44.552 1337.84 45.096C1338.8 45.624 1339.55 46.376 1340.09 47.352C1340.64 48.312 1340.91 49.424 1340.91 50.688C1340.91 51.968 1340.64 53.088 1340.09 54.048C1339.55 55.008 1338.8 55.76 1337.84 56.304C1336.89 56.848 1335.82 57.12 1334.62 57.12ZM1328.12 61.656V44.4H1329.75V48.192L1329.58 50.712L1329.82 53.256V61.656H1328.12ZM1334.5 55.608C1335.4 55.608 1336.2 55.408 1336.9 55.008C1337.61 54.592 1338.17 54.016 1338.58 53.28C1339 52.528 1339.21 51.664 1339.21 50.688C1339.21 49.712 1339 48.856 1338.58 48.12C1338.17 47.384 1337.61 46.808 1336.9 46.392C1336.2 45.976 1335.4 45.768 1334.5 45.768C1333.61 45.768 1332.8 45.976 1332.08 46.392C1331.37 46.808 1330.81 47.384 1330.4 48.12C1330 48.856 1329.8 49.712 1329.8 50.688C1329.8 51.664 1330 52.528 1330.4 53.28C1330.81 54.016 1331.37 54.592 1332.08 55.008C1332.8 55.408 1333.61 55.608 1334.5 55.608ZM1354.65 57.12C1353.47 57.12 1352.55 56.8 1351.91 56.16C1351.27 55.52 1350.95 54.616 1350.95 53.448V41.616H1352.66V53.352C1352.66 54.088 1352.84 54.656 1353.21 55.056C1353.59 55.456 1354.14 55.656 1354.84 55.656C1355.59 55.656 1356.22 55.44 1356.71 55.008L1357.31 56.232C1356.98 56.536 1356.57 56.76 1356.09 56.904C1355.63 57.048 1355.15 57.12 1354.65 57.12ZM1348.7 45.816V44.4H1356.5V45.816H1348.7ZM1365.32 57.12C1364.01 57.12 1362.86 56.848 1361.87 56.304C1360.87 55.744 1360.1 54.984 1359.54 54.024C1358.98 53.048 1358.7 51.936 1358.7 50.688C1358.7 49.44 1358.96 48.336 1359.49 47.376C1360.03 46.416 1360.77 45.664 1361.7 45.12C1362.64 44.56 1363.7 44.28 1364.87 44.28C1366.05 44.28 1367.1 44.552 1368.01 45.096C1368.94 45.624 1369.67 46.376 1370.19 47.352C1370.72 48.312 1370.99 49.424 1370.99 50.688C1370.99 50.768 1370.98 50.856 1370.96 50.952C1370.96 51.032 1370.96 51.12 1370.96 51.216H1359.99V49.944H1370.05L1369.38 50.448C1369.38 49.536 1369.18 48.728 1368.78 48.024C1368.39 47.304 1367.87 46.744 1367.19 46.344C1366.52 45.944 1365.75 45.744 1364.87 45.744C1364 45.744 1363.23 45.944 1362.54 46.344C1361.85 46.744 1361.31 47.304 1360.93 48.024C1360.55 48.744 1360.35 49.568 1360.35 50.496V50.76C1360.35 51.72 1360.56 52.568 1360.98 53.304C1361.41 54.024 1362 54.592 1362.75 55.008C1363.52 55.408 1364.39 55.608 1365.37 55.608C1366.14 55.608 1366.85 55.472 1367.51 55.2C1368.18 54.928 1368.75 54.512 1369.23 53.952L1370.19 55.056C1369.63 55.728 1368.93 56.24 1368.08 56.592C1367.25 56.944 1366.33 57.12 1365.32 57.12ZM1374.45 57V44.4H1376.09V47.832L1375.92 47.232C1376.27 46.272 1376.86 45.544 1377.69 45.048C1378.53 44.536 1379.56 44.28 1380.79 44.28V45.936C1380.73 45.936 1380.66 45.936 1380.6 45.936C1380.53 45.92 1380.47 45.912 1380.41 45.912C1379.08 45.912 1378.04 46.32 1377.29 47.136C1376.53 47.936 1376.16 49.08 1376.16 50.568V57H1374.45ZM1390.86 57V54.216L1390.79 53.76V49.104C1390.79 48.032 1390.48 47.208 1389.87 46.632C1389.28 46.056 1388.39 45.768 1387.21 45.768C1386.39 45.768 1385.62 45.904 1384.88 46.176C1384.15 46.448 1383.52 46.808 1383.01 47.256L1382.24 45.984C1382.88 45.44 1383.65 45.024 1384.55 44.736C1385.44 44.432 1386.39 44.28 1387.38 44.28C1389.01 44.28 1390.27 44.688 1391.15 45.504C1392.04 46.304 1392.49 47.528 1392.49 49.176V57H1390.86ZM1386.51 57.12C1385.57 57.12 1384.75 56.968 1384.04 56.664C1383.35 56.344 1382.83 55.912 1382.46 55.368C1382.09 54.808 1381.91 54.168 1381.91 53.448C1381.91 52.792 1382.06 52.2 1382.36 51.672C1382.68 51.128 1383.19 50.696 1383.9 50.376C1384.62 50.04 1385.58 49.872 1386.78 49.872H1391.12V51.144H1386.83C1385.61 51.144 1384.76 51.36 1384.28 51.792C1383.82 52.224 1383.59 52.76 1383.59 53.4C1383.59 54.12 1383.87 54.696 1384.43 55.128C1384.99 55.56 1385.77 55.776 1386.78 55.776C1387.74 55.776 1388.56 55.56 1389.25 55.128C1389.95 54.68 1390.47 54.04 1390.79 53.208L1391.17 54.384C1390.85 55.216 1390.29 55.88 1389.49 56.376C1388.71 56.872 1387.71 57.12 1386.51 57.12ZM1395.75 57V55.872L1404.15 45.24L1404.51 45.816H1395.89V44.4H1405.85V45.504L1397.48 56.16L1397.05 55.584H1406.02V57H1395.75Z" fill="white"/>
<rect x="1279" y="25" width="142" height="47" rx="23.5" stroke="#1E3A9E" stroke-width="2" shape-rendering="crispEdges"/>
</g>
<path id="Akcesoria" d="M487.048 57L494.728 40.2H496.48L504.16 57H502.288L495.232 41.232H495.952L488.896 57H487.048ZM490.072 52.512L490.6 51.072H500.368L500.896 52.512H490.072ZM507.923 53.736L507.971 51.552L515.819 44.4H517.907L512.363 49.704L511.403 50.52L507.923 53.736ZM506.579 57V39.192H508.283V57H506.579ZM516.347 57L511.091 50.448L512.195 49.128L518.435 57H516.347ZM525.733 57.12C524.485 57.12 523.365 56.848 522.373 56.304C521.397 55.744 520.629 54.984 520.069 54.024C519.509 53.048 519.229 51.936 519.229 50.688C519.229 49.424 519.509 48.312 520.069 47.352C520.629 46.392 521.397 45.64 522.373 45.096C523.365 44.552 524.485 44.28 525.733 44.28C526.805 44.28 527.773 44.488 528.637 44.904C529.501 45.32 530.181 45.944 530.677 46.776L529.405 47.64C528.973 47 528.437 46.528 527.797 46.224C527.157 45.92 526.461 45.768 525.709 45.768C524.813 45.768 524.005 45.976 523.285 46.392C522.565 46.792 521.997 47.36 521.581 48.096C521.165 48.832 520.957 49.696 520.957 50.688C520.957 51.68 521.165 52.544 521.581 53.28C521.997 54.016 522.565 54.592 523.285 55.008C524.005 55.408 524.813 55.608 525.709 55.608C526.461 55.608 527.157 55.456 527.797 55.152C528.437 54.848 528.973 54.384 529.405 53.76L530.677 54.624C530.181 55.44 529.501 56.064 528.637 56.496C527.773 56.912 526.805 57.12 525.733 57.12ZM539.166 57.12C537.854 57.12 536.702 56.848 535.71 56.304C534.718 55.744 533.942 54.984 533.382 54.024C532.822 53.048 532.542 51.936 532.542 50.688C532.542 49.44 532.806 48.336 533.334 47.376C533.878 46.416 534.614 45.664 535.542 45.12C536.486 44.56 537.542 44.28 538.71 44.28C539.894 44.28 540.942 44.552 541.854 45.096C542.782 45.624 543.51 46.376 544.038 47.352C544.566 48.312 544.83 49.424 544.83 50.688C544.83 50.768 544.822 50.856 544.806 50.952C544.806 51.032 544.806 51.12 544.806 51.216H533.838V49.944H543.894L543.222 50.448C543.222 49.536 543.022 48.728 542.622 48.024C542.238 47.304 541.71 46.744 541.038 46.344C540.366 45.944 539.59 45.744 538.71 45.744C537.846 45.744 537.07 45.944 536.382 46.344C535.694 46.744 535.158 47.304 534.774 48.024C534.39 48.744 534.198 49.568 534.198 50.496V50.76C534.198 51.72 534.406 52.568 534.822 53.304C535.254 54.024 535.846 54.592 536.598 55.008C537.366 55.408 538.238 55.608 539.214 55.608C539.982 55.608 540.694 55.472 541.35 55.2C542.022 54.928 542.598 54.512 543.078 53.952L544.038 55.056C543.478 55.728 542.774 56.24 541.926 56.592C541.094 56.944 540.174 57.12 539.166 57.12ZM551.682 57.12C550.642 57.12 549.658 56.976 548.73 56.688C547.802 56.384 547.074 56.008 546.546 55.56L547.314 54.216C547.826 54.6 548.482 54.936 549.282 55.224C550.082 55.496 550.922 55.632 551.802 55.632C553.002 55.632 553.866 55.448 554.394 55.08C554.922 54.696 555.186 54.192 555.186 53.568C555.186 53.104 555.034 52.744 554.73 52.488C554.442 52.216 554.058 52.016 553.578 51.888C553.098 51.744 552.562 51.624 551.97 51.528C551.378 51.432 550.786 51.32 550.194 51.192C549.618 51.064 549.09 50.88 548.61 50.64C548.13 50.384 547.738 50.04 547.434 49.608C547.146 49.176 547.002 48.6 547.002 47.88C547.002 47.192 547.194 46.576 547.578 46.032C547.962 45.488 548.522 45.064 549.258 44.76C550.01 44.44 550.922 44.28 551.994 44.28C552.81 44.28 553.626 44.392 554.442 44.616C555.258 44.824 555.93 45.104 556.458 45.456L555.714 46.824C555.154 46.44 554.554 46.168 553.914 46.008C553.274 45.832 552.634 45.744 551.994 45.744C550.858 45.744 550.018 45.944 549.474 46.344C548.946 46.728 548.682 47.224 548.682 47.832C548.682 48.312 548.826 48.688 549.114 48.96C549.418 49.232 549.81 49.448 550.29 49.608C550.786 49.752 551.322 49.872 551.898 49.968C552.49 50.064 553.074 50.184 553.65 50.328C554.242 50.456 554.778 50.64 555.258 50.88C555.754 51.104 556.146 51.432 556.434 51.864C556.738 52.28 556.89 52.832 556.89 53.52C556.89 54.256 556.682 54.896 556.266 55.44C555.866 55.968 555.274 56.384 554.49 56.688C553.722 56.976 552.786 57.12 551.682 57.12ZM565.153 57.12C563.937 57.12 562.841 56.848 561.865 56.304C560.905 55.744 560.145 54.984 559.585 54.024C559.025 53.048 558.745 51.936 558.745 50.688C558.745 49.424 559.025 48.312 559.585 47.352C560.145 46.392 560.905 45.64 561.865 45.096C562.825 44.552 563.921 44.28 565.153 44.28C566.401 44.28 567.505 44.552 568.465 45.096C569.441 45.64 570.201 46.392 570.745 47.352C571.305 48.312 571.585 49.424 571.585 50.688C571.585 51.936 571.305 53.048 570.745 54.024C570.201 54.984 569.441 55.744 568.465 56.304C567.489 56.848 566.385 57.12 565.153 57.12ZM565.153 55.608C566.065 55.608 566.873 55.408 567.577 55.008C568.281 54.592 568.833 54.016 569.233 53.28C569.649 52.528 569.857 51.664 569.857 50.688C569.857 49.696 569.649 48.832 569.233 48.096C568.833 47.36 568.281 46.792 567.577 46.392C566.873 45.976 566.073 45.768 565.177 45.768C564.281 45.768 563.481 45.976 562.777 46.392C562.073 46.792 561.513 47.36 561.097 48.096C560.681 48.832 560.473 49.696 560.473 50.688C560.473 51.664 560.681 52.528 561.097 53.28C561.513 54.016 562.073 54.592 562.777 55.008C563.481 55.408 564.273 55.608 565.153 55.608ZM575.064 57V44.4H576.696V47.832L576.528 47.232C576.88 46.272 577.472 45.544 578.304 45.048C579.136 44.536 580.168 44.28 581.4 44.28V45.936C581.336 45.936 581.272 45.936 581.208 45.936C581.144 45.92 581.08 45.912 581.016 45.912C579.688 45.912 578.648 46.32 577.896 47.136C577.144 47.936 576.768 49.08 576.768 50.568V57H575.064ZM584.509 57V44.4H586.213V57H584.509ZM585.373 41.616C585.021 41.616 584.725 41.496 584.485 41.256C584.245 41.016 584.125 40.728 584.125 40.392C584.125 40.056 584.245 39.776 584.485 39.552C584.725 39.312 585.021 39.192 585.373 39.192C585.725 39.192 586.021 39.304 586.261 39.528C586.501 39.752 586.621 40.032 586.621 40.368C586.621 40.72 586.501 41.016 586.261 41.256C586.037 41.496 585.741 41.616 585.373 41.616ZM598.85 57V54.216L598.778 53.76V49.104C598.778 48.032 598.474 47.208 597.866 46.632C597.274 46.056 596.386 45.768 595.202 45.768C594.386 45.768 593.61 45.904 592.874 46.176C592.138 46.448 591.514 46.808 591.002 47.256L590.234 45.984C590.874 45.44 591.642 45.024 592.538 44.736C593.434 44.432 594.378 44.28 595.37 44.28C597.002 44.28 598.258 44.688 599.138 45.504C600.034 46.304 600.482 47.528 600.482 49.176V57H598.85ZM594.506 57.12C593.562 57.12 592.738 56.968 592.034 56.664C591.346 56.344 590.818 55.912 590.45 55.368C590.082 54.808 589.898 54.168 589.898 53.448C589.898 52.792 590.05 52.2 590.354 51.672C590.674 51.128 591.186 50.696 591.89 50.376C592.61 50.04 593.57 49.872 594.77 49.872H599.114V51.144H594.818C593.602 51.144 592.754 51.36 592.274 51.792C591.81 52.224 591.578 52.76 591.578 53.4C591.578 54.12 591.858 54.696 592.418 55.128C592.978 55.56 593.762 55.776 594.77 55.776C595.73 55.776 596.554 55.56 597.242 55.128C597.946 54.68 598.458 54.04 598.778 53.208L599.162 54.384C598.842 55.216 598.282 55.88 597.482 56.376C596.698 56.872 595.706 57.12 594.506 57.12Z" fill="#F2EEEB"/>
<path id="Sglasses" d="M352.368 57.144C351.12 57.144 349.92 56.944 348.768 56.544C347.632 56.128 346.752 55.6 346.128 54.96L346.824 53.592C347.416 54.168 348.208 54.656 349.2 55.056C350.208 55.44 351.264 55.632 352.368 55.632C353.424 55.632 354.28 55.504 354.936 55.248C355.608 54.976 356.096 54.616 356.4 54.168C356.72 53.72 356.88 53.224 356.88 52.68C356.88 52.024 356.688 51.496 356.304 51.096C355.936 50.696 355.448 50.384 354.84 50.16C354.232 49.92 353.56 49.712 352.824 49.536C352.088 49.36 351.352 49.176 350.616 48.984C349.88 48.776 349.2 48.504 348.576 48.168C347.968 47.832 347.472 47.392 347.088 46.848C346.72 46.288 346.536 45.56 346.536 44.664C346.536 43.832 346.752 43.072 347.184 42.384C347.632 41.68 348.312 41.12 349.224 40.704C350.136 40.272 351.304 40.056 352.728 40.056C353.672 40.056 354.608 40.192 355.536 40.464C356.464 40.72 357.264 41.08 357.936 41.544L357.336 42.96C356.616 42.48 355.848 42.128 355.032 41.904C354.232 41.68 353.456 41.568 352.704 41.568C351.696 41.568 350.864 41.704 350.208 41.976C349.552 42.248 349.064 42.616 348.744 43.08C348.44 43.528 348.288 44.04 348.288 44.616C348.288 45.272 348.472 45.8 348.84 46.2C349.224 46.6 349.72 46.912 350.328 47.136C350.952 47.36 351.632 47.56 352.368 47.736C353.104 47.912 353.832 48.104 354.552 48.312C355.288 48.52 355.96 48.792 356.568 49.128C357.192 49.448 357.688 49.88 358.056 50.424C358.44 50.968 358.632 51.68 358.632 52.56C358.632 53.376 358.408 54.136 357.96 54.84C357.512 55.528 356.824 56.088 355.896 56.52C354.984 56.936 353.808 57.144 352.368 57.144ZM367.518 61.776C366.366 61.776 365.262 61.608 364.206 61.272C363.15 60.936 362.294 60.456 361.638 59.832L362.502 58.536C363.094 59.064 363.822 59.48 364.686 59.784C365.566 60.104 366.494 60.264 367.47 60.264C369.07 60.264 370.246 59.888 370.998 59.136C371.75 58.4 372.126 57.248 372.126 55.68V52.536L372.366 50.376L372.198 48.216V44.4H373.83V55.464C373.83 57.64 373.294 59.232 372.222 60.24C371.166 61.264 369.598 61.776 367.518 61.776ZM367.206 56.52C366.006 56.52 364.926 56.264 363.966 55.752C363.006 55.224 362.246 54.496 361.686 53.568C361.142 52.64 360.87 51.576 360.87 50.376C360.87 49.176 361.142 48.12 361.686 47.208C362.246 46.28 363.006 45.56 363.966 45.048C364.926 44.536 366.006 44.28 367.206 44.28C368.326 44.28 369.334 44.512 370.23 44.976C371.126 45.44 371.838 46.128 372.366 47.04C372.894 47.952 373.158 49.064 373.158 50.376C373.158 51.688 372.894 52.8 372.366 53.712C371.838 54.624 371.126 55.32 370.23 55.8C369.334 56.28 368.326 56.52 367.206 56.52ZM367.374 55.008C368.302 55.008 369.126 54.816 369.846 54.432C370.566 54.032 371.134 53.488 371.55 52.8C371.966 52.096 372.174 51.288 372.174 50.376C372.174 49.464 371.966 48.664 371.55 47.976C371.134 47.288 370.566 46.752 369.846 46.368C369.126 45.968 368.302 45.768 367.374 45.768C366.462 45.768 365.638 45.968 364.902 46.368C364.182 46.752 363.614 47.288 363.198 47.976C362.798 48.664 362.598 49.464 362.598 50.376C362.598 51.288 362.798 52.096 363.198 52.8C363.614 53.488 364.182 54.032 364.902 54.432C365.638 54.816 366.462 55.008 367.374 55.008ZM378.571 57V39.192H380.275V57H378.571ZM392.913 57V54.216L392.841 53.76V49.104C392.841 48.032 392.537 47.208 391.929 46.632C391.337 46.056 390.449 45.768 389.265 45.768C388.449 45.768 387.673 45.904 386.937 46.176C386.201 46.448 385.577 46.808 385.065 47.256L384.297 45.984C384.937 45.44 385.705 45.024 386.601 44.736C387.497 44.432 388.441 44.28 389.433 44.28C391.065 44.28 392.321 44.688 393.201 45.504C394.097 46.304 394.545 47.528 394.545 49.176V57H392.913ZM388.569 57.12C387.625 57.12 386.801 56.968 386.097 56.664C385.409 56.344 384.881 55.912 384.513 55.368C384.145 54.808 383.961 54.168 383.961 53.448C383.961 52.792 384.113 52.2 384.417 51.672C384.737 51.128 385.249 50.696 385.953 50.376C386.673 50.04 387.633 49.872 388.833 49.872H393.177V51.144H388.881C387.665 51.144 386.817 51.36 386.337 51.792C385.873 52.224 385.641 52.76 385.641 53.4C385.641 54.12 385.921 54.696 386.481 55.128C387.041 55.56 387.825 55.776 388.833 55.776C389.793 55.776 390.617 55.56 391.305 55.128C392.009 54.68 392.521 54.04 392.841 53.208L393.225 54.384C392.905 55.216 392.345 55.88 391.545 56.376C390.761 56.872 389.769 57.12 388.569 57.12ZM402.557 57.12C401.517 57.12 400.533 56.976 399.605 56.688C398.677 56.384 397.949 56.008 397.421 55.56L398.189 54.216C398.701 54.6 399.357 54.936 400.157 55.224C400.957 55.496 401.797 55.632 402.677 55.632C403.877 55.632 404.741 55.448 405.269 55.08C405.797 54.696 406.061 54.192 406.061 53.568C406.061 53.104 405.909 52.744 405.605 52.488C405.317 52.216 404.933 52.016 404.453 51.888C403.973 51.744 403.437 51.624 402.845 51.528C402.253 51.432 401.661 51.32 401.069 51.192C400.493 51.064 399.965 50.88 399.485 50.64C399.005 50.384 398.613 50.04 398.309 49.608C398.021 49.176 397.877 48.6 397.877 47.88C397.877 47.192 398.069 46.576 398.453 46.032C398.837 45.488 399.397 45.064 400.133 44.76C400.885 44.44 401.797 44.28 402.869 44.28C403.685 44.28 404.501 44.392 405.317 44.616C406.133 44.824 406.805 45.104 407.333 45.456L406.589 46.824C406.029 46.44 405.429 46.168 404.789 46.008C404.149 45.832 403.509 45.744 402.869 45.744C401.733 45.744 400.893 45.944 400.349 46.344C399.821 46.728 399.557 47.224 399.557 47.832C399.557 48.312 399.701 48.688 399.989 48.96C400.293 49.232 400.685 49.448 401.165 49.608C401.661 49.752 402.197 49.872 402.773 49.968C403.365 50.064 403.949 50.184 404.525 50.328C405.117 50.456 405.653 50.64 406.133 50.88C406.629 51.104 407.021 51.432 407.309 51.864C407.613 52.28 407.765 52.832 407.765 53.52C407.765 54.256 407.557 54.896 407.141 55.44C406.741 55.968 406.149 56.384 405.365 56.688C404.597 56.976 403.661 57.12 402.557 57.12ZM414.276 57.12C413.236 57.12 412.252 56.976 411.324 56.688C410.396 56.384 409.668 56.008 409.14 55.56L409.908 54.216C410.42 54.6 411.076 54.936 411.876 55.224C412.676 55.496 413.516 55.632 414.396 55.632C415.596 55.632 416.46 55.448 416.988 55.08C417.516 54.696 417.78 54.192 417.78 53.568C417.78 53.104 417.628 52.744 417.324 52.488C417.036 52.216 416.652 52.016 416.172 51.888C415.692 51.744 415.156 51.624 414.564 51.528C413.972 51.432 413.38 51.32 412.788 51.192C412.212 51.064 411.684 50.88 411.204 50.64C410.724 50.384 410.332 50.04 410.028 49.608C409.74 49.176 409.596 48.6 409.596 47.88C409.596 47.192 409.788 46.576 410.172 46.032C410.556 45.488 411.116 45.064 411.852 44.76C412.604 44.44 413.516 44.28 414.588 44.28C415.404 44.28 416.22 44.392 417.036 44.616C417.852 44.824 418.524 45.104 419.052 45.456L418.308 46.824C417.748 46.44 417.148 46.168 416.508 46.008C415.868 45.832 415.228 45.744 414.588 45.744C413.452 45.744 412.612 45.944 412.068 46.344C411.54 46.728 411.276 47.224 411.276 47.832C411.276 48.312 411.42 48.688 411.708 48.96C412.012 49.232 412.404 49.448 412.884 49.608C413.38 49.752 413.916 49.872 414.492 49.968C415.084 50.064 415.668 50.184 416.244 50.328C416.836 50.456 417.372 50.64 417.852 50.88C418.348 51.104 418.74 51.432 419.028 51.864C419.332 52.28 419.484 52.832 419.484 53.52C419.484 54.256 419.276 54.896 418.86 55.44C418.46 55.968 417.868 56.384 417.084 56.688C416.316 56.976 415.38 57.12 414.276 57.12ZM427.962 57.12C426.65 57.12 425.498 56.848 424.506 56.304C423.514 55.744 422.738 54.984 422.178 54.024C421.618 53.048 421.338 51.936 421.338 50.688C421.338 49.44 421.602 48.336 422.13 47.376C422.674 46.416 423.41 45.664 424.338 45.12C425.282 44.56 426.338 44.28 427.506 44.28C428.69 44.28 429.738 44.552 430.65 45.096C431.578 45.624 432.306 46.376 432.834 47.352C433.362 48.312 433.626 49.424 433.626 50.688C433.626 50.768 433.618 50.856 433.602 50.952C433.602 51.032 433.602 51.12 433.602 51.216H422.634V49.944H432.69L432.018 50.448C432.018 49.536 431.818 48.728 431.418 48.024C431.034 47.304 430.506 46.744 429.834 46.344C429.162 45.944 428.386 45.744 427.506 45.744C426.642 45.744 425.866 45.944 425.178 46.344C424.49 46.744 423.954 47.304 423.57 48.024C423.186 48.744 422.994 49.568 422.994 50.496V50.76C422.994 51.72 423.202 52.568 423.618 53.304C424.05 54.024 424.642 54.592 425.394 55.008C426.162 55.408 427.034 55.608 428.01 55.608C428.778 55.608 429.49 55.472 430.146 55.2C430.818 54.928 431.394 54.512 431.874 53.952L432.834 55.056C432.274 55.728 431.57 56.24 430.722 56.592C429.89 56.944 428.97 57.12 427.962 57.12ZM440.479 57.12C439.439 57.12 438.455 56.976 437.527 56.688C436.599 56.384 435.871 56.008 435.343 55.56L436.111 54.216C436.623 54.6 437.279 54.936 438.079 55.224C438.879 55.496 439.719 55.632 440.599 55.632C441.799 55.632 442.663 55.448 443.191 55.08C443.719 54.696 443.983 54.192 443.983 53.568C443.983 53.104 443.831 52.744 443.527 52.488C443.239 52.216 442.855 52.016 442.375 51.888C441.895 51.744 441.359 51.624 440.767 51.528C440.175 51.432 439.583 51.32 438.991 51.192C438.415 51.064 437.887 50.88 437.407 50.64C436.927 50.384 436.535 50.04 436.231 49.608C435.943 49.176 435.799 48.6 435.799 47.88C435.799 47.192 435.991 46.576 436.375 46.032C436.759 45.488 437.319 45.064 438.055 44.76C438.807 44.44 439.719 44.28 440.791 44.28C441.607 44.28 442.423 44.392 443.239 44.616C444.055 44.824 444.727 45.104 445.255 45.456L444.511 46.824C443.951 46.44 443.351 46.168 442.711 46.008C442.071 45.832 441.431 45.744 440.791 45.744C439.655 45.744 438.815 45.944 438.271 46.344C437.743 46.728 437.479 47.224 437.479 47.832C437.479 48.312 437.623 48.688 437.911 48.96C438.215 49.232 438.607 49.448 439.087 49.608C439.583 49.752 440.119 49.872 440.695 49.968C441.287 50.064 441.871 50.184 442.447 50.328C443.039 50.456 443.575 50.64 444.055 50.88C444.551 51.104 444.943 51.432 445.231 51.864C445.535 52.28 445.687 52.832 445.687 53.52C445.687 54.256 445.479 54.896 445.063 55.44C444.663 55.968 444.071 56.384 443.287 56.688C442.519 56.976 441.583 57.12 440.479 57.12Z" fill="#F2EEEB"/>
<path id="Sklep" d="M250.368 57.144C249.12 57.144 247.92 56.944 246.768 56.544C245.632 56.128 244.752 55.6 244.128 54.96L244.824 53.592C245.416 54.168 246.208 54.656 247.2 55.056C248.208 55.44 249.264 55.632 250.368 55.632C251.424 55.632 252.28 55.504 252.936 55.248C253.608 54.976 254.096 54.616 254.4 54.168C254.72 53.72 254.88 53.224 254.88 52.68C254.88 52.024 254.688 51.496 254.304 51.096C253.936 50.696 253.448 50.384 252.84 50.16C252.232 49.92 251.56 49.712 250.824 49.536C250.088 49.36 249.352 49.176 248.616 48.984C247.88 48.776 247.2 48.504 246.576 48.168C245.968 47.832 245.472 47.392 245.088 46.848C244.72 46.288 244.536 45.56 244.536 44.664C244.536 43.832 244.752 43.072 245.184 42.384C245.632 41.68 246.312 41.12 247.224 40.704C248.136 40.272 249.304 40.056 250.728 40.056C251.672 40.056 252.608 40.192 253.536 40.464C254.464 40.72 255.264 41.08 255.936 41.544L255.336 42.96C254.616 42.48 253.848 42.128 253.032 41.904C252.232 41.68 251.456 41.568 250.704 41.568C249.696 41.568 248.864 41.704 248.208 41.976C247.552 42.248 247.064 42.616 246.744 43.08C246.44 43.528 246.288 44.04 246.288 44.616C246.288 45.272 246.472 45.8 246.84 46.2C247.224 46.6 247.72 46.912 248.328 47.136C248.952 47.36 249.632 47.56 250.368 47.736C251.104 47.912 251.832 48.104 252.552 48.312C253.288 48.52 253.96 48.792 254.568 49.128C255.192 49.448 255.688 49.88 256.056 50.424C256.44 50.968 256.632 51.68 256.632 52.56C256.632 53.376 256.408 54.136 255.96 54.84C255.512 55.528 254.824 56.088 253.896 56.52C252.984 56.936 251.808 57.144 250.368 57.144ZM261.486 53.736L261.534 51.552L269.382 44.4H271.47L265.926 49.704L264.966 50.52L261.486 53.736ZM260.142 57V39.192H261.846V57H260.142ZM269.91 57L264.654 50.448L265.758 49.128L271.998 57H269.91ZM274.556 57V39.192H276.26V57H274.556ZM286.353 57.12C285.041 57.12 283.889 56.848 282.897 56.304C281.905 55.744 281.129 54.984 280.569 54.024C280.009 53.048 279.729 51.936 279.729 50.688C279.729 49.44 279.993 48.336 280.521 47.376C281.065 46.416 281.801 45.664 282.729 45.12C283.673 44.56 284.729 44.28 285.897 44.28C287.081 44.28 288.129 44.552 289.041 45.096C289.969 45.624 290.697 46.376 291.225 47.352C291.753 48.312 292.017 49.424 292.017 50.688C292.017 50.768 292.009 50.856 291.993 50.952C291.993 51.032 291.993 51.12 291.993 51.216H281.025V49.944H291.081L290.409 50.448C290.409 49.536 290.209 48.728 289.809 48.024C289.425 47.304 288.897 46.744 288.225 46.344C287.553 45.944 286.777 45.744 285.897 45.744C285.033 45.744 284.257 45.944 283.569 46.344C282.881 46.744 282.345 47.304 281.961 48.024C281.577 48.744 281.385 49.568 281.385 50.496V50.76C281.385 51.72 281.593 52.568 282.009 53.304C282.441 54.024 283.033 54.592 283.785 55.008C284.553 55.408 285.425 55.608 286.401 55.608C287.169 55.608 287.881 55.472 288.537 55.2C289.209 54.928 289.785 54.512 290.265 53.952L291.225 55.056C290.665 55.728 289.961 56.24 289.113 56.592C288.281 56.944 287.361 57.12 286.353 57.12ZM301.989 57.12C300.901 57.12 299.917 56.872 299.037 56.376C298.157 55.864 297.453 55.136 296.925 54.192C296.413 53.232 296.157 52.064 296.157 50.688C296.157 49.312 296.413 48.152 296.925 47.208C297.437 46.248 298.133 45.52 299.013 45.024C299.893 44.528 300.885 44.28 301.989 44.28C303.189 44.28 304.261 44.552 305.205 45.096C306.165 45.624 306.917 46.376 307.461 47.352C308.005 48.312 308.277 49.424 308.277 50.688C308.277 51.968 308.005 53.088 307.461 54.048C306.917 55.008 306.165 55.76 305.205 56.304C304.261 56.848 303.189 57.12 301.989 57.12ZM295.485 61.656V44.4H297.117V48.192L296.949 50.712L297.189 53.256V61.656H295.485ZM301.869 55.608C302.765 55.608 303.565 55.408 304.269 55.008C304.973 54.592 305.533 54.016 305.949 53.28C306.365 52.528 306.573 51.664 306.573 50.688C306.573 49.712 306.365 48.856 305.949 48.12C305.533 47.384 304.973 46.808 304.269 46.392C303.565 45.976 302.765 45.768 301.869 45.768C300.973 45.768 300.165 45.976 299.445 46.392C298.741 46.808 298.181 47.384 297.765 48.12C297.365 48.856 297.165 49.712 297.165 50.688C297.165 51.664 297.365 52.528 297.765 53.28C298.181 54.016 298.741 54.592 299.445 55.008C300.165 55.408 300.973 55.608 301.869 55.608Z" fill="#F2EEEB"/>
<path id="WHALE" d="M108.552 57L102.888 40.2H104.712L110.016 56.016H109.104L114.576 40.2H116.208L121.608 56.016H120.744L126.096 40.2H127.8L122.136 57H120.264L115.104 42H115.584L110.4 57H108.552ZM143.344 40.2H145.096V57H143.344V40.2ZM132.832 57H131.056V40.2H132.832V57ZM143.512 49.248H132.64V47.688H143.512V49.248ZM147.892 57L155.572 40.2H157.324L165.004 57H163.132L156.076 41.232H156.796L149.74 57H147.892ZM150.916 52.512L151.444 51.072H161.212L161.74 52.512H150.916ZM167.783 57V40.2H169.559V55.464H178.967V57H167.783ZM183.5 47.712H192.38V49.224H183.5V47.712ZM183.692 55.464H193.796V57H181.916V40.2H193.436V41.736H183.692V55.464Z" fill="#F2EEEB"/>
<g id="layer1">
<path id="path1496" d="M25.1159 26.1879C42.188 47.4637 0.930395 64.1255 46.9302 44.3877C92.9301 24.6499 25.1159 26.1879 25.1159 26.1879Z" fill="#F2EEEB"/>
<path id="path1498" d="M46.5347 39.7095C60.7615 68.4191 77.3594 47.6559 77.3594 47.6559L30.8853 54.8333L62.8955 33.5575L60.9986 68.6754L46.5347 39.7095Z" fill="#F2EEEB"/>
<path id="path115" d="M43.7437 43.6661C57.9705 72.3756 74.5684 51.6125 74.5684 51.6125L28.0943 58.7898L60.1045 37.514L58.2076 72.6319L43.7437 43.6661Z" fill="#212D33"/>
<g id="g3447">
<g id="g3445">
<path id="path113" d="M22.4036 29.824C39.4757 51.0998 -1.78189 67.7616 44.218 48.0238C90.2178 28.286 22.4036 29.824 22.4036 29.824Z" fill="#212D33"/>
</g>
</g>
<g id="a3442">
<path id="path3390" d="M23.7166 30.3694C23.7166 30.3694 28.6601 34.4978 29.0399 41.0392C29.4197 47.5805 22.3909 55.119 22.4376 55.65C22.6484 58.0444 44.7237 43.8088 23.7166 30.3694Z" fill="#F2EEEB"/>
</g>
<path id="path1656" d="M52.6805 41.4974C53.9075 41.4974 54.9021 40.4221 54.9021 39.0957C54.9021 37.7693 53.9075 36.6941 52.6805 36.6941C51.4536 36.6941 50.459 37.7693 50.459 39.0957C50.459 40.4221 51.4536 41.4974 52.6805 41.4974Z" fill="#F2EEEB"/>
<path id="circle1662" d="M53.3934 38.0394C52.8596 37.3804 51.9328 37.314 51.3232 37.8911C50.7137 38.4681 50.6522 39.4701 51.186 40.1291C51.7198 40.7881 52.6466 40.8545 53.2562 40.2774C53.8657 39.7004 53.9272 38.6984 53.3934 38.0394Z" fill="#212D33"/>
<path id="circle3267" d="M52.8585 38.4776C52.5405 38.0849 51.9881 38.0453 51.6248 38.3892C51.2616 38.733 51.225 39.3302 51.5431 39.7229C51.8612 40.1156 52.4135 40.1552 52.7768 39.8113C53.14 39.4674 53.1766 38.8703 52.8585 38.4776Z" fill="white"/>
</g>
<g id="Stroke 2/shopping-cart">
<path id="Vector" d="M1192.08 59.375C1192.75 59.375 1193.29 58.8341 1193.29 58.1667C1193.29 57.4994 1192.75 56.9584 1192.08 56.9584C1191.42 56.9584 1190.88 57.4994 1190.88 58.1667C1190.88 58.8341 1191.42 59.375 1192.08 59.375Z" stroke="#F2EEEB" stroke-width="1.8125" stroke-linecap="round" stroke-linejoin="round"/>
<path id="Vector_2" d="M1201.75 59.375C1202.42 59.375 1202.96 58.8341 1202.96 58.1667C1202.96 57.4994 1202.42 56.9584 1201.75 56.9584C1201.08 56.9584 1200.54 57.4994 1200.54 58.1667C1200.54 58.8341 1201.08 59.375 1201.75 59.375Z" stroke="#F2EEEB" stroke-width="1.8125" stroke-linecap="round" stroke-linejoin="round"/>
<path id="Vector_3" d="M1182.42 37.625H1186.65C1186.65 37.625 1187.14 39.8344 1187.46 41.25C1188.1 44.0787 1188.98 47.9637 1189.5 50.243C1189.74 51.3448 1190.72 52.125 1191.85 52.125H1202.23C1203.36 52.125 1204.34 51.3383 1204.59 50.2326L1206.58 41.25" stroke="#F2EEEB" stroke-width="1.8125" stroke-linecap="round" stroke-linejoin="round"/>
<path id="Vector_4" d="M1206.58 41.25H1187.85" stroke="#F2EEEB" stroke-width="1.8125" stroke-linecap="round" stroke-linejoin="round"/>
</g>
<g id="Stroke 2/user-account-profile">
<path id="Vector_5" d="M1237.5 47.2917C1240.17 47.2917 1242.33 45.1277 1242.33 42.4583C1242.33 39.789 1240.17 37.625 1237.5 37.625C1234.83 37.625 1232.67 39.789 1232.67 42.4583C1232.67 45.1277 1234.83 47.2917 1237.5 47.2917Z" stroke="#F2EEEB" stroke-width="1.8125" stroke-linecap="round" stroke-linejoin="round"/>
<path id="Vector_6" d="M1227.83 59.375V54.5417C1227.83 53.2069 1228.92 52.125 1230.25 52.125H1244.75C1246.08 52.125 1247.17 53.2069 1247.17 54.5417V59.375" stroke="#F2EEEB" stroke-width="1.8125" stroke-linecap="round" stroke-linejoin="round"/>
</g>
<g id="Stroke 2/search">
<path id="Vector_7" d="M1157.54 54.5416L1163.58 60.5833M1160.56 46.9895C1160.56 52.8288 1155.83 57.5625 1149.99 57.5625C1144.15 57.5625 1139.42 52.8288 1139.42 46.9895C1139.42 41.1503 1144.15 36.4166 1149.99 36.4166C1155.83 36.4166 1160.56 41.1503 1160.56 46.9895Z" stroke="#F2EEEB" stroke-width="1.5" stroke-linecap="round" stroke-linejoin="round"/>
</g>
</g>
<defs>
<filter id="filter0_d_182_276" x="1274" y="24" width="152" height="57" filterUnits="userSpaceOnUse" color-interpolation-filters="sRGB">
<feFlood flood-opacity="0" result="BackgroundImageFix"/>
<feColorMatrix in="SourceAlpha" type="matrix" values="0 0 0 0 0 0 0 0 0 0 0 0 0 0 0 0 0 0 127 0" result="hardAlpha"/>
<feOffset dy="4"/>
<feGaussianBlur stdDeviation="2"/>
<feComposite in2="hardAlpha" operator="out"/>
<feColorMatrix type="matrix" values="0 0 0 0 0 0 0 0 0 0 0 0 0 0 0 0 0 0 0.25 0"/>
<feBlend mode="normal" in2="BackgroundImageFix" result="effect1_dropShadow_182_276"/>
<feBlend mode="normal" in="SourceGraphic" in2="effect1_dropShadow_182_276" result="shape"/>
</filter>
</defs>
</svg>
