<svg width="390" height="64" viewBox="0 0 390 64" fill="none" xmlns="http://www.w3.org/2000/svg">
<g id="Pasek zada&#197;&#132;">
<path id="Rectangle 70" d="M0 61.9901H390V64H0V61.9901Z" fill="black"/>
<path id="Rectangle 71" d="M0 1.99969H390V61.9901H0V1.99969Z" fill="#282828"/>
<path id="Rectangle 72" d="M0 0H390V2.00993H0V0Z" fill="black"/>
<g id="Stroke 2/account-user-person-round">
<path id="Vector" d="M343.877 38.731C345.604 35.3264 349.126 32.9947 353.189 32.9947C357.221 32.9947 360.72 35.2905 362.461 38.6523M356.671 24.6626C356.671 26.6875 355.038 28.3288 353.023 28.3288C351.009 28.3288 349.375 26.6875 349.375 24.6626C349.375 22.638 351.009 20.9966 353.023 20.9966C355.038 20.9966 356.671 22.638 356.671 24.6626ZM353.189 41.9933C344.947 41.9933 338.266 35.2785 338.266 26.9957C338.266 18.7127 344.947 11.9981 353.189 11.9981C361.431 11.9981 368.113 18.7127 368.113 26.9957C368.113 35.2785 361.431 41.9933 353.189 41.9933Z" stroke="#F2EEEB" stroke-width="1.375" stroke-linecap="round" stroke-linejoin="round"/>
</g>
<g id="Stroke 2/shopping-cart">
<path id="Vector_2" d="M296.48 40.4935C297.304 40.4935 297.972 39.822 297.972 38.9937C297.972 38.1655 297.304 37.494 296.48 37.494C295.655 37.494 294.987 38.1655 294.987 38.9937C294.987 39.822 295.655 40.4935 296.48 40.4935Z" stroke="#F2EEEB" stroke-width="1.5" stroke-linecap="round" stroke-linejoin="round"/>
<path id="Vector_3" d="M308.419 40.4935C309.243 40.4935 309.911 39.822 309.911 38.9937C309.911 38.1655 309.243 37.494 308.419 37.494C307.594 37.494 306.926 38.1655 306.926 38.9937C306.926 39.822 307.594 40.4935 308.419 40.4935Z" stroke="#F2EEEB" stroke-width="1.5" stroke-linecap="round" stroke-linejoin="round"/>
<path id="Vector_4" d="M284.541 13.4978H289.764C289.764 13.4978 290.38 16.24 290.775 17.9971C291.564 21.508 292.648 26.3301 293.284 29.1591C293.591 30.5266 294.799 31.4949 296.194 31.4949H309.009C310.408 31.4949 311.619 30.5185 311.923 29.1462L314.388 17.9971" stroke="#F2EEEB" stroke-width="1.5" stroke-linecap="round" stroke-linejoin="round"/>
<path id="Vector_5" d="M314.388 17.9971H291.256" stroke="#F2EEEB" stroke-width="1.5" stroke-linecap="round" stroke-linejoin="round"/>
</g>
<path id="Vector_6" d="M95.567 42.0318L82.2576 28.1748C78.5087 24.2718 78.7448 17.872 82.7702 14.2797C86.7636 10.716 92.8187 11.408 95.9745 15.7888L96.505 16.5253L97.0356 15.7888C100.191 11.408 106.246 10.716 110.24 14.2797C114.265 17.872 114.501 24.2718 110.752 28.1748L97.4431 42.0318C96.925 42.571 96.0851 42.571 95.567 42.0318Z" stroke="#F2EEEB" stroke-width="1.82396" stroke-linecap="round" stroke-linejoin="round"/>
<g id="Wyszukiwarka">
<g id="Stroke 2/search">
<path id="Vector_7" d="M55.9902 33.545L62.8992 40.4706M59.4447 24.8881C59.4447 31.5817 54.0315 37.0078 47.354 37.0078C40.6764 37.0078 35.2632 31.5817 35.2632 24.8881C35.2632 18.1946 40.6764 12.7685 47.354 12.7685C54.0315 12.7685 59.4447 18.1946 59.4447 24.8881Z" stroke="#F2EEEB" stroke-width="1.83333" stroke-linecap="round" stroke-linejoin="round"/>
</g>
<rect id="Rectangle 59" x="15.9185" y="14.9849" width="19.898" height="1.66213" rx="0.831064" fill="#F2EEEB"/>
<rect id="Rectangle 61" width="16.5816" height="1.66213" rx="0.831064" transform="matrix(1 0 0 -1 15.9185 25.7885)" fill="#F2EEEB"/>
<rect id="Rectangle 60" x="15.9185" y="33.2681" width="19.898" height="1.66213" rx="0.831063" fill="#F2EEEB"/>
</g>
</g>
</svg>
